<?xml version="1.0" encoding="utf-8"?>
<!-- Generator: Adobe Illustrator 15.1.0, SVG Export Plug-In . SVG Version: 6.00 Build 0)  -->
<!DOCTYPE svg PUBLIC "-//W3C//DTD SVG 1.1//EN" "http://www.w3.org/Graphics/SVG/1.1/DTD/svg11.dtd">
<svg version="1.1" id="Layer_1" xmlns="http://www.w3.org/2000/svg" xmlns:xlink="http://www.w3.org/1999/xlink" x="0px" y="0px"
	 width="43.307px" height="40px" viewBox="0 0 43.307 40" enable-background="new 0 0 43.307 40" xml:space="preserve">
<g id="def_zonder_koord">
	<path fill="#6E2771" d="M24.884,4.581c-1.438,0-2.601,1.165-2.601,2.601s1.163,2.6,2.601,2.6c1.437,0,2.601-1.165,2.601-2.6
		C27.485,5.745,26.321,4.581,24.884,4.581z M24.884,8.33c-0.636,0-1.149-0.514-1.149-1.149c0-0.635,0.515-1.15,1.149-1.15
		s1.15,0.516,1.15,1.15C26.034,7.815,25.52,8.33,24.884,8.33z"/>
	
		<radialGradient id="SVGID_1_" cx="13.2126" cy="-4.8525" r="19.182" gradientTransform="matrix(1 0 0 -1 8.3398 16.04)" gradientUnits="userSpaceOnUse">
		<stop  offset="0" style="stop-color:#B169AB"/>
		<stop  offset="0.197" style="stop-color:#AF66A9"/>
		<stop  offset="0.3888" style="stop-color:#A95DA3"/>
		<stop  offset="0.5783" style="stop-color:#9E4D9B"/>
		<stop  offset="0.7658" style="stop-color:#913691"/>
		<stop  offset="0.7678" style="stop-color:#913690"/>
	</radialGradient>
	<path fill="url(#SVGID_1_)" stroke="#6E2771" stroke-miterlimit="10" d="M40.917,25.613l-0.055-0.047
		c0.531-0.683,0.842-1.514,0.842-2.4c0-1.223-0.612-2.452-1.796-3.214C42.211,11.52,33.63,4.853,24.22,9.276
		C18.531-0.396,5.776,1.088,4.56,11.943c-0.14-0.019-0.277-0.041-0.424-0.041c-1.559,0-2.826,1.165-2.826,2.596v6.021
		c0,0.797,0.384,1.531,1.054,2.013c0.479,0.345,1.083,0.534,1.701,0.534l0.2-0.006c0.64-0.043,1.217-0.277,1.673-0.638
		C8.814,31.6,14.89,38.952,14.89,38.952s9.891-2.761,17.64-9.134c0.077-0.029,0.16-0.049,0.234-0.084
		c0.404,0.219,0.866,0.354,1.366,0.354c0.979,0,1.843-0.479,2.334-1.197l0.457,0.443c0.511,0.484,1.245,0.764,2.019,0.768h0.011
		c1.595,0,2.845-1.145,2.845-2.605C41.794,26.813,41.508,26.166,40.917,25.613z"/>
	<g>
		<path fill="#FFFFFF" d="M10.328,14.465v5.643c0,0.305-0.334,0.582-0.735,0.608c-0.249,0.017-0.483-0.069-0.615-0.209L4.95,16.359
			v4.065c0,0.32-0.369,0.612-0.813,0.641c-0.448,0.029-0.826-0.22-0.826-0.543v-6.022c0-0.324,0.378-0.596,0.826-0.596
			c0.286,0,0.515,0.093,0.657,0.249l4.053,4.263v-3.942c0-0.308,0.342-0.567,0.746-0.566C9.994,13.905,10.328,14.161,10.328,14.465z
			"/>
		<path fill="#FFFFFF" d="M13.393,18.728l-0.741,1.426c-0.109,0.208-0.346,0.387-0.667,0.409c-0.387,0.024-0.712-0.208-0.712-0.51
			c0-0.058,0.013-0.136,0.051-0.206l2.886-5.599c0.07-0.132,0.261-0.339,0.627-0.339c0.362,0,0.548,0.206,0.617,0.336l2.663,5.216
			c0.032,0.062,0.045,0.134,0.045,0.188c0,0.282-0.287,0.537-0.631,0.559c-0.289,0.019-0.503-0.125-0.604-0.312l-0.69-1.3
			L13.393,18.728z M14.835,15.693l-0.974,2.008l1.926-0.071L14.835,15.693z"/>
		<path fill="#FFFFFF" d="M21.806,18.692l-1.623-2.399v3.236c0,0.276-0.272,0.525-0.604,0.547c-0.331,0.021-0.61-0.195-0.61-0.475
			v-5.177c0-0.279,0.279-0.513,0.61-0.513c0.267,0,0.435,0.125,0.541,0.285l2.181,3.298l2.084-3.309
			c0.096-0.153,0.25-0.271,0.487-0.272c0.294,0.001,0.538,0.219,0.538,0.479v4.829c0,0.261-0.244,0.496-0.538,0.514
			c-0.295,0.019-0.546-0.187-0.546-0.45V16.19l-1.535,2.45c-0.1,0.161-0.289,0.257-0.49,0.268
			C22.101,18.919,21.909,18.843,21.806,18.692z"/>
		<path fill="#FFFFFF" d="M27.578,16.3l1.657-0.044c0.238-0.006,0.437,0.172,0.437,0.396s-0.197,0.415-0.437,0.423l-1.657,0.061
			v1.508l2.306-0.124c0.246-0.013,0.438,0.159,0.438,0.389s-0.191,0.425-0.438,0.441l-2.827,0.179
			c-0.291,0.018-0.528-0.182-0.528-0.448v-4.62c0-0.265,0.237-0.481,0.528-0.481l2.734-0.001c0.246,0,0.439,0.183,0.439,0.414
			s-0.193,0.416-0.439,0.417l-2.213,0.022V16.3z"/>
		<path fill="#FFFFFF" d="M32.927,14.672c-0.66,0.005-0.909,0.311-0.909,0.622c0,1.019,2.839,0.48,2.839,2.359
			c0,0.917-0.649,1.53-1.93,1.612c-0.949,0.062-1.723-0.353-2.043-0.83c-0.042-0.061-0.067-0.138-0.067-0.218
			c0-0.236,0.199-0.435,0.438-0.445c0.181-0.008,0.277,0.081,0.358,0.155c0.341,0.313,0.766,0.552,1.313,0.522
			c0.71-0.039,1.05-0.286,1.05-0.755c0-1.11-2.902-0.489-2.902-2.385c0-0.779,0.58-1.439,1.854-1.438
			c0.78,0.001,1.446,0.281,1.751,0.709c0.044,0.067,0.074,0.15,0.074,0.24c0,0.219-0.183,0.402-0.409,0.406
			c-0.106,0.001-0.214-0.057-0.328-0.162C33.777,14.84,33.374,14.668,32.927,14.672z"/>
	</g>
	<g>
		<path fill="#FFFFFF" d="M17.278,24.876l1.649-0.069c0.25-0.01,0.46,0.17,0.46,0.399s-0.21,0.424-0.46,0.433l-1.649,0.049v1.465
			l2.335-0.023c0.266-0.003,0.477,0.186,0.477,0.426s-0.211,0.43-0.477,0.43l-2.828-0.004c-0.268-0.002-0.482-0.207-0.482-0.457
			V23.15c0-0.25,0.216-0.471,0.482-0.49l2.729-0.201c0.265-0.02,0.478,0.156,0.478,0.396c0,0.239-0.213,0.442-0.478,0.459
			l-2.234,0.138L17.278,24.876L17.278,24.876z"/>
		<path fill="#FFFFFF" d="M22.768,27.743l-2.185-4.761c-0.027-0.058-0.036-0.105-0.036-0.182c0-0.267,0.243-0.501,0.543-0.523
			c0.276-0.021,0.449,0.119,0.507,0.25l1.709,3.858l1.788-4.104c0.063-0.137,0.253-0.319,0.561-0.342
			c0.343-0.026,0.622,0.186,0.622,0.473c0,0.081-0.011,0.135-0.043,0.199l-2.382,5.129c-0.081,0.173-0.244,0.32-0.546,0.32
			C23.007,28.061,22.846,27.914,22.768,27.743z"/>
		<path fill="#FFFFFF" d="M28.45,24.41l2.215-0.094c0.34-0.014,0.619,0.194,0.619,0.461s-0.279,0.494-0.619,0.504L28.45,25.35v1.693
			l3.142-0.031c0.357-0.003,0.644,0.217,0.644,0.496s-0.285,0.5-0.644,0.499L27.792,28c-0.357-0.001-0.646-0.236-0.646-0.527v-5.047
			c0-0.29,0.288-0.547,0.646-0.574l3.664-0.27c0.355-0.025,0.643,0.175,0.643,0.455c0,0.279-0.286,0.518-0.643,0.539l-3.006,0.186
			V24.41z"/>
		<path fill="#FFFFFF" d="M34.893,25.452v2.063c0,0.318-0.344,0.574-0.765,0.573c-0.414,0-0.751-0.255-0.751-0.567v-5.514
			c0-0.313,0.337-0.59,0.751-0.622l2.563-0.188c1.906-0.14,3.013,0.784,3.013,1.966c0,0.994-0.847,1.98-2.218,2.145l2.13,1.822
			c0.133,0.125,0.178,0.25,0.178,0.365c0,0.335-0.384,0.605-0.85,0.605c-0.248-0.002-0.506-0.084-0.647-0.219l-2.534-2.456
			L34.893,25.452z M34.893,22.365v2.074l1.829-0.07c0.863-0.034,1.245-0.571,1.245-1.115c0-0.556-0.382-1.056-1.288-1L34.893,22.365
			z"/>
	</g>
	<g>
		<path fill="#FFFFFF" d="M14.442,26.189c0.258,0,0.475,0.166,0.475,0.373c0,0.205-0.217,0.373-0.475,0.367l-0.304-0.007v0.679
			c0,0.222-0.226,0.395-0.488,0.375c-0.252-0.016-0.466-0.207-0.466-0.42v-0.652L11.3,26.867c-0.2-0.004-0.347-0.15-0.347-0.323
			c0-0.069,0.021-0.118,0.063-0.176l2.24-2.976c0.075-0.108,0.21-0.211,0.394-0.23c0.264-0.038,0.488,0.118,0.488,0.34v2.693
			L14.442,26.189z M13.184,26.205v-1.58l-1.21,1.591L13.184,26.205z"/>
	</g>
	<g>
		<path fill="#EEE6EE" d="M6.778,11.869c-0.015-1.12,0.264-2.244,0.755-3.264c0.479-1.031,1.182-1.975,2.08-2.747
			c0.909-0.75,2.051-1.305,3.251-1.405c1.195-0.131,2.372,0.209,3.307,0.813L16.142,5.35c-1.017-0.319-2.107-0.427-3.15-0.22
			c-1.045,0.201-2.013,0.712-2.818,1.398c-0.82,0.676-1.499,1.517-2.051,2.429c-0.551,0.914-0.991,1.9-1.261,2.934L6.778,11.869z"/>
	</g>
</g>
</svg>
