<?xml version="1.0" encoding="utf-8"?>
<!-- Generator: Adobe Illustrator 16.0.0, SVG Export Plug-In . SVG Version: 6.00 Build 0)  -->
<!DOCTYPE svg PUBLIC "-//W3C//DTD SVG 1.1//EN" "http://www.w3.org/Graphics/SVG/1.1/DTD/svg11.dtd">
<svg version="1.1" xmlns="http://www.w3.org/2000/svg" xmlns:xlink="http://www.w3.org/1999/xlink" x="0px" y="0px"
	 width="419.527px" height="102.047px" viewBox="0 0 419.527 102.047" enable-background="new 0 0 419.527 102.047"
	 xml:space="preserve">
<g id="Logo">
	<path fill="#B29C39" d="M81.359,51.32c-0.064-0.079-0.129-0.162-0.194-0.247c-0.1-0.129-0.201-0.261-0.309-0.385
		c2.8-3.274,5.138-7.983,3.793-12.185c-1.045-3.274-4.184-5.586-7.528-5.586c-0.088,0-0.178,0.001-0.268,0.005
		c-2.5,0.094-5.111,1.254-7.984,3.546c-0.414,0.33-0.798,0.675-1.168,1.016L55.9,25.649c-0.209-0.211-0.494-0.178-0.758,0.087
		L43.423,37.488c-3.992-3.685-7.591-5.133-10.97-4.417c-3.487,0.74-6.444,4.177-6.877,7.997c-0.414,3.638,1.566,7.059,3.3,9.287
		l0.172,0.224c0.201,0.264,0.408,0.534,0.634,0.779c-1.599,1.881-2.861,4.048-3.554,6.137c-1.081,3.258-0.735,6.171,1.001,8.423
		c1.484,1.926,3.388,2.972,5.659,3.105c3.774,0.225,7.578-2.076,10.056-4.443l11.787,11.82c0.089,0.089,0.196,0.137,0.31,0.137
		c0.186,0,0.346-0.121,0.447-0.224l11.718-11.751c0.692,0.644,1.414,1.263,2.189,1.818c2.557,1.835,4.982,2.76,7.225,2.76
		c0.297,0,0.591-0.016,0.881-0.049c3.008-0.336,5.834-2.729,7.033-5.955c0.946-2.546,0.673-5.429-0.792-8.335
		C83.053,53.629,82.286,52.459,81.359,51.32z M53.857,51.323L43.447,61.76L32.442,50.725L42.86,40.276L53.857,51.323z
		 M56.673,50.725l10.412-10.437l11.003,11.036L67.686,61.755C67.589,61.661,56.673,50.725,56.673,50.725z M79.939,49.351
		c-0.061,0.075-0.12,0.15-0.18,0.225L68.857,38.643c1.61-1.315,3.244-2.258,4.878-2.801c2.298-0.765,4.948-0.403,6.912,0.944
		c1.708,1.171,2.706,2.945,2.81,4.995C83.61,44.793,81.744,47.11,79.939,49.351z M55.564,49.613L44.555,38.577l10.413-10.442
		l10.997,11.028L55.564,49.613z M31.318,49.628c-0.13-0.17-0.501-0.602-0.501-0.602c-1.93-2.245-3.132-4.444-3.576-6.537
		c-0.371-1.752,0.044-3.474,1.169-4.848c1.199-1.464,3.094-2.333,5.04-2.298c2.312,0.03,4.843,1.123,7.522,3.248
		c0.25,0.198,0.493,0.408,0.734,0.619L31.318,49.628z M28.01,56.372c0.602-1.229,2.596-3.677,2.769-3.894l10.908,10.938
		c-4.321,3.662-8.642,3.861-11.194,2.275C27.257,63.685,26.26,59.939,28.01,56.372z M54.967,52.435L65.976,63.47L55.564,73.911
		l-11.009-11.04L54.967,52.435z M79.193,52.439c0.185,0.271,1.143,1.339,1.374,1.645c2.105,2.795,3.102,5.663,2.734,7.869
		c-0.246,1.479-1.083,2.709-2.486,3.657c-4.187,2.826-9.09-0.306-11.969-2.794L79.193,52.439z"/>
	<path fill="#231F20" d="M379.875,49.417v-6.57h5.775c2.451,0,3.92,1.153,3.92,3.32c0,2.098-1.435,3.25-3.92,3.25H379.875z
		 M392.267,57.175c-0.63-2.098-1.855-3.53-3.396-4.124c3.08-0.979,5.075-3.564,5.075-6.885c0-4.299-3.29-7.374-7.946-7.374h-10.535
		v24.463h4.41v-9.784h2.03c3.116,0,4.9,1.433,5.671,4.646l1.225,5.138h5.215L392.267,57.175z M348.856,63.255h15.996v-4.054h-11.586
		v-6.465h8.716v-3.914h-8.716v-5.977h11.586v-4.054h-15.996V63.255z M334.581,38.792l-6.896,18.068l-6.93-18.068h-4.795
		l9.626,24.463h4.13l9.626-24.463H334.581z M291.154,63.255h15.996v-4.054h-11.586v-6.465h8.716v-3.914h-8.716v-5.977h11.586v-4.054
		h-15.996V63.255z M280.15,54.31h-3.464V38.792h-4.159l-11.551,14.714v3.948h11.551v5.801h4.159v-5.801h3.464V54.31z M272.45,43.544
		h0.077V54.31h-8.162L272.45,43.544z M241.282,63.779c5.986,0,9.767-2.899,9.697-7.513c-0.071-3.774-2.45-5.873-8.332-7.444
		c-5.319-1.399-6.439-2.028-6.439-3.564c0-1.749,1.749-2.937,4.306-2.937c2.835,0,5.04,1.608,5.6,4.089l4.27-0.804
		c-0.84-4.369-4.864-7.339-9.869-7.339c-5.111,0-8.682,2.901-8.682,7.025c0,3.494,2.345,5.521,8.191,7.059
		c5.285,1.362,6.581,2.132,6.581,3.949c0,2.236-1.855,3.425-5.322,3.425c-3.64,0-6.021-1.888-6.615-5.208l-4.27,0.77
		C231.237,60.563,235.402,63.779,241.282,63.779 M205.668,63.255h15.996v-4.054h-11.585v-6.465h8.716v-3.914h-8.716v-5.977h11.585
		v-4.054h-15.996V63.255z M190.204,38.792l-6.685,12.057l-6.615-12.057h-4.762v24.463h4.306V45.852l6.37,11.253h1.4l6.407-11.253
		v17.403h4.304V38.792H190.204z M146.773,53.645l3.745-9.296l3.746,9.296H146.773z M158.148,63.255h4.48l-10.08-24.463h-4.061
		l-10.082,24.463h4.48l2.346-5.801h10.57L158.148,63.255z M124.518,38.792v16.95l-9.346-16.95h-4.621v24.463h4.375V46.271
		l9.346,16.984h4.621V38.792H124.518z"/>
</g>
<g id="Guides" display="none">
</g>
</svg>
