<?xml version="1.0" encoding="utf-8"?>
<!-- Generator: Adobe Illustrator 15.1.0, SVG Export Plug-In . SVG Version: 6.00 Build 0)  -->
<!DOCTYPE svg PUBLIC "-//W3C//DTD SVG 1.1//EN" "http://www.w3.org/Graphics/SVG/1.1/DTD/svg11.dtd">
<svg version="1.1" id="Layer_1" xmlns="http://www.w3.org/2000/svg" xmlns:xlink="http://www.w3.org/1999/xlink" x="0px" y="0px"
	 width="170px" height="95px" viewBox="0 0 170 95" enable-background="new 0 0 170 95" xml:space="preserve">
<g id="Mastercard_logo">
	<path fill-rule="evenodd" clip-rule="evenodd" fill="#FCB131" d="M85.035,77.131c7.116,6.454,16.674,10.369,27.069,10.369
		c22.324,0,40.396-17.923,40.396-39.966c0-22.111-18.071-40.034-40.396-40.034c-10.395,0-19.954,3.914-27.069,10.369
		c-8.163,7.347-13.327,17.922-13.327,29.665C71.708,59.275,76.873,69.853,85.035,77.131L85.035,77.131z"/>
	<path fill-rule="evenodd" clip-rule="evenodd" fill="#FCB131" d="M147.127,69.783c0-0.688,0.558-1.237,1.255-1.237
		c0.769,0,1.326,0.549,1.326,1.237c0,0.755-0.558,1.305-1.326,1.305C147.685,71.088,147.127,70.538,147.127,69.783L147.127,69.783z
		 M148.382,70.813c0.559,0,1.047-0.481,1.047-1.031c0-0.55-0.488-0.961-1.047-0.961c-0.486,0-0.977,0.412-0.977,0.961
		C147.405,70.332,147.896,70.813,148.382,70.813L148.382,70.813z M148.243,70.401h-0.279v-1.168h0.488c0.071,0,0.208,0,0.279,0.07
		c0.141,0.067,0.141,0.137,0.141,0.274s-0.069,0.275-0.212,0.275l0.28,0.548h-0.348l-0.141-0.481h-0.209V70.401v-0.687h0.139
		c0.07,0,0.142,0,0.142,0c0.069,0,0.069-0.069,0.069-0.137c0-0.069,0-0.069-0.069-0.137c0,0-0.071,0-0.142,0h-0.139v0.274V70.401
		L148.243,70.401z"/>
	<path fill-rule="evenodd" clip-rule="evenodd" fill="#ED1C2E" d="M98.082,43.276c-0.14-1.442-0.419-2.815-0.699-4.257H72.687
		c0.279-1.442,0.696-2.815,1.115-4.189h22.396c-0.489-1.441-1.047-2.884-1.676-4.258H75.547c0.698-1.441,1.464-2.884,2.302-4.257
		h14.302c-0.907-1.442-1.953-2.885-3.069-4.189h-8.163c1.255-1.51,2.651-2.952,4.116-4.257C77.849,11.482,68.36,7.5,57.896,7.5
		C35.64,7.5,17.5,25.422,17.5,47.534C17.5,69.577,35.64,87.5,57.896,87.5c10.463,0,19.953-3.916,27.139-10.369l0,0l0,0
		c1.465-1.306,2.791-2.679,4.046-4.19h-8.163c-1.117-1.373-2.093-2.747-3.07-4.257h14.302c0.908-1.373,1.675-2.747,2.372-4.258
		H75.547c-0.63-1.373-1.257-2.746-1.745-4.189h22.396c0.487-1.373,0.835-2.814,1.185-4.257c0.279-1.374,0.559-2.816,0.699-4.258
		c0.14-1.373,0.208-2.747,0.208-4.189S98.222,44.65,98.082,43.276L98.082,43.276z"/>
	<path fill-rule="evenodd" clip-rule="evenodd" fill="#FFFFFF" d="M147.127,56.804c0-0.755,0.558-1.304,1.255-1.304
		c0.769,0,1.326,0.549,1.326,1.304c0,0.687-0.558,1.305-1.326,1.305C147.685,58.109,147.127,57.491,147.127,56.804L147.127,56.804z
		 M148.382,57.765c0.559,0,1.047-0.411,1.047-0.96c0-0.549-0.488-0.961-1.047-0.961c-0.486,0-0.977,0.412-0.977,0.961
		C147.405,57.354,147.896,57.765,148.382,57.765L148.382,57.765z M148.243,57.354h-0.279v-1.099h0.488c0.071,0,0.208,0,0.279,0
		c0.141,0.069,0.141,0.207,0.141,0.344c0,0.068-0.069,0.205-0.212,0.274l0.28,0.48h-0.348l-0.141-0.413h-0.209V57.354v-0.618h0.139
		c0.07,0,0.142,0,0.142-0.069c0.069,0,0.069-0.068,0.069-0.137c0,0,0-0.068-0.069-0.068c0-0.07-0.071,0-0.142,0h-0.139v0.274V57.354
		L148.243,57.354z"/>
	<path fill-rule="evenodd" clip-rule="evenodd" fill="#003473" d="M71.29,59.071c-1.324,0.342-2.301,0.549-3.277,0.549
		c-2.094,0-3.35-1.305-3.35-3.64c0-0.48,0.071-0.961,0.14-1.511l0.279-1.581l0.209-1.304l1.882-11.262h4.188l-0.49,2.472h2.653
		l-0.629,4.121h-2.65l-1.116,6.729c-0.07,0.345-0.07,0.55-0.07,0.687c0,0.893,0.419,1.236,1.466,1.236
		c0.487,0,0.905-0.067,1.325-0.137L71.29,59.071L71.29,59.071z"/>
	<path fill-rule="evenodd" clip-rule="evenodd" fill="#003473" d="M84.827,58.934c-1.536,0.412-2.932,0.617-4.466,0.617
		c-4.745,0-7.466-2.472-7.466-7.347c0-5.699,3.211-9.82,7.676-9.82c3.558,0,5.861,2.335,5.861,5.975c0,1.235-0.14,2.403-0.489,4.051
		h-8.722c-0.07,0.275-0.07,0.413-0.07,0.549c0,1.923,1.326,2.884,3.838,2.884c1.606,0,3-0.342,4.535-1.029L84.827,58.934
		L84.827,58.934z M82.244,49.113c0-0.343,0-0.618,0-0.823c0-1.374-0.766-2.129-2.093-2.129c-1.395,0-2.372,1.03-2.791,2.952H82.244
		L82.244,49.113z"/>
	<polygon fill-rule="evenodd" clip-rule="evenodd" fill="#003473" points="37.802,59.275 33.477,59.275 35.988,43.689 
		30.338,59.275 27.338,59.275 26.988,43.758 24.338,59.275 20.083,59.275 23.501,39.019 29.849,39.019 29.989,51.516 34.245,39.019 
		41.222,39.019 37.802,59.275 	"/>
	<path fill-rule="evenodd" clip-rule="evenodd" fill="#003473" d="M48.338,51.928c-0.418-0.067-0.558-0.067-0.838-0.067
		c-2.512,0-3.767,0.961-3.767,2.471c0,1.031,0.626,1.717,1.604,1.717C47.43,56.049,48.268,54.332,48.338,51.928L48.338,51.928z
		 M51.826,59.275h-3.768l0.071-1.715c-0.978,1.304-2.303,1.99-4.605,1.99c-2.093,0-3.907-1.853-3.907-4.531
		c0-0.754,0.14-1.442,0.348-2.13c0.699-2.539,3.28-4.12,7.257-4.187c0.488,0,1.257,0,1.955,0.067
		c0.139-0.55,0.139-0.754,0.139-1.099c0-1.098-0.908-1.442-2.931-1.442c-1.255,0-2.65,0.207-3.627,0.549l-0.628,0.138l-0.278,0.068
		l0.627-3.708c2.023-0.617,3.489-0.893,5.093-0.893c3.767,0,5.791,1.717,5.791,4.875c0,0.824,0.069,1.443-0.209,3.229l-0.976,5.904
		l-0.139,1.032l-0.07,0.823l-0.069,0.549L51.826,59.275L51.826,59.275z"/>
	<path fill-rule="evenodd" clip-rule="evenodd" fill="#003473" d="M105.896,42.934c1.256,0,2.372,0.342,3.906,1.099l0.767-4.395
		c-0.418-0.207-0.557-0.207-1.116-0.413l-1.743-0.48c-0.557-0.137-1.256-0.205-2.023-0.205c-2.162,0-3.418,0.068-4.744,0.824
		c-0.698,0.48-1.605,1.098-2.58,2.196l-0.558-0.137l-4.467,3.09l0.209-1.717h-4.603l-2.721,16.48h4.395l1.604-8.858
		c0,0,0.628-1.236,0.907-1.648c0.837-1.029,1.535-1.029,2.441-1.029c0.141,0,0.28,0,0.35,0c-0.141,0.961-0.209,1.99-0.209,3.158
		c0,5.356,3.07,8.721,7.813,8.721c1.186,0,2.232-0.137,3.837-0.549l0.766-4.669c-1.394,0.754-2.65,1.099-3.696,1.099
		c-2.583,0-4.117-1.923-4.117-4.946C100.313,46.091,102.616,42.934,105.896,42.934L105.896,42.934z"/>
	<path fill-rule="evenodd" clip-rule="evenodd" fill="#003473" d="M142.94,39.019l-0.976,5.768
		c-1.047-1.579-2.303-2.335-3.977-2.335c-2.303,0-4.466,1.306-5.792,3.777v-0.068l-2.79-1.648l0.279-1.717h-4.674l-2.651,16.48
		h4.325l1.465-8.858c0,0,1.117-1.236,1.396-1.648c0.698-0.825,1.395-0.961,1.953-1.029c-0.49,1.372-0.769,3.021-0.769,4.874
		c0,4.122,2.163,6.869,5.373,6.869c1.604,0,2.861-0.549,4.047-1.855l-0.211,1.648h4.116l3.349-20.256H142.94L142.94,39.019z
		 M137.568,55.363c-1.464,0-2.231-1.098-2.231-3.228c0-3.228,1.396-5.562,3.418-5.562c1.535,0,2.302,1.168,2.302,3.228
		C141.057,53.096,139.662,55.363,137.568,55.363L137.568,55.363z"/>
	<path fill-rule="evenodd" clip-rule="evenodd" fill="#003473" d="M117.407,51.928c-0.42-0.067-0.56-0.067-0.838-0.067
		c-2.511,0-3.769,0.961-3.769,2.471c0,1.031,0.628,1.717,1.606,1.717C116.499,56.049,117.337,54.332,117.407,51.928L117.407,51.928z
		 M120.895,59.275h-3.837l0.14-1.715c-0.977,1.304-2.303,1.99-4.604,1.99c-2.164,0-4.047-1.786-4.047-4.531
		c0-3.916,3-6.317,7.745-6.317c0.489,0,1.256,0,1.883,0.067c0.141-0.55,0.211-0.754,0.211-1.099c0-1.098-0.907-1.442-3-1.442
		c-1.187,0-2.651,0.207-3.628,0.549l-0.559,0.138l-0.278,0.068l0.626-3.708c2.024-0.617,3.491-0.893,5.094-0.893
		c3.768,0,5.722,1.717,5.722,4.875c0,0.824,0.139,1.443-0.21,3.229l-0.907,5.904l-0.14,1.032l-0.139,0.823l-0.07,0.549V59.275
		L120.895,59.275z"/>
	<path fill-rule="evenodd" clip-rule="evenodd" fill="#003473" d="M60.966,46.298c0.836,0,2.023,0.069,3.278,0.275l0.627-3.846
		c-1.256-0.137-2.93-0.343-3.906-0.343c-4.883,0-6.489,2.609-6.489,5.632c0,1.991,0.908,3.433,3.28,4.531
		c1.743,0.825,2.022,0.961,2.022,1.718c0,1.028-0.906,1.647-2.582,1.647c-1.326,0-2.582-0.207-3.977-0.688l-0.488,3.777l0.069,0.069
		l0.836,0.138c0.28,0.067,0.63,0.137,1.117,0.205c1.047,0.07,1.953,0.137,2.512,0.137c4.884,0,6.907-1.853,6.907-5.493
		c0-2.266-1.117-3.64-3.28-4.601c-1.882-0.824-2.092-0.961-2.092-1.715C58.803,46.984,59.639,46.298,60.966,46.298L60.966,46.298z"
		/>
	<path fill-rule="evenodd" clip-rule="evenodd" fill="#FFFFFF" d="M111.756,38.332l-0.768,4.395
		c-1.536-0.755-2.652-1.098-3.908-1.098c-3.278,0-5.581,3.159-5.581,7.623c0,3.089,1.535,4.944,4.116,4.944
		c1.047,0,2.301-0.342,3.697-1.031l-0.768,4.601c-1.603,0.413-2.65,0.619-3.836,0.619c-4.745,0-7.675-3.365-7.675-8.791
		c0-7.21,4.047-12.291,9.838-12.291c0.768,0,1.464,0.069,2.023,0.206l1.745,0.412C111.197,38.126,111.336,38.195,111.756,38.332
		L111.756,38.332z"/>
	<path fill-rule="evenodd" clip-rule="evenodd" fill="#FFFFFF" d="M97.663,41.354c-0.139,0-0.279,0-0.418,0
		c-1.466,0-2.304,0.687-3.627,2.678l0.418-2.541h-3.978l-2.721,16.481h4.396c1.604-10.095,2.023-11.812,4.116-11.812
		c0.14,0,0.14,0,0.278,0c0.419-1.992,0.977-3.435,1.677-4.739L97.663,41.354L97.663,41.354z"/>
	<path fill-rule="evenodd" clip-rule="evenodd" fill="#FFFFFF" d="M72.406,57.765c-1.185,0.413-2.161,0.55-3.138,0.55
		c-2.232,0-3.489-1.236-3.489-3.639c0-0.412,0.07-0.963,0.14-1.443l0.28-1.647l0.208-1.305l1.884-11.261h4.324l-0.488,2.473h2.231
		l-0.557,4.051h-2.233l-1.185,6.867c-0.07,0.275-0.07,0.479-0.07,0.687c0,0.824,0.417,1.168,1.466,1.168
		c0.486,0,0.907,0,1.186-0.138L72.406,57.765L72.406,57.765z"/>
	<path fill-rule="evenodd" clip-rule="evenodd" fill="#FFFFFF" d="M55.593,46.71c0,2.06,0.978,3.502,3.28,4.601
		c1.814,0.824,2.093,1.099,2.093,1.785c0,1.03-0.769,1.51-2.511,1.51c-1.326,0-2.511-0.205-3.908-0.616l-0.628,3.774l0.21,0.07
		l0.768,0.138c0.277,0.068,0.628,0.136,1.187,0.136c0.977,0.138,1.814,0.138,2.372,0.138c4.603,0,6.766-1.717,6.766-5.493
		c0-2.267-0.906-3.572-3.068-4.601c-1.884-0.825-2.095-1.031-2.095-1.786c0-0.893,0.769-1.306,2.163-1.306
		c0.837,0,2.023,0.069,3.14,0.207l0.627-3.776c-1.116-0.207-2.86-0.344-3.835-0.344C57.268,41.147,55.524,43.689,55.593,46.71
		L55.593,46.71z"/>
	<path fill-rule="evenodd" clip-rule="evenodd" fill="#FFFFFF" d="M145.173,57.973h-4.116l0.21-1.581
		c-1.185,1.236-2.442,1.786-4.046,1.786c-3.21,0-5.303-2.677-5.303-6.799c0-5.492,3.278-10.161,7.117-10.161
		c1.743,0,2.999,0.755,4.185,2.266l0.978-5.769h4.326L145.173,57.973L145.173,57.973z M138.755,54.126
		c2.023,0,3.418-2.335,3.418-5.563c0-2.128-0.766-3.228-2.303-3.228c-1.951,0-3.419,2.267-3.419,5.493
		C136.451,53.028,137.221,54.126,138.755,54.126L138.755,54.126z"/>
	<path fill-rule="evenodd" clip-rule="evenodd" fill="#FFFFFF" d="M85.802,57.627c-1.533,0.481-2.929,0.688-4.534,0.688
		c-4.884,0-7.395-2.54-7.395-7.416c0-5.631,3.208-9.82,7.604-9.82c3.628,0,5.93,2.335,5.93,5.974c0,1.237-0.14,2.403-0.558,4.121
		h-8.651c-0.071,0.204-0.071,0.342-0.071,0.48c0,1.923,1.326,2.886,3.837,2.886c1.605,0,3.001-0.275,4.536-1.032L85.802,57.627
		L85.802,57.627z M83.361,47.808c0-0.343,0-0.617,0-0.824c0-1.373-0.766-2.128-2.093-2.128c-1.396,0-2.373,1.03-2.792,2.952H83.361
		L83.361,47.808z"/>
	<polygon fill-rule="evenodd" clip-rule="evenodd" fill="#FFFFFF" points="38.918,57.973 34.593,57.973 37.104,42.383 
		31.454,57.973 28.453,57.973 28.105,42.521 25.454,57.973 21.408,57.973 24.826,37.714 31.105,37.714 31.314,50.28 35.5,37.714 
		42.338,37.714 38.918,57.973 	"/>
	<path fill-rule="evenodd" clip-rule="evenodd" fill="#FFFFFF" d="M49.733,50.624c-0.418,0-0.628-0.069-0.977-0.069
		c-2.441,0-3.697,0.894-3.697,2.542c0,1.03,0.558,1.647,1.534,1.647C48.407,54.744,49.663,53.096,49.733,50.624L49.733,50.624z
		 M52.942,57.973h-3.627l0.069-1.718c-1.115,1.373-2.581,1.992-4.604,1.992c-2.371,0-3.976-1.785-3.976-4.464
		c0-4.052,2.791-6.386,7.675-6.386c0.486,0,1.115,0.069,1.813,0.138c0.139-0.549,0.139-0.755,0.139-1.03
		c0-1.099-0.767-1.511-2.791-1.511c-1.256,0-2.651,0.138-3.627,0.413l-0.627,0.206l-0.419,0.068l0.628-3.708
		c2.163-0.618,3.627-0.824,5.232-0.824c3.768,0,5.79,1.648,5.79,4.807c0,0.824-0.069,1.441-0.348,3.296l-0.978,5.837l-0.14,1.029
		l-0.07,0.824l-0.069,0.619L52.942,57.973L52.942,57.973z"/>
	<path fill-rule="evenodd" clip-rule="evenodd" fill="#FFFFFF" d="M118.802,50.624c-0.488,0-0.698-0.069-0.978-0.069
		c-2.511,0-3.766,0.894-3.766,2.542c0,1.03,0.627,1.647,1.603,1.647C117.407,54.744,118.731,53.096,118.802,50.624L118.802,50.624z
		 M122.011,57.973h-3.627l0.07-1.718c-1.117,1.373-2.583,1.992-4.605,1.992c-2.372,0-3.977-1.785-3.977-4.464
		c0-4.052,2.791-6.386,7.674-6.386c0.488,0,1.116,0.069,1.743,0.138c0.142-0.549,0.211-0.755,0.211-1.03
		c0-1.099-0.769-1.511-2.791-1.511c-1.256,0-2.721,0.138-3.697,0.413l-0.559,0.206l-0.417,0.068l0.627-3.708
		c2.161-0.618,3.627-0.824,5.231-0.824c3.768,0,5.721,1.648,5.721,4.807c0,0.824,0,1.441-0.349,3.296l-0.906,5.837l-0.142,1.029
		l-0.138,0.824l-0.07,0.619V57.973L122.011,57.973z"/>
	<path fill-rule="evenodd" clip-rule="evenodd" fill="#FFFFFF" d="M133.731,41.354c-0.139,0-0.28,0-0.418,0
		c-1.466,0-2.304,0.687-3.628,2.678l0.418-2.541h-3.976l-2.652,16.481h4.326c1.604-10.095,2.022-11.812,4.116-11.812
		c0.139,0,0.139,0,0.278,0c0.42-1.992,0.977-3.435,1.675-4.739L133.731,41.354L133.731,41.354z"/>
</g>
</svg>
