<?xml version="1.0" encoding="utf-8"?>
<!-- Generator: Adobe Illustrator 15.1.0, SVG Export Plug-In . SVG Version: 6.00 Build 0)  -->
<!DOCTYPE svg PUBLIC "-//W3C//DTD SVG 1.1//EN" "http://www.w3.org/Graphics/SVG/1.1/DTD/svg11.dtd">
<svg version="1.1" id="Layer_1" xmlns="http://www.w3.org/2000/svg" xmlns:xlink="http://www.w3.org/1999/xlink" x="0px" y="0px"
	 width="170px" height="95px" viewBox="0 0 170 95" enable-background="new 0 0 170 95" xml:space="preserve">
<g id="Belfius_logo">
	<linearGradient id="SVGID_1_" gradientUnits="userSpaceOnUse" x1="84.9995" y1="7.5" x2="84.9995" y2="87.5">
		<stop  offset="0" style="stop-color:#FFFFFF"/>
		<stop  offset="0.3777" style="stop-color:#FCFCFD"/>
		<stop  offset="0.6214" style="stop-color:#F4F4F4"/>
		<stop  offset="0.827" style="stop-color:#E6E5E7"/>
		<stop  offset="0.8364" style="stop-color:#E5E4E6"/>
		<stop  offset="1" style="stop-color:#E4E3E5"/>
	</linearGradient>
	<path opacity="0.7" fill="url(#SVGID_1_)" stroke="#DBD8D5" stroke-miterlimit="10" d="M160,84.5c0,1.657-1.343,3-3,3H13
		c-1.657,0-3-1.343-3-3v-74c0-1.657,1.343-3,3-3h144c1.657,0,3,1.343,3,3V84.5z"/>
	<g>
		<g>
			<g>
				<g>
					<path fill="#C31F48" d="M18.93,49.542c0,3.637,2.948,6.589,6.585,6.589h28.816l0.004-6.589V27.307
						c0-3.636-2.948-6.585-6.587-6.585H25.515c-3.637,0-6.585,2.949-6.585,6.585V49.542z"/>
				</g>
				<g>
					<path fill="#FFFFFF" d="M27.06,33.481c0-1.222,0.879-2.517,2.52-2.517h14.106c1.637,0,2.519,1.294,2.519,2.517
						c0,1.224-0.882,2.521-2.519,2.521H29.579C27.938,36.002,27.06,34.705,27.06,33.481z"/>
					<path fill="#FFFFFF" d="M27.06,43.369c0-1.224,0.879-2.521,2.52-2.521h14.106c1.637,0,2.519,1.297,2.519,2.521
						c0,1.221-0.882,2.518-2.519,2.518H29.579C27.938,45.887,27.06,44.59,27.06,43.369z"/>
				</g>
			</g>
			<g>
				<g>
					<path fill="#526370" d="M68.69,51.742h-6.474c-0.979,0-1.806-0.826-1.806-1.806V27.531c0-0.979,0.827-1.805,1.806-1.805h6.474
						c3.965,0,7.19,3.21,7.19,7.157c0,2.03-0.852,3.949-2.351,5.312c1.77,1.449,2.816,3.628,2.816,5.892
						C76.347,48.307,72.913,51.742,68.69,51.742z M64.022,48.131h4.668c2.23,0,4.046-1.8,4.046-4.013
						c0-2.23-1.815-4.045-4.046-4.045h-4.668V48.131z M64.022,36.461h4.668c1.955,0,3.547-1.604,3.547-3.578v-0.441
						c-0.232-1.75-1.733-3.104-3.547-3.104h-4.668V36.461z"/>
				</g>
				<g>
					<path fill="#526370" d="M85.696,52.053c-3.931,0-7.251-3.178-7.251-6.94v-5.756c0-3.829,3.113-6.941,6.938-6.941
						c3.828,0,6.942,3.113,6.942,6.941v2.178c0,0.978-0.827,1.806-1.808,1.806h-8.462v1.772c0,1.743,1.733,3.33,3.64,3.33
						c1.186,0,2.109-0.359,2.825-1.092c0.37-0.528,0.866-0.807,1.438-0.807c0.979,0,1.868,0.861,1.868,1.806
						c0,0.366-0.113,0.698-0.357,1.046v-0.001c0.002,0-0.137,0.238-0.432,0.531C89.781,51.275,87.831,52.053,85.696,52.053z
						 M82.057,39.729h6.659v-0.372c0-1.867-1.463-3.33-3.332-3.33c-1.864,0-3.327,1.462-3.327,3.33V39.729z"/>
				</g>
				<g>
					<path fill="#526370" d="M96.916,51.742c-0.896,0-1.805-0.621-1.805-1.806V27.531c0-1.186,0.908-1.805,1.805-1.805
						c0.897,0,1.806,0.619,1.806,1.805v22.406C98.722,51.121,97.813,51.742,96.916,51.742z"/>
				</g>
				<g>
					<path fill="#526370" d="M105.741,51.742c-0.896,0-1.805-0.621-1.805-1.806V36.339h-1.372c-1.184,0-1.805-0.909-1.805-1.806
						c0-0.897,0.621-1.806,1.805-1.806h1.372v-2.053c0-2.999,2.408-5.26,5.601-5.26c2.775,0,4.019,1.314,4.019,2.614
						c0,0.977-0.67,1.714-1.559,1.714c-0.379,0-0.73-0.105-1.064-0.319c-0.2-0.115-0.753-0.397-1.396-0.397
						c-1.468,0-1.987,0.889-1.987,1.648v2.053h3.795c1.184,0,1.804,0.909,1.804,1.806c0,0.897-0.62,1.806-1.804,1.806h-3.795v13.598
						C107.55,51.121,106.642,51.742,105.741,51.742z"/>
				</g>
				<g>
					<path fill="#526370" d="M117.226,51.742c-0.896,0-1.807-0.621-1.807-1.806V34.533c0-1.186,0.91-1.806,1.807-1.806
						s1.808,0.62,1.808,1.806v15.404C119.033,51.121,118.122,51.742,117.226,51.742z M117.226,30.632
						c-0.896,0-1.807-0.62-1.807-1.805v-1.296c0-1.186,0.91-1.805,1.807-1.805s1.808,0.619,1.808,1.805v1.296
						C119.033,30.012,118.122,30.632,117.226,30.632z"/>
				</g>
				<g>
					<path fill="#526370" d="M129.265,52.053c-3.827,0-6.938-3.113-6.938-6.94v-10.58c0-1.186,0.906-1.806,1.805-1.806
						c0.896,0,1.804,0.62,1.804,1.806v10.58c0,1.868,1.464,3.33,3.33,3.33c1.867,0,3.331-1.462,3.331-3.33v-10.58
						c0-1.186,0.905-1.806,1.804-1.806c0.896,0,1.805,0.62,1.805,1.806v10.58C136.204,48.94,133.092,52.053,129.265,52.053z"/>
				</g>
				<g>
					<path fill="#526370" d="M144.408,52.053c-1.885,0-4.368-0.861-5.466-2.507c-0.236-0.333-0.354-0.695-0.354-1.072
						c0-0.946,0.891-1.805,1.869-1.805c0.552,0,1.08,0.285,1.444,0.785l0.059,0.086c0.531,0.573,1.424,0.902,2.447,0.902
						c2.002,0,3.051-1.096,3.051-2.178c0-1.519-1.599-2.143-3.45-2.864c-2.358-0.921-5.297-2.066-5.297-5.662
						c0-3.495,2.976-5.323,5.915-5.323c2.133,0,4.381,1.173,5.47,2.851c0.191,0.289,0.289,0.627,0.289,1.009
						c0,0.979-0.855,1.805-1.869,1.805c-0.603,0-1.117-0.3-1.446-0.848c-0.743-0.833-1.5-1.206-2.443-1.206
						c-1.398,0-2.302,0.671-2.302,1.711c0,1.157,1.436,1.723,3.098,2.377c2.516,0.991,5.647,2.223,5.647,6.149
						C151.07,50.024,147.638,52.053,144.408,52.053z"/>
				</g>
			</g>
		</g>
		<g>
			<g>
				<g>
					<path fill="#899599" d="M26.016,72.495h-2.64c-0.341,0-0.633-0.291-0.633-0.635v-9.132c0-0.344,0.292-0.636,0.633-0.636h2.64
						c1.56,0,2.828,1.271,2.828,2.816c0,0.875-0.392,1.651-1.014,2.171c0.724,0.545,1.206,1.421,1.206,2.397
						C29.035,71.152,27.677,72.495,26.016,72.495z M27.576,64.923c0-0.864-0.698-1.56-1.56-1.56h-2.004v3.105h2.004
						c0.862,0,1.547-0.695,1.547-1.56L27.576,64.923z M26.016,67.739h-2.004v3.489h2.004c0.963,0,1.751-0.787,1.751-1.739
						C27.767,68.525,26.979,67.739,26.016,67.739z"/>
					<path fill="#899599" d="M32.891,72.623c-1.295,0-2.563-0.774-2.563-2.296c0-1.409,1.167-2.106,2.385-2.358l1.459-0.318v-0.393
						c0-0.711-0.368-1.168-1.256-1.168c-0.938,0-1.04,0.774-1.637,0.774c-0.344,0-0.633-0.266-0.633-0.635
						c0-0.203,0.099-0.381,0.227-0.521c0.508-0.583,1.27-0.888,2.043-0.888c1.574,0,2.524,1.016,2.524,2.438v2.93
						C35.439,71.656,34.233,72.623,32.891,72.623z M34.171,68.906L32.84,69.21c-0.839,0.177-1.245,0.634-1.245,1.104
						c0,0.609,0.458,1.04,1.282,1.04c0.774,0,1.294-0.508,1.294-1.167V68.906z"/>
					<path fill="#899599" d="M41.807,72.495c-0.318,0-0.635-0.213-0.635-0.635v-4.311c0-0.812-0.647-1.459-1.461-1.459
						c-0.811,0-1.456,0.648-1.456,1.459v4.311c0,0.422-0.318,0.635-0.635,0.635c-0.317,0-0.634-0.213-0.634-0.635v-4.311
						c0-1.51,1.218-2.729,2.726-2.729c1.512,0,2.729,1.219,2.729,2.729v4.311C42.439,72.282,42.124,72.495,41.807,72.495z"/>
					<path fill="#899599" d="M48.806,72.508c-0.178,0-0.356-0.075-0.494-0.266l-2.195-2.919l-0.736,0.865v1.672
						c0,0.422-0.316,0.635-0.634,0.635c-0.318,0-0.635-0.213-0.635-0.635v-9.132c0-0.42,0.317-0.636,0.635-0.636
						c0.318,0,0.634,0.216,0.634,0.636v5.519l2.626-3.068c0.139-0.168,0.305-0.243,0.47-0.243c0.343,0,0.661,0.306,0.661,0.647
						c0,0.14-0.05,0.278-0.167,0.406l-2.005,2.347l2.361,3.148c0.101,0.127,0.139,0.267,0.139,0.377
						C49.466,72.217,49.138,72.508,48.806,72.508z"/>
					<path fill="#899599" d="M60.448,72.508c-0.165,0-0.34-0.075-0.469-0.226l-0.623-0.723c-0.543,0.608-1.294,1.051-2.244,1.051
						c-1.776,0-3.225-1.242-3.225-3.096c0-1.294,0.7-2.093,1.475-2.689c-0.446-0.544-0.99-1.382-0.99-2.158
						c0-1.37,0.849-2.69,2.435-2.69c1.229,0,2.31,1.003,2.31,2.311c0,1.371-1,2.144-1.94,2.779l2.003,2.371
						c0.163-0.406,0.252-0.773,0.252-0.812c0.076-0.343,0.357-0.495,0.623-0.495c0.278,0,0.646,0.203,0.646,0.597
						c0,0.063-0.013,0.125-0.028,0.178c-0.009,0.039-0.06,0.253-0.162,0.559c-0.103,0.33-0.242,0.672-0.405,1.003l0.837,0.989
						c0.103,0.114,0.151,0.265,0.151,0.404C61.096,72.217,60.791,72.508,60.448,72.508z M56.173,67.777
						c-0.608,0.481-1.013,0.989-1.013,1.737c0,1.067,0.797,1.827,1.952,1.827c0.597,0,1.053-0.316,1.419-0.773L56.173,67.777z
						 M56.808,63.248c-0.687,0-1.167,0.468-1.167,1.357c0,0.318,0.24,0.915,0.685,1.434l0.063,0.076
						c0.635-0.432,1.459-0.975,1.459-1.827C57.848,63.716,57.366,63.248,56.808,63.248z"/>
					<path fill="#899599" d="M72.218,62.93l-3.044,9.238c-0.116,0.355-0.368,0.544-0.612,0.544c-0.238,0-0.477-0.189-0.596-0.544
						l-3.043-9.238c-0.025-0.089-0.037-0.15-0.037-0.229c0-0.368,0.331-0.609,0.659-0.609c0.241,0,0.481,0.126,0.583,0.431
						l2.434,7.411l2.452-7.411c0.103-0.305,0.341-0.431,0.584-0.431c0.33,0,0.659,0.242,0.659,0.609
						C72.257,62.779,72.243,62.84,72.218,62.93z"/>
					<path fill="#899599" d="M78.116,69.072h-3.552v0.822c0,0.763,0.736,1.46,1.583,1.46c0.482,0,0.902-0.138,1.234-0.483
						c0.14-0.202,0.316-0.29,0.506-0.29c0.33,0,0.66,0.29,0.66,0.635c0,0.125-0.039,0.24-0.128,0.367c0,0-0.05,0.089-0.163,0.204
						c-0.533,0.57-1.333,0.836-2.109,0.836c-1.458,0-2.854-1.179-2.854-2.729v-2.345c0-1.51,1.22-2.729,2.728-2.729
						c1.51,0,2.729,1.219,2.729,2.729v0.887C78.75,68.779,78.458,69.072,78.116,69.072z M77.479,67.549
						c0-0.812-0.647-1.459-1.459-1.459c-0.809,0-1.457,0.648-1.457,1.459v0.252h2.916V67.549z"/>
					<path fill="#899599" d="M83.951,66.61c-0.156,0-0.321-0.063-0.458-0.203l-0.024-0.025c-0.229-0.191-0.536-0.292-0.827-0.292
						c-0.722,0-1.203,0.481-1.203,1.548v4.223c0,0.422-0.318,0.635-0.635,0.635c-0.316,0-0.636-0.213-0.636-0.635v-4.223
						c0-1.484,0.814-2.817,2.474-2.817c0.587,0,1.333,0.254,1.764,0.7c0.126,0.139,0.192,0.29,0.192,0.442
						C84.598,66.305,84.279,66.61,83.951,66.61z"/>
					<path fill="#899599" d="M90.076,72.495h-4.072c-0.43,0-0.688-0.226-0.688-0.532c0-0.14,0.052-0.291,0.14-0.444l3.404-5.301
						h-2.565c-0.433,0-0.633-0.318-0.633-0.636s0.2-0.635,0.633-0.635h3.73c0.418,0,0.673,0.231,0.673,0.532
						c0,0.141-0.039,0.294-0.141,0.445l-3.398,5.305h2.917c0.42,0,0.636,0.316,0.636,0.631
						C90.711,72.178,90.496,72.495,90.076,72.495z"/>
					<path fill="#899599" d="M96.824,69.072h-3.554v0.822c0,0.763,0.736,1.46,1.587,1.46c0.48,0,0.898-0.138,1.231-0.483
						c0.138-0.202,0.316-0.29,0.506-0.29c0.331,0,0.66,0.29,0.66,0.635c0,0.125-0.038,0.24-0.127,0.367c0,0-0.05,0.089-0.163,0.204
						c-0.533,0.57-1.336,0.836-2.107,0.836c-1.461,0-2.857-1.179-2.857-2.729v-2.345c0-1.51,1.218-2.729,2.729-2.729
						c1.512,0,2.727,1.219,2.727,2.729v0.887C97.456,68.779,97.166,69.072,96.824,69.072z M96.187,67.549
						c0-0.812-0.647-1.459-1.458-1.459c-0.814,0-1.459,0.648-1.459,1.459v0.252h2.917V67.549z"/>
					<path fill="#899599" d="M103.696,72.508c-0.179,0-0.356-0.075-0.493-0.266l-2.197-2.919l-0.737,0.865v1.672
						c0,0.422-0.316,0.635-0.633,0.635c-0.318,0-0.634-0.213-0.634-0.635v-9.132c0-0.42,0.316-0.636,0.634-0.636
						c0.316,0,0.633,0.216,0.633,0.636v5.519l2.626-3.068c0.139-0.168,0.308-0.243,0.472-0.243c0.344,0,0.659,0.306,0.659,0.647
						c0,0.14-0.049,0.278-0.163,0.406l-2.007,2.347l2.362,3.148c0.102,0.127,0.138,0.267,0.138,0.377
						C104.355,72.217,104.026,72.508,103.696,72.508z"/>
					<path fill="#899599" d="M110.342,69.072h-3.553v0.822c0,0.763,0.737,1.46,1.588,1.46c0.483,0,0.899-0.138,1.229-0.483
						c0.14-0.202,0.317-0.29,0.507-0.29c0.331,0,0.661,0.29,0.661,0.635c0,0.125-0.04,0.24-0.126,0.367c0,0-0.054,0.089-0.166,0.204
						c-0.532,0.57-1.334,0.836-2.105,0.836c-1.46,0-2.855-1.179-2.855-2.729v-2.345c0-1.51,1.217-2.729,2.729-2.729
						c1.509,0,2.726,1.219,2.726,2.729v0.887C110.977,68.779,110.688,69.072,110.342,69.072z M109.708,67.549
						c0-0.812-0.647-1.459-1.458-1.459c-0.816,0-1.462,0.648-1.462,1.459v0.252h2.919V67.549z"/>
					<path fill="#899599" d="M116.176,66.61c-0.151,0-0.316-0.063-0.455-0.203l-0.024-0.025c-0.23-0.191-0.536-0.292-0.827-0.292
						c-0.722,0-1.206,0.481-1.206,1.548v4.223c0,0.422-0.316,0.635-0.633,0.635c-0.319,0-0.638-0.213-0.638-0.635v-4.223
						c0-1.484,0.812-2.817,2.477-2.817c0.587,0,1.333,0.254,1.764,0.7c0.128,0.139,0.193,0.29,0.193,0.442
						C116.826,66.305,116.509,66.61,116.176,66.61z"/>
					<path fill="#899599" d="M118.623,64.122c-0.316,0-0.637-0.215-0.637-0.633v-0.762c0-0.42,0.32-0.636,0.637-0.636
						s0.635,0.216,0.635,0.636v0.762C119.258,63.907,118.939,64.122,118.623,64.122z M118.623,72.495
						c-0.316,0-0.637-0.213-0.637-0.635v-6.278c0-0.42,0.32-0.635,0.637-0.635s0.635,0.215,0.635,0.635v6.278
						C119.258,72.282,118.939,72.495,118.623,72.495z"/>
					<path fill="#899599" d="M125.753,72.495c-0.316,0-0.634-0.213-0.634-0.635v-4.311c0-0.812-0.65-1.459-1.459-1.459
						c-0.813,0-1.459,0.648-1.459,1.459v4.311c0,0.422-0.317,0.635-0.635,0.635c-0.316,0-0.637-0.213-0.637-0.635v-4.311
						c0-1.51,1.221-2.729,2.73-2.729c1.509,0,2.729,1.219,2.729,2.729v4.311C126.389,72.282,126.068,72.495,125.753,72.495z"/>
					<path fill="#899599" d="M130.658,75.034c-0.773,0-1.813-0.342-2.271-1.04c-0.088-0.127-0.125-0.241-0.125-0.368
						c0-0.344,0.329-0.633,0.661-0.633c0.19,0,0.368,0.087,0.504,0.29c0,0,0.013,0.014,0.04,0.04
						c0.303,0.317,0.759,0.444,1.191,0.444c0.812,0,1.459-0.647,1.459-1.46v-0.353c-0.419,0.266-0.926,0.418-1.459,0.418
						c-1.51,0-2.729-1.218-2.729-2.729v-2.092c0-1.51,1.219-2.729,2.729-2.729s2.726,1.219,2.726,2.729v2.092v2.664
						C133.384,73.817,132.168,75.034,130.658,75.034z M132.117,67.549c0-0.812-0.647-1.459-1.459-1.459
						c-0.807,0-1.458,0.648-1.458,1.459v2.092c0,0.812,0.651,1.46,1.458,1.46c0.812,0,1.459-0.648,1.459-1.46V67.549z"/>
					<path fill="#899599" d="M139.751,69.072h-3.549v0.822c0,0.763,0.733,1.46,1.583,1.46c0.484,0,0.902-0.138,1.23-0.483
						c0.143-0.202,0.319-0.29,0.508-0.29c0.33,0,0.659,0.29,0.659,0.635c0,0.125-0.037,0.24-0.127,0.367
						c0,0-0.048,0.089-0.164,0.204c-0.532,0.57-1.331,0.836-2.106,0.836c-1.459,0-2.854-1.179-2.854-2.729v-2.345
						c0-1.51,1.218-2.729,2.727-2.729c1.512,0,2.728,1.219,2.728,2.729v0.887C140.385,68.779,140.094,69.072,139.751,69.072z
						 M139.119,67.549c0-0.812-0.646-1.459-1.462-1.459c-0.81,0-1.455,0.648-1.455,1.459v0.252h2.917V67.549z"/>
					<path fill="#899599" d="M146.626,72.495c-0.318,0-0.634-0.213-0.634-0.635v-4.311c0-0.812-0.646-1.459-1.462-1.459
						c-0.809,0-1.453,0.648-1.453,1.459v4.311c0,0.422-0.321,0.635-0.638,0.635c-0.319,0-0.636-0.213-0.636-0.635v-4.311
						c0-1.51,1.219-2.729,2.727-2.729c1.516,0,2.728,1.219,2.728,2.729v4.311C147.258,72.282,146.944,72.495,146.626,72.495z"/>
				</g>
			</g>
		</g>
	</g>
</g>
</svg>
