<?xml version="1.0" encoding="utf-8"?>
<!-- Generator: Adobe Illustrator 15.1.0, SVG Export Plug-In . SVG Version: 6.00 Build 0)  -->
<!DOCTYPE svg PUBLIC "-//W3C//DTD SVG 1.1//EN" "http://www.w3.org/Graphics/SVG/1.1/DTD/svg11.dtd">
<svg version="1.1" id="Layer_1" xmlns="http://www.w3.org/2000/svg" xmlns:xlink="http://www.w3.org/1999/xlink" x="0px" y="0px"
	 width="170px" height="95px" viewBox="0 0 170 95" enable-background="new 0 0 170 95" xml:space="preserve">
<g id="American_Express_logo">
	<rect x="47.975" y="7.5" fill="#FFFFFF" width="84.055" height="79.831"/>
	
		<radialGradient id="SVGID_1_" cx="-133.2695" cy="-264.1733" r="99.7726" gradientTransform="matrix(1.0151 0 0 0.9855 194.7673 279.0503)" gradientUnits="userSpaceOnUse">
		<stop  offset="0" style="stop-color:#00B8E9"/>
		<stop  offset="0.427" style="stop-color:#009ACA"/>
		<stop  offset="0.5077" style="stop-color:#0090BD"/>
		<stop  offset="0.8347" style="stop-color:#006D8E"/>
		<stop  offset="1" style="stop-color:#00607E"/>
	</radialGradient>
	<path fill="url(#SVGID_1_)" d="M128.986,66.547c0,0-0.162-0.009-0.314-0.017l-6.581,0.004v-0.439
		c-0.748,0.299-1.546,0.452-2.31,0.452c0,0-0.161-0.009-0.316-0.017l-3.896,0.002v0.019h-9.43v0.016h-6.41v-1.876
		c0,0,0.01-1.335,0.012-1.586c-0.057,0-0.271,0-0.424,0c0,0.786,0,3.462,0,3.462h-6.479v-3.752
		c-1.066,0.418-2.284,0.526-3.442,0.526c0,0-0.396,0-0.626,0c0,0.647,0,3.21,0,3.21h-7.646c0,0-1.246-1.333-1.914-2.048
		c-0.676,0.719-1.93,2.048-1.93,2.048H64.784V52.796h12.288c0,0,1.362,1.446,2.149,2.28c0.789-0.829,2.157-2.264,2.157-2.264h0.844
		l2.001-0.016h6.268c0.365-0.024,1.321-0.03,2.345,0.344v-0.311h8.196c0.401-0.029,1.446-0.047,2.525,0.388v-0.388h10.078h1.932
		v0.394c1.135-0.444,2.18-0.416,2.34-0.406l6.834-0.004v0.424c1.146-0.459,2.21-0.43,2.371-0.42l4.917-0.003V7.5H47.975v35.026
		l2.876-6.626h6.241c0,0,0.719,1.661,0.749,1.73c0-0.249,0-1.73,0-1.73h7.307c0,0,1.095,2.362,1.616,3.489
		c0.517-1.124,1.604-3.489,1.604-3.489h4.892h0.486h1.935h7.08h0.574h1.934h5.682c0.4-0.029,1.447-0.049,2.531,0.388V35.9h4.56
		h1.934v0.83c0.952-0.574,2.038-0.868,3.131-0.914c0,0,3.484,0.091,3.619,0.095l0.004-0.011h6.224c0,0,0.677,1.566,0.697,1.61
		c0-0.393,0-1.61,0-1.61h6.713c0,0,0.961,1.538,1.066,1.711c0-0.274,0-1.711,0-1.711h6.495v13.738h-6.63
		c0,0-0.988-1.591-1.114-1.796c0,0.147,0,1.796,0,1.796h-8.326c0,0-0.713-1.621-0.922-2.094c-0.866,0-1.337,0-2.208,0
		c-0.2,0.466-0.903,2.094-0.903,2.094h-5.513l-0.139-0.019c-0.613-0.084-1.409-0.357-2.195-0.839v0.893h-4.56c0,0,0-0.03,0-0.035
		h-5.764v-1.877c0,0,0.01-1.333,0.011-1.585c-0.057,0-0.27,0-0.423,0c0,0.787,0,3.462,0,3.462H85.27h-2.508h-7.08h-0.486H69.17
		c0,0,0-0.168,0-0.21c-0.032,0.065-0.102,0.21-0.102,0.21h-4.612c0,0-0.077-0.165-0.119-0.256c0,0.06,0,0.256,0,0.256h-8.373
		c0,0-0.705-1.628-0.906-2.094c-0.868,0-1.34,0-2.205,0c-0.209,0.473-0.924,2.094-0.924,2.094h-3.956v37.692h84.055V65.737
		C131.096,66.293,130.01,66.547,128.986,66.547z"/>
	<g>
		<g>
			<defs>
				<path id="SVGID_2_" d="M91.622,47.761v-1.942c0,0-0.105-1.521-1.741-1.521h-2.542v3.462H84.73v-9.983h6.336
					c0,0,3.305-0.389,3.305,2.922c0,1.723-1.461,2.331-1.461,2.331s1.269,0.576,1.269,2.266v2.464H91.622 M87.339,41.95h2.699
					c0.783,0,1.427-0.424,1.427-0.946c0-0.524-0.644-0.947-1.427-0.947h-2.699V41.95L87.339,41.95"/>
			</defs>
			
				<radialGradient id="SVGID_3_" cx="59.2051" cy="18.2954" r="99.7739" gradientTransform="matrix(1.0151 0 0 0.9855 -0.5755 0.6904)" gradientUnits="userSpaceOnUse">
				<stop  offset="0" style="stop-color:#00B8E9"/>
				<stop  offset="0.427" style="stop-color:#009ACA"/>
				<stop  offset="0.5077" style="stop-color:#0090BD"/>
				<stop  offset="0.8347" style="stop-color:#006D8E"/>
				<stop  offset="1" style="stop-color:#00607E"/>
			</radialGradient>
			<use xlink:href="#SVGID_2_"  overflow="visible" fill="url(#SVGID_3_)"/>
			<clipPath id="SVGID_4_">
				<use xlink:href="#SVGID_2_"  overflow="visible"/>
			</clipPath>
		</g>
		<g>
			<defs>
				<path id="SVGID_5_" d="M122.424,47.761l-4.139-6.672v6.672h-2.246h-0.421h-2.449l-0.925-2.093h-4.768l-0.907,2.093h-2.4h-0.435
					h-1.254c0,0-3.516-0.489-3.516-4.713c0-5.542,3.988-5.322,4.126-5.355l3.219,0.085v2.247l-2.645,0.033c0,0-1.723,0-1.933,2.181
					c-0.024,0.25-0.036,0.48-0.034,0.694c0.01,3.375,3.017,2.328,3.115,2.296l3.237-7.451h3.654l3.913,9.056v-9.056h3.692
					l4.088,6.572v-6.572h2.629v9.983H122.424 M108.592,43.115h2.539l-1.253-2.973L108.592,43.115L108.592,43.115"/>
			</defs>
			
				<radialGradient id="SVGID_6_" cx="59.2031" cy="18.2954" r="99.7768" gradientTransform="matrix(1.0151 0 0 0.9855 -0.5755 0.6904)" gradientUnits="userSpaceOnUse">
				<stop  offset="0" style="stop-color:#00B8E9"/>
				<stop  offset="0.427" style="stop-color:#009ACA"/>
				<stop  offset="0.5077" style="stop-color:#0090BD"/>
				<stop  offset="0.8347" style="stop-color:#006D8E"/>
				<stop  offset="1" style="stop-color:#00607E"/>
			</radialGradient>
			<use xlink:href="#SVGID_5_"  overflow="visible" fill="url(#SVGID_6_)"/>
			<clipPath id="SVGID_7_">
				<use xlink:href="#SVGID_5_"  overflow="visible"/>
			</clipPath>
		</g>
		<g>
			<defs>
				<path id="SVGID_8_" d="M71.138,47.761v-6.892l-3.271,6.892h-2.14l-3.291-6.859v6.859h-2.278h-0.348h-2.524l-0.904-2.093h-4.768
					l-0.923,2.093h-2.854l4.333-9.983h3.672l3.968,9.173v-9.173h4.123l2.873,6.199l2.854-6.199h4.124v9.983H71.138 M52.726,43.115
					h2.542l-1.27-2.973L52.726,43.115L52.726,43.115"/>
			</defs>
			
				<radialGradient id="SVGID_9_" cx="59.2075" cy="18.2969" r="99.7665" gradientTransform="matrix(1.0151 0 0 0.9855 -0.5755 0.6904)" gradientUnits="userSpaceOnUse">
				<stop  offset="0" style="stop-color:#00B8E9"/>
				<stop  offset="0.427" style="stop-color:#009ACA"/>
				<stop  offset="0.5077" style="stop-color:#0090BD"/>
				<stop  offset="0.8347" style="stop-color:#006D8E"/>
				<stop  offset="1" style="stop-color:#00607E"/>
			</radialGradient>
			<use xlink:href="#SVGID_8_"  overflow="visible" fill="url(#SVGID_9_)"/>
			<clipPath id="SVGID_10_">
				<use xlink:href="#SVGID_8_"  overflow="visible"/>
			</clipPath>
		</g>
		<g>
			<defs>
				<polyline id="SVGID_11_" points="75.228,47.761 75.228,37.777 83.375,37.777 83.375,40.108 77.857,40.108 77.857,41.645 
					83.235,41.645 83.235,43.91 77.857,43.91 77.857,45.6 83.375,45.6 83.375,47.761 75.228,47.761 				"/>
			</defs>
			
				<radialGradient id="SVGID_12_" cx="59.2017" cy="18.2969" r="99.7772" gradientTransform="matrix(1.0151 0 0 0.9855 -0.5755 0.6904)" gradientUnits="userSpaceOnUse">
				<stop  offset="0" style="stop-color:#00B8E9"/>
				<stop  offset="0.427" style="stop-color:#009ACA"/>
				<stop  offset="0.5077" style="stop-color:#0090BD"/>
				<stop  offset="0.8347" style="stop-color:#006D8E"/>
				<stop  offset="1" style="stop-color:#00607E"/>
			</radialGradient>
			<use xlink:href="#SVGID_11_"  overflow="visible" fill="url(#SVGID_12_)"/>
			<clipPath id="SVGID_13_">
				<use xlink:href="#SVGID_11_"  overflow="visible"/>
			</clipPath>
		</g>
		<g>
			<defs>
				<polyline id="SVGID_14_" points="95.452,47.795 95.452,37.777 98.08,37.777 98.08,47.795 95.452,47.795 				"/>
			</defs>
			
				<radialGradient id="SVGID_15_" cx="59.1831" cy="18.2959" r="99.8149" gradientTransform="matrix(1.0151 0 0 0.9855 -0.5755 0.6904)" gradientUnits="userSpaceOnUse">
				<stop  offset="0" style="stop-color:#00B8E9"/>
				<stop  offset="0.427" style="stop-color:#009ACA"/>
				<stop  offset="0.5077" style="stop-color:#0090BD"/>
				<stop  offset="0.8347" style="stop-color:#006D8E"/>
				<stop  offset="1" style="stop-color:#00607E"/>
			</radialGradient>
			<use xlink:href="#SVGID_14_"  overflow="visible" fill="url(#SVGID_15_)"/>
			<clipPath id="SVGID_16_">
				<use xlink:href="#SVGID_14_"  overflow="visible"/>
			</clipPath>
		</g>
	</g>
	<g>
		<g>
			<defs>
				<path id="SVGID_17_" d="M101.699,64.691v-1.944c0,0-0.107-1.52-1.742-1.52h-2.539v3.464h-2.611v-9.986h6.335
					c0,0,3.306-0.389,3.306,2.923c0,1.724-1.461,2.333-1.461,2.333s1.254,0.573,1.254,2.262v2.468H101.699 M97.418,58.879h2.699
					c0.78,0,1.424-0.421,1.424-0.946s-0.644-0.946-1.424-0.946h-2.699V58.879L97.418,58.879"/>
			</defs>
			
				<radialGradient id="SVGID_18_" cx="59.209" cy="18.29" r="99.7763" gradientTransform="matrix(1.0151 0 0 0.9855 -0.5755 0.6904)" gradientUnits="userSpaceOnUse">
				<stop  offset="0" style="stop-color:#00B8E9"/>
				<stop  offset="0.427" style="stop-color:#009ACA"/>
				<stop  offset="0.5077" style="stop-color:#0090BD"/>
				<stop  offset="0.8347" style="stop-color:#006D8E"/>
				<stop  offset="1" style="stop-color:#00607E"/>
			</radialGradient>
			<use xlink:href="#SVGID_17_"  overflow="visible" fill="url(#SVGID_18_)"/>
			<clipPath id="SVGID_19_">
				<use xlink:href="#SVGID_17_"  overflow="visible"/>
			</clipPath>
		</g>
		<g>
			<defs>
				<path id="SVGID_20_" d="M84.296,64.674h-2.282l-2.764-2.957l-2.787,2.957h-1.582h-8.127V54.672h8.127h1.374l2.996,3.176
					l3.01-3.159h2.002v-0.017h6.334c0,0,3.306-0.356,3.306,2.938c0,2.94-1.099,3.853-4.475,3.853h-2.556v3.21H84.296 M81.025,59.759
					l3.237,3.48v-6.945L81.025,59.759L81.025,59.759 M69.381,62.513h5.5l2.575-2.754l-2.575-2.739h-5.5v1.537h5.36v2.266h-5.36
					V62.513L69.381,62.513 M86.872,58.86h2.696c0.785,0,1.428-0.42,1.428-0.945c0-0.522-0.643-0.946-1.428-0.946h-2.696V58.86
					L86.872,58.86"/>
			</defs>
			
				<radialGradient id="SVGID_21_" cx="59.208" cy="18.2915" r="99.7801" gradientTransform="matrix(1.0151 0 0 0.9855 -0.5755 0.6904)" gradientUnits="userSpaceOnUse">
				<stop  offset="0" style="stop-color:#00B8E9"/>
				<stop  offset="0.427" style="stop-color:#009ACA"/>
				<stop  offset="0.5077" style="stop-color:#0090BD"/>
				<stop  offset="0.8347" style="stop-color:#006D8E"/>
				<stop  offset="1" style="stop-color:#00607E"/>
			</radialGradient>
			<use xlink:href="#SVGID_20_"  overflow="visible" fill="url(#SVGID_21_)"/>
			<clipPath id="SVGID_22_">
				<use xlink:href="#SVGID_20_"  overflow="visible"/>
			</clipPath>
		</g>
		<g>
			<defs>
				<path id="SVGID_23_" d="M119.503,64.657h-4.647v-2.298h4.072c0,0,1.46,0.167,1.46-0.792c0-0.899-2.207-0.829-2.207-0.829
					s-3.604,0.304-3.604-2.974c0-3.261,3.254-3.076,3.254-3.076h5.012v2.331h-4.037c0,0-1.393-0.271-1.393,0.712
					c0,0.825,1.897,0.708,1.897,0.708s3.984-0.286,3.984,2.72c0,3.225-2.567,3.511-3.478,3.511
					C119.62,64.67,119.503,64.657,119.503,64.657"/>
			</defs>
			
				<radialGradient id="SVGID_24_" cx="59.2134" cy="18.2959" r="99.7664" gradientTransform="matrix(1.0151 0 0 0.9855 -0.5755 0.6904)" gradientUnits="userSpaceOnUse">
				<stop  offset="0" style="stop-color:#00B8E9"/>
				<stop  offset="0.427" style="stop-color:#009ACA"/>
				<stop  offset="0.5077" style="stop-color:#0090BD"/>
				<stop  offset="0.8347" style="stop-color:#006D8E"/>
				<stop  offset="1" style="stop-color:#00607E"/>
			</radialGradient>
			<use xlink:href="#SVGID_23_"  overflow="visible" fill="url(#SVGID_24_)"/>
			<clipPath id="SVGID_25_">
				<use xlink:href="#SVGID_23_"  overflow="visible"/>
			</clipPath>
		</g>
		<g>
			<defs>
				<polyline id="SVGID_26_" points="105.529,64.674 105.529,54.705 113.672,54.705 113.672,57.02 108.155,57.02 108.155,58.557 
					113.533,58.557 113.533,60.822 108.155,60.822 108.155,62.513 113.672,62.513 113.672,64.674 105.529,64.674 				"/>
			</defs>
			
				<radialGradient id="SVGID_27_" cx="59.2021" cy="18.291" r="99.7861" gradientTransform="matrix(1.0151 0 0 0.9855 -0.5755 0.6904)" gradientUnits="userSpaceOnUse">
				<stop  offset="0" style="stop-color:#00B8E9"/>
				<stop  offset="0.427" style="stop-color:#009ACA"/>
				<stop  offset="0.5077" style="stop-color:#0090BD"/>
				<stop  offset="0.8347" style="stop-color:#006D8E"/>
				<stop  offset="1" style="stop-color:#00607E"/>
			</radialGradient>
			<use xlink:href="#SVGID_26_"  overflow="visible" fill="url(#SVGID_27_)"/>
			<clipPath id="SVGID_28_">
				<use xlink:href="#SVGID_26_"  overflow="visible"/>
			</clipPath>
		</g>
		<g>
			<defs>
				<path id="SVGID_29_" d="M128.706,64.657h-4.646v-2.298h4.057c0,0,1.479,0.167,1.479-0.792c0-0.899-2.21-0.829-2.21-0.829
					s-3.604,0.304-3.604-2.974c0-3.261,3.254-3.076,3.254-3.076h4.996v2.331h-4.021c0,0-1.392-0.271-1.392,0.712
					c0,0.825,1.896,0.708,1.896,0.708s3.984-0.286,3.984,2.72c0,3.225-2.567,3.511-3.477,3.511
					C128.825,64.67,128.706,64.657,128.706,64.657"/>
			</defs>
			
				<radialGradient id="SVGID_30_" cx="59.2139" cy="18.2959" r="99.7633" gradientTransform="matrix(1.0151 0 0 0.9855 -0.5755 0.6904)" gradientUnits="userSpaceOnUse">
				<stop  offset="0" style="stop-color:#00B8E9"/>
				<stop  offset="0.427" style="stop-color:#009ACA"/>
				<stop  offset="0.5077" style="stop-color:#0090BD"/>
				<stop  offset="0.8347" style="stop-color:#006D8E"/>
				<stop  offset="1" style="stop-color:#00607E"/>
			</radialGradient>
			<use xlink:href="#SVGID_29_"  overflow="visible" fill="url(#SVGID_30_)"/>
			<clipPath id="SVGID_31_">
				<use xlink:href="#SVGID_29_"  overflow="visible"/>
			</clipPath>
		</g>
	</g>
	<path fill="#009FDA" d="M37.5,83.749c0-2.079,1.723-3.75,3.881-3.75c2.142,0,3.863,1.671,3.863,3.75
		c0,2.079-1.721,3.751-3.863,3.751C39.223,87.5,37.5,85.828,37.5,83.749 M38.073,83.749c0,1.756,1.411,3.194,3.308,3.194
		c1.879,0,3.29-1.438,3.29-3.194c0-1.774-1.392-3.193-3.29-3.193C39.466,80.556,38.073,81.974,38.073,83.749 M42.338,85.472
		c-0.087-0.286-0.105-0.81-0.105-0.93c0-0.255-0.034-0.524-0.521-0.524H40.65v1.454h-0.626v-3.515h1.688
		c0.574,0,1.217,0.185,1.217,0.981c0,0.438-0.19,0.642-0.401,0.794c0.175,0.084,0.314,0.237,0.333,0.625l0.018,0.608
		c0.016,0.184,0.035,0.22,0.173,0.302v0.204H42.338 M40.65,83.477h1.009c0.331,0,0.626-0.083,0.626-0.505
		c0-0.441-0.313-0.474-0.539-0.474H40.65V83.477"/>
</g>
</svg>
