<?xml version="1.0" encoding="utf-8"?>
<!-- Generator: Adobe Illustrator 15.1.0, SVG Export Plug-In . SVG Version: 6.00 Build 0)  -->
<!DOCTYPE svg PUBLIC "-//W3C//DTD SVG 1.1//EN" "http://www.w3.org/Graphics/SVG/1.1/DTD/svg11.dtd">
<svg version="1.1" id="Layer_1" xmlns="http://www.w3.org/2000/svg" xmlns:xlink="http://www.w3.org/1999/xlink" x="0px" y="0px"
	 width="170px" height="95px" viewBox="0 0 170 95" enable-background="new 0 0 170 95" xml:space="preserve">
<g id="Ing_Homepay_Logo">
	<g>
		<path fill-rule="evenodd" clip-rule="evenodd" fill="#F26822" d="M157.02,25.921H12.981c-1.989,0-3.601,1.61-3.601,3.597v35.965
			c0,1.987,1.612,3.597,3.601,3.597H157.02c1.988,0,3.6-1.61,3.6-3.597V29.518C160.619,27.531,159.008,25.921,157.02,25.921z"/>
	</g>
	<g>
		<path fill-rule="evenodd" clip-rule="evenodd" fill="#FFFFFF" d="M153.828,32.343H81.945c-1.989,0-3.601,1.61-3.601,3.597
			l-0.027,26.375h72.046c1.988,0,3.602-1.61,3.602-3.596L153.828,32.343z"/>
	</g>
	<g>
		<path fill="#FFFFFF" d="M42.556,39.043c2.521,0,2.454,1.127,2.454,3.777v6.561c0,0.463,0,0.663,0.067,0.993l-11.743-12.06h-6.303
			v0.729c2.653,0,2.653,1.657,2.653,3.181v10.205c0,2.584,0,3.777-2.521,3.777v0.729h6.701v-0.729c-2.521,0-2.521-0.994-2.521-3.777
			v-8.945c0-0.398,0-0.729-0.066-1.127l14.264,14.71h1.129V42.82c0-2.716,0.132-3.777,2.586-3.777v-0.729h-6.7V39.043z
			 M14.227,39.043c1.857,0,2.721,0.066,2.721,2.452v12.258c0,2.319-1.128,2.452-2.721,2.452v0.729h9.421v-0.729
			c-1.725,0-2.72-0.132-2.72-2.452V41.496c0-2.386,0.796-2.452,2.72-2.452v-0.729h-9.421V39.043z M63.455,47.26v0.729
			c2.255,0,2.521,0.597,2.521,2.187v4.903c-1.327,0.597-2.389,0.861-3.583,0.861c-3.98,0-6.965-3.379-6.965-8.283
			c0-4.97,2.455-8.283,6.634-8.283c1.99,0,3.715,0.663,4.976,1.922c0.796,0.729,1.393,1.789,1.724,3.047h0.797l-0.598-6.427h-0.663
			c-0.067,0.464-0.2,1.259-0.664,1.259c-0.531,0-1.062-0.332-1.924-0.597c-1.194-0.397-2.322-0.663-3.848-0.663
			c-6.104,0-10.88,4.639-10.88,10.205c0,5.169,4.18,9.277,11.146,9.277c2.521,0,5.042-0.663,7.695-1.988v-4.771
			c0-1.988-0.065-2.65,2.058-2.65V47.26H63.455z"/>
	</g>
	<g>
		<path fill="#252162" d="M82.377,52.93V42.394h0.994v4.522h6.234v-4.522H90.6V52.93h-0.995v-5.166h-6.234v5.166H82.377z"/>
		<path fill="#252162" d="M92.326,49.14c0-2.209,1.17-3.995,3.512-3.995c2.37,0,3.512,1.771,3.512,3.995
			c0,2.4-1.39,3.995-3.512,3.995C93.906,53.106,92.326,51.789,92.326,49.14z M95.838,45.936c-1.844,0-2.575,1.566-2.575,3.205
			c0,1.888,0.892,3.205,2.575,3.205c1.844,0,2.575-1.581,2.575-3.205C98.399,47.355,97.697,45.936,95.838,45.936z"/>
		<path fill="#252162" d="M101.721,52.93h-0.878v-7.58h0.878v1.141h0.029c0.454-0.863,1.361-1.346,2.341-1.346
			c1.405,0,1.902,0.658,2.225,1.463c0.498-0.98,1.39-1.463,2.473-1.463c2.063,0,2.356,1.478,2.356,3v4.785h-0.879v-5.239
			c0-1.083-0.381-1.756-1.623-1.756c-0.645,0-1.273,0.278-1.713,0.863c-0.38,0.498-0.498,1.419-0.498,2.049v4.083h-0.878v-5.239
			c0-1.083-0.38-1.756-1.625-1.756c-0.644,0-1.272,0.278-1.711,0.863c-0.381,0.498-0.498,1.419-0.498,2.049V52.93z"/>
		<path fill="#252162" d="M113.689,49.346c-0.014,1.638,0.865,3,2.547,3c1.141,0,2.033-0.63,2.297-1.742h0.98
			c-0.438,1.434-1.346,2.531-3.277,2.531c-2.43,0-3.482-1.727-3.482-3.965c0-2.21,1.316-4.024,3.482-4.024
			c2.078,0,3.352,1.478,3.336,4.2H113.689z M118.637,48.613c0-1.478-0.82-2.678-2.4-2.678c-1.551,0-2.371,1.244-2.547,2.678H118.637
			z"/>
		<path fill="#252162" d="M122.469,44.121c0,0.849-0.453,1.375-1.068,1.566v-0.542c0.236-0.146,0.498-0.38,0.498-0.966v-0.497H121.4
			v-1.288h1.068V44.121z"/>
		<path fill="#252162" d="M131.633,48.354c-0.611,0.515-1.482,0.772-2.617,0.772h-2.172v3.804h-2.193V42.373h4.496
			c1.035,0,1.861,0.272,2.479,0.815c0.615,0.544,0.924,1.386,0.924,2.525C132.549,46.959,132.244,47.839,131.633,48.354z
			 M129.943,44.532c-0.273-0.237-0.658-0.355-1.15-0.355h-1.949v3.145h1.949c0.492,0,0.877-0.128,1.15-0.384s0.41-0.662,0.41-1.218
			C130.354,45.166,130.217,44.77,129.943,44.532z"/>
		<path fill="#252162" d="M137.258,48.161c0.377-0.048,0.646-0.108,0.809-0.181c0.293-0.125,0.439-0.319,0.439-0.584
			c0-0.323-0.111-0.546-0.336-0.669c-0.223-0.123-0.551-0.184-0.98-0.184c-0.484,0-0.828,0.119-1.029,0.357
			c-0.145,0.176-0.24,0.415-0.289,0.715h-1.975c0.043-0.674,0.236-1.229,0.576-1.663c0.541-0.68,1.469-1.019,2.785-1.019
			c0.857,0,1.617,0.164,2.283,0.493c0.666,0.33,0.998,0.968,0.998,1.915v3.607c0,0.25,0.004,0.553,0.014,0.909
			c0.014,0.268,0.055,0.449,0.119,0.544c0.066,0.095,0.164,0.175,0.297,0.236v0.293h-2.205c-0.063-0.155-0.104-0.301-0.129-0.437
			c-0.023-0.136-0.043-0.292-0.057-0.465c-0.283,0.309-0.609,0.571-0.977,0.788c-0.441,0.255-0.941,0.383-1.496,0.383
			c-0.709,0-1.295-0.204-1.758-0.611c-0.463-0.406-0.693-0.983-0.693-1.731c0-0.968,0.369-1.669,1.111-2.103
			c0.406-0.237,1.006-0.405,1.795-0.506L137.258,48.161z M138.498,49.118c-0.129,0.083-0.26,0.149-0.393,0.2
			c-0.131,0.051-0.313,0.098-0.543,0.141l-0.461,0.087c-0.432,0.078-0.74,0.172-0.926,0.283c-0.316,0.188-0.475,0.482-0.475,0.879
			c0,0.354,0.098,0.609,0.291,0.766c0.195,0.157,0.43,0.236,0.709,0.236c0.441,0,0.846-0.131,1.219-0.392
			c0.371-0.261,0.564-0.738,0.578-1.431V49.118z"/>
		<path fill="#252162" d="M142.604,54.442l0.26,0.012c0.205,0.008,0.398,0,0.582-0.023c0.186-0.025,0.34-0.08,0.465-0.167
			c0.121-0.083,0.234-0.254,0.338-0.514c0.104-0.261,0.152-0.42,0.143-0.478l-2.867-8.143h2.264l1.705,5.754l1.609-5.754h2.166
			l-2.674,7.673c-0.516,1.473-0.924,2.388-1.229,2.742s-0.91,0.531-1.822,0.531c-0.184,0-0.33-0.001-0.441-0.003
			c-0.111-0.002-0.277-0.009-0.498-0.021V54.442z"/>
	</g>
</g>
</svg>
