<svg xmlns="http://www.w3.org/2000/svg" viewBox="0 0 170 95" style="enable-background:new 0 0 170 95"><g style="fill-rule:evenodd"><g style="fill:#0058a1"><path d="m62.81 69.3l7.59-43.58h12.2l-7.62 43.58h-12.17"/><path d="m119.1 26.81c-2.4-.85-6.21-1.81-10.88-1.81-12 0-20.47 5.9-20.53 14.38-.06 6.26 6 9.75 10.64 11.85 4.73 2.17 6.33 3.49 6.27 5.41 0 2.95-3.75 4.27-7.25 4.27-4.86 0-7.44-.66-11.44-2.29l-1.6-.72-1.66 9.74c2.83 1.26 8.1 2.29 13.52 2.34 12.79 0 21-5.83 21.2-14.92.06-4.93-3.2-8.72-10.21-11.85-4.24-1.99-6.82-3.31-6.82-5.36 0-1.87 2.21-3.79 6.95-3.79 3.99-.06 6.89.78 9.1 1.69l1.11.48 1.66-9.44"/><path d="m150.2 25.78h-9.41c-2.89 0-5.1.78-6.39 3.61l-18 40h12.72c0 0 2.08-5.41 2.58-6.56 1.41 0 13.77 0 15.56 0 .36 1.5 1.48 6.56 1.48 6.56h11.25l-9.77-43.61m-15 28.1c.98-2.47 4.86-12.15 4.86-12.15-.12.12.98-2.53 1.6-4.15l.81 3.73c0 0 2.34 10.41 2.82 12.58h-10.1"/><path d="m52.66 25.78l-11.93 29.72-1.23-6c-2.21-6.98-9.16-14.5-16.84-18.29l10.88 38.1h12.85l19.1-43.56h-12.85"/></g><path d="m29.73 25.72h-19.61l-.12.96c15.19 3.61 25.33 12.33 29.51 22.8l-4.3-20c-.74-2.77-2.83-3.61-5.47-3.73" style="fill:#faa61b"/></g></svg>