<?xml version="1.0" encoding="utf-8"?>
<!-- Generator: Adobe Illustrator 15.1.0, SVG Export Plug-In . SVG Version: 6.00 Build 0)  -->
<!DOCTYPE svg PUBLIC "-//W3C//DTD SVG 1.1//EN" "http://www.w3.org/Graphics/SVG/1.1/DTD/svg11.dtd">
<svg version="1.1" id="Layer_1" xmlns="http://www.w3.org/2000/svg" xmlns:xlink="http://www.w3.org/1999/xlink" x="0px" y="0px"
	 width="170px" height="95px" viewBox="0 0 170 95" enable-background="new 0 0 170 95" xml:space="preserve">
<g id="Sofort_banking_Logo">
	<path fill-rule="evenodd" clip-rule="evenodd" fill="#ED8223" d="M61.315,24.294c0.542,0.08,1.093,0.153,1.754,0.111
		c-0.018,0.317,0.676-0.092,0.659,0.224c0.27-0.014,0.527-0.016,0.658,0.113c0.991,0.144,1.626,0.651,2.413,1.005
		c0.026,0.122,0.218,0.076,0.218,0.223c0.098,0.05,0.195,0.099,0.219,0.223c0.224,0.034,0.214,0.302,0.439,0.336
		c0.099,0.196,0.245,0.345,0.438,0.447c0.11,0.148,0.104,0.415,0.328,0.447c-0.027,0.326,0.249,0.343,0.22,0.67
		c0.225,0.03,0.103,0.416,0.329,0.447c-0.081,0.341,0.188,0.329,0.109,0.672c0.298-0.082-0.078,0.525,0.22,0.446
		c-0.086,0.571,0.153,0.812,0.11,1.34c-0.048,0.884,0.11,1.976-0.11,2.683c-0.035,0.896-0.266,1.593-0.439,2.346
		c-0.067,0.417-0.26,0.703-0.329,1.118c-0.092,0.131-0.144,0.301-0.11,0.56c-0.146,0.074-0.204,0.238-0.218,0.447
		c-0.112,0.146-0.108,0.412-0.22,0.558c-0.021,0.091-0.11,0.112-0.109,0.224c0.017,0.13-0.024,0.199-0.11,0.223
		c0.03,0.18-0.103,0.193-0.109,0.335c0.018,0.129-0.024,0.199-0.11,0.223c-0.014,0.208-0.072,0.375-0.219,0.448
		c0.009,0.16,0.018,0.316-0.11,0.335c0.019,0.131-0.025,0.199-0.109,0.223c-0.015,0.208-0.072,0.375-0.219,0.448
		c-0.015,0.208-0.072,0.373-0.219,0.446c-0.015,0.209-0.073,0.374-0.219,0.448c-0.068,0.414-0.309,0.654-0.438,1.004
		c-0.147,0.074-0.205,0.24-0.22,0.448c-0.207,0.014-0.075,0.37-0.328,0.336c0.017,0.277-0.173,0.345-0.219,0.558
		c-0.208,0.013-0.076,0.37-0.33,0.336c0.079,0.304-0.219,0.224-0.219,0.447c-0.001,0.222-0.299,0.142-0.219,0.447
		c-0.145,0.04-0.173,0.196-0.329,0.224c0.04,0.189-0.086,0.211-0.22,0.224c0.051,0.35-0.295,0.295-0.329,0.558
		c-0.193,0.103-0.181,0.413-0.438,0.448c-0.099,0.197-0.245,0.346-0.439,0.446c-0.098,0.198-0.245,0.348-0.439,0.448
		c-0.097,0.197-0.245,0.347-0.438,0.448c-0.168,0.424-0.708,0.471-0.877,0.894c-0.337-0.084-0.21,0.306-0.547,0.223
		c-0.031,0.229-0.293,0.223-0.439,0.336c-0.098,0.049-0.197,0.098-0.219,0.223c-0.127-0.019-0.195,0.025-0.219,0.112
		c-0.337-0.083-0.211,0.306-0.549,0.223c-0.029,0.231-0.408,0.106-0.438,0.336c-0.272-0.018-0.339,0.175-0.548,0.224
		c-0.274-0.019-0.34,0.174-0.549,0.223c-0.272-0.018-0.339,0.175-0.547,0.224c-0.847,0.181-1.53,0.528-2.523,0.559
		c-0.128,0.128-0.386,0.126-0.657,0.113c-0.334-0.082-0.399,0.113-0.658,0.11c-0.513,0-1.024,0-1.535,0
		c-0.661-0.07-1.292-0.171-1.973-0.223c-0.034-0.152-0.274-0.092-0.438-0.112c-0.025-0.159-0.328-0.039-0.329-0.223
		c-0.395,0.029-0.529-0.207-0.877-0.224c-0.003-0.109-0.134-0.088-0.219-0.112c0.02-0.094-0.042-0.104-0.109-0.111
		c-0.089-0.097-0.301-0.066-0.329-0.223c-0.188,0.004-0.284-0.084-0.329-0.224c-0.188,0.005-0.284-0.083-0.33-0.223
		c-0.385,0.02-0.359-0.378-0.658-0.448c-0.254-0.076-0.292-0.371-0.547-0.447c0.051-0.351-0.294-0.294-0.33-0.56
		c-0.109-0.147-0.104-0.415-0.328-0.446c-0.028-0.041,0.035-0.194,0-0.223c-0.014-0.011-0.104,0.013-0.11,0
		c-0.019-0.04,0.032-0.197,0-0.224c-0.011-0.01-0.104,0.013-0.109,0c-0.074-0.182,0.017-0.333-0.109-0.447
		c-0.027-0.381-0.277-0.537-0.22-1.005c-0.237,0.019-0.049-0.397-0.109-0.559c-0.149-0.035-0.092-0.28-0.109-0.446
		c0.064-0.477-0.08-0.74-0.11-1.118c0.109-0.708,0.078-1.561,0.22-2.236c0.018-0.106-0.023-0.229,0-0.333
		c0.019-0.092,0.088-0.115,0.109-0.224c0.016-0.082-0.054-0.392,0-0.447c0.008-0.008,0.108,0.009,0.11,0
		c0.016-0.083-0.054-0.391,0-0.447c0.007-0.008,0.108,0.008,0.11,0c0.028-0.182-0.021-0.376,0-0.56
		c0.106-0.003,0.085-0.136,0.109-0.223c0.021-0.09,0.11-0.111,0.109-0.224c-0.014-0.199,0.135-0.236,0.11-0.446
		c0.085-0.099,0.117-0.252,0.109-0.445c0.158-0.027,0.039-0.335,0.219-0.337c-0.09-0.315,0.155-0.289,0.11-0.558
		c0.094-0.091,0.065-0.308,0.219-0.336c-0.07-0.444,0.291-0.449,0.219-0.894c0.147-0.072,0.203-0.239,0.22-0.446
		c0.106-0.003,0.084-0.138,0.108-0.224c0.093,0.021,0.105-0.043,0.11-0.111c0.028-0.344,0.238-0.502,0.329-0.783
		c0.057-0.165,0.161-0.281,0.219-0.446c0.095-0.09,0.066-0.307,0.219-0.335c0.09-0.28,0.301-0.44,0.33-0.783
		c0.334-0.071,0.215-0.601,0.548-0.672c-0.005-0.19,0.081-0.289,0.219-0.334c-0.005-0.192,0.082-0.29,0.22-0.335
		c-0.08-0.306,0.218-0.226,0.219-0.448c0.04-0.146,0.193-0.176,0.22-0.334c0.107-0.003,0.085-0.137,0.109-0.224
		c0.093,0.021,0.104-0.044,0.11-0.111c0.135-0.049,0.226-0.144,0.219-0.336c0.157-0.063,0.267-0.175,0.329-0.335
		c0.134-0.048,0.225-0.143,0.219-0.335c0.289-0.116,0.369-0.443,0.657-0.559c0.3-0.477,0.796-0.754,1.097-1.229
		c0.288-0.117,0.37-0.443,0.658-0.56c0.298-0.069,0.273-0.467,0.658-0.446c-0.034-0.258,0.317-0.125,0.329-0.335
		c0.145-0.04,0.172-0.198,0.329-0.223c0.144-0.04,0.173-0.197,0.33-0.224c0.088-0.095,0.299-0.067,0.329-0.223
		c0.549-0.224,0.908-0.64,1.536-0.783c0.002-0.109,0.133-0.087,0.218-0.112c0.09-0.021,0.11-0.113,0.219-0.112
		c0.09-0.096,0.302-0.067,0.329-0.224c0.395,0.031,0.529-0.206,0.877-0.223c0.539-0.232,1.167-0.376,1.864-0.448
		c0.085-0.039,0.115-0.088,0.22-0.11c0.104-0.025,0.223,0.017,0.329,0c0.217-0.038,0.3-0.013,0.438-0.113c0.366,0,0.732,0,1.097,0
		C61.223,24.424,61.291,24.38,61.315,24.294z M61.096,30.999c-0.162-0.057-0.277-0.165-0.438-0.223
		c-0.404-0.073-0.737-0.218-1.207-0.224c-0.14,0.006-0.152,0.144-0.328,0.112c-0.407-0.078-0.471,0.192-0.877,0.112
		c-0.029,0.157-0.239,0.126-0.329,0.223c-0.163,0.059-0.276,0.166-0.439,0.224c-0.012,0.211-0.362,0.077-0.329,0.336
		c-0.217,0.001-0.139,0.303-0.439,0.223c-0.237,0.428-0.717,0.61-0.875,1.117c-0.25,0.082-0.329,0.337-0.438,0.561
		c-0.124,0.022-0.171,0.123-0.221,0.223c-0.025,0.16-0.181,0.188-0.219,0.336c-0.006,0.142-0.141,0.154-0.111,0.335
		c-0.136,0.045-0.223,0.144-0.219,0.333c-0.145,0.002-0.1,0.197-0.22,0.225c0.026,0.21-0.123,0.245-0.108,0.446
		c-0.236,0.094-0.177,0.491-0.329,0.67c-0.104,0.229-0.224,0.443-0.329,0.671c0.019,0.159-0.073,0.238-0.11,0.335
		c-0.008,0.021,0.016,0.096,0,0.111c-0.011,0.012-0.104-0.013-0.11,0c-0.041,0.095,0.037,0.241,0,0.336
		c-0.005,0.013-0.098-0.013-0.11,0c-0.036,0.036,0.038,0.186,0,0.224c-0.011,0.011-0.103-0.015-0.109,0
		c-0.024,0.059,0.012,0.159,0,0.223c-0.018,0.107-0.072,0.136-0.109,0.224c-0.084,0.248-0.23,0.435-0.22,0.782
		c-0.127,0.019-0.119,0.176-0.108,0.334c-0.183,0.003-0.062,0.312-0.221,0.337c-0.072,0.596-0.25,1.085-0.438,1.565
		c-0.074,0.594-0.271,1.065-0.33,1.675c0,0.484,0,0.969,0,1.453c0.17,0.349,0.235,0.806,0.439,1.118
		c0.146,0.112,0.408,0.104,0.439,0.335c0.336-0.082,0.322,0.192,0.657,0.111c0.024,0.087,0.092,0.13,0.22,0.112
		c0.146,0,0.291,0,0.438,0c0.256,0,0.511,0,0.767,0c0.149-0.035,0.209-0.16,0.439-0.112c0.22-0.15,0.522-0.213,0.767-0.336
		c0.157-0.027,0.187-0.183,0.329-0.223c0.218-0.002,0.14-0.306,0.438-0.223c0.138-0.233,0.319-0.42,0.549-0.56
		c-0.007-0.192,0.084-0.286,0.219-0.334c-0.079-0.306,0.218-0.226,0.22-0.447c0.153-0.029,0.125-0.246,0.219-0.335
		c0.057-0.166,0.163-0.282,0.219-0.447c0.155-0.028,0.125-0.245,0.22-0.336c0.058-0.165,0.164-0.281,0.22-0.448
		c0.245-0.12,0.193-0.547,0.438-0.67c0.058-0.351,0.192-0.623,0.329-0.894c0.138-0.27,0.271-0.543,0.328-0.895
		c0.183-0.001,0.062-0.309,0.22-0.335c-0.044-0.27,0.2-0.242,0.11-0.559c0.181-0.002,0.062-0.309,0.22-0.335
		c-0.009-0.195,0.023-0.349,0.108-0.447c0.147-0.259,0.183-0.635,0.33-0.895c0.139-0.678,0.455-1.175,0.547-1.898
		c0.109-0.264,0.194-0.55,0.22-0.894c0.109-0.299,0.226-0.59,0.219-1.007c0-0.185,0-0.372,0-0.558
		c-0.021-0.111,0.115-0.135,0.111-0.224c0-0.004-0.104,0.006-0.111,0c-0.035-0.029,0.029-0.184,0-0.224
		c0.059-0.469-0.19-0.625-0.219-1.005C61.266,31.271,61.158,31.161,61.096,30.999z"/>
	<path fill-rule="evenodd" clip-rule="evenodd" fill="#ED8223" d="M103.638,24.405c1.024,0,2.047,0,3.07,0
		c0.015,0.248,0.466,0.048,0.658,0.113c-0.019,0.242,0.389,0.05,0.547,0.11c0.004,0.11,0.135,0.088,0.22,0.113
		c0.087,0.021,0.109,0.111,0.219,0.11c0.265-0.045,0.238,0.205,0.548,0.112c0.018,0.131,0.2,0.094,0.329,0.112
		c0.004,0.108,0.134,0.087,0.22,0.111c0.071,0.151,0.235,0.21,0.438,0.224c-0.032,0.257,0.315,0.124,0.329,0.335
		c0.298-0.082,0.222,0.221,0.438,0.223c0.03,0.229,0.292,0.223,0.438,0.335c0.101,0.197,0.266,0.326,0.329,0.559
		c0.163,0.097,0.349,0.167,0.33,0.446c0.225,0.032,0.219,0.299,0.329,0.448c0.048,0.101,0.097,0.2,0.218,0.223
		c-0.017,0.13,0.026,0.2,0.109,0.224c-0.051,0.352,0.156,0.438,0.222,0.67c-0.033,0.181,0.103,0.194,0.107,0.338
		c-0.008,0.157-0.017,0.315,0.111,0.333c0.083,0.512,0.091,1.1,0.221,1.565c0.055,0.989-0.065,1.798-0.111,2.683
		c-0.17,0.571-0.184,1.303-0.438,1.787c0.028,0.403-0.202,0.539-0.221,0.896c-0.016,0.355-0.245,0.491-0.218,0.894
		c-0.158,0.024-0.038,0.333-0.22,0.335c0.047,0.233-0.074,0.296-0.109,0.447c-0.087,0.099-0.117,0.252-0.109,0.448
		c-0.158,0.024-0.038,0.333-0.221,0.334c-0.017,0.355-0.246,0.491-0.219,0.894c-0.107,0.003-0.086,0.136-0.11,0.224
		c-0.092-0.021-0.103,0.044-0.11,0.111c-0.083,0.1-0.116,0.253-0.108,0.447c-0.226,0.031-0.103,0.417-0.328,0.447
		c0.02,0.13-0.025,0.199-0.109,0.223c0.018,0.13-0.024,0.199-0.109,0.224c-0.145,0.3-0.295,0.594-0.439,0.894
		c-0.057,0.167-0.162,0.283-0.221,0.448c0,0.222-0.3,0.143-0.218,0.448c-0.146,0.073-0.204,0.239-0.22,0.446
		c-0.206,0.013-0.075,0.369-0.329,0.335c0.018,0.278-0.172,0.346-0.22,0.559c-0.207,0.013-0.076,0.369-0.328,0.335
		c-0.057,0.165-0.161,0.282-0.219,0.447c-0.208,0.013-0.077,0.369-0.331,0.335c0.083,0.304-0.217,0.224-0.218,0.446
		c-0.207,0.013-0.077,0.37-0.328,0.336c-0.062,0.161-0.171,0.272-0.329,0.335c0.08,0.305-0.217,0.226-0.22,0.447
		c-0.266,0.177-0.484,0.4-0.657,0.67c-0.335,0.106-0.343,0.545-0.768,0.56c-0.063,0.161-0.171,0.272-0.329,0.334
		c0.032,0.259-0.317,0.125-0.33,0.335c-0.217,0.002-0.141,0.306-0.439,0.225c0.035,0.257-0.317,0.123-0.329,0.334
		c-0.088,0.06-0.178,0.118-0.329,0.113c-0.028,0.121-0.218,0.075-0.22,0.223c-0.208,0.049-0.275,0.241-0.547,0.224
		c-0.031,0.23-0.409,0.104-0.438,0.334c-0.274-0.017-0.34,0.177-0.55,0.224c-0.205,0.089-0.4,0.187-0.658,0.224
		c0.021,0.134-0.164,0.056-0.219,0.112c-0.009,0.01,0.01,0.108,0,0.111c-0.101,0.032-0.226-0.024-0.329,0
		c-0.019,0.132-0.2,0.094-0.33,0.112c-0.003,0.108-0.134,0.086-0.219,0.112c-0.145,0.114-0.404,0.11-0.549,0.224
		c-1.324,0.251-2.673,0.479-4.275,0.446c-0.479,0.079-0.617-0.19-1.098-0.11c-0.309,0.092-0.284-0.158-0.547-0.113
		c-0.174-0.01-0.419,0.055-0.438-0.112c-0.46,0.059-0.613-0.196-0.987-0.223c-0.076-0.052-0.125-0.073-0.22-0.112
		c-0.037-0.016-0.193,0.031-0.219,0c-0.01-0.012,0.013-0.106,0-0.112c-0.039-0.017-0.194,0.031-0.219,0
		c-0.008-0.011,0.012-0.108,0-0.112c-0.065-0.022-0.152,0.017-0.219,0c-0.087-0.246-0.516-0.144-0.548-0.447
		c-0.188,0.004-0.284-0.083-0.329-0.224c-0.176,0.032-0.188-0.104-0.329-0.111c-0.14-0.193-0.227-0.439-0.548-0.448
		c-0.099-0.197-0.245-0.346-0.439-0.447c0.053-0.351-0.295-0.294-0.328-0.56c-0.111-0.147-0.104-0.415-0.329-0.446
		c0.014-0.2-0.134-0.235-0.109-0.447c-0.12-0.027-0.075-0.223-0.22-0.224c0.011-0.345-0.134-0.534-0.22-0.782
		c0.048-0.233-0.075-0.296-0.109-0.447c0.01-0.159,0.019-0.317-0.109-0.336c-0.001-0.296,0.042-0.637-0.109-0.782
		c0-0.41,0-0.819,0-1.229c0-0.187,0-0.373,0-0.558c0.009-0.178-0.053-0.427,0.109-0.447c-0.098-0.883,0.223-1.338,0.219-2.125
		c0.298,0.081-0.078-0.527,0.22-0.448c-0.046-0.232,0.075-0.294,0.11-0.446c-0.03-0.401,0.202-0.539,0.219-0.894
		c0.021-0.091,0.11-0.111,0.109-0.225c-0.017-0.128,0.024-0.197,0.109-0.221c0.011-0.179-0.052-0.427,0.11-0.448
		c0.016-0.357,0.248-0.493,0.219-0.895c0.147-0.074,0.205-0.239,0.218-0.448c0.095-0.09,0.066-0.306,0.22-0.335
		c-0.047-0.233,0.076-0.296,0.109-0.446c0.095-0.09,0.065-0.306,0.219-0.335c0.016-0.395,0.315-0.5,0.329-0.894
		c0.246-0.124,0.193-0.55,0.439-0.671c-0.081-0.305,0.218-0.225,0.219-0.448c-0.013-0.2,0.134-0.237,0.109-0.447
		c0.277-0.091,0.28-0.461,0.439-0.67c0.107-0.003,0.086-0.138,0.11-0.224c0.093,0.02,0.103-0.043,0.109-0.112
		c0.107-0.003,0.086-0.137,0.11-0.223c0.093,0.02,0.103-0.044,0.109-0.113c0.106-0.002,0.085-0.136,0.11-0.223
		c0.093,0.021,0.103-0.044,0.108-0.113c0.107-0.003,0.086-0.137,0.11-0.223c0.093,0.021,0.103-0.043,0.109-0.111
		c0.253,0.034,0.122-0.324,0.33-0.335c0.038-0.148,0.193-0.176,0.219-0.336c0.106-0.002,0.084-0.136,0.109-0.223
		c0.094,0.02,0.104-0.044,0.11-0.112c0.143-0.038,0.171-0.197,0.328-0.225c0.12-0.288,0.277-0.536,0.548-0.669
		c0.137-0.234,0.319-0.42,0.548-0.558c0.114-0.295,0.435-0.377,0.549-0.672c0.23-0.137,0.427-0.309,0.658-0.447
		c0.061-0.161,0.171-0.272,0.328-0.336c0.144-0.039,0.173-0.197,0.33-0.223c0.002-0.109,0.135-0.087,0.219-0.112
		c-0.021-0.095,0.042-0.107,0.108-0.113c0.049-0.137,0.141-0.229,0.33-0.223c-0.034-0.257,0.317-0.123,0.329-0.334
		c0.088-0.095,0.3-0.067,0.331-0.223c0.039-0.029,0.188,0.036,0.219,0c0.016-0.021-0.021-0.093,0-0.113
		c0.019-0.018,0.09,0.021,0.109,0c0.013-0.014-0.016-0.102,0-0.111c0.04-0.022,0.191,0.034,0.219,0c0.008-0.01-0.011-0.108,0-0.112
		c0.065-0.023,0.152,0.019,0.22,0c0.003-0.108,0.134-0.086,0.219-0.11c0.002-0.109,0.133-0.087,0.219-0.113
		c0.002-0.108,0.135-0.087,0.219-0.111c-0.019-0.095,0.043-0.107,0.111-0.112c0.274-0.093,0.43-0.306,0.767-0.335
		c0.076-0.053,0.125-0.073,0.22-0.112c0.039-0.015,0.195,0.032,0.219,0c0.009-0.012-0.012-0.106,0-0.112
		c0.039-0.015,0.195,0.031,0.22,0c0.009-0.01-0.012-0.107,0-0.111c0.065-0.023,0.151,0.018,0.219,0
		c0.349-0.018,0.483-0.253,0.877-0.225c0.257-0.109,0.537-0.195,0.877-0.223c0.272-0.094,0.587-0.147,0.987-0.11
		C103.546,24.535,103.614,24.492,103.638,24.405z M104.406,30.776c-0.085-0.026-0.217-0.003-0.22-0.112c-0.219,0-0.439,0-0.657,0
		c-0.438,0-0.877,0-1.316,0c-0.141,0.006-0.152,0.144-0.329,0.112c-0.163,0.058-0.276,0.166-0.438,0.223
		c-0.067,0.007-0.13,0.017-0.11,0.112c-0.085,0.026-0.216,0.003-0.219,0.112c-0.229,0.138-0.427,0.309-0.657,0.447
		c-0.136,0.234-0.319,0.42-0.548,0.559c-0.137,0.233-0.319,0.42-0.549,0.559c-0.007,0.068-0.016,0.131-0.109,0.11
		c-0.025,0.087-0.003,0.222-0.11,0.224c-0.026,0.16-0.18,0.189-0.219,0.337c-0.135,0.234-0.304,0.434-0.438,0.669
		c-0.027,0.16-0.181,0.188-0.219,0.335c-0.006,0.068-0.017,0.133-0.109,0.113c-0.025,0.087-0.002,0.22-0.11,0.223
		c0.006,0.192-0.084,0.286-0.219,0.335c0.008,0.194-0.024,0.348-0.109,0.446c-0.092,0.281-0.3,0.441-0.33,0.784
		c-0.18,0.002-0.062,0.311-0.22,0.335c0.008,0.195-0.023,0.348-0.108,0.446c-0.121,0.25-0.182,0.561-0.33,0.783
		c0.024,0.21-0.124,0.247-0.109,0.446c-0.007,0.068-0.016,0.132-0.111,0.112c-0.024,0.085-0.002,0.22-0.108,0.223
		c-0.043,0.702-0.44,1.042-0.438,1.789c-0.182,0.001-0.063,0.31-0.219,0.334c-0.018,0.169,0.038,0.414-0.111,0.448
		c0.059,0.434-0.194,0.547-0.108,1.007c-0.162,0.02-0.101,0.27-0.11,0.446c-0.035,0.152-0.156,0.214-0.109,0.447
		c0,0.373,0,0.745,0,1.117c0.12,0.25,0.181,0.56,0.328,0.783c0.114,0.293,0.435,0.375,0.549,0.671
		c0.375,0.028,0.526,0.282,0.986,0.223c0.439,0,0.877,0,1.316,0c0.024-0.087,0.091-0.129,0.219-0.112c0.11,0,0.131-0.09,0.219-0.111
		c0.273,0.018,0.339-0.176,0.548-0.225c0.301-0.177,0.542-0.416,0.878-0.558c0.113-0.294,0.435-0.376,0.548-0.671
		c0.154-0.029,0.124-0.245,0.219-0.336c0.147-0.074,0.205-0.238,0.219-0.446c0.155-0.029,0.125-0.245,0.22-0.335
		c0.147-0.073,0.203-0.239,0.218-0.447c0.155-0.029,0.126-0.245,0.219-0.336c0.148-0.074,0.205-0.238,0.221-0.446
		c0.153-0.029,0.125-0.246,0.219-0.335c0.057-0.165,0.162-0.282,0.219-0.446c0.093-0.314,0.354-0.459,0.33-0.895
		c0.153-0.029,0.125-0.245,0.218-0.336c0.086-0.023,0.127-0.094,0.109-0.224c0-0.111,0.089-0.131,0.111-0.223
		c0.017-0.068-0.024-0.158,0-0.225c0.004-0.01,0.098,0.011,0.109,0c0.031-0.024-0.016-0.182,0-0.221
		c0.004-0.015,0.097,0.007,0.109,0c0.03-0.027-0.017-0.186,0-0.226c0.038-0.096,0.058-0.145,0.109-0.222
		c0.058-0.352,0.193-0.625,0.33-0.895c-0.025-0.212,0.123-0.248,0.109-0.448c0-0.112,0.089-0.132,0.11-0.223
		c0.024-0.088,0.003-0.22,0.109-0.223c-0.034-0.445,0.253-0.562,0.219-1.007c0.147-0.258,0.182-0.633,0.33-0.894
		c0.082-0.737,0.38-1.252,0.329-2.124c0.065-0.477-0.079-0.739-0.11-1.118c-0.147-0.074-0.204-0.24-0.219-0.447
		c-0.16-0.062-0.268-0.174-0.33-0.336C104.54,30.863,104.409,30.884,104.406,30.776z"/>
	<path fill-rule="evenodd" clip-rule="evenodd" fill="#ED8223" d="M97.168,24.741c-0.026,0.122-0.218,0.076-0.219,0.223
		c-0.087,0.06-0.177,0.117-0.328,0.112c-0.01,0.288-0.428,0.16-0.438,0.447c-0.345-0.053-0.29,0.3-0.549,0.335
		c-0.097,0.05-0.195,0.098-0.219,0.224c-0.126-0.019-0.194,0.023-0.219,0.11c-0.259,0.035-0.204,0.389-0.549,0.336
		c-0.035,0.262-0.339,0.25-0.438,0.447c-0.194,0.101-0.34,0.249-0.439,0.447c-0.274-0.019-0.343,0.171-0.437,0.334
		c-0.195,0.102-0.341,0.25-0.439,0.447c-0.195,0.102-0.34,0.25-0.439,0.446c-0.36,0.194-0.518,0.591-0.877,0.784
		c-0.034,0.262-0.381,0.208-0.329,0.558c-0.224,0.033-0.215,0.302-0.439,0.335c-0.127,0.167-0.135,0.457-0.328,0.558
		c-0.049,0.101-0.096,0.2-0.219,0.224c0.017,0.131-0.025,0.199-0.111,0.225c-2.981,0.052-6.183-0.118-8.99,0.111
		c-0.296,0.182-0.521,0.438-0.658,0.782c-0.227,0.031-0.104,0.417-0.33,0.447c-0.015,0.209-0.072,0.375-0.219,0.446
		c-0.13,0.837-0.481,1.448-0.657,2.236c0.017,0.131,0.2,0.094,0.33,0.112c0.146,0,0.292,0,0.438,0c0.292,0,0.585,0,0.877,0
		c1.754,0,3.509,0,5.263,0c0.011,0.346-0.133,0.534-0.219,0.782c0.018,0.354-0.292,0.373-0.22,0.783
		c-0.159,0.024-0.038,0.333-0.219,0.335c0.03,0.18-0.104,0.192-0.111,0.335c-0.035,0.261-0.131,0.461-0.219,0.669
		c0.018,0.354-0.292,0.375-0.22,0.783c-0.128,0.018-0.091,0.204-0.108,0.335c-0.128,0.018-0.093,0.204-0.11,0.335
		c-0.157,0.024-0.038,0.333-0.219,0.335c0.009,0.16,0.018,0.316-0.109,0.335c-0.037,0.261-0.132,0.461-0.219,0.671
		c-2.303,0-4.605,0-6.909,0c-0.229,0.101-0.333,0.329-0.328,0.67c-0.258,0.035-0.107,0.487-0.33,0.558
		c0.008,0.16,0.019,0.318-0.109,0.336c0.009,0.159,0.018,0.316-0.11,0.334c0.031,0.182-0.103,0.193-0.109,0.336
		c0.009,0.158,0.018,0.316-0.11,0.335c-0.02,0.317-0.201,0.466-0.22,0.782c-0.063,0.234-0.271,0.32-0.219,0.671
		c-0.128,0.018-0.092,0.204-0.109,0.334c-0.128,0.02-0.092,0.204-0.11,0.336c-0.256,0.036-0.105,0.488-0.329,0.558
		c-0.062,0.541-0.282,1.006-0.438,1.454c-0.006,0.021,0.015,0.096,0,0.111c-0.012,0.011-0.104-0.015-0.109,0
		c-0.029,0.066,0.047,0.287,0,0.336c-0.012,0.012-0.104-0.014-0.11,0c-0.026,0.063,0.022,0.157,0,0.223
		c-0.077,0.231-0.194,0.42-0.219,0.67c-0.223,0.073-0.072,0.523-0.329,0.559c0.01,0.159,0.018,0.316-0.109,0.336
		c0.01,0.159,0.018,0.316-0.11,0.335c0.052,0.353-0.156,0.438-0.22,0.671c0.03,0.328-0.247,0.344-0.219,0.671
		c-2.704,0-5.408,0-8.112,0c-0.04-0.231,0.065-0.299,0.108-0.448c0.063-0.207,0.082-0.451,0.22-0.67
		c0.014-0.022-0.018-0.092,0-0.111c0.011-0.012,0.104,0.014,0.109,0c0.077-0.182-0.018-0.337,0.109-0.448
		c-0.013-0.201,0.135-0.236,0.111-0.447c0.157-0.025,0.038-0.333,0.219-0.335c-0.071-0.409,0.236-0.429,0.22-0.782
		c0.147-0.222,0.208-0.532,0.329-0.783c-0.013-0.199,0.134-0.235,0.111-0.447c0.093-0.09,0.063-0.307,0.218-0.334
		c0.045-0.662,0.393-1.016,0.439-1.678c0.157-0.026,0.038-0.333,0.219-0.335c-0.014-0.201,0.134-0.235,0.109-0.448
		c0.12-0.25,0.182-0.56,0.329-0.782c0.127-0.577,0.354-1.053,0.548-1.566c0.129-0.576,0.356-1.052,0.548-1.564
		c0.058-0.313,0.161-0.58,0.22-0.895c0.084-0.248,0.23-0.435,0.219-0.781c0.107-0.002,0.085-0.137,0.109-0.224
		c0.092,0.021,0.103-0.043,0.11-0.11c-0.015-0.201,0.133-0.237,0.108-0.448c0.121-0.251,0.182-0.561,0.329-0.782
		c-0.013-0.201,0.135-0.236,0.11-0.448c0.095-0.09,0.065-0.306,0.219-0.334c-0.011-0.347,0.134-0.535,0.219-0.784
		c0.13-0.613,0.433-1.048,0.548-1.676c0.193-0.511,0.42-0.988,0.549-1.565c0.157-0.025,0.038-0.334,0.219-0.335
		c-0.047-0.234,0.076-0.295,0.109-0.447c0.086-0.1,0.118-0.252,0.11-0.446c0.157-0.026,0.038-0.334,0.219-0.336
		c-0.013-0.199,0.135-0.236,0.109-0.447c0.095-0.09,0.065-0.306,0.219-0.335c-0.013-0.2,0.135-0.235,0.11-0.446
		c0.12-0.028,0.075-0.224,0.22-0.225c-0.005-0.19,0.081-0.289,0.219-0.333c-0.005-0.193,0.081-0.292,0.219-0.338
		c-0.005-0.19,0.083-0.289,0.22-0.334c-0.032-0.182,0.103-0.193,0.109-0.336c0.316-0.05,0.26-0.48,0.548-0.558
		c0.075-0.259,0.364-0.299,0.439-0.56c0.229-0.137,0.427-0.308,0.657-0.446c0.002-0.109,0.134-0.087,0.219-0.112
		c-0.021-0.096,0.042-0.105,0.109-0.113c0.049-0.098,0.097-0.199,0.22-0.224c0.088-0.095,0.299-0.066,0.329-0.223
		c0.088-0.097,0.3-0.066,0.329-0.223c0.347,0.018,0.366-0.297,0.768-0.224c0.024-0.162,0.327-0.038,0.329-0.224
		c0.229,0.048,0.29-0.076,0.438-0.112c0.25-0.08,0.561-0.098,0.769-0.223c0.568-0.089,1.206-0.111,1.754-0.223
		C84.121,24.741,95.049,24.741,97.168,24.741z"/>
	<path fill-rule="evenodd" clip-rule="evenodd" fill="#ED8223" d="M161.75,24.741c-0.051,0.078-0.07,0.126-0.111,0.223
		c-0.015,0.039,0.031,0.2,0,0.223c-0.011,0.01-0.102-0.012-0.106,0c-0.019,0.04,0.028,0.199,0,0.224
		c-0.014,0.008-0.107-0.011-0.111,0c-0.021,0.067,0.018,0.156,0,0.224c-0.085,0.1-0.117,0.252-0.11,0.448
		c-0.158,0.024-0.036,0.333-0.218,0.334c-0.159,0.583-0.344,1.141-0.549,1.677c-0.086,0.099-0.118,0.252-0.109,0.447
		c-0.158,0.025-0.038,0.333-0.219,0.334c0.069,0.446-0.29,0.45-0.22,0.896c-0.159,0.025-0.038,0.333-0.219,0.334
		c0.013,0.2-0.134,0.237-0.111,0.447c-0.12,0.25-0.18,0.56-0.329,0.783c-3.069,0-6.14,0-9.21,0c-0.28,0.01-0.177,0.416-0.331,0.559
		c-0.033,0.26-0.128,0.461-0.218,0.669c-0.088,0.209-0.182,0.409-0.219,0.671c-0.063,0.234-0.271,0.32-0.218,0.671
		c-0.13,0.018-0.094,0.203-0.11,0.334c-0.129,0.019-0.092,0.205-0.11,0.336c-0.222,0.07-0.072,0.522-0.329,0.558
		c0.009,0.159,0.019,0.316-0.109,0.335c0.009,0.159,0.02,0.317-0.109,0.335c-0.013,0.071,0.018,0.153,0,0.223
		c-0.024,0.108-0.115,0.293-0.22,0.336c0.01,0.159,0.019,0.316-0.109,0.335c0.012,0.158,0.02,0.316-0.109,0.335
		c-0.036,0.26-0.131,0.462-0.219,0.671c0.027,0.327-0.249,0.342-0.219,0.669c-0.112,0.147-0.108,0.412-0.221,0.56
		c0.027,0.327-0.246,0.343-0.218,0.671c-0.09,0.208-0.185,0.409-0.221,0.67c-0.193,0.361-0.33,0.782-0.44,1.229
		c-0.085,0.21-0.181,0.41-0.216,0.67c-0.13,0.019-0.094,0.206-0.111,0.336c-0.129,0.019-0.092,0.204-0.108,0.335
		c-0.121,0.029-0.074,0.222-0.22,0.223c0.01,0.16,0.019,0.318-0.109,0.336c0.008,0.158,0.017,0.316-0.111,0.335
		c0.011,0.158,0.02,0.317-0.109,0.335c0.054,0.352-0.157,0.438-0.219,0.671c-0.034,0.261-0.132,0.462-0.221,0.67
		c-0.088,0.469-0.298,0.813-0.438,1.229c-0.077,0.518-0.361,0.825-0.438,1.341c-0.063,0.234-0.271,0.32-0.219,0.671
		c0.03,0.181-0.104,0.192-0.111,0.335c0.018,0.129-0.022,0.198-0.108,0.223c-0.214,0.938-0.664,1.634-0.876,2.571
		c-2.485,0-4.97,0-7.455,0c0.025-0.246,0.149-0.48,0.218-0.671c0.022-0.065-0.027-0.16,0-0.224c0.005-0.014,0.098,0.012,0.11,0
		c0.017-0.016-0.011-0.09,0-0.111c0.04-0.098,0.126-0.176,0.109-0.336c0.141-0.415,0.35-0.761,0.438-1.229
		c0.336-0.813,0.621-1.675,0.877-2.571c0.169-0.423,0.317-0.868,0.438-1.341c0.127-0.018,0.092-0.203,0.108-0.335
		c0.129-0.017,0.094-0.204,0.109-0.335c0.13-0.019,0.094-0.204,0.111-0.335c0.106-0.003,0.084-0.136,0.109-0.224
		c0.169-0.424,0.318-0.869,0.439-1.341c0.127-0.018,0.091-0.204,0.108-0.336c0.129-0.017,0.093-0.203,0.11-0.333
		c0.127-0.019,0.093-0.205,0.11-0.336c0.106-0.003,0.083-0.136,0.109-0.224c0.127-0.017,0.092-0.203,0.107-0.334
		c0.13-0.019,0.094-0.205,0.111-0.337c0.257-0.034,0.106-0.486,0.328-0.558c-0.052-0.352,0.155-0.438,0.22-0.67
		c-0.03-0.181,0.104-0.193,0.11-0.337c-0.021-0.128,0.023-0.197,0.108-0.221c0.059-0.54,0.25-0.939,0.438-1.342
		c0.11-0.448,0.245-0.87,0.438-1.229c0.08-0.519,0.363-0.825,0.439-1.342c0.194-0.362,0.33-0.781,0.439-1.229
		c0.195-0.361,0.329-0.784,0.438-1.23c0.09-0.209,0.186-0.409,0.221-0.671c0.129-0.017,0.091-0.204,0.109-0.334
		c0.021-0.091,0.109-0.111,0.109-0.224c0.018-0.244-0.389-0.051-0.548-0.111c-0.185,0-0.365,0-0.547,0c-1.171,0-2.341,0-3.51,0
		c0.06-0.845-0.072-1.493-0.111-2.235c-0.056-0.09-0.112-0.182-0.109-0.336c0.018-0.129-0.023-0.199-0.108-0.223
		c0.079-0.343-0.189-0.33-0.11-0.67c-0.128-0.018-0.094-0.205-0.109-0.335c-0.107-0.003-0.086-0.137-0.109-0.225
		c-0.106-0.001-0.085-0.136-0.109-0.223c-0.022-0.09-0.11-0.11-0.11-0.223c-0.098-0.236-0.334-0.33-0.328-0.671
		c-0.25-0.081-0.329-0.335-0.438-0.558c-0.256-0.076-0.293-0.372-0.548-0.448c-0.05-0.098-0.098-0.199-0.222-0.223
		c-0.065-0.098-0.132-0.2,0-0.223c2.742,0,14.767,0,15.135,0C154.294,24.741,158.023,24.741,161.75,24.741z"/>
	<path fill-rule="evenodd" clip-rule="evenodd" fill="#ED8223" d="M53.201,24.741c0.196-0.032,0.226,0.104,0.109,0.11
		c-0.048,0.1-0.097,0.201-0.219,0.225c-0.193,0.1-0.32,0.27-0.549,0.335c-0.098,0.196-0.403,0.184-0.438,0.447
		c-0.275-0.019-0.343,0.17-0.438,0.334c-0.228,0.065-0.354,0.235-0.548,0.336c-0.096,0.164-0.166,0.354-0.438,0.334
		c-0.19,0.366-0.579,0.529-0.769,0.894c-0.193,0.102-0.34,0.25-0.439,0.447c-0.194,0.102-0.34,0.25-0.438,0.446
		c-0.356,0.197-0.547,0.562-0.767,0.895c-0.259,0.037-0.247,0.346-0.439,0.448c-0.032,0.228-0.296,0.219-0.33,0.446
		c-0.033,0.265-0.38,0.209-0.328,0.56c-0.223,0.033-0.216,0.303-0.438,0.336c-3.437,0-6.872,0-10.307,0
		c-0.224,0.106-0.434,0.228-0.658,0.335c-0.255,0.075-0.293,0.371-0.549,0.447c-0.075,0.259-0.364,0.299-0.439,0.558
		c-0.159,0.05,0.013,0.099,0,0.223c0,0.15,0,0.298,0,0.448c0.199,0.17-0.021,0.767,0.439,0.672c0.002,0.108,0.133,0.085,0.219,0.111
		c-0.02,0.096,0.043,0.105,0.109,0.111c0.098,0.087,0.248,0.122,0.439,0.113c0.003,0.107,0.134,0.086,0.219,0.11
		c-0.02,0.095,0.043,0.107,0.109,0.113c0.35,0.017,0.483,0.252,0.877,0.223c0.025,0.161,0.328,0.038,0.33,0.224
		c0.306,0.059,0.57,0.164,0.875,0.224c0.22,0.149,0.523,0.212,0.769,0.333c0.549,0.148,0.936,0.462,1.425,0.672
		c0.031,0.229,0.292,0.223,0.44,0.336c0.031,0.228,0.295,0.218,0.328,0.446c0.225,0.031,0.219,0.298,0.33,0.447
		c0.252-0.035,0.12,0.322,0.328,0.334c-0.017,0.13,0.024,0.199,0.111,0.224c0.035,0.228,0.052,0.469,0.108,0.67
		c0.009,0.031,0.106,0.007,0.111,0.112c0.008,0.159-0.032,0.318,0.109,0.335c0,0.746,0,1.491,0,2.235
		c-0.066,0.269-0.158,0.511-0.109,0.895c-0.158,0.024-0.039,0.332-0.219,0.334c0,0.149,0,0.298,0,0.447
		c-0.158,0.025-0.039,0.335-0.22,0.336c0.01,0.158,0.018,0.316-0.109,0.335c0.071,0.41-0.238,0.429-0.22,0.782
		c-0.236,0.095-0.176,0.49-0.328,0.671c-0.105,0.228-0.224,0.442-0.329,0.67c-0.098,0.236-0.333,0.33-0.33,0.671
		c-0.119,0.027-0.074,0.222-0.219,0.223c-0.058,0.09-0.115,0.182-0.109,0.335c-0.317,0.05-0.259,0.481-0.549,0.559
		c-0.073,0.259-0.364,0.299-0.438,0.559c-0.229,0.139-0.413,0.326-0.548,0.561c-0.145,0.038-0.173,0.195-0.33,0.222
		c-0.096,0.049-0.195,0.099-0.218,0.223c-0.475,0.225-0.814,0.586-1.316,0.783c-0.274,0.092-0.429,0.305-0.767,0.336
		c-0.092,0.24-0.481,0.179-0.658,0.334c-0.993,0.402-2.106,0.685-3.289,0.895c-1.588,0.232-3.278,0.224-4.935,0.224
		c-4.999,0-10.359,0-15.459,0c-0.045-0.269,0.2-0.243,0.109-0.559c0.159-0.025,0.039-0.333,0.22-0.335
		c-0.092-0.315,0.154-0.29,0.109-0.558C12.352,50.309,12.233,50,12.413,50c-0.09-0.317,0.155-0.289,0.11-0.558
		c0.158-0.026,0.038-0.335,0.219-0.337c0.017-0.355,0.248-0.491,0.22-0.894c0.147-0.073,0.203-0.238,0.219-0.447
		c0.084-0.099,0.117-0.251,0.11-0.447c0.106-0.004,0.084-0.137,0.109-0.223c0.02-0.09,0.11-0.111,0.109-0.224
		c0.085-0.099,0.118-0.252,0.11-0.448c0.106-0.003,0.084-0.137,0.11-0.223c0.02-0.09,0.109-0.11,0.109-0.223
		c-0.015-0.2,0.133-0.236,0.108-0.448c0.147-0.222,0.209-0.532,0.33-0.781c2.261-0.015,9.727,0,10.307,0
		c1.105,0,4.824-0.112,5.591-0.112c0.813,0,1.541,0.071,2.194-0.112c0.063-0.06,0.138-0.062,0.219-0.111
		c0.54-0.334,0.923-0.851,0.877-1.789c-0.006-0.702-0.526-0.879-0.987-1.118c-0.245-0.121-0.548-0.185-0.767-0.334
		c-0.25-0.082-0.561-0.101-0.768-0.224c-0.349-0.018-0.482-0.253-0.877-0.224c-0.023-0.16-0.326-0.04-0.328-0.223
		c-0.157,0.01-0.312,0.019-0.33-0.112c-0.673-0.021-0.958-0.439-1.535-0.558c-0.077-0.295-0.5-0.236-0.548-0.56
		c-0.386,0.021-0.361-0.377-0.658-0.446c-0.136-0.235-0.304-0.435-0.438-0.67c-0.108-0.004-0.086-0.137-0.11-0.224
		c-0.094,0.02-0.104-0.044-0.11-0.112c-0.094-0.089-0.064-0.306-0.219-0.334c0.009-0.159,0.018-0.317-0.11-0.336
		c-0.061-0.162,0.128-0.578-0.109-0.557c0.014-0.499-0.061-1.125,0.109-1.565c-0.064-0.625,0.252-0.862,0.22-1.454
		c0.107-0.003,0.085-0.138,0.109-0.224c0.021-0.09,0.111-0.111,0.11-0.224c-0.045-0.268,0.199-0.241,0.11-0.558
		c0.147-0.074,0.202-0.239,0.218-0.446c0.057-0.166,0.162-0.282,0.22-0.447c0.02-0.091,0.109-0.111,0.108-0.224
		c-0.018-0.13,0.026-0.199,0.111-0.224c0.016-0.208,0.072-0.374,0.219-0.447c0.015-0.396,0.314-0.5,0.329-0.895
		c0.207-0.013,0.401-0.71,0.548-0.782c0.057-0.166,0.162-0.284,0.22-0.449c0.134-0.047,0.224-0.143,0.219-0.334
		c0.157-0.063,0.267-0.175,0.328-0.336c0.208-0.012,0.077-0.368,0.33-0.334c0.114-0.295,0.436-0.376,0.549-0.67
		c0.218-0.114,0.468-0.193,0.547-0.447c0.089-0.097,0.301-0.066,0.329-0.224c0.089-0.059,0.791-0.312,0.878-0.559
		c0.348,0.018,0.366-0.297,0.768-0.224c0.024-0.162,0.638-0.205,0.658-0.336c0.406,0.081,0.471-0.19,0.876-0.111
		c0.161-0.173,1.152-0.205,1.315-0.225c0.147,0,0.638-0.105,0.769-0.11C41.579,24.741,47.391,24.741,53.201,24.741z"/>
	<path fill-rule="evenodd" clip-rule="evenodd" fill="#ED8223" d="M118.77,24.741c3.604,0.05,7.42-0.116,10.855,0.11
		c0.516,0.106,1.028,0.219,1.644,0.225c0.018,0.131,0.199,0.095,0.328,0.111c0.178-0.031,0.188,0.106,0.329,0.112
		c0.348-0.055,0.388,0.202,0.77,0.112c0.028,0.23,0.405,0.104,0.437,0.335c0.275-0.018,0.34,0.176,0.547,0.223
		c0.226,0.034,0.217,0.302,0.44,0.335c0.158,0.063,0.267,0.175,0.33,0.336c0.223,0.032,0.215,0.301,0.438,0.335
		c0.046,0.099,0.094,0.199,0.218,0.223c-0.017,0.13,0.024,0.198,0.11,0.224c0.111,0.148,0.104,0.414,0.329,0.447
		c0.015,0.208,0.073,0.373,0.22,0.447c-0.009,0.158-0.02,0.316,0.108,0.334c0.062,0.163-0.128,0.578,0.109,0.562
		c0,0.558,0,1.116,0,1.674c0.054,0.354-0.196,0.395-0.109,0.783c0.032,0.18-0.103,0.192-0.108,0.334
		c0.009,0.159,0.017,0.316-0.109,0.335c0.087,0.388-0.163,0.43-0.11,0.782c-0.129,0.019-0.094,0.205-0.111,0.337
		c-0.117,0.026-0.072,0.221-0.218,0.223c-0.005,0.592-0.396,0.788-0.549,1.229c-0.099,0.197-0.265,0.325-0.328,0.559
		c-0.032,0.228-0.296,0.219-0.328,0.448c-0.101,0.196-0.246,0.345-0.44,0.447c0.054,0.35-0.294,0.296-0.329,0.558
		c-0.192,0.102-0.339,0.25-0.438,0.448c-0.192,0.1-0.339,0.249-0.438,0.446c-0.345-0.053-0.29,0.301-0.548,0.336
		c-0.1,0.196-0.405,0.184-0.438,0.448c-0.179-0.033-0.191,0.105-0.331,0.11c-0.025,0.123-0.217,0.075-0.218,0.224
		c-0.146,0.113-0.409,0.104-0.439,0.334c-0.319-0.028-0.336,0.254-0.658,0.225c-0.029,0.231-0.407,0.105-0.438,0.335
		c-0.271-0.017-0.341,0.176-0.549,0.224c-0.271-0.018-0.34,0.175-0.548,0.223c-0.074,0.408,0.238,0.429,0.22,0.782
		c0.257,0.037,0.105,0.488,0.328,0.559c-0.017,0.354,0.293,0.374,0.221,0.781c0.257,0.037,0.105,0.489,0.328,0.56
		c0.078,0.253,0.099,0.571,0.22,0.782c0.089,0.208,0.183,0.41,0.218,0.67c0.123,0.212,0.141,0.528,0.221,0.783
		c0.088,0.208,0.183,0.409,0.216,0.67c0.156,0.477,0.244,1.019,0.44,1.453c-0.042,0.232,0.074,0.298,0.111,0.447
		c0.014,0.061-0.04,0.294,0,0.336c0.007,0.008,0.106-0.01,0.109,0c0.015,0.061-0.04,0.294,0,0.335c0.007,0.007,0.108-0.009,0.11,0
		c0.027,0.143-0.021,0.302,0,0.446c0.148,0.036,0.09,0.28,0.107,0.448c0.13,0.018,0.094,0.204,0.111,0.335
		c0.128,0.017,0.092,0.203,0.109,0.335c0.058,0.089,0.114,0.182,0.11,0.336c0.094,0.498,0.331,0.853,0.328,1.453
		c-2.924,0-5.848,0-8.771,0c0-0.484-0.254-0.709-0.219-1.229c-0.297,0.08,0.077-0.527-0.219-0.448
		c0.033-0.259-0.018-0.43-0.111-0.559c-0.001-0.483-0.253-0.709-0.218-1.229c-0.093-0.131-0.146-0.3-0.109-0.56
		c-0.3,0.081,0.078-0.526-0.221-0.447c-0.002-0.929-0.399-1.454-0.438-2.347c-0.297,0.08,0.078-0.527-0.221-0.448
		c0.034-0.258-0.017-0.428-0.109-0.559c-0.043-0.402-0.142-0.749-0.219-1.117c-0.228,0.032-0.22,0.299-0.328,0.448
		c0.03,0.179-0.104,0.192-0.11,0.334c0.019,0.131-0.022,0.2-0.11,0.224c-0.014,0.07,0.017,0.153,0,0.223
		c-0.025,0.107-0.116,0.293-0.219,0.335c0.078,0.342-0.19,0.329-0.109,0.671c-0.128,0.018-0.093,0.204-0.111,0.335
		c-0.105,0.003-0.084,0.138-0.108,0.223c-0.129,0.019-0.093,0.204-0.108,0.335c-0.108,0.003-0.086,0.136-0.111,0.223
		c-0.128,0.019-0.092,0.205-0.108,0.336c-0.108,0.003-0.087,0.137-0.111,0.223c-0.047,0.213-0.234,0.282-0.218,0.559
		c-0.207,0.313-0.271,0.769-0.439,1.118c-0.169,0.349-0.234,0.805-0.438,1.117c0.017,0.279-0.171,0.347-0.219,0.559
		c0.031,0.18-0.104,0.191-0.108,0.335c0.018,0.13-0.027,0.199-0.111,0.224c-0.068,0.417-0.261,0.703-0.328,1.118
		c-2.815,0-5.63,0-8.443,0c0.124-0.657,0.486-1.068,0.55-1.789c0.104-0.004,0.083-0.137,0.106-0.224
		c0.095,0.021,0.104-0.043,0.11-0.111c-0.014-0.2,0.135-0.235,0.11-0.448c0.146-0.222,0.209-0.531,0.329-0.782
		c0.015-0.209,0.072-0.375,0.22-0.448c-0.047-0.233,0.074-0.296,0.109-0.448c-0.015-0.199,0.134-0.234,0.109-0.446
		c0.095-0.09,0.065-0.307,0.219-0.335c0.101-0.643,0.315-1.169,0.548-1.676c-0.044-0.27,0.201-0.243,0.11-0.56
		c0.158-0.024,0.038-0.333,0.22-0.334c0.018-0.355,0.248-0.492,0.219-0.894c0.158-0.026,0.038-0.335,0.221-0.336
		c-0.048-0.233,0.075-0.295,0.107-0.447c0.086-0.098,0.119-0.252,0.109-0.446c0.158-0.025,0.039-0.335,0.222-0.336
		c-0.072-0.445,0.29-0.45,0.219-0.896c0.156-0.024,0.037-0.333,0.221-0.334c-0.049-0.233,0.072-0.296,0.106-0.447
		c0.207-0.536,0.392-1.094,0.551-1.677c0.136-0.27,0.271-0.542,0.326-0.893c0.148-0.223,0.211-0.533,0.33-0.783
		c-0.013-0.201,0.135-0.235,0.109-0.447c0.158-0.025,0.041-0.333,0.22-0.334c-0.029-0.403,0.202-0.54,0.22-0.894
		c0.106-0.004,0.085-0.137,0.109-0.224c0.02-0.091,0.111-0.112,0.111-0.223c-0.017-0.201,0.133-0.236,0.108-0.448
		c0.119-0.251,0.183-0.561,0.329-0.783c0.116-0.626,0.419-1.063,0.548-1.676c0.137-0.271,0.271-0.543,0.329-0.894
		c0.148-0.223,0.208-0.532,0.328-0.783c-0.014-0.199,0.135-0.235,0.109-0.448c0.093-0.089,0.065-0.306,0.22-0.333
		c-0.046-0.235,0.075-0.297,0.108-0.449c0.097-0.09,0.068-0.306,0.222-0.335c-0.04-0.231,0.064-0.299,0.107-0.448
		c0.064-0.206,0.083-0.45,0.221-0.671c0.015-0.021-0.018-0.092,0-0.11c0.011-0.011,0.105,0.015,0.111,0
		c0.074-0.181-0.019-0.337,0.108-0.447c0.127-0.612,0.432-1.049,0.548-1.676C118.645,24.985,118.615,24.769,118.77,24.741z
		 M124.362,36.7c0.309,0.092,0.283-0.158,0.546-0.111c0.11,0,0.132-0.092,0.22-0.112c0.087-0.025,0.216-0.003,0.219-0.112
		c0.205-0.017,0.367-0.074,0.438-0.224c0.34,0.083,0.212-0.308,0.549-0.223c0.137-0.235,0.316-0.42,0.55-0.56
		c0.025-0.159,0.179-0.188,0.217-0.334c0.064-0.163,0.172-0.273,0.331-0.337c0.092-0.538,0.454-0.803,0.547-1.341
		c0.152-0.143,0.068-0.527,0.22-0.67c-0.023-0.359,0.194-0.472,0.11-0.894c-0.127-0.019-0.119-0.176-0.11-0.335
		c-0.087-0.026-0.128-0.094-0.109-0.224c-0.308-0.209-0.535-0.498-0.988-0.559c-0.127-0.128-0.386-0.125-0.657-0.112
		c-0.258,0.003-0.321-0.193-0.658-0.113c-0.574-0.066-0.941,0.083-1.423,0.113c-0.024-0.135-0.123-0.068-0.223,0
		c0,0.075,0,0.15,0,0.224c-0.233,0.094-0.175,0.489-0.326,0.67c0.018,0.354-0.291,0.374-0.219,0.782
		c-0.13,0.018-0.12,0.177-0.11,0.335c-0.153,0.029-0.126,0.245-0.222,0.334c0.025,0.212-0.122,0.248-0.106,0.448
		c-0.008,0.069-0.019,0.133-0.111,0.113c-0.023,0.085-0.003,0.219-0.109,0.223c0.012,0.346-0.135,0.534-0.219,0.782
		c-0.034,0.152-0.158,0.214-0.109,0.448c-0.182,0.002-0.063,0.309-0.221,0.336c-0.045,0.659-0.393,1.015-0.438,1.675
		C122.73,36.824,123.627,36.845,124.362,36.7z"/>
	<path fill-rule="evenodd" clip-rule="evenodd" fill="#41434A" d="M100.349,58.829c-0.079,0.254-0.098,0.571-0.22,0.782
		c0.009,0.159,0.019,0.317-0.109,0.335c0.009,0.16,0.018,0.317-0.109,0.336c-0.058,0.537-0.251,0.937-0.439,1.341
		c-0.438-0.223-0.876-0.448-1.315-0.671c-0.178-0.155-0.565-0.095-0.657-0.335c-0.341,0.012-0.524-0.137-0.769-0.224
		c-0.38,0.09-0.421-0.167-0.767-0.111c-0.702-0.044-1.156,0.164-1.755,0.224c-0.025,0.161-0.327,0.038-0.329,0.224
		c-0.177-0.03-0.188,0.104-0.329,0.111c-0.039,0.028-0.19-0.036-0.218,0c-0.017,0.021,0.017,0.095,0,0.112
		c-0.019,0.019-0.092-0.018-0.111,0c-0.014,0.016,0.018,0.101,0,0.111c-0.053,0.034-0.161-0.024-0.219,0
		c-0.017,0.009-0.015,0.174-0.109,0.112c-0.145,0.039-0.173,0.198-0.331,0.225c-0.096,0.05-0.195,0.097-0.219,0.223
		c-0.218,0.111-0.467,0.192-0.547,0.447c-0.255,0.075-0.294,0.371-0.549,0.447c-0.007,0.328-0.25,0.415-0.439,0.558
		c-0.093,0.539-0.456,0.804-0.547,1.341c-0.121,0.028-0.075,0.222-0.221,0.224c0.01,0.158,0.019,0.317-0.109,0.336
		c0.009,0.159,0.019,0.316-0.109,0.334c0.009,0.159,0.018,0.318-0.11,0.336c0.003,0.673-0.187,1.15-0.11,1.899
		c0.021,0.09,0.111,0.112,0.11,0.223c0.014,0.472,0.396,0.565,0.549,0.894c0.217,0.001,0.138,0.305,0.438,0.224
		c-0.034,0.258,0.316,0.124,0.328,0.336c0.502,0.047,0.931,0.169,1.535,0.111c0.147,0,0.292,0,0.44,0
		c0.127,0.018,0.195-0.025,0.219-0.111c0.271,0.015,0.53,0.017,0.658-0.112c0.237-0.094,0.177-0.49,0.329-0.671
		c0.085-0.247,0.23-0.436,0.22-0.782c0.158-0.026,0.038-0.333,0.219-0.335c-0.031-0.181,0.104-0.192,0.11-0.336
		c0.019-0.316,0.201-0.464,0.219-0.782c-0.014-0.247-0.465-0.047-0.658-0.111c-0.22,0-0.438,0-0.658,0c-0.438,0-0.877,0-1.316,0
		c-0.044-0.535,0.237-0.75,0.33-1.23c0.129-0.018,0.092-0.203,0.109-0.335c0.107-0.004,0.085-0.137,0.11-0.224
		c0.106-0.003,0.084-0.137,0.109-0.223c0.021-0.09,0.11-0.113,0.109-0.223c1.791,0,3.582,0,5.373,0
		c-0.073,0.671-0.327,1.156-0.439,1.788c-0.127,0.579-0.381,1.026-0.438,1.676c-0.158,0.026-0.039,0.334-0.219,0.335
		c0.014,0.199-0.135,0.236-0.11,0.448c-0.147,0.222-0.209,0.531-0.329,0.781c-0.028,0.344-0.237,0.502-0.328,0.783
		c0.018,0.353-0.292,0.374-0.219,0.782c-0.161,0.058-0.277,0.165-0.438,0.223c-0.063,0.16-0.172,0.273-0.33,0.335
		c-0.264,0.139-0.532,0.277-0.876,0.335c-0.126,0.094-0.294,0.148-0.548,0.113c0.078,0.303-0.517-0.08-0.439,0.224
		c-0.423-0.022-0.808-0.005-1.096,0.111c-0.877,0-1.754,0-2.632,0c-0.306-0.06-0.569-0.164-0.877-0.225
		c-0.175-0.154-0.565-0.094-0.657-0.333c-0.196,0.013-0.231-0.138-0.438-0.113c-0.048-0.138-0.14-0.229-0.329-0.223
		c-0.08-0.254-0.33-0.334-0.548-0.448c0.018-0.28-0.168-0.35-0.329-0.448c0.045-0.269-0.201-0.243-0.11-0.559
		c-0.157-0.025-0.038-0.333-0.22-0.334c0-0.708,0-1.416,0-2.125c-0.013-0.2,0.135-0.235,0.11-0.446
		c0.009-0.178-0.053-0.427,0.109-0.447c0.009-0.179-0.053-0.427,0.11-0.447c0.009-0.178-0.053-0.427,0.109-0.447
		c-0.029-0.403,0.203-0.538,0.22-0.895c0.105-0.003,0.085-0.137,0.109-0.223c0.094,0.02,0.104-0.044,0.11-0.113
		c0.094-0.089,0.065-0.306,0.219-0.335c0.118-0.626,0.557-0.925,0.768-1.453c0.107-0.003,0.086-0.136,0.109-0.224
		c0.093,0.021,0.104-0.042,0.109-0.111c0.135-0.049,0.227-0.144,0.219-0.336c0.23-0.137,0.413-0.325,0.549-0.558
		c0.229-0.139,0.413-0.325,0.548-0.559c0.231-0.138,0.427-0.309,0.658-0.448c0.049-0.322,0.471-0.263,0.548-0.558
		c0.04-0.027,0.19,0.036,0.219,0c0.016-0.021-0.019-0.093,0-0.112c0.018-0.018,0.091,0.02,0.109,0c0.015-0.014-0.016-0.102,0-0.111
		c0.041-0.022,0.192,0.033,0.219,0c0.009-0.01-0.012-0.107,0-0.112c0.065-0.023,0.152,0.018,0.219,0
		c0.004-0.108,0.135-0.087,0.22-0.111c-0.02-0.095,0.044-0.105,0.109-0.112c0.089-0.097,0.301-0.066,0.329-0.223
		c0.438,0.071,0.442-0.295,0.878-0.225c0.034-0.152,0.274-0.092,0.438-0.111c0.035-0.152,0.275-0.092,0.438-0.112
		c0.087-0.038,0.113-0.092,0.219-0.112c0.071-0.012,0.151,0.017,0.22,0c0.16-0.041,0.202-0.051,0.329-0.112c0.767,0,1.535,0,2.302,0
		c0.196-0.015,0.231,0.138,0.439,0.112c0.155-0.009,0.31-0.017,0.329,0.112c0.173,0.01,0.417-0.054,0.439,0.112
		c0.155-0.01,0.311-0.018,0.328,0.111C99.522,58.404,99.799,58.756,100.349,58.829z"/>
	<path fill-rule="evenodd" clip-rule="evenodd" fill="#41434A" d="M21.625,64.306c-0.035,0.257,0.315,0.124,0.328,0.335
		c0.158,0.062,0.268,0.175,0.33,0.336c0.271,0.133,0.43,0.383,0.548,0.671c0,0.409,0,0.819,0,1.229
		c-0.061,0.459-0.314,0.723-0.329,1.23c-0.119,0.026-0.074,0.222-0.219,0.223c-0.058,0.09-0.114,0.182-0.11,0.335
		c-0.118,0.028-0.073,0.223-0.219,0.224c-0.057,0.09-0.114,0.182-0.109,0.336c-0.255,0.076-0.293,0.372-0.548,0.447
		c-0.075,0.259-0.364,0.299-0.439,0.558c-0.187-0.004-0.284,0.083-0.329,0.224c-0.657,0.149-0.995,0.626-1.754,0.67
		c0.079,0.304-0.517-0.08-0.438,0.223c-0.174,0.009-0.419-0.054-0.439,0.113c-0.4-0.034-0.714,0.017-0.989,0.11
		c-0.876-0.003-1.752,0.005-2.63,0c-0.883-0.004-1.719-0.05-2.522-0.11c-0.029-0.403,0.203-0.54,0.22-0.894
		c0.084-0.101,0.117-0.253,0.109-0.448c0.157-0.026,0.038-0.333,0.219-0.335c-0.001-0.747,0.396-1.086,0.438-1.789
		c0.159-0.024,0.038-0.333,0.22-0.335c-0.015-0.2,0.132-0.236,0.108-0.446c0.084-0.101,0.119-0.253,0.11-0.448
		c0.158-0.025,0.038-0.334,0.219-0.336c-0.03-0.401,0.203-0.539,0.22-0.894c0.157-0.024,0.037-0.333,0.219-0.334
		c-0.01-0.16-0.02-0.316,0.108-0.336c-0.071-0.445,0.291-0.45,0.22-0.895c0.158-0.024,0.038-0.333,0.219-0.335
		c-0.014-0.2,0.133-0.235,0.11-0.447c0.119-0.25,0.181-0.56,0.329-0.782c-0.014-0.2,0.134-0.236,0.108-0.447
		c0.16-0.025,0.04-0.333,0.221-0.334c-0.071-0.446,0.29-0.45,0.217-0.894c0.16-0.025,0.039-0.335,0.22-0.336
		c-0.014-0.2,0.134-0.236,0.11-0.448c0.085-0.099,0.118-0.251,0.108-0.447c0.158-0.024,0.039-0.333,0.22-0.334
		c-0.005-0.341,0.232-0.436,0.329-0.671c0.088-0.059,0.178-0.117,0.329-0.112c0.026-0.121,0.217-0.076,0.218-0.223
		c0.515-0.075,1.046-0.096,1.646-0.112c0.547-0.014,1.097,0.011,1.645,0c0.702,0.104,1.472,0.14,2.193,0.224
		c0.018,0.131,0.2,0.093,0.329,0.111c0.003,0.109,0.134,0.088,0.22,0.112c0.072,0.15,0.234,0.208,0.438,0.223
		c0.031,0.229,0.297,0.221,0.328,0.448c0.254-0.034,0.123,0.323,0.33,0.334c0.129,0.474,0.12,1.172,0.109,1.901
		c-0.222,0.07-0.071,0.522-0.328,0.558c0.029,0.328-0.248,0.344-0.219,0.67c-0.188,0.145-0.43,0.231-0.438,0.559
		c-0.229,0.066-0.355,0.236-0.549,0.336c-0.099,0.196-0.245,0.346-0.439,0.446C21.979,64.071,21.853,64.24,21.625,64.306z
		 M19.871,60.394c-0.441-0.109-0.963-0.137-1.535-0.111c0.004,0.153-0.052,0.245-0.111,0.335c-0.1,0.568-0.384,0.95-0.439,1.564
		c-0.235,0.095-0.176,0.49-0.328,0.671c-0.059,0.313-0.162,0.581-0.221,0.895c0.402,0,0.805,0,1.207,0
		c0.021-0.165,0.264-0.103,0.438-0.113c0.11,0.001,0.131-0.09,0.218-0.111c0.086-0.025,0.217-0.004,0.22-0.112
		c0.191,0.008,0.342-0.024,0.439-0.112c0.218-0.001,0.139-0.305,0.438-0.224c0.174-0.271,0.392-0.494,0.657-0.67
		c0.005-0.366,0.313-0.426,0.219-0.895c0.164-0.02,0.102-0.269,0.11-0.447c0.09-0.315-0.155-0.289-0.11-0.558
		C20.769,60.372,20.319,60.383,19.871,60.394z M19.54,66.206c-0.066-0.006-0.128-0.017-0.108-0.111
		c-0.084-0.026-0.217-0.004-0.22-0.113c-0.151,0.005-0.241-0.051-0.329-0.112c-0.163-0.018-0.404,0.04-0.438-0.112
		c-0.694,0-1.389,0-2.083,0c0,0.112,0,0.224,0,0.336c-0.153,0.027-0.125,0.245-0.22,0.333c0.024,0.212-0.123,0.248-0.109,0.448
		c-0.034,0.151-0.157,0.214-0.109,0.447c-0.182,0.002-0.062,0.31-0.219,0.335c-0.147,0.632-0.401,1.155-0.548,1.788
		c0.145,0,0.292,0,0.438,0c0.189-0.043,0.281,0.167,0.329,0c0.366,0,0.731,0,1.096,0c0.128-0.06,0.168-0.072,0.328-0.111
		c0.069-0.017,0.149,0.014,0.22,0c0.107-0.02,0.133-0.074,0.219-0.111c0.208,0.024,0.243-0.126,0.439-0.112
		c0.067-0.007,0.13-0.017,0.111-0.111c0.084-0.026,0.215-0.003,0.218-0.113c0.218-0.113,0.469-0.193,0.547-0.447
		c0.158-0.026,0.186-0.183,0.331-0.224c0.005-0.069,0.017-0.132,0.108-0.11c0.026-0.087,0.002-0.221,0.111-0.225
		c0.092-0.428,0.143-0.896,0.11-1.454C19.637,66.405,19.589,66.306,19.54,66.206z"/>
	<path fill-rule="evenodd" clip-rule="evenodd" fill="#41434A" d="M35.439,58.046c0.03,4.539-0.012,9.004-0.109,13.413
		c-0.594-0.009-0.913,0.262-1.536,0.224c-0.292,0-0.584,0-0.876,0c-0.018-0.132-0.201-0.096-0.329-0.113
		c-0.177,0.034-0.189-0.104-0.329-0.11c0.068-0.105-0.106-0.093-0.109-0.113c-0.016-0.079,0.193-0.267,0.109-0.446
		c0-0.261,0-0.523,0-0.783c0.007-0.476,0.184-0.783,0.11-1.341c0.018-0.243-0.389-0.051-0.549-0.113c-0.182,0-0.365,0-0.548,0
		c-1.207,0-2.412,0-3.619,0c-0.252-0.033-0.122,0.323-0.329,0.336c-0.057,0.165-0.163,0.281-0.219,0.446
		c-0.207,0.014-0.076,0.37-0.33,0.336c0.081,0.304-0.217,0.225-0.218,0.446C26.385,70.5,26.167,70.724,25.9,70.9
		c0.08,0.305-0.218,0.225-0.22,0.446c-0.087,0.096-0.3,0.067-0.328,0.223c-0.67,0.139-1.491,0.122-2.303,0.113
		c-0.08-0.566,0.3-0.662,0.329-1.117c0.225-0.032,0.103-0.417,0.328-0.448c-0.079-0.304,0.218-0.224,0.22-0.447
		c0.033-0.229,0.296-0.22,0.329-0.447c0.001-0.222,0.299-0.142,0.219-0.447c0.161-0.098,0.347-0.169,0.33-0.448
		c0.156-0.063,0.266-0.175,0.328-0.335c0.031-0.228,0.297-0.22,0.329-0.447c0.001-0.222,0.299-0.143,0.219-0.447
		c0.161-0.096,0.348-0.167,0.329-0.447c0.253,0.035,0.122-0.323,0.329-0.336c0.176-0.305,0.41-0.552,0.549-0.894
		c0.226-0.032,0.219-0.298,0.328-0.447c0.208-0.013,0.076-0.37,0.33-0.336c-0.019-0.279,0.167-0.35,0.329-0.448
		c-0.08-0.304,0.218-0.224,0.22-0.446c0.049-0.1,0.096-0.2,0.218-0.224c-0.018-0.13,0.025-0.199,0.111-0.224
		c0.001-0.223,0.299-0.142,0.218-0.447c0.161-0.097,0.348-0.167,0.329-0.447c0.254,0.034,0.123-0.323,0.331-0.334
		c0.173-0.306,0.408-0.553,0.547-0.895c0.12-0.026,0.075-0.222,0.219-0.223c0.021-0.09,0.111-0.112,0.11-0.223
		c0.207-0.012,0.077-0.37,0.329-0.336c0.14-0.342,0.375-0.586,0.549-0.895c0.119-0.027,0.075-0.222,0.219-0.223
		c0.021-0.091,0.109-0.111,0.109-0.224c0.207-0.013,0.076-0.369,0.329-0.335c0.115-0.329,0.495-0.388,0.767-0.559
		C33.299,57.952,34.451,58.082,35.439,58.046z M32.15,61.847c-0.138,0.045-0.225,0.144-0.219,0.334
		c-0.137,0.046-0.225,0.145-0.22,0.336c-0.123,0.023-0.171,0.125-0.219,0.223c-0.027,0.16-0.181,0.188-0.219,0.335
		c-0.155,0.03-0.125,0.246-0.219,0.336c-0.155,0.028-0.125,0.245-0.219,0.335c-0.145,0.001-0.101,0.196-0.22,0.223
		c-0.026,0.16-0.181,0.189-0.219,0.336c-0.135,0.234-0.305,0.436-0.438,0.671c-0.027,0.159-0.182,0.187-0.219,0.334
		c-0.156,0.03-0.125,0.246-0.219,0.336c-0.155,0.028-0.126,0.244-0.219,0.334c-0.156,0.03-0.125,0.246-0.22,0.335
		c1.133,0,2.266,0,3.399,0c0.016-1.697,0.179-3.244,0.11-5.03c-0.006-0.067-0.017-0.13-0.11-0.111
		C32.538,61.573,32.09,61.452,32.15,61.847z"/>
	<path fill-rule="evenodd" clip-rule="evenodd" fill="#41434A" d="M46.075,58.381c0.063,0.793,0.265,1.444,0.329,2.236
		c0.135,0.683,0.318,1.314,0.33,2.124c0.236-0.019,0.048,0.396,0.108,0.559c-0.044,0.27,0.201,0.244,0.11,0.56
		c0.03,0.378,0.175,0.64,0.109,1.117c0.237-0.019,0.051,0.396,0.11,0.558c-0.015,0.201,0.133,0.235,0.109,0.447
		c-0.077,0.488,0.187,0.63,0.11,1.118c0.226-0.031,0.219-0.298,0.328-0.447c-0.031-0.18,0.104-0.192,0.11-0.336
		c-0.019-0.129,0.024-0.198,0.109-0.222c0.015-0.507,0.269-0.771,0.33-1.23c0.167-0.349,0.233-0.805,0.438-1.117
		c0.066-0.415,0.261-0.702,0.329-1.119c0.205-0.311,0.271-0.768,0.438-1.117c0.169-0.348,0.234-0.804,0.439-1.117
		c-0.017-0.278,0.171-0.346,0.219-0.559c-0.031-0.18,0.104-0.193,0.109-0.336c-0.018-0.129,0.025-0.198,0.11-0.223
		c-0.035-0.52,0.34-0.622,0.438-1.005c0.473-0.001,0.696-0.259,1.206-0.224c-0.019,0.243,0.391,0.051,0.548,0.112
		c0.221,0,0.439,0,0.658,0c-0.062,0.719-0.425,1.132-0.548,1.788c-0.159,0.584-0.343,1.142-0.548,1.678
		c-0.015,0.208-0.072,0.373-0.219,0.447c0.047,0.232-0.076,0.295-0.11,0.447c0.015,0.2-0.133,0.236-0.109,0.448
		c-0.158,0.024-0.038,0.333-0.219,0.334c0.07,0.445-0.29,0.449-0.219,0.894c-0.158,0.027-0.038,0.334-0.22,0.336
		c0.047,0.233-0.075,0.295-0.108,0.447c-0.149,0.259-0.182,0.634-0.33,0.894c0.014,0.201-0.135,0.236-0.108,0.447
		c-0.161,0.025-0.04,0.334-0.221,0.336c0.039,0.23-0.064,0.299-0.109,0.447c-0.063,0.206-0.082,0.451-0.219,0.67
		c-0.014,0.023,0.018,0.094,0,0.112c-0.012,0.013-0.103-0.013-0.109,0c-0.076,0.18,0.017,0.336-0.11,0.447
		c-0.116,0.627-0.42,1.063-0.548,1.676c-0.288,0.08-0.105,0.639-0.439,0.671c0.014,0.201-0.133,0.237-0.109,0.447
		c-0.136,0.05-0.226,0.144-0.22,0.336c-0.575,0.01-0.987,0.186-1.644,0.11c-0.635,0.088-0.938-0.161-1.536-0.11
		c-0.058-0.091-0.115-0.182-0.11-0.336c0.018-0.13-0.023-0.2-0.109-0.223c-0.061-0.163,0.127-0.579-0.109-0.559
		c-0.06-0.164,0.127-0.579-0.109-0.559c-0.061-0.163,0.127-0.579-0.11-0.559c-0.105-0.087,0.137-0.558,0-0.671
		c-0.007-0.005-0.107,0.007-0.109,0c-0.015-0.088,0.062-0.508,0-0.559c-0.008-0.006-0.108,0.007-0.109,0
		c-0.063-0.371-0.049-0.787-0.11-1.229c-0.167-0.314-0.104-0.862-0.219-1.23c0.09-0.315-0.155-0.29-0.109-0.558
		c-0.061-0.162,0.127-0.579-0.11-0.56c0.059-0.955-0.259-1.524-0.219-2.459c-0.281,0.012-0.177,0.417-0.33,0.56
		c-0.059,0.09-0.114,0.18-0.109,0.335c0.017,0.13-0.024,0.199-0.11,0.223c0.053,0.353-0.156,0.438-0.219,0.671
		c0.032,0.181-0.104,0.192-0.109,0.335c0.018,0.129-0.024,0.198-0.11,0.223c-0.007,0.551-0.322,0.789-0.328,1.342
		c-0.129,0.018-0.094,0.204-0.111,0.334c-0.105,0.002-0.084,0.137-0.108,0.224c-0.129,0.019-0.094,0.204-0.111,0.336
		c-0.106,0.003-0.085,0.137-0.109,0.223c-0.14,0.416-0.35,0.76-0.438,1.229c-0.194,0.36-0.329,0.783-0.437,1.23
		c-0.13,0.018-0.093,0.203-0.11,0.334c-0.129,0.019-0.093,0.204-0.11,0.336c-0.129,0.017-0.093,0.203-0.109,0.334
		c-0.107,0.004-0.085,0.138-0.11,0.224c-0.206,0.313-0.27,0.768-0.438,1.117c-0.842,0-1.681,0-2.521,0
		c0.062-0.719,0.424-1.13,0.548-1.787c0.206-0.537,0.39-1.094,0.548-1.676c0.136-0.272,0.272-0.544,0.329-0.894
		c0.085-0.101,0.117-0.253,0.11-0.448c0.158-0.025,0.037-0.334,0.219-0.336c0.016-0.354,0.248-0.491,0.218-0.894
		c0.158-0.024,0.039-0.333,0.22-0.334c-0.014-0.201,0.134-0.237,0.109-0.448c0.021-0.088,0.11-0.111,0.109-0.223
		c-0.017-0.13,0.025-0.199,0.11-0.224c-0.014-0.201,0.135-0.236,0.11-0.446c0.085-0.1,0.117-0.253,0.109-0.448
		c0.159-0.026,0.039-0.334,0.219-0.336c-0.07-0.445,0.29-0.45,0.22-0.894c0.157-0.025,0.038-0.333,0.22-0.334
		c-0.015-0.202,0.133-0.237,0.108-0.447c0.148-0.224,0.209-0.533,0.329-0.783c-0.013-0.2,0.136-0.235,0.109-0.448
		c0.158-0.025,0.039-0.333,0.22-0.334c-0.046-0.233,0.074-0.296,0.109-0.447c0.095-0.09,0.066-0.306,0.22-0.335
		c-0.021-0.393,0.37-0.367,0.438-0.671c0.204-0.014,0.366-0.074,0.438-0.223c0.335,0.081,0.4-0.114,0.659-0.112
		C44.583,58.04,45.278,58.262,46.075,58.381z"/>
	<path fill-rule="evenodd" clip-rule="evenodd" fill="#41434A" d="M57.916,63.634C57.756,63.704,57.927,63.77,57.916,63.634
		c0.266-0.176,0.485-0.4,0.658-0.669c0.266-0.177,0.485-0.402,0.658-0.671c0.423-0.015,0.432-0.454,0.768-0.56
		c0.151-0.329,0.506-0.452,0.658-0.781c0.265-0.177,0.484-0.399,0.658-0.67c0.299,0.081,0.221-0.222,0.439-0.223
		c0.031-0.229,0.295-0.22,0.328-0.448c0.266-0.175,0.485-0.399,0.658-0.669c0.157-0.064,0.268-0.174,0.329-0.335
		c0.146-0.112,0.408-0.106,0.439-0.335c0.402-0.075,0.833-0.12,1.206-0.224c0.664,0.03,1.221,0.17,1.864,0.224
		c-0.16,0.508-0.639,0.689-0.877,1.117c-0.144,0.001-0.1,0.196-0.219,0.223c-0.026,0.16-0.181,0.188-0.219,0.335
		c-0.23,0.14-0.414,0.328-0.549,0.56c-0.124,0.023-0.171,0.124-0.219,0.224c-0.188-0.006-0.281,0.086-0.329,0.223
		c-0.124,0.023-0.171,0.125-0.22,0.223c-0.067,0.006-0.13,0.017-0.11,0.111c-0.084,0.026-0.215,0.003-0.219,0.113
		c-0.255,0.075-0.293,0.371-0.548,0.447c-0.076,0.294-0.5,0.236-0.548,0.558c-0.123,0.024-0.17,0.125-0.22,0.223
		c-0.067,0.006-0.129,0.019-0.108,0.113c-0.085,0.024-0.217,0.003-0.221,0.112c-0.229,0.138-0.412,0.326-0.548,0.559
		c-0.219,0.113-0.468,0.192-0.548,0.448c-0.229,0.138-0.413,0.323-0.549,0.558c0.101,0.604,0.232,1.18,0.439,1.678
		c0.058,0.313,0.161,0.581,0.219,0.893c0.034,0.152,0.155,0.215,0.11,0.448c0.181,0.002,0.062,0.311,0.219,0.334
		c0.085,0.659,0.289,1.196,0.439,1.788c-0.026,0.21,0.122,0.249,0.109,0.447c0.018,0.167-0.039,0.414,0.109,0.448
		c-0.085,0.461,0.168,0.573,0.11,1.006c-0.888,0.212-2.123,0.071-3.179,0.11c0.037-0.671-0.367-0.891-0.329-1.564
		c-0.127-0.019-0.119-0.175-0.11-0.334c-0.034-0.151-0.156-0.213-0.109-0.447c-0.085-0.249-0.23-0.436-0.22-0.783
		c-0.204-0.461-0.233-1.104-0.438-1.564c-0.147-0.521-0.224-1.114-0.439-1.565c-0.127,0.02-0.119,0.177-0.11,0.336
		c-0.181,0.001-0.061,0.309-0.218,0.334c0.07,0.444-0.29,0.448-0.221,0.894c-0.126,0.019-0.118,0.178-0.11,0.336
		c-0.19-0.046-0.036,0.26-0.108,0.334c-0.012,0.012-0.105-0.014-0.11,0c-0.027,0.064,0.022,0.158,0,0.223
		c-0.076,0.23-0.204,0.445-0.219,0.67c-0.006,0.143-0.14,0.155-0.109,0.336c-0.181,0.001-0.062,0.31-0.218,0.335
		c0.071,0.444-0.291,0.449-0.22,0.893c-0.182,0.002-0.062,0.311-0.218,0.336c0.023,0.212-0.125,0.246-0.111,0.447
		c-0.119,0.249-0.181,0.559-0.329,0.781c-0.914,0-1.827,0-2.742,0c-0.036-0.409,0.122-0.62,0.219-0.894
		c-0.024-0.211,0.125-0.246,0.109-0.447c0.182-0.002,0.062-0.309,0.221-0.334c0.1-0.643,0.314-1.17,0.547-1.678
		c0.129-0.614,0.433-1.049,0.549-1.675c0.233-0.507,0.447-1.035,0.547-1.677c0.155-0.029,0.125-0.246,0.22-0.335
		c-0.024-0.211,0.124-0.246,0.109-0.447c0.122-0.251,0.182-0.561,0.329-0.783c0.13-0.614,0.433-1.049,0.549-1.676
		c0.182-0.002,0.062-0.311,0.22-0.336c-0.009-0.193,0.023-0.347,0.108-0.446c0.002-0.038-0.001-0.075,0-0.111
		c0.006-0.111,0.098-0.073,0.11-0.112c0.022-0.067-0.017-0.155,0-0.224c0.021-0.081,0.102-0.089,0.109-0.111
		c0.022-0.067-0.017-0.155,0-0.223c0.019-0.075,0.106-0.097,0.109-0.113c0.037-0.124-0.035-0.322,0.11-0.335
		c-0.009-0.194,0.025-0.348,0.11-0.446c-0.024-0.211,0.124-0.247,0.108-0.448c0-0.112,0.089-0.133,0.11-0.223
		c0.025-0.086,0.003-0.22,0.11-0.223c0.265-0.215,0.881-0.07,1.315-0.112c0.512,0,1.024,0,1.535,0
		c0.042,0.677-0.334,0.82-0.328,1.341c-0.127,0.02-0.119,0.178-0.109,0.336c-0.127,0.019-0.119,0.176-0.109,0.334
		c-0.223,0.071-0.073,0.523-0.329,0.56c-0.007,0.551-0.322,0.788-0.33,1.341c-0.144,0-0.1,0.195-0.219,0.223
		c-0.016,0.132,0.019,0.316-0.11,0.334c-0.016,0.133,0.02,0.319-0.108,0.337c-0.017,0.13,0.019,0.317-0.11,0.334
		c0,0.074,0,0.149,0,0.224C57.916,63.561,57.916,63.598,57.916,63.634z"/>
	<path fill-rule="evenodd" clip-rule="evenodd" fill="#41434A" d="M71.622,58.046c0.365-0.077,0.177,0.231,0.11,0.335
		c0.046,0.234-0.075,0.296-0.11,0.448c-0.018,0.355-0.249,0.491-0.219,0.894c-0.326,0.824-0.552,1.748-0.877,2.571
		c-0.017,0.355-0.248,0.491-0.22,0.893c-0.105,0.005-0.085,0.137-0.108,0.225c-0.094-0.02-0.103,0.043-0.11,0.112
		c0.013,0.201-0.134,0.236-0.11,0.446c-0.157,0.025-0.038,0.334-0.218,0.336c0.046,0.233-0.076,0.296-0.109,0.446
		c-0.021,0.091-0.111,0.112-0.111,0.225c0.018,0.13-0.024,0.197-0.108,0.224c-0.01,0.176,0.052,0.427-0.11,0.447
		c0.029,0.402-0.203,0.538-0.22,0.894c-0.147,0.222-0.208,0.531-0.329,0.782c0.015,0.2-0.134,0.235-0.109,0.447
		c-0.158,0.026-0.038,0.334-0.22,0.336c0.091,0.315-0.153,0.289-0.107,0.558c-0.096,0.09-0.066,0.306-0.221,0.336
		c0.029,0.401-0.203,0.538-0.219,0.894c-0.148,0.222-0.209,0.532-0.33,0.781c0.014,0.201-0.134,0.237-0.108,0.447
		c-0.096,0.09-0.066,0.307-0.22,0.336c-0.295,0.22-0.958,0.066-1.426,0.11c-0.474,0-0.95,0-1.424,0
		c-0.045-0.268,0.2-0.243,0.109-0.558c0.157-0.025,0.039-0.333,0.219-0.335c0.016-0.355,0.249-0.491,0.219-0.894
		c0.158-0.025,0.039-0.334,0.219-0.336c-0.014-0.201,0.134-0.235,0.11-0.446c0.085-0.101,0.117-0.253,0.108-0.448
		c0.158-0.025,0.039-0.333,0.22-0.335c0.017-0.355,0.249-0.491,0.219-0.894c0.158-0.025,0.039-0.334,0.22-0.336
		c-0.014-0.2,0.133-0.235,0.109-0.446c0.086-0.101,0.118-0.253,0.109-0.447c0.159-0.026,0.039-0.334,0.22-0.336
		c0.017-0.355,0.249-0.491,0.219-0.894c0.106-0.003,0.084-0.136,0.111-0.224c0.02-0.09,0.109-0.111,0.108-0.224
		c0.084-0.099,0.118-0.251,0.11-0.447c0.158-0.024,0.038-0.333,0.219-0.335c-0.046-0.233,0.076-0.295,0.11-0.447
		c0.129-0.612,0.433-1.047,0.549-1.676c0.147-0.222,0.208-0.531,0.329-0.781c-0.015-0.201,0.133-0.236,0.11-0.447
		c0.156-0.025,0.038-0.334,0.218-0.336c-0.03-0.401,0.202-0.538,0.219-0.894c0.159-0.025,0.038-0.333,0.22-0.335
		c-0.047-0.233,0.076-0.295,0.109-0.446C69.852,58.105,70.869,58.211,71.622,58.046z"/>
	<path fill-rule="evenodd" clip-rule="evenodd" fill="#41434A" d="M79.297,58.381c0.054,0.802,0.314,1.394,0.33,2.236
		c0.153,0.167,0.064,0.333,0.108,0.559c0.027,0.131,0.181,0.219,0.11,0.558c0.092,0.317,0.126,0.692,0.219,1.007
		c0.173,1.5,0.459,2.886,0.658,4.359c0.127-0.018,0.092-0.203,0.109-0.335c0.107-0.003,0.085-0.137,0.11-0.223
		c0.111-0.146,0.108-0.413,0.22-0.56c0-0.169,0.062-0.209,0.108-0.334c0.041-0.108-0.022-0.217,0.11-0.224
		c-0.045-0.27,0.2-0.243,0.11-0.559c0.128-0.018,0.091-0.203,0.109-0.335c0.106-0.004,0.086-0.137,0.109-0.224
		c0.047-0.213,0.236-0.28,0.22-0.559c0.111-0.148,0.107-0.412,0.219-0.56c0.015-0.208,0.073-0.373,0.22-0.446
		c0.014-0.506,0.268-0.77,0.329-1.23c0.128-0.018,0.092-0.203,0.108-0.335c0.108-0.003,0.085-0.137,0.111-0.223
		c0.021-0.09,0.109-0.112,0.109-0.223c-0.018-0.131,0.024-0.2,0.109-0.224c0.03-0.455,0.206-0.758,0.33-1.118
		c-0.005-0.233,0.157-0.379,0.219-0.559c0.013-0.039-0.028-0.199,0-0.223c0.01-0.008,0.107,0.01,0.111,0
		c0.027-0.104-0.023-0.229,0-0.335c0.856-0.095,1.758-0.147,2.74-0.112c-0.124,0.656-0.487,1.069-0.547,1.788
		c-0.107,0.004-0.086,0.138-0.11,0.224c-0.093-0.02-0.103,0.045-0.109,0.113c0.014,0.2-0.134,0.235-0.109,0.447
		c-0.121,0.25-0.181,0.559-0.329,0.781c-0.147,0.633-0.401,1.156-0.549,1.789c-0.233,0.507-0.447,1.034-0.547,1.677
		c-0.147,0.074-0.205,0.238-0.22,0.447c-0.086,0.099-0.118,0.252-0.109,0.447c-0.106,0.003-0.085,0.137-0.109,0.225
		c-0.095-0.021-0.104,0.042-0.111,0.111c0.014,0.201-0.134,0.235-0.109,0.447c-0.147,0.222-0.208,0.532-0.33,0.783
		c0.015,0.199-0.134,0.236-0.109,0.446c-0.094,0.09-0.065,0.307-0.219,0.335c-0.101,0.643-0.315,1.17-0.548,1.678
		c0.013,0.2-0.135,0.235-0.11,0.447c-0.095,0.091-0.065,0.306-0.22,0.334c0.02,0.392-0.37,0.368-0.438,0.67
		c-0.473,0.115-0.885,0.289-1.535,0.223c-0.667,0.085-0.995-0.178-1.645-0.11c-0.124-0.806-0.368-1.488-0.438-2.347
		c-0.238,0.018-0.049-0.396-0.11-0.56c-0.092-0.129-0.145-0.298-0.11-0.559c-0.15-0.295-0.129-0.762-0.22-1.118
		c-0.102-0.38-0.146-0.819-0.219-1.229c0.035-0.261-0.018-0.429-0.109-0.56c-0.061-0.163,0.128-0.578-0.11-0.559
		c0.021-0.915-0.183-1.602-0.219-2.458c-0.282,0.011-0.176,0.415-0.329,0.557c0.017,0.278-0.172,0.347-0.219,0.559
		c-0.037,0.262-0.132,0.462-0.22,0.672c0.03,0.18-0.104,0.191-0.11,0.333c0.02,0.131-0.024,0.2-0.109,0.224
		c-0.222,0.854-0.546,1.606-0.768,2.459c-0.195,0.36-0.328,0.783-0.438,1.23c-0.206,0.313-0.27,0.768-0.439,1.117
		c-0.088,0.208-0.184,0.41-0.219,0.671c-0.119,0.028-0.075,0.222-0.22,0.223c0,0.111,0,0.224,0,0.335
		c-0.226,0.031-0.103,0.417-0.329,0.448c0.009,0.157,0.018,0.315-0.11,0.335c0.019,0.129-0.023,0.198-0.108,0.223
		c-0.31,0.169-0.686,0.27-1.207,0.224c-0.453,0.013-0.688-0.195-1.207-0.113c-0.058-0.468,0.192-0.624,0.219-1.004
		c0.158-0.027,0.038-0.334,0.22-0.337c-0.047-0.233,0.075-0.295,0.109-0.446c-0.014-0.201,0.134-0.236,0.11-0.447
		c0.157-0.026,0.037-0.333,0.219-0.334c-0.072-0.446,0.29-0.45,0.219-0.894c0.106-0.003,0.085-0.137,0.109-0.225
		c0.021-0.089,0.11-0.112,0.109-0.223c-0.013-0.2,0.135-0.236,0.109-0.446c0.158-0.027,0.038-0.335,0.22-0.336
		c-0.046-0.234,0.075-0.295,0.109-0.448c0.205-0.535,0.39-1.091,0.548-1.676c0.29-0.486,0.368-1.188,0.658-1.676
		c0.018-0.354,0.249-0.491,0.22-0.894c0.106-0.003,0.085-0.136,0.11-0.224c0.094,0.021,0.103-0.042,0.109-0.111
		c-0.015-0.202,0.133-0.237,0.11-0.447c0.036-0.088,0.09-0.117,0.108-0.225c0.014-0.064-0.024-0.163,0-0.223
		c0.022-0.05,0.105,0.007,0.11-0.112c0.003-0.063,0.083-0.149,0.11-0.224c0.061-0.174,0.053-0.263,0.109-0.448
		c0.035-0.114,0.155-0.24,0.109-0.447c0.246-0.121,0.193-0.548,0.438-0.67c-0.019-0.393,0.37-0.367,0.438-0.671
		c0.205-0.014,0.367-0.074,0.439-0.223C77.284,57.997,78.32,58.17,79.297,58.381z"/>
</g>
</svg>
