<?xml version="1.0" encoding="utf-8"?>
<!-- Generator: Adobe Illustrator 15.1.0, SVG Export Plug-In . SVG Version: 6.00 Build 0)  -->
<!DOCTYPE svg PUBLIC "-//W3C//DTD SVG 1.1//EN" "http://www.w3.org/Graphics/SVG/1.1/DTD/svg11.dtd">
<svg version="1.1" id="Layer_1" xmlns="http://www.w3.org/2000/svg" xmlns:xlink="http://www.w3.org/1999/xlink" x="0px" y="0px"
	 width="170px" height="95px" viewBox="0 0 170 95" enable-background="new 0 0 170 95" xml:space="preserve">
<g id="Bancontact_Mr_Cash">
	
		<path fill-rule="evenodd" clip-rule="evenodd" fill="#FFFFFF" stroke="#0079BE" stroke-width="1.8887" stroke-miterlimit="2.6131" d="
		M85,7.5h57.519c7.615,0,9.981,5.566,9.981,9.499V78c0,3.786-2.366,9.5-9.981,9.5H27.481c-7.542,0-9.981-5.714-9.981-9.5V16.999
		c0-3.933,2.439-9.499,9.981-9.499H85L85,7.5z"/>
	<polygon fill-rule="evenodd" clip-rule="evenodd" fill="#0079BE" points="57.941,53.881 78.938,53.881 90.692,41.34 111.764,41.34 
		93.872,61.229 27.703,61.229 27.703,47.944 63.19,47.944 57.941,53.881 	"/>
	<polygon fill-rule="evenodd" clip-rule="evenodd" fill="#FFE237" points="111.764,41.34 90.692,41.34 78.938,53.956 57.793,53.956 
		75.684,34.068 141.928,34.068 141.928,47.277 106.44,47.277 111.764,41.34 	"/>
	<path fill-rule="evenodd" clip-rule="evenodd" fill="#0079BE" d="M133.425,29.17c-0.961,0.594-2.218,0.89-3.399,0.89
		c-3.401,0-6.432-2.523-6.432-6.011c0-3.488,2.734-6.011,6.209-6.011c1.258,0,2.661,0.223,3.622,0.816v3.71
		c-0.739-0.668-1.847-0.89-3.104-0.89c-1.183,0-2.588,0.964-2.588,2.523c0,1.336,1.405,2.152,2.588,2.152
		c1.33,0,2.144-0.074,3.104-0.816V29.17L133.425,29.17z"/>
	<path fill-rule="evenodd" clip-rule="evenodd" fill="#0079BE" d="M142.076,26.35v2.82c-3.031,2.226-6.507,0.371-6.507-2.227V21.75
		h-1.479v-3.414h1.479v-2.746l4.141-2.227v4.973h2.366v3.117h-2.146v4.824C139.931,27.166,141.41,27.092,142.076,26.35
		L142.076,26.35z"/>
	<path fill-rule="evenodd" clip-rule="evenodd" fill="#0079BE" d="M112.133,22.046l0.667-3.191
		c4.138-1.41,10.054-0.594,10.054,3.117v7.866h-3.845l-0.147-0.371c-1.774,1.113-8.281,1.632-7.394-3.488
		c0.519-3.042,3.992-3.784,6.137-3.784c1.109,0,1.553-1.039,0.146-1.113C116.495,21.006,113.981,21.155,112.133,22.046
		L112.133,22.046z"/>
	<path fill-rule="evenodd" clip-rule="evenodd" fill="#0079BE" d="M42.341,22.046l0.592-3.191c4.14-1.41,10.054-0.594,10.054,3.117
		v7.866h-3.918l-0.074-0.371c-1.7,1.113-8.428,1.632-7.393-3.488c0.518-3.042,3.918-3.784,6.063-3.784
		c1.109,0,1.552-1.039,0.222-1.113C46.629,21.006,44.042,21.155,42.341,22.046L42.341,22.046z"/>
	<path fill-rule="evenodd" clip-rule="evenodd" fill="#0079BE" d="M89.732,24.198c0,3.488-2.883,5.937-6.358,5.937
		s-6.432-2.598-6.432-6.085c0-3.414,2.957-6.085,6.358-6.085C86.849,17.964,89.732,20.636,89.732,24.198L89.732,24.198z"/>
	<path fill-rule="evenodd" clip-rule="evenodd" fill="#0079BE" d="M110.729,26.35v2.82c-3.105,2.226-6.505,0.371-6.505-2.227V21.75
		h-1.479v-3.414h1.479v-2.746l4.213-2.227v4.973h2.292v3.117h-2.219v4.824C108.51,27.166,110.063,27.092,110.729,26.35
		L110.729,26.35z"/>
	<path fill-rule="evenodd" clip-rule="evenodd" fill="#0079BE" d="M35.465,12.546c3.845,0,6.654,5.121,3.106,8.312
		c4.435,2.746,2.439,8.831-2.515,8.905h-8.28V12.546H35.465L35.465,12.546z"/>
	<path fill-rule="evenodd" clip-rule="evenodd" fill="#0079BE" d="M76.202,29.17c-0.961,0.594-2.07,0.89-3.327,0.89
		c-3.475,0-6.432-2.523-6.432-6.011c0-3.488,2.735-6.011,6.136-6.011c1.256,0,2.662,0.223,3.623,0.816v3.71
		c-0.813-0.668-1.774-0.89-3.031-0.89s-2.662,0.964-2.662,2.523c0,1.336,1.479,2.152,2.662,2.152c1.257,0,2.07-0.074,3.031-0.816
		V29.17L76.202,29.17z"/>
	<path fill-rule="evenodd" clip-rule="evenodd" fill="#0079BE" d="M65.629,22.342v7.495h-4.14v-6.457c0-2.3-3.327-2.226-3.327,0
		v6.457h-4.141V18.335h4.214V19.3C61.712,16.702,65.629,19.077,65.629,22.342L65.629,22.342z"/>
	<path fill-rule="evenodd" clip-rule="evenodd" fill="#0079BE" d="M102.152,22.342v7.495h-4.139v-6.457c0-2.3-3.327-2.226-3.327,0
		v6.457h-4.14V18.335h4.14V19.3C98.234,16.702,102.152,19.077,102.152,22.342L102.152,22.342z"/>
	<path fill-rule="evenodd" clip-rule="evenodd" fill="#0079BE" d="M117.751,21.081c1.406,0.074,0.963,1.113-0.146,1.113
		c-2.145,0-5.618,0.742-6.137,3.784c-0.888,5.121,5.619,4.601,7.394,3.488l0.147,0.371h3.845v-7.866
		c0-3.71-5.916-4.527-10.054-3.117l-0.667,3.191C113.981,21.155,116.495,21.006,117.751,21.081L117.751,21.081z"/>
	<path fill-rule="evenodd" clip-rule="evenodd" fill="#0079BE" d="M47.886,21.081c1.331,0.074,0.888,1.113-0.222,1.113
		c-2.144,0-5.545,0.742-6.063,3.784c-1.035,5.121,5.693,4.601,7.393,3.488l0.074,0.371h3.918v-7.866
		c0-3.71-5.915-4.527-10.054-3.117l-0.592,3.191C44.042,21.155,46.629,21.006,47.886,21.081L47.886,21.081z"/>
	<path fill-rule="evenodd" clip-rule="evenodd" fill="#0079BE" d="M83.3,17.964c-3.401,0-6.358,2.672-6.358,6.085
		c0,3.488,2.957,6.085,6.432,6.085s6.358-2.449,6.358-5.937C89.732,20.636,86.849,17.964,83.3,17.964L83.3,17.964z"/>
	<path fill-rule="evenodd" clip-rule="evenodd" fill="#0079BE" d="M108.51,26.276v-4.824h2.219v-3.117h-2.292v-4.973l-4.213,2.227
		v2.746h-1.479v3.414h1.479v5.194c0,2.597,3.4,4.453,6.505,2.227v-2.82C110.063,27.092,108.51,27.166,108.51,26.276L108.51,26.276z"
		/>
	<path fill-rule="evenodd" clip-rule="evenodd" fill="#0079BE" d="M27.776,12.546v17.217h8.28c4.954-0.074,6.95-6.16,2.515-8.905
		c3.548-3.191,0.739-8.312-3.106-8.312H27.776L27.776,12.546z"/>
	<path fill-rule="evenodd" clip-rule="evenodd" fill="#0079BE" d="M76.202,25.534c-0.961,0.742-1.774,0.816-3.031,0.816
		c-1.183,0-2.662-0.816-2.662-2.152c0-1.559,1.405-2.523,2.662-2.523s2.218,0.222,3.031,0.89v-3.71
		c-0.961-0.594-2.366-0.816-3.623-0.816c-3.401,0-6.136,2.523-6.136,6.011c0,3.488,2.957,6.011,6.432,6.011
		c1.257,0,2.366-0.296,3.327-0.89V25.534L76.202,25.534z"/>
	<path fill-rule="evenodd" clip-rule="evenodd" fill="#0079BE" d="M58.236,19.3v-0.964h-4.214v11.502h4.141v-6.457
		c0-2.226,3.327-2.3,3.327,0v6.457h4.14v-7.495C65.629,19.077,61.712,16.702,58.236,19.3L58.236,19.3z"/>
	<path fill-rule="evenodd" clip-rule="evenodd" fill="#0079BE" d="M94.686,19.3v-0.964h-4.14v11.502h4.14v-6.457
		c0-2.226,3.327-2.3,3.327,0v6.457h4.139v-7.495C102.152,19.077,98.234,16.702,94.686,19.3L94.686,19.3z"/>
	<path fill-rule="evenodd" clip-rule="evenodd" fill="#0079BE" d="M133.425,25.534c-0.961,0.742-1.774,0.816-3.104,0.816
		c-1.183,0-2.588-0.816-2.588-2.152c0-1.559,1.405-2.523,2.588-2.523c1.258,0,2.365,0.222,3.104,0.89v-3.71
		c-0.961-0.594-2.364-0.816-3.622-0.816c-3.475,0-6.209,2.523-6.209,6.011c0,3.488,3.03,6.011,6.432,6.011
		c1.182,0,2.438-0.296,3.399-0.89V25.534L133.425,25.534z"/>
	<path fill-rule="evenodd" clip-rule="evenodd" fill="#0079BE" d="M139.931,26.276v-4.824h2.146v-3.117h-2.366v-4.973l-4.141,2.227
		v2.746h-1.479v3.414h1.479v5.194c0,2.597,3.476,4.453,6.507,2.227v-2.82C141.41,27.092,139.931,27.166,139.931,26.276
		L139.931,26.276z"/>
	<path fill-rule="evenodd" clip-rule="evenodd" fill="#0079BE" d="M85.739,24.198c0,1.262-1.109,2.3-2.366,2.3
		s-2.292-1.039-2.292-2.449c0-1.484,1.035-2.3,2.292-2.3S85.739,22.565,85.739,24.198L85.739,24.198z"/>
	<path fill-rule="evenodd" clip-rule="evenodd" fill="#0079BE" d="M32.508,22.862h1.848c2.292,0,2.514,3.488,0.074,3.488h-1.922
		V22.862L32.508,22.862z"/>
	<path fill-rule="evenodd" clip-rule="evenodd" fill="#0079BE" d="M48.847,24.792v1.41c0,1.559-3.105,2.003-3.105,0.372
		C45.742,25.088,47.96,24.643,48.847,24.792L48.847,24.792z"/>
	<path fill-rule="evenodd" clip-rule="evenodd" fill="#0079BE" d="M118.714,24.792v1.41c0,1.559-3.032,2.003-3.032,0.372
		C115.682,25.088,117.899,24.643,118.714,24.792L118.714,24.792z"/>
	<path fill-rule="evenodd" clip-rule="evenodd" fill="#0079BE" d="M34.356,16.035C36.5,16.999,35.761,19.3,34.43,19.3h-1.922v-3.265
		C32.508,15.96,33.839,15.886,34.356,16.035L34.356,16.035z"/>
	<path fill-rule="evenodd" clip-rule="evenodd" fill="#FFFFFF" d="M83.374,21.75c-1.257,0-2.292,0.815-2.292,2.3
		c0,1.41,1.035,2.449,2.292,2.449s2.366-1.039,2.366-2.3C85.739,22.565,84.63,21.75,83.374,21.75L83.374,21.75z"/>
	<path fill-rule="evenodd" clip-rule="evenodd" fill="#FFFFFF" d="M115.682,26.573c0,1.632,3.032,1.187,3.032-0.372v-1.41
		C117.899,24.643,115.682,25.088,115.682,26.573L115.682,26.573z"/>
	<path fill-rule="evenodd" clip-rule="evenodd" fill="#FFFFFF" d="M32.508,16.035V19.3h1.922c1.331,0,2.07-2.301-0.074-3.265
		C33.839,15.886,32.508,15.96,32.508,16.035L32.508,16.035z"/>
	<path fill-rule="evenodd" clip-rule="evenodd" fill="#FFFFFF" d="M45.742,26.573c0,1.632,3.105,1.187,3.105-0.372v-1.41
		C47.96,24.643,45.742,25.088,45.742,26.573L45.742,26.573z"/>
	<path fill-rule="evenodd" clip-rule="evenodd" fill="#FFFFFF" d="M32.508,26.35h1.922c2.44,0,2.218-3.488-0.074-3.488h-1.848V26.35
		L32.508,26.35z"/>
	<path fill-rule="evenodd" clip-rule="evenodd" fill="#0079BE" d="M79.16,76.739c0-4.007-1.627-6.605-5.693-6.605
		c-3.845,0-6.137,2.894-6.137,6.16c0,3.562,2.735,6.16,6.58,6.16c3.327,0,5.027-1.335,5.027-1.335v-3.414
		c-1.405,0.743-2.957,1.188-4.066,1.188c-2.218,0-3.401-0.595-3.401-2.153H79.16L79.16,76.739z"/>
	<polygon fill-rule="evenodd" clip-rule="evenodd" fill="#0079BE" points="35.761,77.333 39.163,72.435 39.163,82.156 
		43.598,82.156 43.672,65.311 39.163,65.311 35.761,70.357 32.286,65.311 27.776,65.311 27.851,82.156 32.286,82.156 32.286,72.435 
		35.761,77.333 	"/>
	<path fill-rule="evenodd" clip-rule="evenodd" fill="#0079BE" d="M83.965,75.404c0.444-0.965,1.405-1.781,2.662-1.781
		c0.665,0,1.405,0.296,1.922,0.668v-3.636c-0.37-0.445-0.961-0.595-1.553-0.595c-1.035,0-2.44,0.595-3.031,1.336v-1.187h-3.992
		v11.947h3.992V75.404L83.965,75.404z"/>
	<path fill-rule="evenodd" clip-rule="evenodd" fill="#0079BE" d="M49.957,81.414c1.404,0.595,3.104,0.817,4.214,0.817
		c4.288,0,5.545-2.226,5.545-4.082c0-2.153-2.218-3.34-4.214-3.636c-0.296,0-1.11-0.223-1.11-0.595c0-0.296,0.222-0.667,1.183-0.667
		c0.813,0,2.292,0.297,3.032,0.667l-0.148-3.116c-1.108-0.371-2.661-0.668-3.844-0.668c-2.44,0-4.584,1.485-4.584,3.859
		c0,1.855,1.331,2.821,3.475,3.266c0.887,0.073,1.7,0.445,1.7,0.89c0,0.593-0.591,0.743-1.183,0.743
		c-0.517,0-1.848,0.148-4.065-0.743V81.414L49.957,81.414z"/>
	<path fill-rule="evenodd" clip-rule="evenodd" fill="#0079BE" d="M65.112,78.52v-4.897h2.292v-3.191h-2.44v-5.121l-4.214,2.226
		v2.896h-1.479v3.414h1.479v5.343c0,2.672,3.475,4.453,6.654,2.226V78.52C66.739,79.188,65.112,79.337,65.112,78.52L65.112,78.52z"
		/>
	<polygon fill-rule="evenodd" clip-rule="evenodd" fill="#0079BE" points="49.216,82.008 49.216,70.432 44.781,70.432 
		44.781,82.008 49.216,82.008 	"/>
	<path fill-rule="evenodd" clip-rule="evenodd" fill="#0079BE" d="M46.999,70.06c1.331,0,2.44-1.113,2.44-2.449
		c0-1.261-1.109-2.3-2.44-2.3c-1.257,0-2.292,1.04-2.292,2.3C44.707,68.947,45.742,70.06,46.999,70.06L46.999,70.06z"/>
	<path fill-rule="evenodd" clip-rule="evenodd" fill="#0079BE" d="M119.896,81.414c1.404,0.595,3.104,0.817,4.215,0.817
		c4.287,0,5.618-2.226,5.618-4.082c0-2.153-2.22-3.34-4.288-3.636c-0.296,0-1.109-0.223-1.109-0.595
		c0-0.296,0.222-0.667,1.257-0.667c0.813,0,2.218,0.297,3.031,0.667l-0.222-3.116c-1.108-0.371-2.661-0.668-3.845-0.668
		c-2.44,0-4.583,1.485-4.583,3.859c0,1.855,1.33,2.821,3.474,3.266c0.888,0.073,1.701,0.445,1.701,0.89
		c0,0.593-0.592,0.743-1.184,0.743c-0.518,0-1.849,0.148-4.065-0.743V81.414L119.896,81.414z"/>
	<path fill-rule="evenodd" clip-rule="evenodd" fill="#0079BE" d="M106.884,77.259c-1.405,1.038-2.514,1.261-4.362,1.261
		c-2.811,0-5.324-2.301-5.324-4.675c0-2.598,1.405-5.046,5.324-5.046c1.774,0,3.252,0.296,4.362,1.335v-4.007
		c-1.405-0.817-3.327-1.04-5.027-1.04c-5.102,0-9.02,3.636-9.02,8.608c0,4.899,4.288,8.61,9.315,8.61
		c1.701,0,3.328-0.372,4.732-1.188V77.259L106.884,77.259z"/>
	<path fill-rule="evenodd" clip-rule="evenodd" fill="#0079BE" d="M113.981,73.028c1.404,0.075,0.961,1.188-0.148,1.188
		c-2.218,0-5.766,0.743-6.21,3.784c-0.961,5.196,5.693,4.75,7.468,3.638l0.147,0.296h3.993v-8.015c0-3.784-6.063-4.526-10.352-3.116
		l-0.591,3.191C110.138,73.103,112.725,72.954,113.981,73.028L113.981,73.028z"/>
	<path fill-rule="evenodd" clip-rule="evenodd" fill="#0079BE" d="M134.461,71.322v-6.012h-4.141v16.846h4.141v-6.605
		c0-2.226,3.4-2.3,3.4,0v6.605h4.215v-7.643C142.076,71.1,138.083,68.724,134.461,71.322L134.461,71.322z"/>
	<path fill-rule="evenodd" clip-rule="evenodd" fill="#FFFFFF" d="M71.322,74.438c0.222-1.113,1.109-1.485,1.922-1.485
		c0.813,0,1.849,0.372,1.849,1.485H71.322L71.322,74.438z"/>
	<path fill-rule="evenodd" clip-rule="evenodd" fill="#FFFFFF" d="M114.942,76.814v1.41c0,1.631-3.104,2.003-3.104,0.371
		C111.838,77.11,114.13,76.739,114.942,76.814L114.942,76.814z"/>
</g>
</svg>
