<?xml version="1.0" encoding="utf-8"?>
<!-- Generator: Adobe Illustrator 15.1.0, SVG Export Plug-In . SVG Version: 6.00 Build 0)  -->
<!DOCTYPE svg PUBLIC "-//W3C//DTD SVG 1.1//EN" "http://www.w3.org/Graphics/SVG/1.1/DTD/svg11.dtd">
<svg version="1.1" id="Layer_1" xmlns="http://www.w3.org/2000/svg" xmlns:xlink="http://www.w3.org/1999/xlink" x="0px" y="0px"
	 width="170px" height="95px" viewBox="0 0 170 95" enable-background="new 0 0 170 95" xml:space="preserve">
<g id="Giropay_logo">
	<path fill="#222261" d="M146.252,16.623H23.749c-5.842,0-10.577,4.735-10.577,10.577v40.6c0,5.842,4.735,10.577,10.577,10.577
		h122.503c5.841,0,10.576-4.735,10.576-10.577V27.2C156.828,21.358,152.093,16.623,146.252,16.623z M88.358,73.617H23.749
		c-3.208,0-5.817-2.609-5.817-5.817V27.2c0-3.208,2.609-5.817,5.817-5.817h64.609V73.617z"/>
	<g id="pay">
		<path fill="#FFFFFF" d="M92.81,61.325V39.638h4.934v2.575c0.801-1.004,1.91-1.87,2.579-2.226c0.903-0.477,2.089-0.715,3.184-0.715
			c2.16,0,3.831,0.827,5.013,2.479c1.182,1.653,1.772,2.951,1.772,5.385c0,2.688-0.645,4.553-1.932,5.968
			c-1.288,1.414-2.916,2.309-4.884,2.309c-0.953,0-1.823,0.024-2.609-0.301c-0.786-0.324-2.048-1.366-2.667-2.005v8.218H92.81z
			 M98.154,47.762c0,1.277,0.828,2.226,1.366,2.845c0.538,0.618,1.59,0.741,2.412,0.741c0.721,0,1.511-0.483,1.997-1.076
			c0.487-0.594,0.73-1.227,0.73-2.647c0-1.308-0.254-2.642-0.761-3.256c-0.507-0.613-1.499-0.92-2.229-0.92
			c-0.791,0-2.01,0.496-2.537,1.114C98.604,45.182,98.154,46.372,98.154,47.762z"/>
		<path fill="#FFFFFF" d="M114.68,44.036v-3.685c0,0,1.461-0.854,3.695-0.992c1.853-0.113,4.292-0.067,5.491,0.301
			c1.094,0.335,2.271,1.033,3.018,1.951c0.44,0.541,1.256,2.021,1.256,3.609v7.135v2.766h-4.737l0.031-2.425
			c0,0-1.467,1.786-2.271,2.114c-1.096,0.446-1.97,0.591-3.42,0.591c-1.928,0-2.655-0.352-3.654-1.244
			c-0.999-0.892-1.415-1.863-1.415-3.172c0-1.227,0.119-2.473,0.84-3.264c0.72-0.792,1.686-1.683,3.622-2.068
			c2.323-0.467,4.136-0.155,5.986-0.155c0-0.76-0.419-1.622-0.715-1.943c-0.529-0.575-1.729-0.692-2.52-0.73
			C118.287,42.746,116.203,43.057,114.68,44.036z M123.095,48.219c0,0-1.744-0.011-2.903-0.011s-1.761,0.442-2.299,1.011
			c-0.33,0.35-0.377,0.958-0.258,1.53c0.131,0.63,0.936,1.143,2.032,1.143c0.689,0,0.977,0.077,1.569-0.257
			c0.594-0.335,1.812-1.479,1.812-2.25L123.095,48.219z"/>
		<path fill="#FFFFFF" d="M129.819,39.638h5.787l3.333,10.383l3.095-10.383h5.354L140.606,56.9c-0.73,1.969-2.527,4.72-5.699,4.735
			c-1.537,0.008-2.13,0.072-3.996-0.171l0.171-4.042c0,0,1.301,0.248,2.395,0.248c0.729,0,2.131-0.73,2.563-2.066L129.819,39.638z"
			/>
	</g>
	<g id="giro">
		<path fill="#ED2224" d="M37.604,39.618h4.864l0.015,14.854c0,1.014-0.216,2.54-0.647,3.458c-0.431,0.917-0.991,1.677-1.719,2.229
			c-1.292,0.979-3.415,1.612-5.571,1.612c-3.246,0-4.887-0.097-7.242-1.1c0,0,0.167-3.899,0.187-4.244c0,0,2.286,1.189,3.638,1.282
			c0.89,0.062,3.335,0.373,4.338-0.373c0.882-0.656,2.069-1.563,2.069-3.521V52.42c-0.608,0.72-1.59,1.615-2.199,1.939
			c-0.954,0.508-1.983,0.761-3.088,0.761c-2.16,0-4.091-0.943-5.42-2.83c-0.943-1.338-1.415-3.481-1.415-5.682
			c0-2.516,0.795-4.06,2.012-5.378c1.217-1.318,2.81-1.978,4.777-1.978c1.257,0,2.294,0.213,3.111,0.639s1.58,1.317,2.29,2.302
			V39.618z M30.896,47.379c0,1.166,0.482,2.143,0.979,2.705c0.497,0.563,1.262,0.956,2.074,0.956c0.771,0,1.768-0.254,2.29-0.837
			c0.522-0.583,1.21-1.262,1.156-3.013c-0.036-1.176-0.46-2.264-1.008-2.887c-0.547-0.624-1.59-0.936-2.381-0.936
			s-1.795,0.473-2.267,1.046S30.896,46.051,30.896,47.379z"/>
		<path fill="#ED2224" d="M46.187,33.099h5.445v4.027h-5.445V33.099z M46.187,39.618h5.445v15.597h-5.445V39.618z"/>
		<path fill="#ED2224" d="M55.209,39.618h4.864v2.833c0.487-1.042,1.277-1.933,1.871-2.364c0.593-0.431,1.755-0.834,2.627-0.834
			c0.196,0,1.197,0.011,1.912,0.088l-0.14,4.432c-1.104-0.265-2.679-0.038-3.079,0.108c-1.057,0.389-1.548,0.888-1.994,1.557
			c-0.639,0.943-0.772,1.962-0.772,4.548v5.229h-5.29V39.618z"/>
		<path fill="#ED2224" d="M66.788,47.369c0-2.465,0.645-4.123,2.309-5.721c1.663-1.597,3.723-2.396,6.553-2.396
			c3.235,0,5.307,0.752,6.959,2.628c1.329,1.512,2.18,3.186,2.18,5.396c0,2.485-0.824,4.335-2.472,5.922
			c-1.648,1.587-3.741,2.194-6.652,2.194c-2.596,0-4.509-0.659-6.112-1.978C67.585,51.783,66.788,50.016,66.788,47.369z
			 M72.249,47.354c0,1.44,0.292,2.505,0.875,3.195c0.583,0.689,1.689,1.221,2.572,1.221c0.892,0,1.998-0.34,2.571-1.02
			c0.573-0.68,1.046-1.956,1.046-3.457c0-1.4-0.476-2.629-1.054-3.313s-1.666-1.026-2.518-1.026c-0.903,0-1.835,0.348-2.423,1.042
			C72.729,44.689,72.249,45.934,72.249,47.354z"/>
	</g>
</g>
</svg>
