<?xml version="1.0" encoding="utf-8"?>
<!-- Generator: Adobe Illustrator 15.1.0, SVG Export Plug-In . SVG Version: 6.00 Build 0)  -->
<!DOCTYPE svg PUBLIC "-//W3C//DTD SVG 1.1//EN" "http://www.w3.org/Graphics/SVG/1.1/DTD/svg11.dtd">
<svg version="1.1" id="Layer_1" xmlns="http://www.w3.org/2000/svg" xmlns:xlink="http://www.w3.org/1999/xlink" x="0px" y="0px"
	 width="170px" height="95px" viewBox="0 0 170 95" enable-background="new 0 0 170 95" xml:space="preserve">
<g id="Ideal_logo">
	<rect x="48.06" y="52.529" fill="#010101" width="15.223" height="24.415"/>
	<ellipse fill="#010101" cx="55.815" cy="40.324" rx="8.617" ry="8.324"/>
	<g>
		<g>
			<path fill="#010101" d="M92.119,7.5H37.5v80h54.619v-0.016c11.931-0.157,21.381-3.02,28.087-8.531
				C128.364,72.252,132.5,61.669,132.5,47.5c0-6.772-1.088-12.847-3.233-18.056c-2.053-4.983-5.086-9.219-9.016-12.592
				c-6.919-5.939-16.634-9.151-28.132-9.334C92.119,7.517,92.119,7.5,92.119,7.5z M91.084,12.813c10.586,0,19.409,2.77,25.514,8.011
				c6.9,5.923,10.401,14.899,10.401,26.675c0,23.341-11.746,34.687-35.915,34.687c-1.877,0-43.253,0-48.083,0
				c0-4.76,0-64.613,0-69.373C47.831,12.813,89.207,12.813,91.084,12.813z"/>
		</g>
	</g>
	<g>
		<g>
			<path fill="#CC1B69" d="M89.582,76.971H70.273V19.282h19.308h-0.778c16.103,0,33.244,6.138,33.244,28.919
				c0,24.086-17.141,28.77-33.244,28.77H89.582z"/>
		</g>
	</g>
	<g>
		<g>
			<path fill="#FFFFFF" d="M66.945,34.174h5.302c1.195,0,2.106,0.088,2.733,0.265c0.842,0.24,1.564,0.666,2.166,1.278
				c0.601,0.612,1.058,1.362,1.371,2.249c0.315,0.887,0.471,1.981,0.471,3.281c0,1.142-0.147,2.127-0.442,2.954
				c-0.358,1.01-0.871,1.827-1.537,2.452c-0.503,0.475-1.183,0.843-2.04,1.108c-0.64,0.195-1.495,0.293-2.567,0.293h-5.457V34.174z
				 M69.843,36.526v9.176h2.17c0.813,0,1.398-0.044,1.758-0.133c0.472-0.114,0.864-0.305,1.175-0.576
				c0.31-0.271,0.564-0.717,0.761-1.337c0.196-0.62,0.295-1.466,0.295-2.537c0-1.07-0.099-1.893-0.295-2.466
				c-0.197-0.573-0.472-1.021-0.825-1.341c-0.354-0.321-0.803-0.539-1.347-0.652c-0.406-0.088-1.201-0.133-2.387-0.133H69.843z"/>
			<path fill="#FFFFFF" d="M66.551,33.794v14.639h5.851c1.106,0,2.01-0.104,2.687-0.311c0.912-0.283,1.649-0.686,2.195-1.198
				c0.707-0.663,1.257-1.539,1.635-2.6c0.307-0.864,0.462-1.899,0.462-3.078c0-1.336-0.166-2.481-0.492-3.403
				c-0.331-0.935-0.821-1.738-1.459-2.388c-0.646-0.658-1.433-1.123-2.34-1.38c-0.67-0.189-1.601-0.281-2.844-0.281H66.551z
				 M72.247,34.553c1.153,0,2.035,0.084,2.624,0.25c0.77,0.219,1.44,0.615,1.99,1.175c0.559,0.57,0.992,1.279,1.286,2.11
				c0.298,0.844,0.449,1.905,0.449,3.158c0,1.095-0.141,2.047-0.419,2.831c-0.338,0.949-0.823,1.724-1.441,2.303
				c-0.458,0.432-1.092,0.773-1.885,1.02c-0.598,0.183-1.421,0.275-2.449,0.275c0,0-4.388,0-5.065,0c0-0.696,0-12.424,0-13.122
				C68.011,34.553,72.247,34.553,72.247,34.553z"/>
			<path fill="#FFFFFF" d="M69.449,36.147v9.934h2.564c0.854,0,1.46-0.046,1.856-0.143c0.53-0.128,0.981-0.352,1.34-0.663
				c0.367-0.321,0.655-0.813,0.873-1.508c0.21-0.662,0.312-1.528,0.312-2.648c0-1.122-0.103-1.967-0.313-2.585
				c-0.216-0.632-0.529-1.136-0.93-1.5c-0.404-0.367-0.92-0.618-1.532-0.746c-0.436-0.095-1.245-0.141-2.471-0.141H69.449z
				 M71.148,36.907c1.433,0,2.043,0.066,2.302,0.122c0.474,0.099,0.863,0.287,1.162,0.559c0.304,0.275,0.546,0.674,0.722,1.184
				c0.183,0.533,0.275,1.322,0.275,2.347c0,1.028-0.094,1.845-0.278,2.426c-0.174,0.551-0.393,0.944-0.648,1.166
				c-0.262,0.227-0.599,0.393-1.006,0.491c-0.328,0.08-0.888,0.121-1.664,0.121c0,0-1.251,0-1.778,0c0-0.668,0-7.749,0-8.416
				C70.619,36.907,71.148,36.907,71.148,36.907z"/>
		</g>
		<g>
			<path fill="#FFFFFF" d="M82.267,48.054v-13.88h10.639v2.353h-7.74v3.075h7.201v2.353h-7.201v3.749h8.016v2.352H82.267z"/>
			<path fill="#FFFFFF" d="M81.875,33.794v14.639h11.7v-3.111c0,0-7.306,0-8.016,0c0-0.544,0-2.444,0-2.989c0.702,0,7.2,0,7.2,0
				v-3.112c0,0-6.499,0-7.2,0c0-0.501,0-1.814,0-2.315c0.708,0,7.741,0,7.741,0v-3.112H81.875z M92.513,34.553
				c0,0.431,0,1.163,0,1.594c-0.708,0-7.741,0-7.741,0v3.833c0,0,6.499,0,7.202,0c0,0.431,0,1.162,0,1.594c-0.704,0-7.202,0-7.202,0
				v4.506c0,0,7.306,0,8.017,0c0,0.432,0,1.164,0,1.594c-0.703,0-9.425,0-10.128,0c0-0.696,0-12.424,0-13.122
				C83.362,34.553,91.812,34.553,92.513,34.553z"/>
		</g>
		<g>
			<path fill="#FFFFFF" d="M109.41,48.054h-3.158L105,44.904h-5.742l-1.189,3.15h-3.08l5.585-13.88h3.089L109.41,48.054z
				 M104.068,42.552l-1.981-5.143l-1.941,5.143H104.068z"/>
			<path fill="#FFFFFF" d="M100.306,33.794l-5.891,14.639h3.929c0,0,1.029-2.727,1.188-3.149c0.475,0,4.731,0,5.197,0
				c0.165,0.415,1.255,3.149,1.255,3.149h4.006l-6.062-14.639H100.306z M103.397,34.553c0.184,0.444,5.041,12.175,5.434,13.122
				c-0.693,0-1.948,0-2.308,0c-0.166-0.414-1.254-3.149-1.254-3.149h-6.287c0,0-1.029,2.727-1.189,3.149c-0.361,0-1.552,0-2.229,0
				c0.379-0.94,5.1-12.672,5.28-13.122C101.25,34.553,102.995,34.553,103.397,34.553z"/>
			<path fill="#FFFFFF" d="M99.584,42.931h5.049l-2.55-6.62L99.584,42.931z M102.09,38.507c0.431,1.117,1.159,3.008,1.412,3.666
				c-0.688,0-2.109,0-2.794,0C100.955,41.518,101.668,39.627,102.09,38.507z"/>
		</g>
		<g>
			<path fill="#FFFFFF" d="M111.835,48.054V34.288h2.899v11.415h7.22v2.352H111.835z"/>
			<path fill="#FFFFFF" d="M111.441,33.908v14.525h10.906v-3.111c0,0-6.52,0-7.221,0c0-0.709,0-11.414,0-11.414H111.441z
				 M114.341,34.667c0,0.71,0,11.414,0,11.414s6.519,0,7.219,0c0,0.432,0,1.164,0,1.594c-0.694,0-8.634,0-9.333,0
				c0-0.696,0-12.31,0-13.008C112.724,34.667,113.846,34.667,114.341,34.667z"/>
		</g>
	</g>
</g>
</svg>
