<?xml version="1.0" encoding="utf-8"?>
<!-- Generator: Adobe Illustrator 15.1.0, SVG Export Plug-In . SVG Version: 6.00 Build 0)  -->
<!DOCTYPE svg PUBLIC "-//W3C//DTD SVG 1.1//EN" "http://www.w3.org/Graphics/SVG/1.1/DTD/svg11.dtd">
<svg version="1.1" id="Layer_1" xmlns="http://www.w3.org/2000/svg" xmlns:xlink="http://www.w3.org/1999/xlink" x="0px" y="0px"
	 width="170px" height="95px" viewBox="0 0 170 95" enable-background="new 0 0 170 95" xml:space="preserve">
<g id="Maestro_logo">
	<polygon fill="#ED1B2E" points="111.89,87.5 113.985,87.447 116.043,87.29 118.074,87.039 120.068,86.685 122.042,86.239 
		123.983,85.699 125.855,85.068 127.706,84.345 129.517,83.544 131.254,82.663 132.962,81.704 134.586,80.652 136.181,79.534 
		137.726,78.351 139.197,77.089 140.62,75.762 141.948,74.368 143.236,72.909 144.443,71.398 145.556,69.834 146.608,68.203 
		147.603,66.521 148.513,64.799 149.32,63.023 150.025,61.198 150.669,59.343 151.211,57.437 151.683,55.505 152.018,53.52 
		152.273,51.522 152.459,49.485 152.5,47.421 152.459,45.37 152.273,43.347 152.018,41.362 151.683,39.389 151.211,37.47 
		150.669,35.578 150.025,33.724 149.32,31.911 148.513,30.149 147.603,28.427 146.608,26.757 145.556,25.127 144.443,23.563 
		143.236,22.052 141.948,20.604 140.62,19.212 139.197,17.897 137.726,16.636 136.181,15.454 134.586,14.335 132.962,13.296 
		131.254,12.338 129.517,11.443 127.706,10.641 125.855,9.932 123.983,9.301 122.042,8.761 120.068,8.315 118.074,7.961 
		116.043,7.71 113.985,7.552 111.89,7.5 109.793,7.552 107.733,7.71 105.704,7.961 103.71,8.315 101.737,8.761 99.819,9.301 
		97.923,9.932 96.082,10.641 94.288,11.443 92.534,12.338 90.854,13.296 89.202,14.335 87.618,15.454 86.073,16.636 84.611,17.897 
		83.216,19.212 81.86,20.604 80.588,22.052 79.392,23.563 78.263,25.127 77.209,26.757 76.232,28.427 75.332,30.149 74.535,31.911 
		73.804,33.724 73.159,35.578 72.628,37.47 72.189,39.389 71.82,41.362 71.564,43.347 71.412,45.37 71.355,47.421 71.412,49.485 
		71.564,51.522 71.82,53.52 72.189,55.505 72.628,57.437 73.159,59.343 73.804,61.198 74.535,63.023 75.332,64.799 76.232,66.521 
		77.209,68.203 78.263,69.834 79.392,71.398 80.588,72.909 81.86,74.368 83.216,75.762 84.611,77.089 86.073,78.351 87.618,79.534 
		89.202,80.652 90.854,81.704 92.534,82.663 94.288,83.544 96.082,84.345 97.923,85.068 99.819,85.699 101.737,86.239 
		103.71,86.685 105.704,87.039 107.733,87.29 109.793,87.447 	"/>
	<polygon fill="#0084C5" points="58.109,87.5 60.206,87.447 62.266,87.29 64.296,87.039 66.289,86.685 68.263,86.239 70.18,85.699 
		72.076,85.068 73.917,84.345 75.711,83.544 77.465,82.663 79.146,81.704 80.798,80.652 82.382,79.534 83.927,78.351 85.388,77.089 
		86.794,75.762 88.139,74.368 89.411,72.909 90.607,71.398 91.737,69.834 92.79,68.203 93.767,66.521 94.667,64.799 95.475,63.023 
		96.195,61.198 96.823,59.343 97.372,57.437 97.81,55.505 98.179,53.52 98.435,51.522 98.588,49.485 98.644,47.421 98.588,45.37 
		98.435,43.347 98.179,41.362 97.81,39.389 97.372,37.47 96.823,35.578 96.195,33.724 95.475,31.911 94.667,30.149 93.767,28.427 
		92.79,26.757 91.737,25.127 90.607,23.563 89.411,22.052 88.139,20.604 86.794,19.212 85.388,17.897 83.927,16.636 82.382,15.454 
		80.798,14.335 79.146,13.296 77.465,12.338 75.711,11.443 73.917,10.641 72.076,9.932 70.18,9.301 68.263,8.761 66.289,8.315 
		64.296,7.961 62.266,7.71 60.206,7.552 58.109,7.5 56.014,7.552 53.954,7.71 51.925,7.961 49.931,8.315 47.957,8.761 46.03,9.301 
		44.144,9.932 42.293,10.641 40.499,11.443 38.745,12.338 37.054,13.296 35.413,14.335 33.802,15.454 32.273,16.636 30.802,17.897 
		29.405,19.212 28.051,20.604 26.778,22.052 25.557,23.563 24.426,25.127 23.373,26.757 22.396,28.427 21.503,30.149 20.679,31.911 
		19.958,33.724 19.33,35.578 18.771,37.47 18.333,39.389 17.965,41.362 17.709,43.347 17.556,45.37 17.5,47.421 17.556,49.485 
		17.709,51.522 17.965,53.52 18.333,55.505 18.771,57.437 19.33,59.343 19.958,61.198 20.679,63.023 21.503,64.799 22.396,66.521 
		23.373,68.203 24.426,69.834 25.557,71.398 26.778,72.909 28.051,74.368 29.405,75.762 30.802,77.089 32.273,78.351 33.802,79.534 
		35.413,80.652 37.054,81.704 38.745,82.663 40.499,83.544 42.293,84.345 44.144,85.068 46.03,85.699 47.957,86.239 49.931,86.685 
		51.925,87.039 53.954,87.29 56.014,87.447 	"/>
	<polygon fill="#ED1B2E" points="80,22.735 100.561,22.735 100.561,20.5 81.983,20.5 	"/>
	<polygon fill="#ED1B2E" points="76.773,27.467 100.561,27.467 100.561,25.245 78.216,25.245 	"/>
	<polygon fill="#ED1B2E" points="74.372,32.278 100.561,32.278 100.561,30.043 75.465,30.043 	"/>
	<polygon fill="#ED1B2E" points="72.798,37.01 100.561,37.01 100.561,34.79 73.481,34.79 	"/>
	<polygon fill="#ED1B2E" points="71.765,41.756 100.561,41.756 100.561,39.521 72.189,39.521 	"/>
	<polygon fill="#ED1B2E" points="71.555,50.944 100.561,50.944 100.561,48.71 71.355,48.71 	"/>
	<polygon fill="#ED1B2E" points="72.256,55.952 100.561,55.952 100.561,53.718 71.831,53.718 	"/>
	<polygon fill="#ED1B2E" points="73.614,60.014 100.561,60.014 100.561,57.779 72.931,57.779 	"/>
	<polygon fill="#ED1B2E" points="75.664,64.957 100.561,64.957 100.561,62.723 74.582,62.723 	"/>
	<polygon fill="#ED1B2E" points="78.558,69.965 100.561,69.965 100.561,67.73 77.04,67.73 	"/>
	<polygon fill="#ED1B2E" points="82.183,74.776 100.361,74.776 100.361,72.541 80.199,72.541 	"/>
	<g>
		<g>
			<polygon fill="#ED1B2E" points="145.813,71.989 145.935,71.635 146.151,71.305 146.406,71.017 146.693,70.78 147.008,70.595 
				147.377,70.477 147.766,70.438 148.164,70.477 148.543,70.595 148.857,70.78 149.178,71.017 149.424,71.305 149.596,71.635 
				149.719,71.989 149.31,71.989 149.217,71.74 149.074,71.463 148.901,71.226 148.666,71.043 148.399,70.898 148.104,70.807 
				147.766,70.78 147.459,70.807 147.131,70.898 146.865,71.043 146.652,71.226 146.446,71.463 146.304,71.74 146.211,71.989 			"/>
			<polygon fill="#ED1B2E" points="147.08,71.989 147.08,71.516 147.849,71.516 148.012,71.529 148.154,71.542 148.287,71.581 
				148.399,71.635 148.46,71.701 148.543,71.78 148.573,71.871 148.582,71.989 148.257,71.989 148.257,71.989 148.248,71.923 
				148.193,71.871 148.164,71.819 148.124,71.78 148.041,71.753 147.991,71.74 147.908,71.726 147.849,71.726 147.406,71.726 
				147.406,71.989 			"/>
			<polygon fill="#ED1B2E" points="145.793,72.332 145.813,72.002 145.813,71.989 146.211,71.989 146.201,72.055 146.181,72.332 			
				"/>
			<polygon fill="#ED1B2E" points="147.08,72.332 147.08,71.989 147.406,71.989 147.406,72.265 147.766,72.265 147.889,72.265 
				148.002,72.265 148.062,72.253 148.145,72.226 148.174,72.199 148.237,72.147 148.257,72.081 148.257,71.989 148.582,71.989 
				148.582,71.989 148.573,72.108 148.553,72.213 148.523,72.292 148.46,72.332 			"/>
			<polygon fill="#ED1B2E" points="149.34,72.332 149.32,72.055 149.31,71.989 149.719,71.989 149.719,72.002 149.749,72.332 			"/>
			<polygon fill="#ED1B2E" points="145.793,72.332 145.782,72.396 145.813,72.791 145.935,73.159 146.151,73.475 146.406,73.763 
				146.693,73.986 147.008,74.157 147.377,74.263 147.766,74.302 148.164,74.263 148.543,74.157 148.857,73.986 149.178,73.763 
				149.424,73.475 149.596,73.159 149.719,72.791 149.749,72.396 149.749,72.332 149.34,72.332 149.34,72.396 149.32,72.738 
				149.217,73.054 149.074,73.33 148.901,73.566 148.666,73.763 148.399,73.908 148.104,74 147.766,74.027 147.459,74 
				147.131,73.908 146.865,73.763 146.652,73.566 146.446,73.33 146.304,73.054 146.201,72.738 146.181,72.396 146.181,72.332 			
				"/>
			<polygon fill="#ED1B2E" points="147.08,72.332 147.08,73.146 147.406,73.146 147.406,72.475 147.766,72.475 148.174,73.146 
				148.533,73.146 148.031,72.475 148.154,72.462 148.277,72.45 148.38,72.41 148.44,72.357 148.46,72.332 			"/>
		</g>
	</g>
	<polygon fill="#FFFFFF" points="103.112,44.056 102.847,44.044 102.581,44.017 102.335,43.977 102.089,43.951 101.86,43.911 
		101.614,43.872 101.358,43.833 101.093,43.793 100.816,43.766 100.515,43.741 100.183,43.714 99.83,43.702 99.432,43.702 
		98.986,43.714 98.501,43.741 97.97,43.78 97.581,43.833 97.212,43.911 96.88,44.017 96.595,44.135 96.329,44.281 96.082,44.438 
		95.883,44.621 95.73,44.805 95.607,45.015 95.531,45.239 95.484,45.463 95.484,45.699 95.541,45.949 95.627,46.199 95.787,46.448 
		95.96,46.698 96.349,47.04 96.804,47.315 97.335,47.553 97.913,47.75 98.512,47.946 99.129,48.144 99.773,48.368 100.382,48.631 
		100.96,48.946 101.501,49.327 101.993,49.813 102.392,50.392 102.687,51.101 102.887,51.944 102.952,52.941 102.887,54.126 
		102.743,55.006 102.514,55.794 102.202,56.505 101.813,57.136 101.358,57.688 100.873,58.161 100.314,58.567 99.743,58.922 
		99.119,59.212 98.491,59.449 97.837,59.646 97.182,59.791 96.527,59.895 95.883,59.961 95.275,60.001 94.677,60.014 93.844,60.014 
		93.103,60.001 92.429,59.989 91.793,59.974 91.215,59.949 90.721,59.922 90.229,59.883 89.811,59.831 89.411,59.777 89.033,59.712 
		88.69,59.646 88.349,59.555 88.026,59.462 87.704,59.37 87.382,59.252 87.05,59.134 87.884,55.006 88.056,55.045 88.292,55.111 
		88.568,55.178 88.88,55.257 89.232,55.321 89.631,55.414 90.066,55.493 90.521,55.572 90.996,55.636 91.508,55.702 92.029,55.755 
		92.57,55.808 93.112,55.834 93.681,55.848 94.232,55.848 94.811,55.821 95.342,55.729 95.787,55.584 96.119,55.375 96.385,55.138 
		96.584,54.861 96.728,54.572 96.85,54.284 96.927,53.993 96.973,53.69 96.946,53.429 96.88,53.178 96.784,52.969 96.624,52.759 
		96.451,52.574 96.216,52.404 95.96,52.245 95.684,52.101 95.371,51.956 95.039,51.812 94.697,51.68 94.354,51.549 93.977,51.405 
		93.614,51.259 93.226,51.101 92.847,50.944 92.468,50.773 92.106,50.577 91.737,50.365 91.395,50.143 91.073,49.892 90.777,49.604 
		90.484,49.301 90.229,48.958 90.009,48.591 89.82,48.183 89.667,47.75 89.555,47.264 89.488,46.737 89.479,46.16 89.524,45.542 
		89.555,45.16 89.611,44.793 89.667,44.438 89.744,44.096 89.82,43.766 89.924,43.438 90.029,43.136 90.152,42.834 90.295,42.557 
		90.454,42.281 90.617,42.031 90.807,41.783 91.006,41.546 91.215,41.322 91.451,41.111 91.707,40.914 91.973,40.731 92.249,40.559 
		92.561,40.401 92.867,40.244 93.216,40.113 93.567,39.982 93.946,39.876 94.345,39.771 94.764,39.68 95.209,39.601 95.664,39.534 
		96.14,39.482 96.65,39.443 97.182,39.416 97.724,39.389 98.302,39.389 98.996,39.389 99.641,39.403 100.219,39.416 100.75,39.443 
		101.216,39.468 101.634,39.495 102.022,39.534 102.354,39.561 102.667,39.601 102.933,39.64 103.188,39.665 103.398,39.705 
		103.587,39.731 103.767,39.758 103.92,39.784 104.063,39.797 	"/>
	<g>
		<g>
			<polyline fill="none" stroke="#FFFFFF" stroke-width="0.215" points="103.112,44.056 103.112,44.056 102.847,44.044 
				102.581,44.017 102.335,43.977 102.089,43.951 101.86,43.911 101.614,43.872 101.358,43.833 101.093,43.793 100.816,43.766 
				100.515,43.741 100.183,43.714 99.83,43.702 99.432,43.702 98.986,43.714 98.501,43.741 97.97,43.78 97.97,43.78 97.581,43.833 
				97.212,43.911 96.88,44.017 96.595,44.135 96.329,44.281 96.082,44.438 95.883,44.621 95.73,44.805 95.607,45.015 95.531,45.239 
				95.484,45.463 95.484,45.699 95.541,45.949 95.627,46.199 95.787,46.448 95.96,46.698 95.96,46.698 96.349,47.04 96.804,47.315 
				97.335,47.553 97.913,47.75 98.512,47.946 99.129,48.144 99.773,48.368 100.382,48.631 100.96,48.946 101.501,49.327 
				101.993,49.813 102.392,50.392 102.687,51.101 102.887,51.944 102.952,52.941 102.887,54.126 102.887,54.126 102.743,55.006 
				102.514,55.794 102.202,56.505 101.813,57.136 101.358,57.688 100.873,58.161 100.314,58.567 99.743,58.922 99.119,59.212 
				98.491,59.449 97.837,59.646 97.182,59.791 96.527,59.895 95.883,59.961 95.275,60.001 94.677,60.014 94.677,60.014 
				93.844,60.014 93.103,60.001 92.429,59.989 91.793,59.974 91.215,59.949 90.721,59.922 90.229,59.883 89.811,59.831 
				89.411,59.777 89.033,59.712 88.69,59.646 88.349,59.555 88.026,59.462 87.704,59.37 87.382,59.252 87.05,59.134 87.884,55.006 
				87.884,55.006 88.056,55.045 88.292,55.111 88.568,55.178 88.88,55.257 89.232,55.321 89.631,55.414 90.066,55.493 
				90.521,55.572 90.996,55.636 91.508,55.702 92.029,55.755 92.57,55.808 93.112,55.834 93.681,55.848 94.232,55.848 
				94.811,55.821 94.811,55.821 95.342,55.729 95.787,55.584 96.119,55.375 96.385,55.138 96.584,54.861 96.728,54.572 
				96.85,54.284 96.927,53.993 96.927,53.993 96.973,53.69 96.946,53.429 96.88,53.178 96.784,52.969 96.624,52.759 96.451,52.574 
				96.216,52.404 95.96,52.245 95.684,52.101 95.371,51.956 95.039,51.812 94.697,51.68 94.354,51.549 93.977,51.405 93.614,51.259 
				93.226,51.101 92.847,50.944 92.468,50.773 92.106,50.577 91.737,50.365 91.395,50.143 91.073,49.892 90.777,49.604 
				90.484,49.301 90.229,48.958 90.009,48.591 89.82,48.183 89.667,47.75 89.555,47.264 89.488,46.737 89.479,46.16 89.524,45.542 
				89.524,45.542 89.555,45.16 89.611,44.793 89.667,44.438 89.744,44.096 89.82,43.766 89.924,43.438 90.029,43.136 90.152,42.834 
				90.295,42.557 90.454,42.281 90.617,42.031 90.807,41.783 91.006,41.546 91.215,41.322 91.451,41.111 91.707,40.914 
				91.973,40.731 92.249,40.559 92.561,40.401 92.867,40.244 93.216,40.113 93.567,39.982 93.946,39.876 94.345,39.771 
				94.764,39.68 95.209,39.601 95.664,39.534 96.14,39.482 96.65,39.443 97.182,39.416 97.724,39.389 98.302,39.389 98.302,39.389 
				98.996,39.389 99.641,39.403 100.219,39.416 100.75,39.443 101.216,39.468 101.634,39.495 102.022,39.534 102.354,39.561 
				102.667,39.601 102.933,39.64 103.188,39.665 103.398,39.705 103.587,39.731 103.767,39.758 103.92,39.784 104.063,39.797 
				103.112,44.056 			"/>
		</g>
	</g>
	<polygon fill="#FFFFFF" points="107.488,35.263 112.839,35.263 112.022,39.862 115.314,39.862 114.573,44.056 111.188,43.99 
		109.432,54.467 109.395,54.69 109.395,54.887 109.432,55.058 109.471,55.217 109.564,55.348 109.65,55.479 109.773,55.584 
		109.906,55.664 110.059,55.742 110.229,55.808 110.401,55.86 110.591,55.887 110.816,55.926 111.025,55.939 111.245,55.952 
		111.48,55.952 111.899,55.952 112.278,55.926 112.62,55.873 112.906,55.808 113.142,55.742 113.321,55.676 113.418,55.624 
		113.465,55.611 112.906,59.198 112.773,59.279 112.63,59.343 112.487,59.409 112.345,59.476 112.201,59.528 112.032,59.58 
		111.879,59.634 111.69,59.686 111.501,59.737 111.301,59.777 111.082,59.817 110.836,59.856 110.581,59.895 110.314,59.935 
		110.003,59.974 109.696,60.014 108.255,60.014 107.488,59.961 106.813,59.883 106.215,59.777 105.693,59.634 105.248,59.476 
		104.886,59.279 104.574,59.055 104.318,58.804 104.119,58.529 103.976,58.227 103.873,57.897 103.833,57.53 103.807,57.148 
		103.833,56.728 103.862,56.294 103.93,55.821 	"/>
	<g>
		<g>
			<polyline fill="none" stroke="#FFFFFF" stroke-width="0.215" points="107.488,35.263 112.839,35.263 112.022,39.862 
				115.314,39.862 114.573,44.056 111.188,43.99 109.432,54.467 109.432,54.467 109.395,54.69 109.395,54.887 109.432,55.058 
				109.471,55.217 109.564,55.348 109.65,55.479 109.773,55.584 109.906,55.664 110.059,55.742 110.229,55.808 110.401,55.86 
				110.591,55.887 110.816,55.926 111.025,55.939 111.245,55.952 111.48,55.952 111.48,55.952 111.899,55.952 112.278,55.926 
				112.62,55.873 112.906,55.808 113.142,55.742 113.321,55.676 113.418,55.624 113.465,55.611 112.906,59.198 112.906,59.198 
				112.773,59.279 112.63,59.343 112.487,59.409 112.345,59.476 112.201,59.528 112.032,59.58 111.879,59.634 111.69,59.686 
				111.501,59.737 111.301,59.777 111.082,59.817 110.836,59.856 110.581,59.895 110.314,59.935 110.003,59.974 109.696,60.014 
				108.255,60.014 108.255,60.014 107.488,59.961 106.813,59.883 106.215,59.777 105.693,59.634 105.248,59.476 104.886,59.279 
				104.574,59.055 104.318,58.804 104.119,58.529 103.976,58.227 103.873,57.897 103.833,57.53 103.807,57.148 103.833,56.728 
				103.862,56.294 103.93,55.821 107.488,35.263 			"/>
		</g>
	</g>
	<polygon fill="#FFFFFF" points="74.924,51.22 74.857,51.549 74.847,51.877 74.867,52.232 74.96,52.574 75.057,52.929 
		75.226,53.284 75.398,53.626 75.635,53.954 75.891,54.269 76.176,54.572 76.488,54.835 76.82,55.085 77.173,55.295 77.551,55.466 
		77.949,55.597 78.349,55.69 78.824,55.755 79.315,55.821 79.801,55.873 80.302,55.9 80.798,55.912 81.299,55.912 81.82,55.887 
		82.315,55.848 82.837,55.769 83.368,55.676 83.9,55.545 84.448,55.375 84.979,55.178 85.531,54.939 86.073,54.651 86.641,54.335 
		85.807,59.001 85.511,59.159 85.199,59.304 84.923,59.422 84.621,59.528 84.335,59.634 84.032,59.712 83.737,59.777 83.405,59.844 
		83.047,59.883 82.684,59.922 82.275,59.961 81.83,59.974 81.355,60.001 80.824,60.001 80.236,60.014 79.592,60.014 79.126,60.014 
		78.651,59.989 78.169,59.961 77.694,59.909 77.209,59.844 76.718,59.764 76.242,59.659 75.768,59.555 75.303,59.409 74.837,59.265 
		74.382,59.094 73.927,58.897 73.481,58.673 73.063,58.437 72.665,58.173 72.266,57.885 71.887,57.57 71.534,57.228 71.176,56.859 
		70.881,56.466 70.578,56.031 70.313,55.584 70.083,55.099 69.857,54.584 69.685,54.033 69.525,53.454 69.418,52.85 69.325,52.192 
		69.27,51.51 69.27,50.799 69.306,50.038 69.372,49.249 69.418,48.973 69.448,48.657 69.505,48.342 69.571,48 69.639,47.645 
		69.724,47.276 69.837,46.896 69.95,46.5 70.083,46.093 70.227,45.699 70.389,45.291 70.578,44.884 70.804,44.478 71.023,44.069 
		71.279,43.662 71.545,43.268 71.841,42.886 72.163,42.505 72.521,42.137 72.894,41.795 73.309,41.453 73.737,41.138 74.202,40.849 
		74.715,40.573 75.245,40.336 75.824,40.113 76.422,39.916 77.066,39.758 77.741,39.625 78.462,39.534 79.203,39.482 80,39.455 
		80.379,39.455 80.757,39.482 81.13,39.507 81.518,39.546 81.907,39.601 82.306,39.68 82.694,39.771 83.083,39.876 83.472,39.994 
		83.86,40.14 84.223,40.297 84.591,40.48 84.933,40.691 85.275,40.914 85.598,41.177 85.92,41.453 86.206,41.756 86.498,42.084 
		86.737,42.453 86.973,42.834 87.183,43.254 87.372,43.702 87.524,44.187 87.647,44.7 87.761,45.252 87.827,45.831 87.847,46.448 
		87.847,47.106 87.817,47.803 87.75,48.54 87.628,49.313 87.458,50.129 87.249,51.286 73.405,51.286 74.239,47.631 82.541,47.631 
		82.571,47.133 82.571,46.672 82.551,46.239 82.476,45.845 82.362,45.49 82.229,45.16 82.05,44.872 81.851,44.608 81.631,44.372 
		81.375,44.175 81.109,44.017 80.834,43.885 80.521,43.78 80.199,43.702 79.867,43.662 79.524,43.648 79.146,43.648 78.804,43.702 
		78.462,43.766 78.14,43.872 77.827,44.017 77.541,44.187 77.266,44.385 77.01,44.608 76.764,44.872 76.555,45.147 76.355,45.45 
		76.166,45.778 76.013,46.121 75.881,46.488 75.768,46.882 75.664,47.29 	"/>
	<g>
		<g>
			<polyline fill="none" stroke="#FFFFFF" stroke-width="0.215" points="74.924,51.22 74.924,51.22 74.857,51.549 74.847,51.877 
				74.867,52.232 74.96,52.574 75.057,52.929 75.226,53.284 75.398,53.626 75.635,53.954 75.891,54.269 76.176,54.572 
				76.488,54.835 76.82,55.085 77.173,55.295 77.551,55.466 77.949,55.597 78.349,55.69 78.349,55.69 78.824,55.755 79.315,55.821 
				79.801,55.873 80.302,55.9 80.798,55.912 81.299,55.912 81.82,55.887 82.315,55.848 82.837,55.769 83.368,55.676 83.9,55.545 
				84.448,55.375 84.979,55.178 85.531,54.939 86.073,54.651 86.641,54.335 85.807,59.001 85.807,59.001 85.511,59.159 
				85.199,59.304 84.923,59.422 84.621,59.528 84.335,59.634 84.032,59.712 83.737,59.777 83.405,59.844 83.047,59.883 
				82.684,59.922 82.275,59.961 81.83,59.974 81.355,60.001 80.824,60.001 80.236,60.014 79.592,60.014 79.592,60.014 
				79.126,60.014 78.651,59.989 78.169,59.961 77.694,59.909 77.209,59.844 76.718,59.764 76.242,59.659 75.768,59.555 
				75.303,59.409 74.837,59.265 74.382,59.094 73.927,58.897 73.481,58.673 73.063,58.437 72.665,58.173 72.266,57.885 
				71.887,57.57 71.534,57.228 71.176,56.859 70.881,56.466 70.578,56.031 70.313,55.584 70.083,55.099 69.857,54.584 
				69.685,54.033 69.525,53.454 69.418,52.85 69.325,52.192 69.27,51.51 69.27,50.799 69.306,50.038 69.372,49.249 69.372,49.249 
				69.418,48.973 69.448,48.657 69.505,48.342 69.571,48 69.639,47.645 69.724,47.276 69.837,46.896 69.95,46.5 70.083,46.093 
				70.227,45.699 70.389,45.291 70.578,44.884 70.804,44.478 71.023,44.069 71.279,43.662 71.545,43.268 71.841,42.886 
				72.163,42.505 72.521,42.137 72.894,41.795 73.309,41.453 73.737,41.138 74.202,40.849 74.715,40.573 75.245,40.336 
				75.824,40.113 76.422,39.916 77.066,39.758 77.741,39.625 78.462,39.534 79.203,39.482 80,39.455 80,39.455 80.379,39.455 
				80.757,39.482 81.13,39.507 81.518,39.546 81.907,39.601 82.306,39.68 82.694,39.771 83.083,39.876 83.472,39.994 83.86,40.14 
				84.223,40.297 84.591,40.48 84.933,40.691 85.275,40.914 85.598,41.177 85.92,41.453 86.206,41.756 86.498,42.084 86.737,42.453 
				86.973,42.834 87.183,43.254 87.372,43.702 87.524,44.187 87.647,44.7 87.761,45.252 87.827,45.831 87.847,46.448 87.847,47.106 
				87.817,47.803 87.75,48.54 87.628,49.313 87.458,50.129 87.249,51.286 73.405,51.286 74.239,47.631 82.541,47.631 82.541,47.631 
				82.571,47.133 82.571,46.672 82.551,46.239 82.476,45.845 82.362,45.49 82.229,45.16 82.05,44.872 81.851,44.608 81.631,44.372 
				81.375,44.175 81.109,44.017 80.834,43.885 80.521,43.78 80.199,43.702 79.867,43.662 79.524,43.648 79.524,43.648 
				79.146,43.648 78.804,43.702 78.462,43.766 78.14,43.872 77.827,44.017 77.541,44.187 77.266,44.385 77.01,44.608 76.764,44.872 
				76.555,45.147 76.355,45.45 76.166,45.778 76.013,46.121 75.881,46.488 75.768,46.882 75.664,47.29 74.924,51.22 			"/>
		</g>
	</g>
	<polygon fill="#FFFFFF" points="67.521,55.821 66.754,60.014 61.943,60.014 62,59.619 62.057,59.225 62.113,58.871 62.169,58.542 
		62.21,58.267 62.256,58.03 62.313,57.873 62.369,57.779 62.113,58.069 61.791,58.357 61.422,58.634 61.014,58.897 60.568,59.146 
		60.094,59.383 59.599,59.594 59.077,59.791 58.519,59.961 57.967,60.106 57.399,60.211 56.848,60.29 56.279,60.329 55.737,60.343 
		55.207,60.303 54.685,60.225 54.011,60.067 53.412,59.856 52.854,59.606 52.38,59.331 51.961,59.028 51.592,58.686 51.27,58.331 
		51.004,57.937 50.784,57.542 50.596,57.136 50.452,56.714 50.329,56.281 50.253,55.86 50.196,55.427 50.177,55.006 50.15,54.599 
		50.206,53.862 50.329,53.166 50.509,52.495 50.765,51.864 51.061,51.273 51.402,50.72 51.828,50.208 52.256,49.722 52.758,49.289 
		53.279,48.907 53.831,48.552 54.419,48.249 55.027,47.986 55.662,47.776 56.306,47.618 56.943,47.5 56.98,47.5 57.066,47.487 
		57.227,47.474 57.426,47.448 57.645,47.421 57.911,47.395 58.213,47.355 58.519,47.33 58.841,47.303 59.163,47.264 59.495,47.237 
		59.817,47.211 60.104,47.185 60.396,47.172 60.635,47.158 60.861,47.158 61.08,47.158 61.316,47.158 61.535,47.158 61.781,47.172 
		62,47.172 62.21,47.185 62.436,47.185 62.646,47.185 62.834,47.197 62.997,47.197 63.14,47.211 63.289,47.211 63.386,47.224 
		63.462,47.224 63.519,47.224 63.528,47.224 63.575,47.093 63.661,46.776 63.728,46.409 63.728,46.081 63.708,45.845 63.661,45.621 
		63.595,45.409 63.508,45.212 63.396,45.03 63.263,44.858 63.13,44.7 62.978,44.542 62.798,44.411 62.635,44.306 62.436,44.201 
		62.236,44.109 62.01,44.044 61.791,43.99 61.555,43.951 61.336,43.924 60.794,43.911 60.216,43.924 59.618,43.938 59.01,43.977 
		58.386,44.017 57.777,44.069 57.17,44.135 56.572,44.201 55.994,44.293 55.452,44.372 54.95,44.463 54.485,44.569 54.077,44.675 
		53.734,44.779 53.442,44.884 53.243,45.002 54.618,40.534 55.017,40.35 55.452,40.179 55.871,40.034 56.326,39.916 56.791,39.823 
		57.266,39.743 57.777,39.68 58.299,39.625 58.831,39.601 59.373,39.574 59.94,39.561 60.528,39.561 61.137,39.561 61.744,39.561 
		62.389,39.574 63.054,39.586 63.595,39.64 64.173,39.718 64.771,39.862 65.369,40.034 65.967,40.258 66.564,40.534 67.133,40.849 
		67.665,41.216 68.149,41.637 68.595,42.098 68.974,42.61 69.259,43.175 69.485,43.793 69.592,44.463 69.618,45.173 69.505,45.949 	
		"/>
	<g>
		<g>
			<polyline fill="none" stroke="#FFFFFF" stroke-width="0.215" points="67.521,55.821 66.754,60.014 61.943,60.014 61.943,60.014 
				62,59.619 62.057,59.225 62.113,58.871 62.169,58.542 62.21,58.267 62.256,58.03 62.313,57.873 62.369,57.779 62.369,57.779 
				62.113,58.069 61.791,58.357 61.422,58.634 61.014,58.897 60.568,59.146 60.094,59.383 59.599,59.594 59.077,59.791 
				58.519,59.961 57.967,60.106 57.399,60.211 56.848,60.29 56.279,60.329 55.737,60.343 55.207,60.303 54.685,60.225 
				54.685,60.225 54.011,60.067 53.412,59.856 52.854,59.606 52.38,59.331 51.961,59.028 51.592,58.686 51.27,58.331 51.004,57.937 
				50.784,57.542 50.596,57.136 50.452,56.714 50.329,56.281 50.253,55.86 50.196,55.427 50.177,55.006 50.15,54.599 50.15,54.599 
				50.206,53.862 50.329,53.166 50.509,52.495 50.765,51.864 51.061,51.273 51.402,50.72 51.828,50.208 52.256,49.722 
				52.758,49.289 53.279,48.907 53.831,48.552 54.419,48.249 55.027,47.986 55.662,47.776 56.306,47.618 56.943,47.5 56.943,47.5 
				56.98,47.5 57.066,47.487 57.227,47.474 57.426,47.448 57.645,47.421 57.911,47.395 58.213,47.355 58.519,47.33 58.841,47.303 
				59.163,47.264 59.495,47.237 59.817,47.211 60.104,47.185 60.396,47.172 60.635,47.158 60.861,47.158 60.861,47.158 
				61.08,47.158 61.316,47.158 61.535,47.158 61.781,47.172 62,47.172 62.21,47.185 62.436,47.185 62.646,47.185 62.834,47.197 
				62.997,47.197 63.14,47.211 63.289,47.211 63.386,47.224 63.462,47.224 63.519,47.224 63.528,47.224 63.528,47.224 
				63.575,47.093 63.661,46.776 63.728,46.409 63.728,46.081 63.728,46.081 63.708,45.845 63.661,45.621 63.595,45.409 
				63.508,45.212 63.396,45.03 63.263,44.858 63.13,44.7 62.978,44.542 62.798,44.411 62.635,44.306 62.436,44.201 62.236,44.109 
				62.01,44.044 61.791,43.99 61.555,43.951 61.336,43.924 61.336,43.924 60.794,43.911 60.216,43.924 59.618,43.938 59.01,43.977 
				58.386,44.017 57.777,44.069 57.17,44.135 56.572,44.201 55.994,44.293 55.452,44.372 54.95,44.463 54.485,44.569 54.077,44.675 
				53.734,44.779 53.442,44.884 53.243,45.002 54.618,40.534 54.618,40.534 55.017,40.35 55.452,40.179 55.871,40.034 
				56.326,39.916 56.791,39.823 57.266,39.743 57.777,39.68 58.299,39.625 58.831,39.601 59.373,39.574 59.94,39.561 60.528,39.561 
				61.137,39.561 61.744,39.561 62.389,39.574 63.054,39.586 63.054,39.586 63.595,39.64 64.173,39.718 64.771,39.862 
				65.369,40.034 65.967,40.258 66.564,40.534 67.133,40.849 67.665,41.216 68.149,41.637 68.595,42.098 68.974,42.61 
				69.259,43.175 69.485,43.793 69.592,44.463 69.618,45.173 69.505,45.949 67.521,55.821 			"/>
		</g>
	</g>
	<polygon fill="#0084C5" points="62.92,50.877 62.91,50.773 62.834,50.694 62.701,50.628 62.522,50.589 62.303,50.563 62.057,50.55 
		61.781,50.55 61.479,50.55 61.183,50.577 60.861,50.616 60.549,50.655 60.236,50.708 59.95,50.759 59.675,50.813 59.429,50.877 
		59.22,50.944 59.097,50.971 58.944,51.023 58.744,51.089 58.519,51.18 58.299,51.273 58.044,51.392 57.788,51.536 57.531,51.68 
		57.293,51.864 57.047,52.062 56.812,52.271 56.611,52.508 56.438,52.759 56.306,53.035 56.193,53.336 56.127,53.653 56.106,54.296 
		56.193,54.796 56.346,55.19 56.592,55.479 56.894,55.676 57.189,55.808 57.521,55.873 57.844,55.887 58.432,55.873 58.954,55.821 
		59.438,55.729 59.884,55.611 60.283,55.479 60.635,55.321 60.957,55.138 61.249,54.939 61.488,54.743 61.715,54.52 61.903,54.309 
		62.057,54.086 62.189,53.862 62.303,53.653 62.379,53.442 62.445,53.244 62.512,52.956 62.578,52.653 62.646,52.338 62.711,52.008 
		62.768,51.693 62.808,51.405 62.864,51.128 	"/>
	<polygon fill="#FFFFFF" points="27.31,60.014 22.101,60.014 26.477,35.263 35.546,35.263 36.43,49.998 42.605,35.263 
		52.017,35.263 47.615,60.014 42.406,60.014 45.698,41.48 45.499,41.48 37.738,60.014 31.895,60.014 31.854,59.24 31.731,57.175 
		31.553,54.257 31.354,50.904 31.153,47.527 30.991,44.542 30.868,42.387 30.812,41.48 30.802,41.48 30.745,41.48 30.688,41.48 
		30.622,41.48 30.565,41.48 30.546,41.48 30.546,41.48 30.603,41.48 	"/>
	<g>
		<g>
			<polyline fill="none" stroke="#FFFFFF" stroke-width="0.215" points="27.31,60.014 22.101,60.014 26.477,35.263 35.546,35.263 
				36.43,49.998 42.605,35.263 52.017,35.263 47.615,60.014 42.406,60.014 45.698,41.48 45.499,41.48 37.738,60.014 31.895,60.014 
				31.895,60.014 31.854,59.24 31.731,57.175 31.553,54.257 31.354,50.904 31.153,47.527 30.991,44.542 30.868,42.387 30.812,41.48 
				30.812,41.48 30.802,41.48 30.745,41.48 30.688,41.48 30.622,41.48 30.565,41.48 30.546,41.48 30.546,41.48 30.603,41.48 
				27.31,60.014 			"/>
		</g>
	</g>
	<polygon fill="#FFFFFF" points="114.348,60.014 119.782,60.014 119.782,60.014 121.633,49.327 121.698,48.907 121.797,48.5 
		121.909,48.091 122.042,47.71 122.185,47.33 122.361,46.976 122.594,46.632 122.85,46.303 123.147,46.015 123.504,45.751 
		123.912,45.515 124.383,45.305 124.915,45.134 125.497,45.002 126.161,44.924 126.919,44.872 126.969,44.872 127.062,44.884 
		127.175,44.896 127.288,44.896 127.357,44.911 127.45,44.924 127.491,44.936 127.544,44.936 127.554,44.858 127.593,44.635 
		127.677,44.293 127.756,43.859 127.889,43.372 128.064,42.847 128.228,42.32 128.411,41.822 128.553,41.453 128.749,41.098 
		128.912,40.743 129.118,40.416 129.271,40.14 129.403,39.916 129.474,39.771 129.527,39.718 129.474,39.718 129.424,39.692 
		129.321,39.68 129.188,39.652 129.055,39.625 128.902,39.613 128.76,39.586 128.627,39.586 128.022,39.625 127.491,39.692 
		127.021,39.797 126.55,39.916 126.132,40.073 125.743,40.244 125.364,40.455 125.048,40.677 124.699,40.928 124.404,41.204 
		124.127,41.492 123.841,41.808 123.535,42.137 123.271,42.492 122.992,42.859 122.717,43.241 123.351,39.862 117.921,39.797 
		114.348,60.014 	"/>
	<g>
		<g>
			<polyline fill="none" stroke="#FFFFFF" stroke-width="0.215" points="114.348,60.014 119.782,60.014 119.782,60.014 
				121.633,49.327 121.633,49.327 121.698,48.907 121.797,48.5 121.909,48.091 122.042,47.71 122.185,47.33 122.361,46.976 
				122.594,46.632 122.85,46.303 123.147,46.015 123.504,45.751 123.912,45.515 124.383,45.305 124.915,45.134 125.497,45.002 
				126.161,44.924 126.919,44.872 126.919,44.872 126.969,44.872 127.062,44.884 127.175,44.896 127.288,44.896 127.357,44.911 
				127.45,44.924 127.491,44.936 127.544,44.936 127.544,44.936 127.554,44.858 127.593,44.635 127.677,44.293 127.756,43.859 
				127.889,43.372 128.064,42.847 128.228,42.32 128.411,41.822 128.411,41.822 128.553,41.453 128.749,41.098 128.912,40.743 
				129.118,40.416 129.271,40.14 129.403,39.916 129.474,39.771 129.527,39.718 129.527,39.718 129.474,39.718 129.424,39.692 
				129.321,39.68 129.188,39.652 129.055,39.625 128.902,39.613 128.76,39.586 128.627,39.586 128.627,39.586 128.022,39.625 
				127.491,39.692 127.021,39.797 126.55,39.916 126.132,40.073 125.743,40.244 125.364,40.455 125.048,40.677 124.699,40.928 
				124.404,41.204 124.127,41.492 123.841,41.808 123.535,42.137 123.271,42.492 122.992,42.859 122.717,43.241 123.351,39.862 
				117.921,39.797 114.348,60.014 114.348,60.014 			"/>
		</g>
	</g>
	<polygon fill="#FFFFFF" points="137.828,39.586 138.409,39.601 139.016,39.64 139.576,39.692 140.128,39.771 140.659,39.876 
		141.181,40.007 141.684,40.152 142.185,40.323 142.633,40.52 143.096,40.731 143.523,40.953 143.921,41.204 144.32,41.48 
		144.699,41.769 145.024,42.071 145.373,42.399 145.679,42.742 145.998,43.11 146.264,43.478 146.52,43.872 146.732,44.281 
		146.948,44.714 147.131,45.147 147.316,45.608 147.459,46.067 147.583,46.554 147.662,47.054 147.755,47.566 147.796,48.079 
		147.849,48.618 147.858,49.17 147.849,49.722 147.785,50.392 147.726,51.037 147.622,51.653 147.499,52.258 147.367,52.837 
		147.204,53.389 146.998,53.928 146.815,54.441 146.569,54.927 146.323,55.4 146.048,55.848 145.773,56.267 145.477,56.675 
		145.128,57.057 144.769,57.412 144.434,57.752 144.055,58.069 143.666,58.371 143.256,58.646 142.849,58.897 142.388,59.134 
		141.948,59.343 141.51,59.541 141.019,59.712 140.525,59.87 140.015,60.001 139.536,60.106 139.025,60.198 138.493,60.265 
		137.962,60.316 137.388,60.343 136.846,60.356 136.305,60.343 135.763,60.316 135.241,60.265 134.72,60.186 134.207,60.093 
		133.695,59.989 133.237,59.856 132.756,59.698 132.307,59.528 131.846,59.331 131.428,59.12 131.019,58.883 130.619,58.634 
		130.241,58.357 129.862,58.069 129.537,57.752 129.197,57.424 128.892,57.069 128.617,56.702 128.341,56.307 128.095,55.9 
		127.849,55.466 127.666,55.018 127.459,54.56 127.308,54.072 127.165,53.56 127.042,53.035 126.939,52.495 126.889,51.929 
		126.826,51.352 126.816,50.747 126.826,50.129 126.889,49.498 126.939,48.894 127.042,48.302 127.165,47.737 127.299,47.185 
		127.45,46.646 127.613,46.133 127.829,45.633 128.022,45.147 128.268,44.688 128.533,44.253 128.809,43.82 129.129,43.426 
		129.433,43.031 129.782,42.677 130.107,42.32 130.486,41.993 130.876,41.69 131.274,41.401 131.683,41.138 132.11,40.901 
		132.583,40.665 133.031,40.467 133.513,40.283 134.015,40.125 134.526,39.982 135.015,39.862 135.58,39.758 136.122,39.692 
		136.673,39.625 137.234,39.601 	"/>
	<g>
		<g>
			<polyline fill="none" stroke="#FFFFFF" stroke-width="0.215" points="137.828,39.586 137.828,39.586 138.409,39.601 
				139.016,39.64 139.576,39.692 140.128,39.771 140.659,39.876 141.181,40.007 141.684,40.152 142.185,40.323 142.633,40.52 
				143.096,40.731 143.523,40.953 143.921,41.204 144.32,41.48 144.699,41.769 145.024,42.071 145.373,42.399 145.679,42.742 
				145.998,43.11 146.264,43.478 146.52,43.872 146.732,44.281 146.948,44.714 147.131,45.147 147.316,45.608 147.459,46.067 
				147.583,46.554 147.662,47.054 147.755,47.566 147.796,48.079 147.849,48.618 147.858,49.17 147.849,49.722 147.849,49.722 
				147.785,50.392 147.726,51.037 147.622,51.653 147.499,52.258 147.367,52.837 147.204,53.389 146.998,53.928 146.815,54.441 
				146.569,54.927 146.323,55.4 146.048,55.848 145.773,56.267 145.477,56.675 145.128,57.057 144.769,57.412 144.434,57.752 
				144.055,58.069 143.666,58.371 143.256,58.646 142.849,58.897 142.388,59.134 141.948,59.343 141.51,59.541 141.019,59.712 
				140.525,59.87 140.015,60.001 139.536,60.106 139.025,60.198 138.493,60.265 137.962,60.316 137.388,60.343 136.846,60.356 
				136.846,60.356 136.305,60.343 135.763,60.316 135.241,60.265 134.72,60.186 134.207,60.093 133.695,59.989 133.237,59.856 
				132.756,59.698 132.307,59.528 131.846,59.331 131.428,59.12 131.019,58.883 130.619,58.634 130.241,58.357 129.862,58.069 
				129.537,57.752 129.197,57.424 128.892,57.069 128.617,56.702 128.341,56.307 128.095,55.9 127.849,55.466 127.666,55.018 
				127.459,54.56 127.308,54.072 127.165,53.56 127.042,53.035 126.939,52.495 126.889,51.929 126.826,51.352 126.816,50.747 
				126.826,50.129 126.826,50.129 126.889,49.498 126.939,48.894 127.042,48.302 127.165,47.737 127.299,47.185 127.45,46.646 
				127.613,46.133 127.829,45.633 128.022,45.147 128.268,44.688 128.533,44.253 128.809,43.82 129.129,43.426 129.433,43.031 
				129.782,42.677 130.107,42.32 130.486,41.993 130.876,41.69 131.274,41.401 131.683,41.138 132.11,40.901 132.583,40.665 
				133.031,40.467 133.513,40.283 134.015,40.125 134.526,39.982 135.015,39.862 135.58,39.758 136.122,39.692 136.673,39.625 
				137.234,39.601 137.828,39.586 			"/>
		</g>
	</g>
	<polygon fill="#FFFFFF" points="145.782,59.001 147.357,59.001 147.357,59.198 146.732,59.198 146.732,60.486 146.406,60.486 
		146.406,59.198 145.782,59.198 	"/>
	<g>
		<g>
			<polyline fill="none" stroke="#FFFFFF" stroke-width="0.215" points="145.782,59.001 147.357,59.001 147.357,59.198 
				146.732,59.198 146.732,60.486 146.406,60.486 146.406,59.198 145.782,59.198 145.782,59.001 			"/>
		</g>
	</g>
	<polygon fill="#FFFFFF" points="147.573,59.001 148.031,59.001 148.582,60.146 148.582,60.146 149.157,59.001 149.616,59.001 
		149.616,60.486 149.29,60.486 149.29,59.343 149.29,59.343 148.716,60.486 148.44,60.486 147.898,59.343 147.898,59.343 
		147.898,60.486 147.573,60.486 	"/>
	<g>
		<g>
			<polyline fill="none" stroke="#FFFFFF" stroke-width="0.215" points="147.573,59.001 148.031,59.001 148.582,60.146 
				148.582,60.146 149.157,59.001 149.616,59.001 149.616,60.486 149.29,60.486 149.29,59.343 149.29,59.343 148.716,60.486 
				148.44,60.486 147.898,59.343 147.898,59.343 147.898,60.486 147.573,60.486 147.573,59.001 			"/>
		</g>
	</g>
	<polygon fill="#ED1B2E" points="133.553,49.249 133.493,49.985 133.431,50.668 133.431,51.286 133.493,51.864 133.553,52.39 
		133.676,52.85 133.819,53.271 134.025,53.653 134.261,53.981 134.484,54.257 134.792,54.493 135.088,54.678 135.404,54.821 
		135.782,54.927 136.171,54.979 136.579,55.006 137.052,54.993 137.48,54.939 137.89,54.849 138.287,54.703 138.666,54.52 
		139.035,54.284 139.351,54.007 139.689,53.678 139.965,53.311 140.23,52.89 140.486,52.417 140.679,51.904 140.896,51.338 
		141.059,50.72 141.19,50.05 141.313,49.327 141.396,48.761 141.426,48.224 141.426,47.697 141.396,47.197 141.313,46.737 
		141.2,46.291 141.059,45.883 140.896,45.502 140.669,45.16 140.457,44.872 140.147,44.608 139.852,44.398 139.494,44.227 
		139.147,44.123 138.748,44.056 138.287,44.056 137.746,44.096 137.234,44.187 136.786,44.345 136.324,44.542 135.926,44.805 
		135.58,45.094 135.231,45.424 134.945,45.791 134.669,46.186 134.423,46.606 134.197,47.027 134.035,47.474 133.882,47.921 
		133.749,48.368 133.646,48.815 	"/>
</g>
</svg>
