<?xml version="1.0" encoding="utf-8"?>
<!-- Generator: Adobe Illustrator 15.1.0, SVG Export Plug-In . SVG Version: 6.00 Build 0)  -->
<!DOCTYPE svg PUBLIC "-//W3C//DTD SVG 1.1//EN" "http://www.w3.org/Graphics/SVG/1.1/DTD/svg11.dtd">
<svg version="1.1" id="Layer_1" xmlns="http://www.w3.org/2000/svg" xmlns:xlink="http://www.w3.org/1999/xlink" x="0px" y="0px"
	 width="170px" height="95px" viewBox="0 0 170 95" enable-background="new 0 0 170 95" xml:space="preserve">
<g id="KBC_Logo">
	<path id="path3" fill="#2BACE2" d="M85.605,42.916c10.012,0,18.128-7.928,18.128-17.708S95.617,7.5,85.605,7.5
		c-10.012,0-18.129,7.929-18.129,17.708S75.593,42.916,85.605,42.916L85.605,42.916z"/>
	<path id="path5" fill="#2BACE2" d="M98.977,39.535c-3.454,3.657-9.545,7.315-17.36,7.315c-6.063,0-11.284-2.302-14.605-4.86
		C47.22,44.019,32.5,46.894,32.5,46.894v7.829l105-0.011V38.57C137.5,38.57,119.51,38.462,98.977,39.535L98.977,39.535z"/>
	<path id="path7" fill="#1C3665" d="M44.973,77.613v9.538H32.5V61.775h12.473v11.419h0.073l7.341-11.419h14.956L56.391,74.889
		l10.333,12.263H52.452l-7.393-9.538H44.973z"/>
	<path id="path9" fill="#1C3665" d="M137.5,86.104c-2.944,0.878-6.812,1.396-10.273,1.396c-12.342,0-21.4-3.426-21.4-13.391
		c0-9.006,8.781-12.918,20.785-12.918c3.336,0,7.574,0.359,10.889,1.394l-0.004,8.722c-2.457-1.453-4.914-2.359-8.432-2.359
		c-4.578,0-9.154,2.203-9.154,5.4c0,3.205,4.556,5.399,9.154,5.399c3.463,0,5.975-0.937,8.432-2.323L137.5,86.104z"/>
	<path id="path11" fill="#1C3665" d="M69.385,61.775h25.214c6.55,0,8.696,2.488,8.696,6.361c0,4.336-3.967,6.22-8.041,6.433v0.071
		c4.184,0.32,8.259,0.781,8.259,5.899c0,3.341-2.146,6.611-9.35,6.611H69.385V61.775L69.385,61.775z M81.858,81.992h6.503
		c2.438,0,3.268-0.985,3.268-2.441c0-1.458-0.839-2.504-3.24-2.504h-6.531L81.858,81.992z M81.858,72.529h6.212
		c2.401,0,3.341-0.949,3.341-2.407c0-1.67-0.947-2.503-3.168-2.503h-6.386L81.858,72.529z"/>
</g>
</svg>
