<?xml version="1.0" encoding="utf-8"?>
<!-- Generator: Adobe Illustrator 15.1.0, SVG Export Plug-In . SVG Version: 6.00 Build 0)  -->
<!DOCTYPE svg PUBLIC "-//W3C//DTD SVG 1.1//EN" "http://www.w3.org/Graphics/SVG/1.1/DTD/svg11.dtd">
<svg version="1.1" id="Layer_1" xmlns="http://www.w3.org/2000/svg" xmlns:xlink="http://www.w3.org/1999/xlink" x="0px" y="0px"
	 width="170px" height="95px" viewBox="0 0 170 95" enable-background="new 0 0 170 95" xml:space="preserve">
<g id="Paypal_logo">
	<path fill="#1D3764" d="M80.442,78.238c0,0.68-0.553,1.23-1.234,1.23H10V54.862h69.156c0.733,0,1.286,0.55,1.286,1.229V78.238z"/>
	<g id="layer1" transform="translate(-428.71429,-460.51587)">
		<g id="g2993" transform="matrix(1.3703704,0,0,-1.3703704,430.71429,538.48235)">
			<g id="g2995" transform="translate(165.274,21.91)">
				<path id="path2997" fill="#34679A" d="M-81.397,9.39c-0.304-0.191-0.625-0.353-0.961-0.493
					c-0.452-0.182-0.879-0.276-1.276-0.276c-0.607,0-1.075,0.086-1.391,0.269c-0.316,0.174-0.483,0.476-0.477,0.909
					c0,0.5,0.116,0.888,0.356,1.192c0.24,0.291,0.598,0.527,1.043,0.703c0.442,0.149,0.984,0.272,1.612,0.36
					c0.557,0.071,1.661,0.197,1.802,0.198c0.14,0.001,0.234,0.079,0.171-0.296c-0.028-0.163-0.346-1.466-0.492-2.059
					C-81.051,9.718-81.289,9.459-81.397,9.39z M-77.07,18.551c-0.928,0.517-2.381,0.778-4.37,0.778c-0.983,0-1.97-0.079-2.962-0.232
					c-0.727-0.111-0.802-0.13-1.254-0.228c-0.93-0.203-1.074-1.131-1.074-1.131l-0.298-1.224c-0.17-0.783,0.277-0.751,0.477-0.69
					c0.407,0.122,0.627,0.243,1.454,0.43c0.792,0.18,1.629,0.313,2.296,0.308c0.98,0,1.723-0.107,2.218-0.313
					c0.495-0.216,0.74-0.582,0.74-1.106c0.003-0.126,0.006-0.242-0.039-0.346c-0.041-0.096-0.119-0.189-0.353-0.221
					c-1.398-0.083-2.401-0.21-3.608-0.385c-1.192-0.167-2.235-0.454-3.106-0.851c-0.929-0.412-1.624-0.961-2.103-1.658
					c-0.467-0.699-0.702-1.548-0.703-2.547c0-0.944,0.341-1.713,0.999-2.311c0.666-0.59,1.532-0.882,2.58-0.882
					c0.654,0.005,1.167,0.052,1.534,0.143c0.364,0.091,0.761,0.221,1.18,0.402c0.313,0.131,0.651,0.319,1.007,0.555
					c0.358,0.238,0.604,0.407,0.921,0.614l0.011-0.02l-0.089-0.392c-0.001-0.004-0.006-0.006-0.006-0.009l0.002-0.007
					c-0.102-0.473,0.183-0.866,0.653-0.913l0.006-0.009h0.041l0.001-0.001c0.312,0,1.382,0,1.882,0.001h0.351
					c0.022,0,0.024,0.007,0.033,0.013c0.48,0.058,0.939,0.448,1.048,0.915l1.787,7.687c0.041,0.181,0.073,0.39,0.093,0.63
					c0.021,0.242,0.048,0.442,0.04,0.587C-75.675,17.229-76.143,18.033-77.07,18.551"/>
			</g>
			<g id="g2999">
				<g>
					<defs>
						<rect id="SVGID_1_" x="-0.559" y="18.134" width="121.754" height="31.121"/>
					</defs>
					<clipPath id="SVGID_2_">
						<use xlink:href="#SVGID_1_"  overflow="visible"/>
					</clipPath>
					<g id="g3001" clip-path="url(#SVGID_2_)">
						<g id="g3007" transform="translate(101.082,45.728)">
							<path id="path3009" fill="#1D3764" d="M-43.61-4.66c-0.524,0-1.211-0.423-1.537-0.934c0,0-3.505-5.992-3.849-6.59
								c-0.188-0.322-0.377-0.118-0.408,0.002c-0.026,0.146-1.087,6.549-1.087,6.549c-0.119,0.516-0.66,0.958-1.335,0.956
								l-2.187-0.004c-0.527,0-0.855-0.421-0.738-0.929c0,0,1.671-9.443,1.997-11.663c0.162-1.229-0.017-1.446-0.017-1.446
								l-2.166-3.766c-0.317-0.51-0.144-0.928,0.381-0.928l2.533,0.001c0.524,0,1.219,0.417,1.531,0.927l9.744,16.433
								c0,0,0.932,1.403,0.073,1.391C-41.26-4.668-43.61-4.66-43.61-4.66"/>
						</g>
						<g id="g3011" transform="translate(39.137,49.474)">
							<path id="path3013" fill="#1D3764" d="M-7.145-6.869c-0.304,0.591-0.759,1.072-1.341,1.434
								c-0.604,0.371-1.306,0.627-2.124,0.781c-0.823,0.147-1.784,0.219-2.887,0.229l-5.107-0.004
								c-0.53-0.006-1.051-0.421-1.173-0.93l-3.443-14.925c-0.119-0.51,0.213-0.932,0.742-0.932h2.446
								c0.529,0,1.054,0.411,1.172,0.932l0.843,3.622c0.112,0.506,0.635,0.925,1.166,0.925h0.7c2.991,0.003,5.312,0.613,6.979,1.834
								c1.665,1.219,2.498,2.834,2.493,4.833C-6.674-8.191-6.826-7.456-7.145-6.869 M-12.426-11.746
								c-0.738-0.537-1.76-0.807-3.087-0.807h-0.6c-0.528,0-0.862,0.418-0.746,0.931l0.736,3.163c0.113,0.51,0.64,0.933,1.168,0.928
								l0.8,0.005c0.936,0,1.646-0.16,2.126-0.477c0.472-0.308,0.712-0.796,0.704-1.452C-11.31-10.442-11.685-11.207-12.426-11.746"
								/>
						</g>
					</g>
				</g>
			</g>
			<g id="g3015" transform="translate(147.108,49.341)">
				<path id="path3017" fill="#34679A" d="M-70.703-6.791c-0.305,0.591-0.766,1.067-1.348,1.438
					c-0.597,0.369-1.306,0.628-2.127,0.778c-0.812,0.141-1.777,0.223-2.878,0.226l-5.117-0.002c-0.528-0.009-1.044-0.422-1.166-0.93
					l-3.441-14.93c-0.125-0.507,0.217-0.93,0.735-0.927l2.455,0.005c0.52-0.005,1.051,0.415,1.174,0.922l0.831,3.623
					c0.116,0.508,0.645,0.934,1.175,0.926h0.698c2.995,0,5.318,0.614,6.981,1.835c1.659,1.227,2.493,2.837,2.493,4.84
					C-70.243-8.113-70.392-7.375-70.703-6.791 M-75.983-11.674c-0.733-0.532-1.762-0.798-3.086-0.798h-0.609
					c-0.526-0.006-0.867,0.418-0.741,0.927l0.734,3.169c0.109,0.501,0.644,0.928,1.163,0.924l0.805,0.004
					c0.939-0.004,1.641-0.161,2.126-0.471c0.476-0.316,0.708-0.804,0.711-1.455C-74.878-10.367-75.247-11.13-75.983-11.674"/>
			</g>
			<g id="g3019" transform="translate(57.28,21.938)">
				<path id="path3021" fill="#1D3764" d="M-17.825,9.374c-0.303-0.191-0.624-0.353-0.96-0.493c-0.452-0.18-0.882-0.277-1.276-0.277
					c-0.606,0-1.074,0.086-1.392,0.269c-0.316,0.175-0.482,0.476-0.478,0.91c0,0.498,0.118,0.887,0.357,1.191
					c0.241,0.293,0.598,0.528,1.042,0.704c0.443,0.15,0.988,0.271,1.613,0.359c0.557,0.071,1.661,0.197,1.802,0.198
					c0.14,0.001,0.234,0.079,0.172-0.295c-0.029-0.163-0.347-1.467-0.492-2.06C-17.481,9.702-17.718,9.443-17.825,9.374z
					 M-13.497,18.534c-0.929,0.517-2.381,0.778-4.369,0.778c-0.984,0-1.972-0.078-2.963-0.232c-0.729-0.11-0.802-0.129-1.255-0.227
					c-0.93-0.202-1.074-1.13-1.074-1.13l-0.298-1.226c-0.169-0.782,0.279-0.75,0.477-0.69c0.405,0.122,0.626,0.244,1.455,0.432
					c0.791,0.177,1.628,0.312,2.295,0.307c0.98,0,1.723-0.106,2.217-0.312c0.497-0.216,0.74-0.583,0.74-1.107
					c0.004-0.125,0.006-0.243-0.038-0.345c-0.042-0.097-0.121-0.189-0.355-0.22c-1.396-0.084-2.398-0.211-3.607-0.386
					c-1.192-0.167-2.235-0.454-3.106-0.851c-0.93-0.411-1.624-0.962-2.102-1.658c-0.469-0.7-0.702-1.547-0.703-2.546
					c0-0.944,0.341-1.714,0.998-2.311c0.666-0.59,1.532-0.882,2.579-0.882c0.656,0.005,1.168,0.052,1.537,0.143
					c0.363,0.093,0.76,0.221,1.177,0.402c0.314,0.131,0.651,0.32,1.008,0.556c0.357,0.236,0.605,0.406,0.924,0.613l0.009-0.019
					l-0.088-0.392c-0.001-0.004-0.007-0.006-0.007-0.01l0.005-0.006c-0.103-0.474,0.181-0.867,0.652-0.913l0.006-0.009h0.041
					l0.001-0.003c0.313,0,1.383,0.001,1.882,0.003h0.35c0.024,0,0.027,0.008,0.034,0.013c0.481,0.06,0.939,0.449,1.049,0.915
					l1.786,7.688c0.041,0.181,0.074,0.389,0.092,0.629c0.024,0.244,0.05,0.443,0.043,0.587
					C-12.101,17.212-12.571,18.017-13.497,18.534"/>
			</g>
			<g id="g3023" transform="translate(196.3,54.997)">
				<path id="path3025" fill="#34679A" d="M-99.661-10.128h-2.188c-0.001,0-0.003,0-0.004,0h-0.001
					c-0.501,0-1.009-0.382-1.151-0.869c-0.006-0.02-0.016-0.039-0.021-0.059c0,0-0.051-0.237-0.142-0.648l-3.007-13.587
					c-0.07-0.307-0.117-0.508-0.131-0.56l0.006-0.007c-0.104-0.475,0.182-0.868,0.653-0.912l0.005-0.009h2.273
					c0.497,0,1.003,0.379,1.149,0.86c0.007,0.023,0.018,0.045,0.024,0.068l3.28,14.795l-0.005,0.002
					C-98.811-10.547-99.138-10.128-99.661-10.128"/>
			</g>
			<g id="g3027" transform="translate(206.375,47.652)">
				<path id="path3029" fill="#34679A" d="M-105.592-5.795c-0.075-0.02-0.155-0.036-0.245-0.049c-0.089-0.012-0.169-0.02-0.238-0.02
					c-0.244,0-0.428,0.066-0.554,0.196c-0.128,0.13-0.19,0.34-0.19,0.626v1.262h-0.272v0.336h0.272v0.683h0.4v-0.683h0.827v-0.336
					h-0.827V-4.86c0-0.124,0.004-0.222,0.009-0.291c0.006-0.071,0.026-0.136,0.06-0.196c0.031-0.057,0.073-0.098,0.129-0.124
					c0.056-0.027,0.139-0.04,0.251-0.04c0.065,0,0.134,0.01,0.206,0.03c0.07,0.019,0.121,0.035,0.152,0.047h0.021V-5.795"/>
			</g>
			<g id="g3031" transform="translate(216,47.601)">
				<path id="path3033" fill="#34679A" d="M-111.258-5.765h-0.4v1.351c0,0.102-0.006,0.201-0.015,0.295
					c-0.01,0.095-0.029,0.17-0.058,0.228c-0.033,0.061-0.08,0.107-0.142,0.138c-0.061,0.031-0.148,0.047-0.264,0.047
					c-0.113,0-0.225-0.028-0.337-0.084c-0.113-0.056-0.224-0.127-0.337-0.214c0.004-0.032,0.006-0.07,0.01-0.113
					c0.004-0.044,0.004-0.086,0.004-0.129v-1.519h-0.398v1.351c0,0.105-0.006,0.204-0.014,0.298c-0.009,0.095-0.03,0.17-0.06,0.227
					c-0.033,0.062-0.081,0.107-0.141,0.138c-0.061,0.03-0.149,0.045-0.264,0.045c-0.11,0-0.218-0.027-0.329-0.081
					c-0.11-0.054-0.22-0.122-0.33-0.206v-1.773h-0.4v2.373h0.4v-0.263c0.126,0.103,0.25,0.184,0.375,0.242
					c0.125,0.058,0.257,0.087,0.398,0.087c0.162,0,0.299-0.033,0.412-0.101c0.113-0.069,0.197-0.162,0.254-0.283
					c0.16,0.136,0.309,0.234,0.442,0.294c0.133,0.06,0.277,0.09,0.428,0.09c0.262,0,0.455-0.079,0.579-0.236
					c0.125-0.158,0.187-0.379,0.187-0.662V-5.765"/>
			</g>
		</g>
	</g>
	<path fill="#34679A" d="M135.251,78.409c0,0.681-0.555,1.231-1.239,1.231H86.875c-0.686,0-1.24-0.55-1.24-1.231V56.263
		c0-0.679,0.555-1.23,1.24-1.23h47.136c0.685,0,1.239,0.551,1.239,1.23V78.409z"/>
	<rect x="10.275" y="7.5" fill="none" stroke="#727074" stroke-width="2" stroke-miterlimit="10" width="149.725" height="80"/>
</g>
</svg>
