<?xml version="1.0" encoding="utf-8"?>
<!-- Generator: Adobe Illustrator 15.1.0, SVG Export Plug-In . SVG Version: 6.00 Build 0)  -->
<!DOCTYPE svg PUBLIC "-//W3C//DTD SVG 1.1//EN" "http://www.w3.org/Graphics/SVG/1.1/DTD/svg11.dtd">
<svg version="1.1" id="Layer_1" xmlns="http://www.w3.org/2000/svg" xmlns:xlink="http://www.w3.org/1999/xlink" x="0px" y="0px"
	 width="527px" height="65px" viewBox="0 0 527 65" enable-background="new 0 0 527 65" xml:space="preserve">
<g>
	<g id="Ideal_logo">
		<rect x="25.76" y="36.607" fill="#010101" width="12.179" height="19.531"/>
		<ellipse fill="#010101" cx="31.965" cy="26.843" rx="6.893" ry="6.659"/>
		<g>
			<g>
				<path fill="#010101" d="M61.007,0.583H17.313v64h43.694V64.57c9.545-0.125,17.105-2.415,22.47-6.824
					c6.527-5.362,9.835-13.828,9.835-25.163c0-5.417-0.871-10.278-2.586-14.444c-1.643-3.987-4.068-7.375-7.213-10.074
					c-5.534-4.751-13.307-7.321-22.506-7.467V0.583z M60.181,4.834c8.468,0,15.527,2.216,20.411,6.408
					c5.52,4.739,8.32,11.918,8.32,21.341c0,18.674-9.398,27.749-28.731,27.749c-1.503,0-34.604,0-38.467,0c0-3.808,0-51.69,0-55.498
					C25.576,4.834,58.678,4.834,60.181,4.834z"/>
			</g>
		</g>
		<g>
			<g>
				<path fill="#CC1B69" d="M58.978,56.159H43.532V10.01h15.446h-0.623c12.882,0,26.594,4.911,26.594,23.134
					c0,19.271-13.712,23.015-26.594,23.015H58.978z"/>
			</g>
		</g>
		<g>
			<g>
				<path fill="#FFFFFF" d="M40.868,21.922h4.241c0.957,0,1.687,0.07,2.188,0.212c0.674,0.192,1.252,0.533,1.733,1.022
					c0.48,0.491,0.846,1.09,1.096,1.799c0.252,0.708,0.377,1.585,0.377,2.625c0,0.913-0.118,1.701-0.353,2.364
					c-0.288,0.808-0.699,1.461-1.229,1.961c-0.403,0.379-0.947,0.675-1.632,0.887c-0.513,0.156-1.196,0.234-2.055,0.234h-4.366
					V21.922z M43.187,23.805v7.34h1.737c0.648,0,1.118-0.034,1.406-0.105c0.378-0.091,0.692-0.245,0.94-0.462
					c0.247-0.216,0.45-0.575,0.608-1.07c0.158-0.496,0.237-1.173,0.237-2.03s-0.08-1.515-0.237-1.973
					c-0.158-0.459-0.377-0.817-0.659-1.073c-0.283-0.257-0.643-0.432-1.078-0.523c-0.326-0.069-0.96-0.105-1.91-0.105H43.187z"/>
				<path fill="#FFFFFF" d="M40.553,21.619v11.712h4.681c0.885,0,1.608-0.084,2.15-0.249c0.729-0.226,1.32-0.549,1.755-0.959
					c0.566-0.53,1.006-1.229,1.309-2.079c0.246-0.691,0.371-1.52,0.371-2.463c0-1.068-0.134-1.985-0.394-2.723
					c-0.266-0.748-0.658-1.39-1.168-1.909c-0.517-0.527-1.146-0.899-1.872-1.105c-0.536-0.15-1.28-0.224-2.276-0.224H40.553z
					 M45.109,22.226c0.924,0,1.628,0.067,2.1,0.2c0.617,0.175,1.153,0.491,1.593,0.94c0.447,0.456,0.793,1.022,1.028,1.687
					c0.239,0.677,0.36,1.524,0.36,2.527c0,0.876-0.113,1.637-0.335,2.265c-0.27,0.759-0.66,1.378-1.154,1.841
					c-0.365,0.347-0.874,0.62-1.507,0.817c-0.479,0.145-1.137,0.219-1.959,0.219c0,0-3.51,0-4.052,0c0-0.556,0-9.939,0-10.497
					C41.722,22.226,45.109,22.226,45.109,22.226z"/>
				<path fill="#FFFFFF" d="M42.872,23.5v7.948h2.052c0.682,0,1.167-0.038,1.484-0.115c0.424-0.102,0.786-0.281,1.072-0.53
					c0.294-0.257,0.524-0.65,0.699-1.208c0.167-0.53,0.249-1.221,0.249-2.118c0-0.898-0.083-1.574-0.25-2.068
					c-0.174-0.506-0.425-0.908-0.744-1.199c-0.322-0.294-0.736-0.496-1.226-0.598c-0.349-0.075-0.995-0.113-1.977-0.113H42.872z
					 M44.231,24.109c1.147,0,1.634,0.052,1.841,0.098c0.379,0.078,0.69,0.228,0.931,0.446c0.243,0.221,0.436,0.54,0.577,0.948
					c0.146,0.426,0.22,1.058,0.22,1.877c0,0.823-0.076,1.476-0.224,1.942c-0.139,0.44-0.313,0.754-0.518,0.932
					c-0.209,0.181-0.479,0.314-0.805,0.393c-0.262,0.063-0.71,0.096-1.33,0.096c0,0-1.002,0-1.422,0c0-0.534,0-6.198,0-6.731
					C43.809,24.109,44.231,24.109,44.231,24.109z"/>
			</g>
			<g>
				<path fill="#FFFFFF" d="M53.126,33.026V21.922h8.512v1.882h-6.193v2.459h5.762v1.882h-5.762v2.999h6.414v1.882H53.126z"/>
				<path fill="#FFFFFF" d="M52.813,21.619v11.712h9.359v-2.49c0,0-5.845,0-6.412,0c0-0.435,0-1.954,0-2.391c0.562,0,5.76,0,5.76,0
					v-2.489c0,0-5.199,0-5.76,0c0-0.402,0-1.451,0-1.852c0.565,0,6.191,0,6.191,0v-2.49H52.813z M61.323,22.226
					c0,0.345,0,0.93,0,1.275c-0.568,0-6.192,0-6.192,0v3.067c0,0,5.199,0,5.761,0c0,0.345,0,0.928,0,1.275c-0.563,0-5.761,0-5.761,0
					v3.605c0,0,5.843,0,6.413,0c0,0.345,0,0.93,0,1.274c-0.562,0-7.541,0-8.103,0c0-0.556,0-9.939,0-10.497
					C54.001,22.226,60.763,22.226,61.323,22.226z"/>
			</g>
			<g>
				<path fill="#FFFFFF" d="M74.841,33.026h-2.528l-1.001-2.52h-4.594l-0.951,2.52h-2.464l4.469-11.104h2.471L74.841,33.026z
					 M70.566,28.624l-1.585-4.113l-1.552,4.113H70.566z"/>
				<path fill="#FFFFFF" d="M67.557,21.619l-4.711,11.712h3.142c0,0,0.824-2.182,0.952-2.52c0.379,0,3.784,0,4.157,0
					c0.133,0.333,1.003,2.52,1.003,2.52h3.207l-4.851-11.712H67.557z M70.03,22.226c0.148,0.354,4.035,9.74,4.348,10.497
					c-0.556,0-1.561,0-1.846,0c-0.133-0.331-1.003-2.518-1.003-2.518h-5.03c0,0-0.824,2.18-0.953,2.518c-0.29,0-1.241,0-1.784,0
					c0.303-0.751,4.08-10.136,4.225-10.497C68.313,22.226,69.708,22.226,70.03,22.226z"/>
				<path fill="#FFFFFF" d="M66.98,28.928h4.038l-2.04-5.295L66.98,28.928z M68.984,25.389c0.346,0.895,0.928,2.406,1.13,2.934
					c-0.551,0-1.688,0-2.236,0C68.076,27.797,68.647,26.285,68.984,25.389z"/>
			</g>
			<g>
				<path fill="#FFFFFF" d="M76.78,33.026V22.014h2.319v9.131h5.778v1.882H76.78z"/>
				<path fill="#FFFFFF" d="M76.466,21.71v11.621h8.724v-2.49c0,0-5.216,0-5.776,0c0-0.567,0-9.13,0-9.13H76.466z M78.786,22.316
					c0,0.569,0,9.132,0,9.132s5.214,0,5.774,0c0,0.345,0,0.93,0,1.274c-0.556,0-6.907,0-7.466,0c0-0.556,0-9.848,0-10.406
					C77.491,22.316,78.389,22.316,78.786,22.316z"/>
			</g>
		</g>
	</g>
	<g id="Paypal_logo">
		<path fill="#1D3764" d="M448.032,56.404c0,0.53-0.43,0.958-0.961,0.958h-53.634V38.29h53.6c0.565,0,0.995,0.424,0.995,0.952
			V56.404z"/>
		<g id="layer1" transform="translate(-428.71429,-460.51587)">
			<g id="g2993" transform="matrix(1.3703704,0,0,-1.3703704,430.71429,538.48235)">
				<g id="g2995" transform="translate(165.274,21.91)">
					<path id="path2997" fill="#34679A" d="M180.848,18.236c-0.234-0.147-0.484-0.277-0.743-0.384
						c-0.349-0.138-0.681-0.212-0.988-0.212c-0.472,0-0.835,0.066-1.077,0.207c-0.245,0.133-0.376,0.371-0.373,0.707
						c0,0.385,0.09,0.685,0.279,0.923c0.183,0.226,0.462,0.405,0.807,0.543c0.345,0.117,0.765,0.213,1.251,0.279
						c0.43,0.055,1.283,0.155,1.394,0.155c0.11,0,0.182,0.062,0.133-0.23c-0.023-0.125-0.265-1.139-0.378-1.597
						C181.117,18.487,180.933,18.288,180.848,18.236z M184.202,25.335c-0.718,0.398-1.844,0.601-3.384,0.601
						c-0.765,0-1.529-0.06-2.295-0.181c-0.566-0.086-0.622-0.098-0.971-0.176c-0.725-0.155-0.836-0.874-0.836-0.874l-0.228-0.949
						c-0.131-0.608,0.213-0.584,0.368-0.536c0.316,0.097,0.486,0.192,1.127,0.334c0.612,0.141,1.263,0.243,1.78,0.238
						c0.759,0,1.335-0.082,1.721-0.243c0.38-0.164,0.573-0.448,0.573-0.856c0.003-0.098,0.004-0.186-0.032-0.269
						c-0.031-0.072-0.093-0.144-0.274-0.169c-1.083-0.064-1.859-0.165-2.796-0.3c-0.923-0.13-1.733-0.353-2.407-0.66
						c-0.717-0.316-1.258-0.743-1.629-1.285c-0.363-0.541-0.546-1.197-0.546-1.971c0-0.732,0.265-1.328,0.772-1.791
						c0.519-0.457,1.192-0.683,2.002-0.683c0.506,0.005,0.904,0.039,1.187,0.111c0.281,0.071,0.589,0.17,0.916,0.312
						c0.243,0.099,0.504,0.244,0.777,0.427c0.279,0.186,0.469,0.317,0.716,0.479l0.01-0.02l-0.069-0.303
						c-0.001-0.004-0.006-0.006-0.006-0.008l0.002-0.002c-0.08-0.37,0.141-0.673,0.506-0.707l0.005-0.009h0.03l0.001-0.001
						c0.241,0,1.073,0,1.459,0.001h0.272c0.016,0,0.019,0.007,0.028,0.011c0.37,0.044,0.727,0.347,0.81,0.707l1.383,5.961
						c0.033,0.136,0.061,0.3,0.074,0.489c0.014,0.184,0.035,0.339,0.033,0.452C185.286,24.311,184.922,24.936,184.202,25.335"/>
				</g>
				<g id="g2999">
					<g>
						<defs>
							<rect id="SVGID_1_" x="280.686" y="29.939" width="94.357" height="24.123"/>
						</defs>
						<clipPath id="SVGID_2_">
							<use xlink:href="#SVGID_1_"  overflow="visible"/>
						</clipPath>
						<g id="g3001" clip-path="url(#SVGID_2_)">
							<g id="g3007" transform="translate(101.082,45.728)">
								<path id="path3009" fill="#1D3764" d="M224.58,1.986c-0.408,0-0.939-0.326-1.193-0.722c0,0-2.717-4.645-2.982-5.109
									c-0.148-0.249-0.292-0.092-0.316,0.002c-0.02,0.114-0.843,5.074-0.843,5.074c-0.093,0.4-0.511,0.747-1.034,0.745
									l-1.695-0.004c-0.409,0-0.663-0.325-0.574-0.72c0,0,1.298-7.318,1.548-9.038c0.13-0.953-0.011-1.125-0.011-1.125
									l-1.678-2.916c-0.246-0.398-0.112-0.721,0.296-0.721l1.964,0.001c0.403,0,0.943,0.322,1.185,0.719l7.55,12.735
									c0,0,0.723,1.089,0.06,1.077C226.399,1.981,224.58,1.986,224.58,1.986"/>
							</g>
							<g id="g3011" transform="translate(39.137,49.474)">
								<path id="path3013" fill="#1D3764" d="M266.775-0.57c-0.235,0.462-0.587,0.835-1.038,1.113
									c-0.467,0.288-1.013,0.486-1.646,0.608c-0.638,0.11-1.382,0.168-2.239,0.177l-3.958-0.002
									c-0.409-0.006-0.814-0.329-0.905-0.724l-2.674-11.564c-0.088-0.395,0.168-0.722,0.576-0.722h1.898
									c0.409,0,0.818,0.315,0.906,0.722l0.656,2.808c0.086,0.39,0.493,0.714,0.902,0.714h0.54c2.32,0.003,4.118,0.478,5.413,1.424
									c1.288,0.944,1.934,2.198,1.93,3.744C267.141-1.59,267.022-1.022,266.775-0.57 M262.685-4.35
									c-0.572-0.415-1.365-0.621-2.394-0.621h-0.465c-0.408,0-0.669,0.322-0.579,0.72l0.57,2.451
									c0.088,0.395,0.497,0.721,0.905,0.719l0.62,0.002c0.728,0,1.279-0.121,1.651-0.368c0.364-0.238,0.551-0.616,0.544-1.125
									C263.55-3.334,263.259-3.93,262.685-4.35"/>
							</g>
						</g>
					</g>
				</g>
				<g id="g3015" transform="translate(147.108,49.341)">
					<path id="path3017" fill="#34679A" d="M193.223-0.479c-0.234,0.459-0.591,0.829-1.04,1.118
						c-0.463,0.286-1.014,0.487-1.653,0.601c-0.626,0.11-1.373,0.176-2.229,0.177l-3.964,0c-0.411-0.009-0.812-0.331-0.902-0.724
						l-2.672-11.569c-0.093-0.392,0.172-0.718,0.574-0.718l1.9,0.001c0.403-0.001,0.818,0.325,0.91,0.717l0.644,2.808
						c0.091,0.393,0.502,0.722,0.911,0.715h0.539c2.322,0,4.125,0.479,5.413,1.424c1.283,0.951,1.931,2.199,1.931,3.749
						C193.58-1.499,193.466-0.928,193.223-0.479 M189.135-4.261c-0.572-0.413-1.368-0.619-2.393-0.619h-0.473
						c-0.405-0.004-0.668,0.325-0.574,0.718l0.57,2.457c0.086,0.386,0.499,0.716,0.902,0.713l0.621,0.003
						c0.73-0.003,1.272-0.123,1.649-0.362c0.368-0.246,0.548-0.625,0.55-1.128C189.989-3.247,189.705-3.841,189.135-4.261"/>
				</g>
				<g id="g3019" transform="translate(57.28,21.938)">
					<path id="path3021" fill="#1D3764" d="M254.419,18.216c-0.238-0.149-0.485-0.272-0.748-0.38
						c-0.349-0.142-0.681-0.216-0.986-0.216c-0.472,0-0.832,0.066-1.079,0.208c-0.244,0.136-0.373,0.367-0.369,0.704
						c0,0.389,0.091,0.688,0.274,0.921c0.19,0.228,0.464,0.413,0.811,0.55c0.341,0.112,0.763,0.207,1.249,0.276
						c0.43,0.057,1.287,0.152,1.397,0.154c0.107,0.001,0.182,0.06,0.134-0.229c-0.023-0.127-0.27-1.136-0.383-1.594
						C254.685,18.471,254.5,18.269,254.419,18.216z M257.772,25.315c-0.723,0.401-1.849,0.605-3.387,0.605
						c-0.761,0-1.529-0.06-2.297-0.181c-0.562-0.084-0.623-0.1-0.972-0.176c-0.72-0.157-0.83-0.874-0.83-0.874l-0.234-0.95
						c-0.13-0.609,0.215-0.583,0.37-0.535c0.315,0.093,0.486,0.186,1.126,0.336c0.617,0.133,1.263,0.241,1.783,0.236
						c0.758,0,1.333-0.081,1.717-0.241c0.387-0.171,0.574-0.455,0.574-0.857c0.003-0.099,0.006-0.191-0.03-0.268
						c-0.031-0.078-0.091-0.151-0.274-0.173c-1.082-0.066-1.859-0.162-2.798-0.299c-0.924-0.129-1.73-0.352-2.407-0.658
						c-0.719-0.321-1.259-0.744-1.628-1.286c-0.361-0.54-0.543-1.201-0.544-1.975c0-0.73,0.264-1.326,0.774-1.79
						c0.515-0.456,1.187-0.684,1.995-0.684c0.51,0.005,0.906,0.044,1.192,0.111c0.285,0.073,0.593,0.176,0.914,0.312
						c0.243,0.105,0.503,0.249,0.783,0.434c0.274,0.18,0.467,0.313,0.713,0.472l0.009-0.013l-0.07-0.303
						c0-0.004-0.006-0.006-0.006-0.01l0.005-0.006c-0.077-0.365,0.143-0.668,0.505-0.707l0.006-0.003h0.034l0.001-0.002
						c0.242,0,1.07,0.001,1.458,0.002h0.268c0.02,0,0.02,0.002,0.027,0.007c0.372,0.047,0.728,0.347,0.812,0.71l1.387,5.956
						c0.029,0.142,0.056,0.305,0.071,0.488c0.019,0.193,0.04,0.346,0.033,0.459C258.854,24.291,258.486,24.913,257.772,25.315"/>
				</g>
				<g id="g3023" transform="translate(196.3,54.997)">
					<path id="path3025" fill="#34679A" d="M159.716-4.335h-1.699c-0.001,0-0.001,0-0.001,0l0,0c-0.389,0-0.783-0.299-0.892-0.677
						c-0.006-0.014-0.014-0.026-0.015-0.045c0,0-0.043-0.181-0.109-0.502l-2.332-10.527c-0.053-0.238-0.091-0.393-0.1-0.436
						l0.002-0.002c-0.08-0.372,0.143-0.676,0.507-0.707l0.001-0.009h1.765c0.383,0,0.775,0.296,0.887,0.668
						c0.007,0.016,0.018,0.032,0.021,0.05l2.54,11.465l-0.001,0.002C160.374-4.659,160.119-4.335,159.716-4.335"/>
				</g>
				<g id="g3027" transform="translate(206.375,47.652)">
					<path id="path3029" fill="#34679A" d="M152.851,0.676c-0.056-0.018-0.118-0.027-0.188-0.04
						c-0.071-0.006-0.13-0.013-0.187-0.013c-0.187,0-0.331,0.053-0.427,0.151c-0.101,0.1-0.151,0.263-0.151,0.485v0.98h-0.207v0.259
						h0.207v0.529h0.311V2.498h0.642V2.239h-0.642V1.401c0-0.098,0.004-0.173,0.009-0.227c0.006-0.056,0.02-0.104,0.047-0.151
						c0.024-0.045,0.055-0.079,0.098-0.099c0.043-0.021,0.106-0.027,0.195-0.027c0.05,0,0.106,0.004,0.16,0.022
						c0.056,0.013,0.095,0.022,0.119,0.035h0.016V0.676"/>
				</g>
				<g id="g3031" transform="translate(216,47.601)">
					<path id="path3033" fill="#34679A" d="M146.292,0.708h-0.31v1.05c0,0.077-0.002,0.156-0.009,0.228
						c-0.009,0.073-0.022,0.133-0.045,0.177c-0.026,0.045-0.06,0.085-0.109,0.109c-0.048,0.024-0.115,0.035-0.205,0.035
						c-0.087,0-0.175-0.022-0.262-0.065c-0.087-0.043-0.173-0.1-0.26-0.167c0.004-0.022,0.004-0.053,0.004-0.088
						c0.004-0.032,0.004-0.066,0.004-0.099V0.708h-0.309v1.05c0,0.079-0.005,0.159-0.009,0.228
						c-0.008,0.076-0.023,0.133-0.047,0.177c-0.026,0.047-0.061,0.086-0.108,0.11c-0.048,0.022-0.116,0.033-0.206,0.033
						c-0.085,0-0.167-0.021-0.254-0.062c-0.088-0.041-0.174-0.097-0.258-0.161V0.708H143.6v1.841h0.311V2.344
						c0.1,0.084,0.193,0.145,0.291,0.191c0.1,0.046,0.2,0.068,0.309,0.068c0.123,0,0.232-0.027,0.321-0.082
						c0.088-0.05,0.153-0.124,0.197-0.219c0.122,0.104,0.237,0.183,0.339,0.23c0.105,0.047,0.215,0.071,0.333,0.071
						c0.203,0,0.353-0.064,0.449-0.185c0.096-0.122,0.143-0.296,0.143-0.514V0.708"/>
				</g>
			</g>
		</g>
		<path fill="#34679A" d="M490.51,56.54c0,0.522-0.431,0.95-0.965,0.95h-36.529c-0.529,0-0.959-0.427-0.959-0.95V39.377
			c0-0.53,0.43-0.958,0.959-0.958h36.529c0.534,0,0.965,0.428,0.965,0.958V56.54z"/>
		<rect x="393.65" y="1.583" fill="none" stroke="#727074" stroke-width="2" stroke-miterlimit="10" width="116.037" height="62"/>
	</g>
	<g id="Mastercard_logo">
		<path fill-rule="evenodd" clip-rule="evenodd" fill="#FCB131" d="M188.341,56.288c5.692,5.163,13.339,8.295,21.655,8.295
			c17.859,0,32.316-14.338,32.316-31.973c0-17.689-14.457-32.027-32.316-32.027c-8.316,0-15.963,3.131-21.655,8.295
			c-6.53,5.877-10.662,14.338-10.662,23.731S181.811,50.465,188.341,56.288L188.341,56.288z"/>
		<path fill-rule="evenodd" clip-rule="evenodd" fill="#FCB131" d="M238.014,50.409c0-0.55,0.446-0.989,1.004-0.989
			c0.615,0,1.062,0.439,1.062,0.989c0,0.604-0.446,1.044-1.062,1.044C238.46,51.453,238.014,51.014,238.014,50.409L238.014,50.409z
			 M239.018,51.234c0.447,0,0.838-0.385,0.838-0.825c0-0.44-0.391-0.769-0.838-0.769c-0.389,0-0.781,0.329-0.781,0.769
			C238.236,50.849,238.629,51.234,239.018,51.234L239.018,51.234z M238.907,50.904h-0.224v-0.935h0.391c0.057,0,0.166,0,0.224,0.056
			c0.112,0.054,0.112,0.109,0.112,0.219s-0.056,0.22-0.17,0.22l0.225,0.439h-0.278l-0.112-0.385h-0.167V50.904v-0.549h0.11
			c0.057,0,0.113,0,0.113,0c0.056,0,0.056-0.055,0.056-0.11c0-0.055,0-0.055-0.056-0.11c0,0-0.057,0-0.113,0h-0.11v0.22V50.904
			L238.907,50.904z"/>
		<path fill-rule="evenodd" clip-rule="evenodd" fill="#ED1C2E" d="M198.778,29.204c-0.112-1.153-0.336-2.252-0.56-3.405h-19.757
			c0.223-1.154,0.557-2.252,0.893-3.351h17.917c-0.391-1.153-0.838-2.308-1.341-3.406h-15.18c0.558-1.153,1.171-2.307,1.841-3.406
			h11.441c-0.726-1.153-1.563-2.308-2.455-3.352h-6.53c1.004-1.208,2.121-2.362,3.293-3.405c-5.749-5.109-13.34-8.295-21.711-8.295
			c-17.805,0-32.317,14.338-32.317,32.027c0,17.635,14.512,31.973,32.317,31.973c8.371,0,15.962-3.132,21.711-8.295l0,0l0,0
			c1.172-1.045,2.232-2.143,3.237-3.352h-6.53c-0.894-1.098-1.675-2.197-2.456-3.405h11.441c0.727-1.099,1.34-2.198,1.897-3.406
			h-15.18c-0.504-1.098-1.006-2.197-1.396-3.351h17.917c0.39-1.099,0.668-2.251,0.947-3.406c0.224-1.099,0.447-2.253,0.56-3.406
			c0.111-1.098,0.166-2.197,0.166-3.351S198.89,30.303,198.778,29.204L198.778,29.204z"/>
		<path fill-rule="evenodd" clip-rule="evenodd" fill="#FFFFFF" d="M238.014,40.026c0-0.604,0.446-1.043,1.004-1.043
			c0.615,0,1.062,0.439,1.062,1.043c0,0.55-0.446,1.044-1.062,1.044C238.46,41.07,238.014,40.576,238.014,40.026L238.014,40.026z
			 M239.018,40.795c0.447,0,0.838-0.329,0.838-0.769c0-0.439-0.391-0.769-0.838-0.769c-0.389,0-0.781,0.33-0.781,0.769
			C238.236,40.466,238.629,40.795,239.018,40.795L239.018,40.795z M238.907,40.466h-0.224v-0.879h0.391c0.057,0,0.166,0,0.224,0
			c0.112,0.056,0.112,0.165,0.112,0.275c0,0.054-0.056,0.164-0.17,0.22l0.225,0.384h-0.278l-0.112-0.33h-0.167V40.466v-0.495h0.11
			c0.057,0,0.113,0,0.113-0.055c0.056,0,0.056-0.054,0.056-0.11c0,0,0-0.055-0.056-0.055c0-0.056-0.057,0-0.113,0h-0.11v0.22V40.466
			L238.907,40.466z"/>
		<path fill-rule="evenodd" clip-rule="evenodd" fill="#003473" d="M177.344,41.84c-1.059,0.273-1.841,0.439-2.622,0.439
			c-1.675,0-2.68-1.044-2.68-2.912c0-0.384,0.057-0.769,0.112-1.208l0.224-1.264l0.167-1.043l1.506-9.01h3.35l-0.392,1.978h2.123
			l-0.504,3.296h-2.12l-0.893,5.383c-0.056,0.276-0.056,0.44-0.056,0.55c0,0.714,0.335,0.988,1.172,0.988
			c0.39,0,0.725-0.054,1.06-0.109L177.344,41.84L177.344,41.84z"/>
		<path fill-rule="evenodd" clip-rule="evenodd" fill="#003473" d="M188.174,41.73c-1.229,0.329-2.345,0.493-3.573,0.493
			c-3.796,0-5.973-1.977-5.973-5.877c0-4.56,2.569-7.856,6.141-7.856c2.846,0,4.688,1.868,4.688,4.78
			c0,0.988-0.111,1.923-0.391,3.241h-6.978c-0.056,0.22-0.056,0.33-0.056,0.439c0,1.539,1.061,2.308,3.071,2.308
			c1.285,0,2.4-0.274,3.628-0.823L188.174,41.73L188.174,41.73z M186.107,33.873c0-0.274,0-0.494,0-0.658
			c0-1.099-0.613-1.703-1.674-1.703c-1.116,0-1.897,0.824-2.232,2.361H186.107L186.107,33.873z"/>
		<polygon fill-rule="evenodd" clip-rule="evenodd" fill="#003473" points="150.554,42.003 147.094,42.003 149.103,29.534 
			144.583,42.003 142.183,42.003 141.903,29.589 139.783,42.003 136.378,42.003 139.114,25.798 144.192,25.798 144.304,35.796 
			147.708,25.798 153.29,25.798 150.554,42.003 		"/>
		<path fill-rule="evenodd" clip-rule="evenodd" fill="#003473" d="M158.983,36.125c-0.335-0.054-0.447-0.054-0.67-0.054
			c-2.01,0-3.014,0.769-3.014,1.977c0,0.824,0.501,1.374,1.283,1.374C158.257,39.422,158.927,38.049,158.983,36.125L158.983,36.125z
			 M161.773,42.003h-3.014l0.057-1.373c-0.782,1.043-1.842,1.592-3.684,1.592c-1.674,0-3.125-1.482-3.125-3.625
			c0-0.604,0.112-1.153,0.278-1.704c0.559-2.031,2.624-3.296,5.805-3.35c0.391,0,1.005,0,1.564,0.054
			c0.111-0.44,0.111-0.604,0.111-0.879c0-0.878-0.726-1.153-2.345-1.153c-1.004,0-2.12,0.165-2.902,0.439l-0.502,0.11l-0.223,0.055
			l0.502-2.967c1.619-0.494,2.791-0.714,4.074-0.714c3.014,0,4.633,1.374,4.633,3.9c0,0.659,0.055,1.155-0.168,2.583l-0.781,4.724
			l-0.111,0.825l-0.056,0.659l-0.056,0.439L161.773,42.003L161.773,42.003z"/>
		<path fill-rule="evenodd" clip-rule="evenodd" fill="#003473" d="M205.029,28.93c1.005,0,1.896,0.274,3.125,0.879l0.613-3.516
			c-0.335-0.166-0.445-0.166-0.894-0.33l-1.395-0.385c-0.445-0.109-1.005-0.164-1.618-0.164c-1.73,0-2.734,0.055-3.795,0.659
			c-0.559,0.384-1.284,0.878-2.064,1.757l-0.446-0.109l-3.574,2.473l0.168-1.374h-3.683l-2.177,13.184h3.516l1.283-7.086
			c0,0,0.503-0.989,0.726-1.318c0.67-0.823,1.228-0.823,1.953-0.823c0.113,0,0.224,0,0.28,0c-0.112,0.77-0.167,1.592-0.167,2.527
			c0,4.285,2.455,6.977,6.25,6.977c0.949,0,1.786-0.11,3.07-0.439l0.613-3.735c-1.115,0.604-2.121,0.879-2.957,0.879
			c-2.066,0-3.294-1.539-3.294-3.957C200.564,31.456,202.405,28.93,205.029,28.93L205.029,28.93z"/>
		<path fill-rule="evenodd" clip-rule="evenodd" fill="#003473" d="M234.665,25.798l-0.78,4.614
			c-0.838-1.263-1.843-1.868-3.182-1.868c-1.842,0-3.572,1.045-4.634,3.022v-0.055l-2.231-1.318l0.223-1.374h-3.738l-2.121,13.184
			h3.46l1.172-7.086c0,0,0.894-0.989,1.117-1.318c0.559-0.66,1.115-0.769,1.563-0.823c-0.393,1.098-0.615,2.417-0.615,3.899
			c0,3.297,1.73,5.495,4.299,5.495c1.283,0,2.289-0.439,3.237-1.484l-0.169,1.318h3.293l2.679-16.205H234.665L234.665,25.798z
			 M230.367,38.873c-1.171,0-1.785-0.878-1.785-2.582c0-2.583,1.116-4.45,2.734-4.45c1.229,0,1.842,0.934,1.842,2.582
			C233.158,37.06,232.042,38.873,230.367,38.873L230.367,38.873z"/>
		<path fill-rule="evenodd" clip-rule="evenodd" fill="#003473" d="M214.238,36.125c-0.336-0.054-0.447-0.054-0.67-0.054
			c-2.009,0-3.016,0.769-3.016,1.977c0,0.824,0.503,1.374,1.285,1.374C213.512,39.422,214.182,38.049,214.238,36.125L214.238,36.125
			z M217.028,42.003h-3.069l0.111-1.373c-0.781,1.043-1.842,1.592-3.684,1.592c-1.731,0-3.238-1.428-3.238-3.625
			c0-3.132,2.4-5.053,6.196-5.053c0.392,0,1.005,0,1.506,0.054c0.112-0.44,0.169-0.604,0.169-0.879c0-0.878-0.726-1.153-2.4-1.153
			c-0.949,0-2.121,0.165-2.902,0.439l-0.446,0.11l-0.223,0.055l0.501-2.967c1.619-0.494,2.793-0.714,4.074-0.714
			c3.015,0,4.578,1.374,4.578,3.9c0,0.659,0.11,1.155-0.168,2.583l-0.727,4.724l-0.111,0.825l-0.111,0.659l-0.056,0.439V42.003
			L217.028,42.003z"/>
		<path fill-rule="evenodd" clip-rule="evenodd" fill="#003473" d="M169.085,31.621c0.669,0,1.619,0.056,2.623,0.22l0.502-3.077
			c-1.005-0.11-2.344-0.274-3.125-0.274c-3.906,0-5.191,2.087-5.191,4.505c0,1.593,0.727,2.747,2.625,3.625
			c1.394,0.66,1.618,0.769,1.618,1.375c0,0.823-0.725,1.318-2.065,1.318c-1.061,0-2.065-0.165-3.182-0.55l-0.39,3.021l0.055,0.056
			l0.669,0.11c0.224,0.054,0.504,0.109,0.894,0.164c0.837,0.056,1.563,0.11,2.01,0.11c3.907,0,5.525-1.482,5.525-4.395
			c0-1.813-0.894-2.912-2.624-3.681c-1.506-0.66-1.674-0.769-1.674-1.373C167.355,32.17,168.024,31.621,169.085,31.621
			L169.085,31.621z"/>
		<path fill-rule="evenodd" clip-rule="evenodd" fill="#FFFFFF" d="M209.717,25.249l-0.613,3.516
			c-1.229-0.604-2.122-0.878-3.127-0.878c-2.622,0-4.464,2.527-4.464,6.098c0,2.471,1.228,3.955,3.293,3.955
			c0.837,0,1.841-0.274,2.958-0.825l-0.615,3.681c-1.282,0.33-2.119,0.495-3.068,0.495c-3.796,0-6.141-2.692-6.141-7.032
			c0-5.768,3.238-9.833,7.871-9.833c0.613,0,1.171,0.056,1.618,0.165l1.396,0.329C209.271,25.084,209.381,25.139,209.717,25.249
			L209.717,25.249z"/>
		<path fill-rule="evenodd" clip-rule="evenodd" fill="#FFFFFF" d="M198.442,27.666c-0.11,0-0.224,0-0.335,0
			c-1.172,0-1.843,0.55-2.901,2.143l0.335-2.032h-3.182l-2.178,13.185h3.517c1.283-8.076,1.619-9.449,3.293-9.449
			c0.112,0,0.112,0,0.223,0c0.336-1.593,0.781-2.748,1.342-3.791L198.442,27.666L198.442,27.666z"/>
		<path fill-rule="evenodd" clip-rule="evenodd" fill="#FFFFFF" d="M178.237,40.795c-0.948,0.33-1.729,0.44-2.51,0.44
			c-1.786,0-2.792-0.989-2.792-2.911c0-0.33,0.056-0.771,0.112-1.155l0.224-1.318l0.167-1.044l1.507-9.009h3.459l-0.391,1.978h1.785
			l-0.445,3.241h-1.787l-0.947,5.494c-0.057,0.22-0.057,0.384-0.057,0.549c0,0.659,0.334,0.935,1.173,0.935
			c0.389,0,0.725,0,0.948-0.11L178.237,40.795L178.237,40.795z"/>
		<path fill-rule="evenodd" clip-rule="evenodd" fill="#FFFFFF" d="M164.787,31.951c0,1.647,0.782,2.801,2.625,3.681
			c1.451,0.659,1.674,0.879,1.674,1.428c0,0.824-0.615,1.208-2.009,1.208c-1.061,0-2.009-0.164-3.126-0.493l-0.503,3.02l0.168,0.056
			l0.614,0.11c0.222,0.055,0.502,0.109,0.949,0.109c0.781,0.11,1.451,0.11,1.897,0.11c3.683,0,5.413-1.374,5.413-4.394
			c0-1.813-0.725-2.858-2.455-3.681c-1.507-0.66-1.676-0.825-1.676-1.429c0-0.714,0.615-1.044,1.73-1.044
			c0.67,0,1.619,0.055,2.512,0.165l0.502-3.021c-0.893-0.166-2.288-0.275-3.068-0.275C166.127,27.501,164.732,29.534,164.787,31.951
			L164.787,31.951z"/>
		<path fill-rule="evenodd" clip-rule="evenodd" fill="#FFFFFF" d="M236.451,40.961h-3.293l0.168-1.265
			c-0.948,0.989-1.954,1.429-3.237,1.429c-2.567,0-4.242-2.142-4.242-5.439c0-4.394,2.623-8.129,5.694-8.129
			c1.395,0,2.398,0.604,3.348,1.813l0.781-4.615h3.461L236.451,40.961L236.451,40.961z M231.316,37.884
			c1.619,0,2.734-1.869,2.734-4.45c0-1.703-0.612-2.582-1.842-2.582c-1.562,0-2.735,1.813-2.735,4.395
			C229.474,37.006,230.089,37.884,231.316,37.884L231.316,37.884z"/>
		<path fill-rule="evenodd" clip-rule="evenodd" fill="#FFFFFF" d="M188.954,40.685c-1.227,0.385-2.343,0.55-3.627,0.55
			c-3.908,0-5.916-2.032-5.916-5.933c0-4.505,2.566-7.856,6.083-7.856c2.902,0,4.744,1.868,4.744,4.779
			c0,0.99-0.111,1.923-0.446,3.297h-6.921c-0.057,0.164-0.057,0.274-0.057,0.384c0,1.539,1.061,2.309,3.07,2.309
			c1.284,0,2.401-0.22,3.628-0.826L188.954,40.685L188.954,40.685z M187.001,32.83c0-0.274,0-0.494,0-0.659
			c0-1.098-0.613-1.703-1.674-1.703c-1.117,0-1.898,0.824-2.233,2.362H187.001L187.001,32.83z"/>
		<polygon fill-rule="evenodd" clip-rule="evenodd" fill="#FFFFFF" points="151.447,40.961 147.987,40.961 149.996,28.49 
			145.476,40.961 143.075,40.961 142.796,28.6 140.675,40.961 137.439,40.961 140.173,24.754 145.196,24.754 145.364,34.807 
			148.713,24.754 154.183,24.754 151.447,40.961 		"/>
		<path fill-rule="evenodd" clip-rule="evenodd" fill="#FFFFFF" d="M160.099,35.082c-0.334,0-0.502-0.055-0.781-0.055
			c-1.953,0-2.958,0.715-2.958,2.033c0,0.824,0.446,1.318,1.227,1.318C159.038,38.378,160.043,37.06,160.099,35.082L160.099,35.082z
			 M162.666,40.961h-2.902l0.055-1.374c-0.893,1.098-2.064,1.593-3.684,1.593c-1.896,0-3.181-1.428-3.181-3.571
			c0-3.242,2.232-5.109,6.14-5.109c0.389,0,0.893,0.055,1.451,0.11c0.111-0.439,0.111-0.604,0.111-0.824
			c0-0.879-0.614-1.209-2.232-1.209c-1.005,0-2.121,0.11-2.901,0.33l-0.502,0.165l-0.336,0.055l0.503-2.967
			c1.73-0.494,2.902-0.659,4.186-0.659c3.014,0,4.632,1.318,4.632,3.846c0,0.659-0.055,1.153-0.278,2.637l-0.782,4.67l-0.112,0.823
			l-0.056,0.66l-0.055,0.495L162.666,40.961L162.666,40.961z"/>
		<path fill-rule="evenodd" clip-rule="evenodd" fill="#FFFFFF" d="M215.354,35.082c-0.391,0-0.559-0.055-0.781-0.055
			c-2.009,0-3.013,0.715-3.013,2.033c0,0.824,0.501,1.318,1.282,1.318C214.238,38.378,215.298,37.06,215.354,35.082L215.354,35.082z
			 M217.921,40.961h-2.901l0.057-1.374c-0.895,1.098-2.066,1.593-3.685,1.593c-1.897,0-3.182-1.428-3.182-3.571
			c0-3.242,2.233-5.109,6.14-5.109c0.391,0,0.893,0.055,1.395,0.11c0.113-0.439,0.168-0.604,0.168-0.824
			c0-0.879-0.614-1.209-2.232-1.209c-1.005,0-2.177,0.11-2.958,0.33l-0.446,0.165l-0.334,0.055l0.502-2.967
			c1.729-0.494,2.901-0.659,4.185-0.659c3.015,0,4.577,1.318,4.577,3.846c0,0.659,0,1.153-0.279,2.637l-0.725,4.67l-0.113,0.823
			l-0.11,0.66l-0.057,0.495V40.961L217.921,40.961z"/>
		<path fill-rule="evenodd" clip-rule="evenodd" fill="#FFFFFF" d="M227.298,27.666c-0.111,0-0.225,0-0.335,0
			c-1.172,0-1.843,0.55-2.902,2.143l0.335-2.032h-3.181l-2.122,13.185h3.461c1.284-8.076,1.618-9.449,3.293-9.449
			c0.111,0,0.111,0,0.223,0c0.336-1.593,0.781-2.748,1.34-3.791L227.298,27.666L227.298,27.666z"/>
	</g>
	<g id="American_Express_logo">
		<rect x="283.692" y="0.583" fill="#FFFFFF" width="67.244" height="63.864"/>
		
			<radialGradient id="SVGID_3_" cx="99.3638" cy="-274.3325" r="79.8155" gradientTransform="matrix(1.0151 0 0 0.9855 192.0406 279.9106)" gradientUnits="userSpaceOnUse">
			<stop  offset="0" style="stop-color:#00B8E9"/>
			<stop  offset="0.427" style="stop-color:#009ACA"/>
			<stop  offset="0.5077" style="stop-color:#0090BD"/>
			<stop  offset="0.8347" style="stop-color:#006D8E"/>
			<stop  offset="1" style="stop-color:#00607E"/>
		</radialGradient>
		<path fill="url(#SVGID_3_)" d="M348.502,47.821c0,0-0.13-0.007-0.252-0.013l-5.265,0.003v-0.351
			c-0.599,0.24-1.237,0.361-1.848,0.361c0,0-0.129-0.007-0.253-0.013l-3.117,0.001v0.015h-7.545v0.013h-5.127v-1.501
			c0,0,0.008-1.068,0.009-1.269c-0.046,0-0.216,0-0.339,0c0,0.629,0,2.77,0,2.77h-5.184v-3.002
			c-0.854,0.334-1.827,0.421-2.754,0.421c0,0-0.316,0-0.501,0c0,0.518,0,2.568,0,2.568h-6.116c0,0-0.996-1.066-1.531-1.639
			c-0.541,0.575-1.544,1.639-1.544,1.639h-9.996V36.82h9.83c0,0,1.09,1.157,1.72,1.824c0.631-0.663,1.726-1.812,1.726-1.812h0.675
			l1.602-0.012h5.015c0.292-0.019,1.057-0.024,1.876,0.275v-0.249h6.557c0.321-0.023,1.157-0.038,2.021,0.311v-0.311h8.063h1.546
			v0.315c0.907-0.355,1.743-0.333,1.871-0.325l5.468-0.004v0.34c0.917-0.367,1.768-0.344,1.896-0.336l3.934-0.003V0.583h-67.244
			v28.021l2.301-5.301h4.993c0,0,0.575,1.329,0.599,1.384c0-0.199,0-1.384,0-1.384h5.846c0,0,0.876,1.89,1.293,2.791
			c0.414-0.899,1.284-2.791,1.284-2.791h3.914h0.389h1.548h5.663h0.459h1.548h4.546c0.32-0.023,1.157-0.039,2.024,0.311v-0.311
			h3.647h1.547v0.664c0.762-0.459,1.631-0.694,2.506-0.731c0,0,2.787,0.073,2.895,0.076l0.004-0.009h4.979
			c0,0,0.541,1.253,0.558,1.289c0-0.314,0-1.289,0-1.289h5.37c0,0,0.77,1.23,0.854,1.369c0-0.219,0-1.369,0-1.369h5.196v10.99
			h-5.304c0,0-0.791-1.272-0.892-1.437c0,0.118,0,1.437,0,1.437h-6.661c0,0-0.57-1.296-0.737-1.675c-0.693,0-1.069,0-1.767,0
			c-0.16,0.373-0.723,1.675-0.723,1.675h-4.41l-0.111-0.015c-0.49-0.067-1.127-0.286-1.756-0.671v0.714h-3.647c0,0,0-0.024,0-0.028
			h-4.61v-1.502c0,0,0.008-1.066,0.009-1.268c-0.046,0-0.216,0-0.339,0c0,0.63,0,2.77,0,2.77h-3.177h-2.007h-5.663h-0.389h-4.821
			c0,0,0-0.134,0-0.168c-0.025,0.053-0.082,0.168-0.082,0.168h-3.689c0,0-0.062-0.131-0.095-0.205c0,0.048,0,0.205,0,0.205h-6.698
			c0,0-0.564-1.302-0.725-1.675c-0.695,0-1.072,0-1.764,0c-0.167,0.378-0.739,1.675-0.739,1.675h-3.165v30.154h67.244V47.172
			C350.189,47.617,349.32,47.821,348.502,47.821z"/>
		<g>
			<g>
				<defs>
					<path id="SVGID_4_" d="M318.61,32.792v-1.553c0,0-0.085-1.217-1.394-1.217h-2.033v2.77h-2.087v-7.987h5.069
						c0,0,2.644-0.311,2.644,2.338c0,1.378-1.169,1.865-1.169,1.865s1.016,0.46,1.016,1.813v1.971H318.61 M315.184,28.143h2.159
						c0.627,0,1.142-0.339,1.142-0.757c0-0.419-0.515-0.757-1.142-0.757h-2.159V28.143L315.184,28.143"/>
				</defs>
				
					<radialGradient id="SVGID_5_" cx="291.8247" cy="8.125" r="79.8206" gradientTransform="matrix(1.0151 0 0 0.9855 -3.3022 1.5508)" gradientUnits="userSpaceOnUse">
					<stop  offset="0" style="stop-color:#00B8E9"/>
					<stop  offset="0.427" style="stop-color:#009ACA"/>
					<stop  offset="0.5077" style="stop-color:#0090BD"/>
					<stop  offset="0.8347" style="stop-color:#006D8E"/>
					<stop  offset="1" style="stop-color:#00607E"/>
				</radialGradient>
				<use xlink:href="#SVGID_4_"  overflow="visible" fill="url(#SVGID_5_)"/>
				<clipPath id="SVGID_6_">
					<use xlink:href="#SVGID_4_"  overflow="visible"/>
				</clipPath>
			</g>
			<g>
				<defs>
					<path id="SVGID_7_" d="M343.252,32.792l-3.312-5.337v5.337h-1.797h-0.337h-1.959l-0.74-1.674h-3.813l-0.726,1.674h-1.92H328.3
						h-1.003c0,0-2.813-0.391-2.813-3.77c0-4.434,3.19-4.258,3.301-4.285l2.575,0.068v1.798l-2.115,0.026c0,0-1.378,0-1.546,1.744
						c-0.02,0.2-0.029,0.384-0.027,0.555c0.008,2.7,2.414,1.863,2.492,1.837l2.59-5.961h2.923l3.13,7.245v-7.245h2.954l3.271,5.258
						v-5.258h2.104v7.987H343.252 M332.186,29.075h2.031l-1.002-2.378L332.186,29.075L332.186,29.075"/>
				</defs>
				
					<radialGradient id="SVGID_8_" cx="291.8252" cy="8.1265" r="79.8181" gradientTransform="matrix(1.0151 0 0 0.9855 -3.3022 1.5508)" gradientUnits="userSpaceOnUse">
					<stop  offset="0" style="stop-color:#00B8E9"/>
					<stop  offset="0.427" style="stop-color:#009ACA"/>
					<stop  offset="0.5077" style="stop-color:#0090BD"/>
					<stop  offset="0.8347" style="stop-color:#006D8E"/>
					<stop  offset="1" style="stop-color:#00607E"/>
				</radialGradient>
				<use xlink:href="#SVGID_7_"  overflow="visible" fill="url(#SVGID_8_)"/>
				<clipPath id="SVGID_9_">
					<use xlink:href="#SVGID_7_"  overflow="visible"/>
				</clipPath>
			</g>
			<g>
				<defs>
					<path id="SVGID_10_" d="M302.223,32.792v-5.513l-2.617,5.513h-1.712l-2.632-5.487v5.487h-1.823h-0.278h-2.02l-0.724-1.674
						h-3.814l-0.738,1.674h-2.283l3.466-7.987h2.938l3.175,7.339v-7.339h3.298l2.298,4.959l2.284-4.959h3.299v7.987H302.223
						 M287.493,29.075h2.033l-1.016-2.378L287.493,29.075L287.493,29.075"/>
				</defs>
				
					<radialGradient id="SVGID_11_" cx="291.8277" cy="8.126" r="79.816" gradientTransform="matrix(1.0151 0 0 0.9855 -3.3022 1.5508)" gradientUnits="userSpaceOnUse">
					<stop  offset="0" style="stop-color:#00B8E9"/>
					<stop  offset="0.427" style="stop-color:#009ACA"/>
					<stop  offset="0.5077" style="stop-color:#0090BD"/>
					<stop  offset="0.8347" style="stop-color:#006D8E"/>
					<stop  offset="1" style="stop-color:#00607E"/>
				</radialGradient>
				<use xlink:href="#SVGID_10_"  overflow="visible" fill="url(#SVGID_11_)"/>
				<clipPath id="SVGID_12_">
					<use xlink:href="#SVGID_10_"  overflow="visible"/>
				</clipPath>
			</g>
			<g>
				<defs>
					<polyline id="SVGID_13_" points="305.495,32.792 305.495,24.805 312.012,24.805 312.012,26.669 307.598,26.669 307.598,27.899 
						311.9,27.899 311.9,29.711 307.598,29.711 307.598,31.063 312.012,31.063 312.012,32.792 305.495,32.792 					"/>
				</defs>
				
					<radialGradient id="SVGID_14_" cx="291.8233" cy="8.126" r="79.8223" gradientTransform="matrix(1.0151 0 0 0.9855 -3.3022 1.5508)" gradientUnits="userSpaceOnUse">
					<stop  offset="0" style="stop-color:#00B8E9"/>
					<stop  offset="0.427" style="stop-color:#009ACA"/>
					<stop  offset="0.5077" style="stop-color:#0090BD"/>
					<stop  offset="0.8347" style="stop-color:#006D8E"/>
					<stop  offset="1" style="stop-color:#00607E"/>
				</radialGradient>
				<use xlink:href="#SVGID_13_"  overflow="visible" fill="url(#SVGID_14_)"/>
				<clipPath id="SVGID_15_">
					<use xlink:href="#SVGID_13_"  overflow="visible"/>
				</clipPath>
			</g>
			<g>
				<defs>
					<polyline id="SVGID_16_" points="321.674,32.819 321.674,24.805 323.776,24.805 323.776,32.819 321.674,32.819 					"/>
				</defs>
				
					<radialGradient id="SVGID_17_" cx="291.8096" cy="8.125" r="79.8503" gradientTransform="matrix(1.0151 0 0 0.9855 -3.3022 1.5508)" gradientUnits="userSpaceOnUse">
					<stop  offset="0" style="stop-color:#00B8E9"/>
					<stop  offset="0.427" style="stop-color:#009ACA"/>
					<stop  offset="0.5077" style="stop-color:#0090BD"/>
					<stop  offset="0.8347" style="stop-color:#006D8E"/>
					<stop  offset="1" style="stop-color:#00607E"/>
				</radialGradient>
				<use xlink:href="#SVGID_16_"  overflow="visible" fill="url(#SVGID_17_)"/>
				<clipPath id="SVGID_18_">
					<use xlink:href="#SVGID_16_"  overflow="visible"/>
				</clipPath>
			</g>
		</g>
		<g>
			<g>
				<defs>
					<path id="SVGID_19_" d="M326.672,46.336v-1.555c0,0-0.086-1.216-1.394-1.216h-2.031v2.771h-2.089v-7.989h5.068
						c0,0,2.645-0.311,2.645,2.338c0,1.379-1.169,1.866-1.169,1.866s1.003,0.458,1.003,1.81v1.975H326.672 M323.247,41.686h2.159
						c0.624,0,1.14-0.337,1.14-0.756c0-0.42-0.516-0.757-1.14-0.757h-2.159V41.686L323.247,41.686"/>
				</defs>
				
					<radialGradient id="SVGID_20_" cx="291.8316" cy="8.1226" r="79.8155" gradientTransform="matrix(1.0151 0 0 0.9855 -3.3022 1.5508)" gradientUnits="userSpaceOnUse">
					<stop  offset="0" style="stop-color:#00B8E9"/>
					<stop  offset="0.427" style="stop-color:#009ACA"/>
					<stop  offset="0.5077" style="stop-color:#0090BD"/>
					<stop  offset="0.8347" style="stop-color:#006D8E"/>
					<stop  offset="1" style="stop-color:#00607E"/>
				</radialGradient>
				<use xlink:href="#SVGID_19_"  overflow="visible" fill="url(#SVGID_20_)"/>
				<clipPath id="SVGID_21_">
					<use xlink:href="#SVGID_19_"  overflow="visible"/>
				</clipPath>
			</g>
			<g>
				<defs>
					<path id="SVGID_22_" d="M312.75,46.322h-1.826l-2.211-2.365l-2.229,2.365h-1.266h-6.502v-8.001h6.502h1.099l2.396,2.541
						l2.408-2.527h1.602v-0.013h5.067c0,0,2.645-0.285,2.645,2.351c0,2.352-0.879,3.082-3.58,3.082h-2.045v2.568H312.75
						 M310.133,42.39l2.59,2.784v-5.556L310.133,42.39L310.133,42.39 M300.817,44.594h4.4l2.06-2.204l-2.06-2.191h-4.4v1.229h4.288
						v1.813h-4.288V44.594L300.817,44.594 M314.81,41.671h2.157c0.628,0,1.142-0.336,1.142-0.756c0-0.418-0.514-0.756-1.142-0.756
						h-2.157V41.671L314.81,41.671"/>
				</defs>
				
					<radialGradient id="SVGID_23_" cx="291.8282" cy="8.1226" r="79.823" gradientTransform="matrix(1.0151 0 0 0.9855 -3.3022 1.5508)" gradientUnits="userSpaceOnUse">
					<stop  offset="0" style="stop-color:#00B8E9"/>
					<stop  offset="0.427" style="stop-color:#009ACA"/>
					<stop  offset="0.5077" style="stop-color:#0090BD"/>
					<stop  offset="0.8347" style="stop-color:#006D8E"/>
					<stop  offset="1" style="stop-color:#00607E"/>
				</radialGradient>
				<use xlink:href="#SVGID_22_"  overflow="visible" fill="url(#SVGID_23_)"/>
				<clipPath id="SVGID_24_">
					<use xlink:href="#SVGID_22_"  overflow="visible"/>
				</clipPath>
			</g>
			<g>
				<defs>
					<path id="SVGID_25_" d="M340.915,46.309h-3.718V44.47h3.258c0,0,1.168,0.134,1.168-0.634c0-0.719-1.766-0.663-1.766-0.663
						s-2.883,0.243-2.883-2.379c0-2.609,2.603-2.461,2.603-2.461h4.01v1.865h-3.229c0,0-1.114-0.217-1.114,0.569
						c0,0.66,1.518,0.566,1.518,0.566s3.188-0.229,3.188,2.176c0,2.58-2.054,2.809-2.782,2.809
						C341.009,46.319,340.915,46.309,340.915,46.309"/>
				</defs>
				
					<radialGradient id="SVGID_26_" cx="291.8394" cy="8.125" r="79.8048" gradientTransform="matrix(1.0151 0 0 0.9855 -3.3022 1.5508)" gradientUnits="userSpaceOnUse">
					<stop  offset="0" style="stop-color:#00B8E9"/>
					<stop  offset="0.427" style="stop-color:#009ACA"/>
					<stop  offset="0.5077" style="stop-color:#0090BD"/>
					<stop  offset="0.8347" style="stop-color:#006D8E"/>
					<stop  offset="1" style="stop-color:#00607E"/>
				</radialGradient>
				<use xlink:href="#SVGID_25_"  overflow="visible" fill="url(#SVGID_26_)"/>
				<clipPath id="SVGID_27_">
					<use xlink:href="#SVGID_25_"  overflow="visible"/>
				</clipPath>
			</g>
			<g>
				<defs>
					<polyline id="SVGID_28_" points="329.735,46.322 329.735,38.347 336.25,38.347 336.25,40.199 331.837,40.199 331.837,41.428 
						336.139,41.428 336.139,43.241 331.837,43.241 331.837,44.594 336.25,44.594 336.25,46.322 329.735,46.322 					"/>
				</defs>
				
					<radialGradient id="SVGID_29_" cx="291.8223" cy="8.1226" r="79.828" gradientTransform="matrix(1.0151 0 0 0.9855 -3.3022 1.5508)" gradientUnits="userSpaceOnUse">
					<stop  offset="0" style="stop-color:#00B8E9"/>
					<stop  offset="0.427" style="stop-color:#009ACA"/>
					<stop  offset="0.5077" style="stop-color:#0090BD"/>
					<stop  offset="0.8347" style="stop-color:#006D8E"/>
					<stop  offset="1" style="stop-color:#00607E"/>
				</radialGradient>
				<use xlink:href="#SVGID_28_"  overflow="visible" fill="url(#SVGID_29_)"/>
				<clipPath id="SVGID_30_">
					<use xlink:href="#SVGID_28_"  overflow="visible"/>
				</clipPath>
			</g>
			<g>
				<defs>
					<path id="SVGID_31_" d="M348.277,46.309h-3.717V44.47h3.246c0,0,1.183,0.134,1.183-0.634c0-0.719-1.769-0.663-1.769-0.663
						s-2.883,0.243-2.883-2.379c0-2.609,2.604-2.461,2.604-2.461h3.997v1.865h-3.218c0,0-1.113-0.217-1.113,0.569
						c0,0.66,1.518,0.566,1.518,0.566s3.188-0.229,3.188,2.176c0,2.58-2.054,2.809-2.781,2.809
						C348.373,46.319,348.277,46.309,348.277,46.309"/>
				</defs>
				
					<radialGradient id="SVGID_32_" cx="291.8326" cy="8.125" r="79.8099" gradientTransform="matrix(1.0151 0 0 0.9855 -3.3022 1.5508)" gradientUnits="userSpaceOnUse">
					<stop  offset="0" style="stop-color:#00B8E9"/>
					<stop  offset="0.427" style="stop-color:#009ACA"/>
					<stop  offset="0.5077" style="stop-color:#0090BD"/>
					<stop  offset="0.8347" style="stop-color:#006D8E"/>
					<stop  offset="1" style="stop-color:#00607E"/>
				</radialGradient>
				<use xlink:href="#SVGID_31_"  overflow="visible" fill="url(#SVGID_32_)"/>
				<clipPath id="SVGID_33_">
					<use xlink:href="#SVGID_31_"  overflow="visible"/>
				</clipPath>
			</g>
		</g>
		<path fill="#009FDA" d="M275.313,61.582c0-1.663,1.378-3,3.104-3c1.714,0,3.09,1.337,3.09,3s-1.376,3.001-3.09,3.001
			C276.69,64.583,275.313,63.245,275.313,61.582 M275.771,61.582c0,1.405,1.129,2.555,2.646,2.555c1.504,0,2.632-1.15,2.632-2.555
			c0-1.42-1.113-2.555-2.632-2.555C276.886,59.027,275.771,60.162,275.771,61.582 M279.183,62.961
			c-0.07-0.229-0.084-0.648-0.084-0.744c0-0.204-0.027-0.419-0.417-0.419h-0.849v1.164h-0.501v-2.812h1.35
			c0.459,0,0.974,0.148,0.974,0.785c0,0.351-0.152,0.514-0.321,0.635c0.14,0.068,0.252,0.189,0.266,0.5l0.015,0.487
			c0.012,0.147,0.028,0.176,0.139,0.241v0.164H279.183 M277.833,61.365h0.807c0.265,0,0.501-0.067,0.501-0.404
			c0-0.353-0.25-0.379-0.431-0.379h-0.877V61.365"/>
	</g>
</g>
</svg>
