<?xml version="1.0" encoding="utf-8"?>
<!-- Generator: Adobe Illustrator 15.1.0, SVG Export Plug-In . SVG Version: 6.00 Build 0)  -->
<!DOCTYPE svg PUBLIC "-//W3C//DTD SVG 1.1//EN" "http://www.w3.org/Graphics/SVG/1.1/DTD/svg11.dtd">
<svg version="1.1" id="Layer_1" xmlns="http://www.w3.org/2000/svg" xmlns:xlink="http://www.w3.org/1999/xlink" x="0px" y="0px"
	 width="577px" height="65px" viewBox="0 0 577 65" enable-background="new 0 0 577 65" xml:space="preserve">
<g>
	<g id="Giropay_logo">
		<path fill="#222261" d="M563.04,0.6H436.078c-6.054,0-10.961,4.907-10.961,10.962v42.077c0,6.056,4.907,10.961,10.961,10.961
			H563.04c6.053,0,10.96-4.905,10.96-10.961V11.562C574,5.507,569.093,0.6,563.04,0.6z M503.038,59.667h-66.96
			c-3.323,0-6.028-2.705-6.028-6.028V11.562c0-3.324,2.705-6.029,6.028-6.029h66.96V59.667z"/>
		<g id="pay">
			<path fill="#FFFFFF" d="M507.653,46.928V24.453h5.112v2.668c0.831-1.041,1.98-1.938,2.674-2.307c0.937-0.494,2.164-0.74,3.3-0.74
				c2.238,0,3.971,0.857,5.194,2.569c1.226,1.713,1.838,3.059,1.838,5.581c0,2.786-0.67,4.719-2.003,6.184
				c-1.335,1.465-3.022,2.394-5.062,2.394c-0.987,0-1.891,0.025-2.704-0.313c-0.814-0.333-2.123-1.414-2.764-2.076v8.517H507.653z
				 M513.191,32.873c0,1.323,0.858,2.307,1.415,2.947c0.559,0.641,1.647,0.768,2.5,0.768c0.747,0,1.566-0.5,2.071-1.114
				c0.503-0.616,0.755-1.271,0.755-2.744c0-1.354-0.264-2.737-0.788-3.373c-0.526-0.636-1.556-0.954-2.311-0.954
				c-0.819,0-2.083,0.514-2.63,1.155S513.191,31.432,513.191,32.873z"/>
			<path fill="#FFFFFF" d="M530.318,29.011v-3.819c0,0,1.514-0.885,3.83-1.029c1.92-0.117,4.447-0.069,5.69,0.313
				c1.134,0.347,2.354,1.07,3.128,2.022c0.456,0.561,1.302,2.094,1.302,3.74v7.394v2.867h-4.91l0.032-2.515
				c0,0-1.521,1.853-2.354,2.191c-1.136,0.462-2.041,0.612-3.544,0.612c-1.999,0-2.752-0.364-3.787-1.288s-1.467-1.933-1.467-3.29
				c0-1.271,0.123-2.562,0.871-3.381c0.746-0.819,1.748-1.742,3.754-2.142c2.407-0.483,4.287-0.161,6.203-0.161
				c0-0.788-0.434-1.681-0.74-2.013c-0.549-0.597-1.793-0.718-2.613-0.756C534.058,27.674,531.896,27.996,530.318,29.011z
				 M539.041,33.346c0,0-1.809-0.013-3.01-0.013s-1.824,0.458-2.384,1.047c-0.342,0.363-0.391,0.993-0.267,1.587
				c0.136,0.654,0.97,1.186,2.105,1.186c0.714,0,1.014,0.079,1.627-0.268c0.616-0.348,1.878-1.531,1.878-2.332L539.041,33.346z"/>
			<path fill="#FFFFFF" d="M546.008,24.453h5.997l3.455,10.76l3.209-10.76h5.549l-7.03,17.89c-0.757,2.041-2.618,4.892-5.906,4.905
				c-1.593,0.009-2.206,0.076-4.141-0.176l0.177-4.189c0,0,1.348,0.257,2.482,0.257c0.755,0,2.208-0.757,2.655-2.141L546.008,24.453
				z"/>
		</g>
		<g id="giro">
			<path fill="#ED2224" d="M450.437,24.432h5.042l0.016,15.395c0,1.049-0.224,2.631-0.67,3.583c-0.447,0.949-1.026,1.738-1.782,2.31
				c-1.338,1.016-3.539,1.672-5.773,1.672c-3.365,0-5.064-0.102-7.505-1.143c0,0,0.173-4.041,0.193-4.397
				c0,0,2.369,1.233,3.771,1.328c0.924,0.065,3.456,0.387,4.496-0.387c0.915-0.68,2.144-1.618,2.144-3.648v-1.445
				c-0.63,0.746-1.648,1.674-2.278,2.009c-0.989,0.527-2.056,0.789-3.201,0.789c-2.238,0-4.24-0.978-5.617-2.933
				c-0.977-1.386-1.466-3.608-1.466-5.889c0-2.606,0.824-4.207,2.085-5.573c1.262-1.366,2.912-2.05,4.949-2.05
				c1.305,0,2.379,0.221,3.227,0.662c0.846,0.441,1.637,1.365,2.371,2.385V24.432z M443.486,32.475c0,1.208,0.499,2.22,1.015,2.803
				c0.515,0.583,1.308,0.989,2.148,0.989c0.801,0,1.832-0.261,2.373-0.866c0.542-0.604,1.254-1.307,1.198-3.123
				c-0.036-1.217-0.476-2.346-1.045-2.992c-0.566-0.646-1.647-0.969-2.467-0.969s-1.86,0.49-2.351,1.083
				C443.871,29.995,443.486,31.098,443.486,32.475z"/>
			<path fill="#ED2224" d="M459.334,17.676h5.642v4.173h-5.642V17.676z M459.334,24.432h5.642v16.165h-5.642V24.432z"/>
			<path fill="#ED2224" d="M468.684,24.432h5.041v2.937c0.505-1.08,1.322-2.004,1.938-2.451c0.615-0.446,1.819-0.864,2.723-0.864
				c0.203,0,1.241,0.011,1.981,0.091l-0.145,4.594c-1.146-0.275-2.776-0.04-3.191,0.112c-1.095,0.403-1.604,0.92-2.067,1.614
				c-0.661,0.977-0.799,2.034-0.799,4.713v5.42h-5.482L468.684,24.432L468.684,24.432z"/>
			<path fill="#ED2224" d="M480.685,32.465c0-2.555,0.668-4.273,2.393-5.93c1.723-1.655,3.859-2.483,6.792-2.483
				c3.352,0,5.5,0.779,7.212,2.724c1.376,1.567,2.258,3.302,2.258,5.593c0,2.573-0.853,4.491-2.563,6.138
				c-1.707,1.644-3.875,2.271-6.893,2.271c-2.69,0-4.673-0.684-6.334-2.05C481.511,37.039,480.685,35.207,480.685,32.465z
				 M486.344,32.448c0,1.492,0.303,2.596,0.906,3.312c0.604,0.714,1.75,1.266,2.665,1.266c0.924,0,2.071-0.354,2.666-1.057
				c0.593-0.704,1.083-2.028,1.083-3.582c0-1.451-0.493-2.725-1.092-3.434c-0.598-0.708-1.728-1.063-2.608-1.063
				c-0.938,0-1.902,0.36-2.512,1.08C486.839,29.688,486.344,30.978,486.344,32.448z"/>
		</g>
	</g>
	<g id="Paypal_logo">
		<path fill="#1D3764" d="M322.032,56.404c0,0.529-0.431,0.957-0.961,0.957h-53.634V38.29h53.6c0.564,0,0.995,0.424,0.995,0.952
			V56.404z"/>
		<g id="layer1" transform="translate(-428.71429,-460.51587)">
			<g id="g2993" transform="matrix(1.3703704,0,0,-1.3703704,430.71429,538.48235)">
				<g id="g2995" transform="translate(165.274,21.91)">
					<path id="path2997" fill="#34679A" d="M88.902,18.236c-0.234-0.147-0.484-0.277-0.743-0.384
						c-0.348-0.138-0.681-0.212-0.988-0.212c-0.472,0-0.835,0.066-1.077,0.207c-0.245,0.133-0.376,0.371-0.373,0.707
						c0,0.385,0.09,0.685,0.279,0.923c0.182,0.226,0.462,0.405,0.807,0.543c0.345,0.117,0.765,0.213,1.251,0.279
						c0.43,0.055,1.283,0.155,1.394,0.155c0.11,0,0.182,0.062,0.133-0.23c-0.023-0.125-0.264-1.139-0.378-1.597
						C89.171,18.487,88.987,18.288,88.902,18.236z M92.256,25.335c-0.718,0.398-1.844,0.601-3.384,0.601
						c-0.765,0-1.529-0.06-2.295-0.181c-0.566-0.086-0.621-0.098-0.971-0.176c-0.725-0.155-0.836-0.874-0.836-0.874l-0.228-0.949
						c-0.131-0.608,0.213-0.584,0.368-0.536c0.316,0.097,0.486,0.192,1.127,0.334c0.611,0.141,1.263,0.243,1.779,0.238
						c0.759,0,1.335-0.082,1.721-0.243c0.381-0.164,0.573-0.448,0.573-0.856c0.004-0.098,0.004-0.186-0.031-0.269
						c-0.031-0.072-0.093-0.144-0.274-0.169c-1.083-0.064-1.859-0.165-2.796-0.3c-0.924-0.13-1.733-0.353-2.407-0.66
						c-0.717-0.316-1.258-0.743-1.629-1.285c-0.363-0.541-0.546-1.197-0.546-1.971c0-0.732,0.265-1.328,0.772-1.791
						c0.519-0.457,1.192-0.683,2.002-0.683c0.506,0.005,0.904,0.039,1.187,0.111c0.281,0.071,0.589,0.17,0.916,0.312
						c0.243,0.099,0.505,0.244,0.777,0.427c0.279,0.186,0.469,0.317,0.716,0.479l0.01-0.02l-0.069-0.303
						c-0.001-0.004-0.006-0.006-0.006-0.008l0.002-0.002c-0.08-0.37,0.141-0.673,0.506-0.707l0.005-0.009h0.03l0.001-0.001
						c0.241,0,1.073,0,1.459,0.001h0.272c0.016,0,0.019,0.007,0.028,0.011c0.37,0.044,0.727,0.347,0.81,0.707l1.382,5.961
						c0.033,0.136,0.061,0.3,0.074,0.489c0.014,0.184,0.035,0.339,0.033,0.452C93.34,24.311,92.976,24.936,92.256,25.335"/>
				</g>
				<g id="g2999">
					<g>
						<g>
							<defs>
								<rect id="SVGID_1_" x="171.266" y="25.471" width="129.305" height="33.058"/>
							</defs>
							<clipPath id="SVGID_2_">
								<use xlink:href="#SVGID_1_"  overflow="visible"/>
							</clipPath>
							<g id="g3001" clip-path="url(#SVGID_2_)">
								<g id="g3007" transform="translate(101.082,45.728)">
									<path id="path3009" fill="#1D3764" d="M132.634,1.986c-0.408,0-0.939-0.326-1.193-0.722c0,0-2.717-4.645-2.982-5.109
										c-0.148-0.249-0.292-0.092-0.316,0.002c-0.02,0.114-0.843,5.074-0.843,5.074c-0.093,0.4-0.511,0.747-1.034,0.745
										l-1.695-0.004c-0.409,0-0.663-0.325-0.574-0.72c0,0,1.298-7.318,1.549-9.038c0.13-0.953-0.011-1.125-0.011-1.125
										l-1.678-2.916c-0.246-0.398-0.112-0.721,0.296-0.721l1.964,0.001c0.403,0,0.943,0.322,1.185,0.719l7.55,12.735
										c0,0,0.723,1.089,0.06,1.077C134.453,1.981,132.634,1.986,132.634,1.986"/>
								</g>
								<g id="g3011" transform="translate(39.137,49.474)">
									<path id="path3013" fill="#1D3764" d="M174.829-0.57c-0.235,0.462-0.587,0.835-1.038,1.113
										c-0.467,0.288-1.013,0.486-1.645,0.608c-0.639,0.11-1.382,0.168-2.239,0.177l-3.959-0.002
										c-0.408-0.006-0.814-0.329-0.904-0.724l-2.674-11.564c-0.088-0.395,0.168-0.722,0.577-0.722h1.898
										c0.409,0,0.818,0.315,0.906,0.722l0.656,2.808c0.086,0.39,0.493,0.714,0.902,0.714h0.539
										c2.32,0.003,4.118,0.478,5.413,1.424c1.288,0.944,1.934,2.198,1.93,3.744C175.195-1.59,175.076-1.022,174.829-0.57
										 M170.739-4.35c-0.572-0.415-1.365-0.621-2.394-0.621h-0.465c-0.408,0-0.669,0.322-0.579,0.72l0.57,2.451
										c0.088,0.395,0.497,0.721,0.905,0.719l0.62,0.002c0.728,0,1.279-0.121,1.651-0.368c0.364-0.238,0.551-0.616,0.544-1.125
										C171.604-3.334,171.313-3.93,170.739-4.35"/>
								</g>
							</g>
						</g>
					</g>
				</g>
				<g id="g3015" transform="translate(147.108,49.341)">
					<path id="path3017" fill="#34679A" d="M101.277-0.479c-0.234,0.459-0.591,0.829-1.04,1.118
						c-0.462,0.286-1.014,0.487-1.653,0.601c-0.626,0.11-1.373,0.176-2.229,0.177h-3.964c-0.41-0.009-0.812-0.331-0.901-0.724
						l-2.672-11.569c-0.093-0.392,0.172-0.718,0.574-0.718l1.9,0.001c0.403-0.001,0.818,0.325,0.91,0.717l0.644,2.808
						c0.091,0.393,0.502,0.722,0.911,0.715h0.539c2.322,0,4.125,0.479,5.413,1.424c1.283,0.951,1.931,2.199,1.931,3.749
						C101.634-1.499,101.52-0.928,101.277-0.479 M97.189-4.261c-0.572-0.413-1.368-0.619-2.393-0.619h-0.473
						c-0.405-0.004-0.668,0.325-0.574,0.718l0.57,2.457c0.086,0.386,0.499,0.716,0.901,0.713l0.621,0.003
						c0.73-0.003,1.272-0.123,1.649-0.362c0.368-0.246,0.548-0.625,0.55-1.128C98.043-3.247,97.759-3.841,97.189-4.261"/>
				</g>
				<g id="g3019" transform="translate(57.28,21.938)">
					<path id="path3021" fill="#1D3764" d="M162.473,18.216c-0.238-0.149-0.485-0.272-0.748-0.38
						c-0.349-0.142-0.681-0.216-0.986-0.216c-0.472,0-0.832,0.066-1.079,0.208c-0.244,0.136-0.373,0.367-0.369,0.704
						c0,0.389,0.091,0.688,0.274,0.921c0.19,0.228,0.464,0.413,0.811,0.55c0.341,0.112,0.763,0.207,1.249,0.276
						c0.43,0.057,1.287,0.152,1.397,0.154c0.107,0.001,0.182,0.06,0.134-0.229c-0.023-0.127-0.27-1.136-0.383-1.594
						C162.739,18.471,162.554,18.269,162.473,18.216z M165.826,25.315c-0.723,0.401-1.849,0.605-3.387,0.605
						c-0.761,0-1.529-0.06-2.297-0.181c-0.562-0.084-0.624-0.1-0.972-0.176c-0.72-0.157-0.83-0.874-0.83-0.874l-0.234-0.95
						c-0.13-0.609,0.215-0.583,0.371-0.535c0.315,0.093,0.486,0.186,1.126,0.336c0.617,0.133,1.263,0.241,1.783,0.236
						c0.758,0,1.333-0.081,1.717-0.241c0.387-0.171,0.574-0.455,0.574-0.857c0.003-0.099,0.006-0.191-0.03-0.268
						c-0.031-0.078-0.091-0.151-0.274-0.173c-1.082-0.066-1.859-0.162-2.798-0.299c-0.924-0.129-1.73-0.352-2.407-0.658
						c-0.719-0.321-1.259-0.744-1.628-1.286c-0.361-0.54-0.543-1.201-0.544-1.975c0-0.73,0.264-1.326,0.774-1.79
						c0.515-0.456,1.187-0.684,1.995-0.684c0.51,0.005,0.906,0.044,1.192,0.111c0.284,0.073,0.593,0.176,0.914,0.312
						c0.243,0.105,0.503,0.249,0.783,0.434c0.274,0.18,0.467,0.313,0.713,0.472l0.009-0.013l-0.07-0.303
						c0-0.004-0.006-0.006-0.006-0.01l0.005-0.006c-0.077-0.365,0.143-0.668,0.505-0.707l0.006-0.003h0.034l0.001-0.002
						c0.242,0,1.07,0.001,1.458,0.002h0.268c0.02,0,0.02,0.002,0.027,0.007c0.372,0.047,0.728,0.347,0.812,0.71l1.387,5.956
						c0.029,0.142,0.056,0.305,0.071,0.488c0.019,0.193,0.04,0.346,0.033,0.459C166.908,24.291,166.54,24.913,165.826,25.315"/>
				</g>
				<g id="g3023" transform="translate(196.3,54.997)">
					<path id="path3025" fill="#34679A" d="M67.77-4.335h-1.699c-0.001,0-0.001,0-0.001,0l0,0c-0.389,0-0.783-0.299-0.891-0.677
						c-0.006-0.014-0.014-0.026-0.016-0.045c0,0-0.043-0.181-0.108-0.502l-2.332-10.527c-0.053-0.238-0.091-0.393-0.1-0.436
						l0.002-0.002c-0.081-0.372,0.143-0.676,0.507-0.707l0.001-0.009h1.765c0.383,0,0.775,0.296,0.887,0.668
						c0.007,0.016,0.018,0.032,0.021,0.05l2.541,11.465l-0.001,0.002C68.428-4.659,68.173-4.335,67.77-4.335"/>
				</g>
				<g id="g3027" transform="translate(206.375,47.652)">
					<path id="path3029" fill="#34679A" d="M60.905,0.676c-0.056-0.018-0.118-0.027-0.188-0.04c-0.071-0.006-0.13-0.013-0.187-0.013
						c-0.187,0-0.331,0.053-0.427,0.151c-0.101,0.1-0.151,0.263-0.151,0.485v0.98h-0.207v0.259h0.207v0.529h0.311V2.498h0.642V2.239
						h-0.642V1.401c0-0.098,0.004-0.173,0.009-0.227c0.006-0.056,0.02-0.104,0.047-0.151c0.024-0.045,0.055-0.079,0.098-0.099
						c0.043-0.021,0.106-0.027,0.195-0.027c0.05,0,0.106,0.004,0.16,0.022c0.056,0.013,0.095,0.022,0.119,0.035h0.016V0.676"/>
				</g>
				<g id="g3031" transform="translate(216,47.601)">
					<path id="path3033" fill="#34679A" d="M54.346,0.708h-0.31v1.05c0,0.077-0.002,0.156-0.009,0.228
						c-0.009,0.073-0.022,0.133-0.045,0.177c-0.026,0.045-0.06,0.085-0.109,0.109c-0.048,0.024-0.115,0.035-0.205,0.035
						c-0.087,0-0.175-0.022-0.262-0.065c-0.088-0.043-0.173-0.1-0.26-0.167c0.004-0.022,0.004-0.053,0.004-0.088
						c0.004-0.032,0.004-0.066,0.004-0.099v-1.18h-0.309v1.05c0,0.079-0.005,0.159-0.009,0.228
						c-0.009,0.076-0.024,0.133-0.047,0.177c-0.026,0.047-0.061,0.086-0.108,0.11c-0.048,0.022-0.116,0.033-0.206,0.033
						c-0.085,0-0.167-0.021-0.254-0.062c-0.088-0.041-0.174-0.097-0.258-0.161V0.708h-0.309v1.841h0.311V2.344
						c0.1,0.084,0.193,0.145,0.291,0.191c0.1,0.046,0.2,0.068,0.309,0.068c0.123,0,0.232-0.027,0.321-0.082
						c0.088-0.05,0.153-0.124,0.197-0.219c0.122,0.104,0.237,0.183,0.339,0.23c0.105,0.047,0.215,0.071,0.333,0.071
						c0.203,0,0.353-0.064,0.449-0.185c0.096-0.122,0.143-0.296,0.143-0.514L54.346,0.708"/>
				</g>
			</g>
		</g>
		<path fill="#34679A" d="M364.51,56.54c0,0.522-0.431,0.95-0.965,0.95h-36.529c-0.528,0-0.959-0.428-0.959-0.95V39.377
			c0-0.529,0.431-0.958,0.959-0.958h36.529c0.534,0,0.965,0.429,0.965,0.958V56.54z"/>
		<rect x="267.65" y="1.583" fill="none" stroke="#727074" stroke-width="2" stroke-miterlimit="10" width="116.037" height="62"/>
	</g>
	<g id="Mastercard_logo">
		<path fill="#FCB131" d="M58.341,56.288c5.692,5.163,13.339,8.295,21.655,8.295c17.859,0,32.316-14.338,32.316-31.973
			c0-17.689-14.457-32.027-32.316-32.027c-8.316,0-15.963,3.131-21.655,8.295c-6.53,5.877-10.662,14.338-10.662,23.731
			S51.811,50.465,58.341,56.288L58.341,56.288z"/>
		<path fill="#FCB131" d="M108.014,50.409c0-0.55,0.446-0.989,1.004-0.989c0.615,0,1.062,0.439,1.062,0.989
			c0,0.604-0.446,1.044-1.062,1.044C108.46,51.453,108.014,51.014,108.014,50.409L108.014,50.409z M109.018,51.234
			c0.447,0,0.838-0.385,0.838-0.825s-0.391-0.769-0.838-0.769c-0.389,0-0.781,0.328-0.781,0.769
			C108.236,50.85,108.629,51.234,109.018,51.234L109.018,51.234z M108.907,50.904h-0.224v-0.936h0.391c0.057,0,0.166,0,0.224,0.057
			c0.112,0.054,0.112,0.108,0.112,0.219c0,0.109-0.056,0.22-0.17,0.22l0.225,0.438h-0.278l-0.112-0.385h-0.167L108.907,50.904
			l0.001-0.549h0.11c0.057,0,0.113,0,0.113,0c0.056,0,0.056-0.056,0.056-0.11c0-0.056,0-0.056-0.056-0.11c0,0-0.057,0-0.113,0h-0.11
			v0.221L108.907,50.904L108.907,50.904z"/>
		<path fill="#ED1C2E" d="M68.778,29.204c-0.112-1.153-0.336-2.252-0.56-3.405H48.461c0.223-1.154,0.557-2.252,0.893-3.351h17.917
			c-0.391-1.153-0.838-2.308-1.341-3.406H50.75c0.558-1.153,1.171-2.307,1.841-3.406h11.441c-0.726-1.153-1.563-2.308-2.455-3.352
			h-6.53c1.004-1.208,2.121-2.362,3.293-3.405C52.591,3.77,45,0.584,36.629,0.584c-17.805,0-32.317,14.338-32.317,32.027
			c0,17.635,14.512,31.973,32.317,31.973c8.371,0,15.962-3.132,21.711-8.295l0,0l0,0c1.172-1.045,2.232-2.143,3.237-3.352h-6.53
			c-0.894-1.099-1.675-2.197-2.456-3.405h11.441c0.727-1.099,1.34-2.198,1.897-3.406h-15.18c-0.504-1.099-1.006-2.196-1.396-3.351
			H67.27c0.39-1.1,0.668-2.252,0.947-3.406c0.224-1.1,0.447-2.253,0.56-3.406c0.111-1.098,0.166-2.197,0.166-3.351
			S68.89,30.303,68.778,29.204L68.778,29.204z"/>
		<path fill="#FFFFFF" d="M108.014,40.025c0-0.604,0.446-1.043,1.004-1.043c0.615,0,1.062,0.439,1.062,1.043
			c0,0.551-0.446,1.045-1.062,1.045C108.46,41.07,108.014,40.576,108.014,40.025L108.014,40.025z M109.018,40.795
			c0.447,0,0.838-0.329,0.838-0.77c0-0.438-0.391-0.769-0.838-0.769c-0.389,0-0.781,0.33-0.781,0.769
			C108.236,40.466,108.629,40.795,109.018,40.795L109.018,40.795z M108.907,40.466h-0.224v-0.879h0.391c0.057,0,0.166,0,0.224,0
			c0.112,0.056,0.112,0.165,0.112,0.274c0,0.055-0.056,0.164-0.17,0.221l0.225,0.384h-0.278l-0.112-0.33h-0.167L108.907,40.466
			l0.001-0.495h0.11c0.057,0,0.113,0,0.113-0.055c0.056,0,0.056-0.055,0.056-0.109c0,0,0-0.056-0.056-0.056c0-0.056-0.057,0-0.113,0
			h-0.11v0.22L108.907,40.466L108.907,40.466z"/>
		<path fill="#003473" d="M47.344,41.84c-1.059,0.273-1.841,0.439-2.622,0.439c-1.675,0-2.68-1.045-2.68-2.912
			c0-0.385,0.057-0.77,0.112-1.208l0.224-1.265l0.167-1.043l1.506-9.01h3.35l-0.392,1.978h2.123l-0.504,3.296h-2.12l-0.893,5.383
			c-0.056,0.276-0.056,0.44-0.056,0.55c0,0.715,0.335,0.988,1.172,0.988c0.39,0,0.725-0.055,1.06-0.109L47.344,41.84L47.344,41.84z"
			/>
		<path fill="#003473" d="M58.174,41.73c-1.229,0.328-2.345,0.492-3.573,0.492c-3.796,0-5.973-1.977-5.973-5.877
			c0-4.56,2.569-7.855,6.141-7.855c2.846,0,4.688,1.868,4.688,4.779c0,0.988-0.111,1.924-0.391,3.241h-6.978
			c-0.056,0.22-0.056,0.33-0.056,0.439c0,1.539,1.061,2.308,3.071,2.308c1.285,0,2.4-0.273,3.628-0.822L58.174,41.73L58.174,41.73z
			 M56.107,33.873c0-0.273,0-0.494,0-0.658c0-1.099-0.613-1.703-1.674-1.703c-1.116,0-1.897,0.824-2.232,2.361H56.107L56.107,33.873
			z"/>
		<polygon fill="#003473" points="20.554,42.003 17.094,42.003 19.103,29.534 14.583,42.003 12.183,42.003 11.903,29.589 
			9.783,42.003 6.378,42.003 9.114,25.798 14.192,25.798 14.304,35.796 17.708,25.798 23.29,25.798 		"/>
		<path fill="#003473" d="M28.983,36.125c-0.335-0.055-0.447-0.055-0.67-0.055c-2.01,0-3.014,0.77-3.014,1.978
			c0,0.824,0.501,1.374,1.283,1.374C28.257,39.422,28.927,38.049,28.983,36.125L28.983,36.125z M31.773,42.003h-3.014l0.057-1.373
			c-0.782,1.043-1.842,1.593-3.684,1.593c-1.674,0-3.125-1.482-3.125-3.625c0-0.604,0.112-1.154,0.278-1.705
			c0.559-2.031,2.624-3.295,5.805-3.35c0.391,0,1.005,0,1.564,0.055c0.111-0.44,0.111-0.604,0.111-0.88
			c0-0.878-0.726-1.153-2.345-1.153c-1.004,0-2.12,0.165-2.902,0.439l-0.502,0.11l-0.223,0.055l0.502-2.967
			c1.619-0.494,2.791-0.714,4.074-0.714c3.014,0,4.633,1.374,4.633,3.9c0,0.659,0.055,1.155-0.168,2.583l-0.781,4.725l-0.111,0.824
			l-0.056,0.66l-0.056,0.438L31.773,42.003L31.773,42.003z"/>
		<path fill="#003473" d="M75.029,28.93c1.005,0,1.896,0.274,3.125,0.879l0.613-3.516c-0.335-0.166-0.445-0.166-0.894-0.33
			l-1.395-0.385c-0.445-0.109-1.005-0.164-1.618-0.164c-1.73,0-2.734,0.055-3.795,0.659c-0.559,0.384-1.284,0.878-2.064,1.757
			l-0.446-0.109l-3.574,2.473l0.168-1.374h-3.683l-2.177,13.184h3.516l1.283-7.086c0,0,0.503-0.988,0.726-1.318
			c0.67-0.823,1.228-0.823,1.953-0.823c0.113,0,0.224,0,0.28,0c-0.112,0.77-0.167,1.592-0.167,2.528c0,4.284,2.455,6.977,6.25,6.977
			c0.949,0,1.786-0.11,3.07-0.439l0.613-3.734c-1.115,0.604-2.121,0.879-2.957,0.879c-2.066,0-3.294-1.539-3.294-3.957
			C70.564,31.456,72.405,28.93,75.029,28.93L75.029,28.93z"/>
		<path fill="#003473" d="M104.665,25.798l-0.78,4.614c-0.838-1.263-1.843-1.868-3.182-1.868c-1.842,0-3.572,1.045-4.634,3.022
			v-0.055l-2.231-1.318l0.223-1.374h-3.738l-2.121,13.184h3.46l1.172-7.086c0,0,0.894-0.989,1.117-1.317
			c0.559-0.661,1.115-0.77,1.563-0.824c-0.393,1.098-0.615,2.417-0.615,3.899c0,3.298,1.73,5.495,4.299,5.495
			c1.283,0,2.289-0.439,3.237-1.484l-0.169,1.318h3.293l2.679-16.205L104.665,25.798L104.665,25.798z M100.367,38.873
			c-1.171,0-1.785-0.878-1.785-2.582c0-2.583,1.116-4.45,2.734-4.45c1.229,0,1.842,0.934,1.842,2.582
			C103.158,37.061,102.042,38.873,100.367,38.873L100.367,38.873z"/>
		<path fill="#003473" d="M84.238,36.125c-0.336-0.055-0.447-0.055-0.67-0.055c-2.009,0-3.016,0.77-3.016,1.978
			c0,0.824,0.503,1.374,1.285,1.374C83.512,39.422,84.182,38.049,84.238,36.125L84.238,36.125z M87.028,42.003h-3.069l0.111-1.373
			c-0.781,1.043-1.842,1.593-3.684,1.593c-1.731,0-3.238-1.429-3.238-3.625c0-3.133,2.4-5.054,6.196-5.054
			c0.392,0,1.005,0,1.506,0.054c0.112-0.439,0.169-0.604,0.169-0.879c0-0.878-0.726-1.153-2.4-1.153
			c-0.949,0-2.121,0.165-2.902,0.439l-0.446,0.11l-0.223,0.055l0.501-2.967c1.619-0.494,2.793-0.714,4.074-0.714
			c3.015,0,4.578,1.374,4.578,3.9c0,0.659,0.11,1.155-0.168,2.583l-0.727,4.723l-0.111,0.826l-0.111,0.658l-0.056,0.439V42.003
			L87.028,42.003z"/>
		<path fill="#003473" d="M39.085,31.621c0.669,0,1.619,0.056,2.623,0.22l0.502-3.077c-1.005-0.11-2.344-0.274-3.125-0.274
			c-3.906,0-5.191,2.087-5.191,4.505c0,1.593,0.727,2.747,2.625,3.625c1.394,0.66,1.618,0.769,1.618,1.375
			c0,0.823-0.725,1.317-2.065,1.317c-1.061,0-2.065-0.164-3.182-0.549l-0.39,3.021l0.055,0.056l0.669,0.11
			c0.224,0.054,0.504,0.108,0.894,0.164c0.837,0.056,1.563,0.11,2.01,0.11c3.907,0,5.525-1.482,5.525-4.396
			c0-1.813-0.894-2.912-2.624-3.681c-1.506-0.66-1.674-0.77-1.674-1.374C37.355,32.17,38.024,31.621,39.085,31.621L39.085,31.621z"
			/>
		<path fill="#FFFFFF" d="M79.717,25.249l-0.613,3.516c-1.229-0.604-2.122-0.878-3.127-0.878c-2.622,0-4.464,2.527-4.464,6.097
			c0,2.472,1.228,3.955,3.293,3.955c0.837,0,1.841-0.273,2.958-0.824l-0.615,3.681c-1.282,0.33-2.119,0.495-3.068,0.495
			c-3.796,0-6.141-2.691-6.141-7.032c0-5.768,3.238-9.833,7.871-9.833c0.613,0,1.171,0.056,1.618,0.165l1.396,0.329
			C79.271,25.084,79.381,25.139,79.717,25.249L79.717,25.249z"/>
		<path fill="#FFFFFF" d="M68.442,27.666c-0.11,0-0.224,0-0.335,0c-1.172,0-1.843,0.55-2.901,2.143l0.335-2.032h-3.182
			l-2.178,13.185h3.517c1.283-8.076,1.619-9.449,3.293-9.449c0.112,0,0.112,0,0.223,0c0.336-1.593,0.781-2.748,1.342-3.791
			L68.442,27.666L68.442,27.666z"/>
		<path fill="#FFFFFF" d="M48.237,40.795c-0.948,0.33-1.729,0.439-2.51,0.439c-1.786,0-2.792-0.988-2.792-2.91
			c0-0.33,0.056-0.771,0.112-1.155l0.224-1.317l0.167-1.045l1.507-9.009h3.459l-0.391,1.978h1.785l-0.445,3.241h-1.787l-0.947,5.494
			c-0.057,0.22-0.057,0.384-0.057,0.55c0,0.658,0.334,0.935,1.173,0.935c0.389,0,0.725,0,0.948-0.11L48.237,40.795L48.237,40.795z"
			/>
		<path fill="#FFFFFF" d="M34.787,31.951c0,1.646,0.782,2.801,2.625,3.681c1.451,0.659,1.674,0.879,1.674,1.429
			c0,0.823-0.615,1.207-2.009,1.207c-1.061,0-2.009-0.164-3.126-0.492l-0.503,3.02l0.168,0.057l0.614,0.109
			c0.222,0.055,0.502,0.109,0.949,0.109c0.781,0.109,1.451,0.109,1.897,0.109c3.683,0,5.413-1.373,5.413-4.394
			c0-1.813-0.725-2.858-2.455-3.681c-1.507-0.661-1.676-0.825-1.676-1.43c0-0.714,0.615-1.044,1.73-1.044
			c0.67,0,1.619,0.055,2.512,0.165l0.502-3.021c-0.893-0.166-2.288-0.275-3.068-0.275C36.127,27.501,34.732,29.534,34.787,31.951
			L34.787,31.951z"/>
		<path fill="#FFFFFF" d="M106.451,40.961h-3.293l0.168-1.266c-0.948,0.99-1.954,1.43-3.237,1.43c-2.567,0-4.242-2.143-4.242-5.439
			c0-4.394,2.623-8.128,5.694-8.128c1.395,0,2.398,0.604,3.348,1.813l0.781-4.615h3.461L106.451,40.961L106.451,40.961z
			 M101.316,37.884c1.619,0,2.734-1.868,2.734-4.45c0-1.703-0.612-2.582-1.842-2.582c-1.562,0-2.735,1.813-2.735,4.395
			C99.474,37.006,100.089,37.884,101.316,37.884L101.316,37.884z"/>
		<path fill="#FFFFFF" d="M58.954,40.686c-1.227,0.385-2.343,0.549-3.627,0.549c-3.908,0-5.916-2.031-5.916-5.933
			c0-4.505,2.566-7.856,6.083-7.856c2.902,0,4.744,1.868,4.744,4.779c0,0.99-0.111,1.923-0.446,3.296h-6.921
			c-0.057,0.164-0.057,0.274-0.057,0.385c0,1.539,1.061,2.309,3.07,2.309c1.284,0,2.401-0.22,3.628-0.826L58.954,40.686
			L58.954,40.686z M57.001,32.83c0-0.274,0-0.494,0-0.659c0-1.098-0.613-1.703-1.674-1.703c-1.117,0-1.898,0.824-2.233,2.362H57.001
			L57.001,32.83z"/>
		<polygon fill="#FFFFFF" points="21.447,40.961 17.987,40.961 19.996,28.49 15.476,40.961 13.075,40.961 12.796,28.6 
			10.675,40.961 7.439,40.961 10.173,24.754 15.196,24.754 15.364,34.807 18.713,24.754 24.183,24.754 		"/>
		<path fill="#FFFFFF" d="M30.099,35.082c-0.334,0-0.502-0.055-0.781-0.055c-1.953,0-2.958,0.715-2.958,2.033
			c0,0.823,0.446,1.317,1.227,1.317C29.038,38.378,30.043,37.061,30.099,35.082L30.099,35.082z M32.666,40.961h-2.902l0.055-1.374
			c-0.893,1.099-2.064,1.593-3.684,1.593c-1.896,0-3.181-1.428-3.181-3.57c0-3.242,2.232-5.109,6.14-5.109
			c0.389,0,0.893,0.055,1.451,0.11c0.111-0.439,0.111-0.604,0.111-0.824c0-0.879-0.614-1.209-2.232-1.209
			c-1.005,0-2.121,0.11-2.901,0.33l-0.502,0.165l-0.336,0.055l0.503-2.967c1.73-0.494,2.902-0.659,4.186-0.659
			c3.014,0,4.632,1.318,4.632,3.846c0,0.659-0.055,1.153-0.278,2.637l-0.782,4.67l-0.112,0.822l-0.056,0.66l-0.055,0.495
			L32.666,40.961L32.666,40.961z"/>
		<path fill="#FFFFFF" d="M85.354,35.082c-0.391,0-0.559-0.055-0.781-0.055c-2.009,0-3.013,0.715-3.013,2.033
			c0,0.823,0.501,1.317,1.282,1.317C84.238,38.378,85.298,37.061,85.354,35.082L85.354,35.082z M87.921,40.961H85.02l0.057-1.374
			c-0.895,1.099-2.066,1.593-3.685,1.593c-1.897,0-3.182-1.428-3.182-3.57c0-3.242,2.233-5.109,6.14-5.109
			c0.391,0,0.893,0.055,1.395,0.11c0.113-0.439,0.168-0.604,0.168-0.824c0-0.879-0.614-1.209-2.232-1.209
			c-1.005,0-2.177,0.11-2.958,0.33l-0.446,0.165l-0.334,0.055l0.502-2.967c1.729-0.494,2.901-0.659,4.185-0.659
			c3.015,0,4.577,1.318,4.577,3.846c0,0.659,0,1.153-0.279,2.637l-0.725,4.67l-0.113,0.822l-0.11,0.66l-0.057,0.495v0.329H87.921z"
			/>
		<path fill="#FFFFFF" d="M97.298,27.666c-0.111,0-0.225,0-0.335,0c-1.172,0-1.843,0.55-2.902,2.143l0.335-2.032h-3.181
			l-2.122,13.185h3.461c1.284-8.076,1.618-9.449,3.293-9.449c0.111,0,0.111,0,0.223,0c0.336-1.593,0.781-2.748,1.34-3.791
			L97.298,27.666L97.298,27.666z"/>
	</g>
	<g id="American_Express_logo">
		<rect x="153.691" y="0.583" fill="#FFFFFF" width="67.244" height="63.864"/>
		
			<radialGradient id="SVGID_3_" cx="-37.543" cy="309.6631" r="79.8155" gradientTransform="matrix(1.0151 0 0 -0.9855 201.0146 314.7295)" gradientUnits="userSpaceOnUse">
			<stop  offset="0" style="stop-color:#00B8E9"/>
			<stop  offset="0.427" style="stop-color:#009ACA"/>
			<stop  offset="0.5077" style="stop-color:#0090BD"/>
			<stop  offset="0.8347" style="stop-color:#006D8E"/>
			<stop  offset="1" style="stop-color:#00607E"/>
		</radialGradient>
		<path fill="url(#SVGID_3_)" d="M218.502,47.82c0,0-0.13-0.006-0.252-0.012l-5.265,0.002V47.46c-0.6,0.24-1.237,0.36-1.849,0.36
			c0,0-0.129-0.006-0.253-0.012h-3.117v0.016h-7.545v0.013h-5.127v-1.501c0,0,0.008-1.068,0.009-1.27c-0.046,0-0.216,0-0.339,0
			c0,0.629,0,2.771,0,2.771h-5.184v-3.002c-0.854,0.334-1.827,0.421-2.754,0.421c0,0-0.316,0-0.501,0c0,0.518,0,2.568,0,2.568
			h-6.116c0,0-0.996-1.066-1.531-1.639c-0.541,0.574-1.544,1.639-1.544,1.639h-9.996V36.82h9.83c0,0,1.09,1.156,1.721,1.824
			c0.631-0.664,1.726-1.813,1.726-1.813h0.675l1.603-0.012h5.015c0.292-0.02,1.057-0.024,1.876,0.274v-0.249h6.557
			c0.321-0.022,1.157-0.037,2.021,0.312v-0.312h8.063h1.546v0.315c0.907-0.354,1.743-0.333,1.871-0.325l5.469-0.004v0.34
			c0.917-0.367,1.768-0.344,1.896-0.336l3.934-0.003V0.583h-67.243v28.021l2.301-5.301h4.992c0,0,0.576,1.329,0.6,1.384
			c0-0.199,0-1.384,0-1.384h5.846c0,0,0.876,1.89,1.293,2.791c0.414-0.899,1.284-2.791,1.284-2.791h3.914h0.39h1.548h5.663h0.459
			h1.548h4.546c0.32-0.022,1.157-0.039,2.023,0.312v-0.312h3.647h1.547v0.664c0.762-0.459,1.631-0.694,2.506-0.731
			c0,0,2.787,0.073,2.896,0.076l0.004-0.009h4.979c0,0,0.541,1.253,0.559,1.289c0-0.314,0-1.289,0-1.289h5.37
			c0,0,0.77,1.23,0.854,1.369c0-0.219,0-1.369,0-1.369h5.196v10.99h-5.305c0,0-0.79-1.271-0.892-1.437c0,0.118,0,1.437,0,1.437
			h-6.661c0,0-0.569-1.296-0.736-1.675c-0.693,0-1.069,0-1.768,0c-0.16,0.373-0.723,1.675-0.723,1.675h-4.41l-0.111-0.016
			c-0.489-0.066-1.127-0.285-1.756-0.67v0.713h-3.646c0,0,0-0.023,0-0.027h-4.61v-1.502c0,0,0.008-1.066,0.009-1.268
			c-0.046,0-0.216,0-0.339,0c0,0.63,0,2.77,0,2.77h-3.177h-2.007h-5.663h-0.39h-4.82c0,0,0-0.134,0-0.168
			c-0.025,0.053-0.082,0.168-0.082,0.168h-3.689c0,0-0.062-0.131-0.095-0.205c0,0.048,0,0.205,0,0.205h-6.698
			c0,0-0.563-1.302-0.725-1.675c-0.695,0-1.072,0-1.765,0c-0.166,0.378-0.738,1.675-0.738,1.675h-3.166v30.154h67.245V47.172
			C220.189,47.617,219.32,47.82,218.502,47.82z"/>
		<g>
			<g>
				<g>
					
						<radialGradient id="SVGID_5_" cx="154.9199" cy="27.2061" r="79.8157" gradientTransform="matrix(1.0151 0 0 -0.9855 5.6718 36.3701)" gradientUnits="userSpaceOnUse">
						<stop  offset="0" style="stop-color:#00B8E9"/>
						<stop  offset="0.427" style="stop-color:#009ACA"/>
						<stop  offset="0.5077" style="stop-color:#0090BD"/>
						<stop  offset="0.8347" style="stop-color:#006D8E"/>
						<stop  offset="1" style="stop-color:#00607E"/>
					</radialGradient>
					<path id="SVGID_4_" fill="url(#SVGID_5_)" d="M188.61,32.792v-1.553c0,0-0.085-1.217-1.395-1.217h-2.033v2.77h-2.087v-7.987
						h5.069c0,0,2.644-0.311,2.644,2.338c0,1.378-1.169,1.865-1.169,1.865s1.017,0.46,1.017,1.813v1.971H188.61 M185.184,28.143
						h2.159c0.627,0,1.143-0.339,1.143-0.757c0-0.419-0.516-0.757-1.143-0.757h-2.159V28.143L185.184,28.143"/>
				</g>
			</g>
			<g>
				<g>
					
						<radialGradient id="SVGID_6_" cx="154.918" cy="27.2051" r="79.8188" gradientTransform="matrix(1.0151 0 0 -0.9855 5.6718 36.3701)" gradientUnits="userSpaceOnUse">
						<stop  offset="0" style="stop-color:#00B8E9"/>
						<stop  offset="0.427" style="stop-color:#009ACA"/>
						<stop  offset="0.5077" style="stop-color:#0090BD"/>
						<stop  offset="0.8347" style="stop-color:#006D8E"/>
						<stop  offset="1" style="stop-color:#00607E"/>
					</radialGradient>
					<path id="SVGID_7_" fill="url(#SVGID_6_)" d="M213.252,32.792l-3.312-5.337v5.337h-1.798h-0.337h-1.959l-0.739-1.674h-3.813
						l-0.726,1.674h-1.92H198.3h-1.003c0,0-2.813-0.391-2.813-3.77c0-4.434,3.189-4.258,3.301-4.285l2.575,0.068v1.798l-2.115,0.026
						c0,0-1.378,0-1.546,1.744c-0.021,0.2-0.029,0.384-0.027,0.555c0.008,2.7,2.414,1.863,2.492,1.837l2.59-5.961h2.923l3.13,7.245
						v-7.245h2.954l3.271,5.258v-5.258h2.104v7.987L213.252,32.792 M202.186,29.075h2.031l-1.002-2.378L202.186,29.075
						L202.186,29.075"/>
				</g>
			</g>
			<g>
				<g>
					
						<radialGradient id="SVGID_8_" cx="154.9204" cy="27.2065" r="79.8188" gradientTransform="matrix(1.0151 0 0 -0.9855 5.6718 36.3701)" gradientUnits="userSpaceOnUse">
						<stop  offset="0" style="stop-color:#00B8E9"/>
						<stop  offset="0.427" style="stop-color:#009ACA"/>
						<stop  offset="0.5077" style="stop-color:#0090BD"/>
						<stop  offset="0.8347" style="stop-color:#006D8E"/>
						<stop  offset="1" style="stop-color:#00607E"/>
					</radialGradient>
					<path id="SVGID_10_" fill="url(#SVGID_8_)" d="M172.223,32.792v-5.513l-2.616,5.513h-1.713l-2.632-5.487v5.487h-1.822h-0.278
						h-2.021l-0.724-1.674h-3.813l-0.738,1.674h-2.283l3.466-7.987h2.938l3.175,7.339v-7.339h3.298l2.298,4.959l2.284-4.959h3.299
						v7.987H172.223 M157.493,29.075h2.032l-1.016-2.378L157.493,29.075L157.493,29.075"/>
				</g>
			</g>
			<g>
				<g>
					
						<radialGradient id="SVGID_9_" cx="154.9165" cy="27.2065" r="79.8233" gradientTransform="matrix(1.0151 0 0 -0.9855 5.6718 36.3701)" gradientUnits="userSpaceOnUse">
						<stop  offset="0" style="stop-color:#00B8E9"/>
						<stop  offset="0.427" style="stop-color:#009ACA"/>
						<stop  offset="0.5077" style="stop-color:#0090BD"/>
						<stop  offset="0.8347" style="stop-color:#006D8E"/>
						<stop  offset="1" style="stop-color:#00607E"/>
					</radialGradient>
					<polyline id="SVGID_13_" fill="url(#SVGID_9_)" points="175.495,32.792 175.495,24.805 182.012,24.805 182.012,26.669 
						177.598,26.669 177.598,27.899 181.9,27.899 181.9,29.711 177.598,29.711 177.598,31.063 182.012,31.063 182.012,32.792 
						175.495,32.792 					"/>
				</g>
			</g>
			<g>
				<g>
					
						<radialGradient id="SVGID_11_" cx="154.9028" cy="27.2075" r="79.8498" gradientTransform="matrix(1.0151 0 0 -0.9855 5.6718 36.3701)" gradientUnits="userSpaceOnUse">
						<stop  offset="0" style="stop-color:#00B8E9"/>
						<stop  offset="0.427" style="stop-color:#009ACA"/>
						<stop  offset="0.5077" style="stop-color:#0090BD"/>
						<stop  offset="0.8347" style="stop-color:#006D8E"/>
						<stop  offset="1" style="stop-color:#00607E"/>
					</radialGradient>
					<polyline id="SVGID_16_" fill="url(#SVGID_11_)" points="191.674,32.819 191.674,24.805 193.776,24.805 193.776,32.819 
						191.674,32.819 					"/>
				</g>
			</g>
		</g>
		<g>
			<g>
				<g>
					
						<radialGradient id="SVGID_12_" cx="154.9263" cy="27.2051" r="79.8103" gradientTransform="matrix(1.0151 0 0 -0.9855 5.6718 36.3701)" gradientUnits="userSpaceOnUse">
						<stop  offset="0" style="stop-color:#00B8E9"/>
						<stop  offset="0.427" style="stop-color:#009ACA"/>
						<stop  offset="0.5077" style="stop-color:#0090BD"/>
						<stop  offset="0.8347" style="stop-color:#006D8E"/>
						<stop  offset="1" style="stop-color:#00607E"/>
					</radialGradient>
					<path id="SVGID_19_" fill="url(#SVGID_12_)" d="M196.672,46.336v-1.555c0,0-0.086-1.217-1.394-1.217h-2.031v2.771h-2.089
						v-7.988h5.067c0,0,2.646-0.312,2.646,2.338c0,1.379-1.169,1.865-1.169,1.865s1.003,0.458,1.003,1.811v1.975H196.672
						 M193.247,41.686h2.159c0.624,0,1.14-0.336,1.14-0.756s-0.516-0.757-1.14-0.757h-2.159V41.686L193.247,41.686"/>
				</g>
			</g>
			<g>
				<g>
					
						<radialGradient id="SVGID_14_" cx="154.9209" cy="27.21" r="79.825" gradientTransform="matrix(1.0151 0 0 -0.9855 5.6718 36.3701)" gradientUnits="userSpaceOnUse">
						<stop  offset="0" style="stop-color:#00B8E9"/>
						<stop  offset="0.427" style="stop-color:#009ACA"/>
						<stop  offset="0.5077" style="stop-color:#0090BD"/>
						<stop  offset="0.8347" style="stop-color:#006D8E"/>
						<stop  offset="1" style="stop-color:#00607E"/>
					</radialGradient>
					<path id="SVGID_22_" fill="url(#SVGID_14_)" d="M182.75,46.322h-1.826l-2.211-2.365l-2.229,2.365h-1.267h-6.502V38.32h6.502
						h1.1l2.396,2.541l2.408-2.526h1.602v-0.013h5.067c0,0,2.645-0.285,2.645,2.351c0,2.353-0.879,3.082-3.579,3.082h-2.046v2.568
						L182.75,46.322 M180.133,42.391l2.59,2.783v-5.556L180.133,42.391L180.133,42.391 M170.817,44.594h4.399l2.061-2.203
						l-2.061-2.191h-4.399v1.229h4.288v1.813h-4.288V44.594L170.817,44.594 M184.81,41.671h2.157c0.628,0,1.143-0.336,1.143-0.756
						c0-0.418-0.515-0.756-1.143-0.756h-2.157V41.671L184.81,41.671"/>
				</g>
			</g>
			<g>
				<g>
					
						<radialGradient id="SVGID_15_" cx="154.9263" cy="27.2051" r="79.8122" gradientTransform="matrix(1.0151 0 0 -0.9855 5.6718 36.3701)" gradientUnits="userSpaceOnUse">
						<stop  offset="0" style="stop-color:#00B8E9"/>
						<stop  offset="0.427" style="stop-color:#009ACA"/>
						<stop  offset="0.5077" style="stop-color:#0090BD"/>
						<stop  offset="0.8347" style="stop-color:#006D8E"/>
						<stop  offset="1" style="stop-color:#00607E"/>
					</radialGradient>
					<path id="SVGID_25_" fill="url(#SVGID_15_)" d="M210.915,46.309h-3.718V44.47h3.258c0,0,1.168,0.134,1.168-0.634
						c0-0.719-1.766-0.663-1.766-0.663s-2.884,0.243-2.884-2.379c0-2.608,2.604-2.461,2.604-2.461h4.01v1.865h-3.229
						c0,0-1.114-0.218-1.114,0.569c0,0.659,1.518,0.565,1.518,0.565s3.188-0.229,3.188,2.176c0,2.58-2.054,2.81-2.782,2.81
						C211.009,46.318,210.915,46.309,210.915,46.309"/>
				</g>
			</g>
			<g>
				<g>
					
						<radialGradient id="SVGID_17_" cx="154.918" cy="27.2046" r="79.8209" gradientTransform="matrix(1.0151 0 0 -0.9855 5.6718 36.3701)" gradientUnits="userSpaceOnUse">
						<stop  offset="0" style="stop-color:#00B8E9"/>
						<stop  offset="0.427" style="stop-color:#009ACA"/>
						<stop  offset="0.5077" style="stop-color:#0090BD"/>
						<stop  offset="0.8347" style="stop-color:#006D8E"/>
						<stop  offset="1" style="stop-color:#00607E"/>
					</radialGradient>
					<polyline id="SVGID_28_" fill="url(#SVGID_17_)" points="199.735,46.322 199.735,38.348 206.25,38.348 206.25,40.199 
						201.837,40.199 201.837,41.428 206.139,41.428 206.139,43.241 201.837,43.241 201.837,44.594 206.25,44.594 206.25,46.322 
						199.735,46.322 					"/>
				</g>
			</g>
			<g>
				<g>
					
						<radialGradient id="SVGID_18_" cx="154.9302" cy="27.2051" r="79.8045" gradientTransform="matrix(1.0151 0 0 -0.9855 5.6718 36.3701)" gradientUnits="userSpaceOnUse">
						<stop  offset="0" style="stop-color:#00B8E9"/>
						<stop  offset="0.427" style="stop-color:#009ACA"/>
						<stop  offset="0.5077" style="stop-color:#0090BD"/>
						<stop  offset="0.8347" style="stop-color:#006D8E"/>
						<stop  offset="1" style="stop-color:#00607E"/>
					</radialGradient>
					<path id="SVGID_31_" fill="url(#SVGID_18_)" d="M218.277,46.309h-3.718V44.47h3.246c0,0,1.184,0.134,1.184-0.634
						c0-0.719-1.77-0.663-1.77-0.663s-2.883,0.243-2.883-2.379c0-2.608,2.604-2.461,2.604-2.461h3.997v1.865h-3.219
						c0,0-1.112-0.218-1.112,0.569c0,0.659,1.518,0.565,1.518,0.565s3.188-0.229,3.188,2.176c0,2.58-2.055,2.81-2.781,2.81
						C218.373,46.318,218.277,46.309,218.277,46.309"/>
				</g>
			</g>
		</g>
		<path fill="#009FDA" d="M145.313,61.582c0-1.663,1.379-3,3.104-3c1.714,0,3.09,1.337,3.09,3s-1.376,3.001-3.09,3.001
			C146.689,64.583,145.313,63.245,145.313,61.582 M145.771,61.582c0,1.404,1.129,2.555,2.646,2.555c1.504,0,2.632-1.15,2.632-2.555
			c0-1.42-1.113-2.555-2.632-2.555C146.886,59.027,145.771,60.162,145.771,61.582 M149.184,62.961
			c-0.07-0.229-0.084-0.648-0.084-0.744c0-0.203-0.027-0.419-0.418-0.419h-0.849v1.164h-0.501V60.15h1.35
			c0.459,0,0.975,0.147,0.975,0.785c0,0.351-0.152,0.514-0.321,0.635c0.14,0.068,0.252,0.188,0.267,0.5l0.015,0.486
			c0.012,0.147,0.028,0.176,0.139,0.241v0.164L149.184,62.961 M147.833,61.365h0.808c0.265,0,0.5-0.067,0.5-0.404
			c0-0.354-0.25-0.379-0.431-0.379h-0.877V61.365"/>
	</g>
</g>
</svg>
