<svg xmlns="http://www.w3.org/2000/svg" xmlns:xlink="http://www.w3.org/1999/xlink" width="729" height="65" viewBox="-20 0 729 65">
  <path fill="#1D3764" d="M38.032 56.404c0 .53-.43.957-.96.957h-53.635V38.29h53.6c.564 0 .995.424.995.952v17.162z"/>
  <path fill="#34679A" d="M66.316 22.952c-.32.2-.664.38-1.02.526-.475.19-.932.29-1.353.29-.646 0-1.144-.09-1.475-.283-.336-.183-.516-.51-.512-.97 0-.527.124-.938.383-1.264.24-.31.63-.55 1.1-.74.47-.16 1.05-.29 1.71-.38.59-.07 1.75-.21 1.91-.21.15 0 .25-.08.18.32l-.52 2.19c-.05.19-.3.47-.42.54zm4.596-9.73c-.984-.544-2.527-.822-4.638-.822-1.048 0-2.095.082-3.145.248-.78.118-.86.134-1.33.24-1 .213-1.15 1.2-1.15 1.2l-.31 1.3c-.18.832.29.8.5.734.43-.133.66-.263 1.54-.458.83-.193 1.73-.333 2.43-.326 1.04 0 1.83.112 2.36.333.52.23.78.62.78 1.18 0 .14 0 .26-.04.37-.05.1-.13.2-.38.23-1.49.09-2.55.23-3.83.41-1.27.18-2.38.49-3.3.91-.99.44-1.73 1.02-2.24 1.76-.5.75-.75 1.64-.75 2.71 0 1.01.36 1.82 1.06 2.46.71.63 1.63.94 2.74.94.69-.01 1.24-.05 1.62-.15.39-.09.81-.23 1.26-.42.33-.14.69-.34 1.06-.59.38-.25.64-.43.98-.65l.01.03-.1.42c0 .01-.01.01-.01.01v.01c-.11.51.19.92.69.97l.01.01h2.41c.02 0 .02-.01.04-.01.5-.06.99-.47 1.11-.97l1.89-8.17c.05-.18.08-.41.1-.67.02-.25.05-.46.05-.62 0-1.16-.5-2.01-1.48-2.56"/>
  <g transform="matrix(1.3704 0 0 -1.3704 2 77.966)">
    <defs>
      <path id="a" d="M-35.977 25.47H93.328v33.06H-35.977z"/>
    </defs>
    <clipPath id="b">
      <use xlink:href="#a" overflow="visible"/>
    </clipPath>
    <g clip-path="url(#b)">
      <path fill="#1D3764" d="M26.473 47.714c-.408 0-.94-.326-1.193-.722 0 0-2.717-4.645-2.982-5.11-.148-.248-.292-.09-.316.003-.02.114-.843 5.074-.843 5.074-.1.4-.52.74-1.04.74h-1.69c-.41 0-.67-.33-.58-.72 0 0 1.3-7.32 1.55-9.04.13-.96-.01-1.13-.01-1.13l-1.68-2.91c-.25-.4-.12-.72.29-.72h1.96c.4 0 .94.32 1.18.72l7.55 12.73s.73 1.09.06 1.07c-.45-.01-2.27 0-2.27 0M6.73 48.9c-.236.462-.59.835-1.04 1.113-.466.288-1.01.486-1.644.608-.64.11-1.38.17-2.24.18H-2.15c-.41 0-.815-.33-.905-.72L-5.73 38.51c-.09-.395.167-.722.576-.722h1.9c.41 0 .818.315.906.722l.656 2.808c.087.39.494.714.903.714h.54c2.32.003 4.12.478 5.41 1.424 1.29.944 1.94 2.198 1.93 3.744.01.682-.11 1.25-.36 1.702m-4.09-3.78c-.57-.415-1.36-.62-2.39-.62h-.47c-.41 0-.67.32-.58.72l.57 2.45c.09.395.5.72.91.72h.62c.73 0 1.28-.12 1.65-.367.37-.238.56-.616.55-1.125.02-.762-.27-1.358-.85-1.778"/>
    </g>
  </g>
  <path fill="#34679A" d="M58.38 11.007c-.32-.63-.81-1.136-1.425-1.532-.634-.392-1.39-.667-2.266-.823-.86-.15-1.89-.24-3.06-.243H46.2c-.56.01-1.112.45-1.234.99l-3.662 15.85c-.127.53.236.98.787.98h2.61c.55 0 1.12-.45 1.25-.99l.88-3.85c.13-.54.69-.99 1.25-.98h.74c3.19 0 5.66-.66 7.42-1.95 1.76-1.31 2.65-3.02 2.65-5.14-.01-.94-.16-1.72-.49-2.33m-5.6 5.18c-.78.56-1.87.84-3.28.84h-.64c-.55.01-.91-.45-.78-.98l.78-3.37c.12-.53.69-.98 1.24-.98l.85-.01c1 0 1.75.17 2.26.49.51.33.75.85.76 1.54.01 1.05-.38 1.87-1.16 2.44"/>
  <path fill="#1D3764" d="M19.143 22.94c-.326.205-.664.373-1.025.52-.478.196-.933.297-1.35.297-.648 0-1.14-.09-1.48-.285-.334-.186-.51-.503-.505-.964 0-.533.125-.943.375-1.263.26-.312.636-.565 1.112-.753.467-.154 1.045-.284 1.71-.378.59-.08 1.765-.21 1.916-.21.146-.003.25-.084.183.312-.04.174-.37 1.557-.53 2.185-.05.19-.3.47-.41.54zm4.595-9.728c-.99-.55-2.534-.83-4.64-.83-1.044 0-2.097.084-3.15.25-.77.114-.854.136-1.33.24-.988.216-1.138 1.198-1.138 1.198l-.32 1.302c-.18.835.294.8.507.733.432-.127.666-.255 1.543-.46.846-.182 1.73-.33 2.444-.324 1.038 0 1.826.12 2.353.34.53.24.786.63.786 1.18.004.14.008.26-.04.37-.043.11-.126.21-.376.24-1.483.09-2.548.23-3.835.41-1.266.18-2.37.49-3.298.91-.985.44-1.725 1.02-2.23 1.76-.496.74-.745 1.65-.747 2.71 0 1 .362 1.82 1.06 2.46.707.62 1.628.94 2.735.94.7 0 1.242-.06 1.633-.15.39-.1.813-.24 1.253-.43.333-.14.69-.34 1.073-.59.38-.25.64-.43.98-.65l.01.02-.09.42c0 .01-.01.01-.01.01l.01.01c-.1.5.2.92.69.97h.06v.01h2.37c.03 0 .03 0 .04-.01.51-.06 1-.47 1.11-.97l1.9-8.16c.04-.19.08-.42.1-.67.03-.26.06-.47.05-.63 0-1.15-.5-2-1.48-2.55"/>
  <path fill="#34679A" d="M79.874 8.54h-2.33c-.533 0-1.073.41-1.22.93-.01.018-.02.034-.023.06l-.14.688-3.2 14.426c-.07.326-.12.54-.13.597l.01.01c-.11.51.2.93.7.97l.01.01h2.42c.53 0 1.06-.4 1.22-.91.01-.02.03-.04.03-.07L80.7 9.54v-.01c.112-.54-.238-.98-.79-.98m4.397 3.2c-.074.03-.16.04-.255.06-.1.01-.18.02-.26.02-.26 0-.46-.07-.59-.2-.14-.133-.21-.36-.21-.66V9.6h-.28v-.36h.286v-.725h.427v.725h.88v.355h-.88v1.15c0 .133.01.236.017.31.01.077.026.142.063.207.03.06.074.108.13.135.06.02.15.03.27.03.07 0 .148-.01.22-.03.078-.02.13-.03.165-.05h.022v.38m4.194.03h-.424v-1.44c0-.11 0-.21-.01-.31-.013-.1-.03-.19-.06-.25-.04-.06-.085-.117-.15-.15-.07-.035-.16-.05-.283-.05-.12 0-.24.03-.36.09s-.24.136-.36.23v1.874h-.42v-1.44c0-.1-.01-.21-.02-.31s-.03-.18-.06-.24-.08-.11-.15-.15c-.07-.03-.16-.04-.28-.04-.12 0-.23.03-.35.09-.12.06-.24.14-.35.22v1.89h-.44V9.24h.42v.28c.13-.115.26-.198.4-.26.13-.064.27-.095.42-.095.16 0 .31.037.44.113.12.07.21.17.27.3.16-.14.32-.25.46-.31.14-.064.29-.1.46-.1.27 0 .48.09.61.256.13.167.2.406.2.704v1.64M80.51 56.54c0 .522-.43.95-.965.95h-36.53c-.527 0-.958-.428-.958-.95V39.377c0-.53.43-.958.96-.958h36.528c.534 0 .965.42.965.95v17.17z"/>
  <path fill="none" stroke="#727074" stroke-width="2" stroke-miterlimit="10" d="M-16.35 1.583H99.687v62H-16.35z"/>
  <path fill="#FCB131" d="M348.34 56.288c5.693 5.163 13.34 8.295 21.656 8.295 17.86 0 32.316-14.338 32.316-31.973 0-17.69-14.457-32.027-32.316-32.027-8.316 0-15.963 3.13-21.655 8.295-6.53 5.877-10.66 14.338-10.66 23.73s4.13 17.857 10.66 23.68z"/>
  <path fill="#FCB131" d="M398.014 50.41c0-.55.446-.99 1.004-.99.615 0 1.063.44 1.063.99 0 .603-.44 1.043-1.06 1.043-.56 0-1-.44-1-1.044zm1.004.824c.447 0 .838-.385.838-.825s-.39-.77-.838-.77c-.39 0-.78.32-.78.77s.39.82.78.82zm-.11-.33h-.225v-.936h.39c.058 0 .167 0 .225.057.112.054.112.108.112.22 0 .108-.057.22-.17.22l.225.437h-.277l-.112-.385h-.167l-.01.387v-.55h.22c.05 0 .05-.055.05-.11s0-.055-.06-.11h-.23v.77z"/>
  <path fill="#ED1C2E" d="M358.777 29.204c-.11-1.153-.336-2.252-.56-3.405H338.46c.223-1.16.557-2.26.893-3.36h17.918c-.39-1.16-.83-2.31-1.34-3.41h-15.18c.56-1.16 1.17-2.31 1.84-3.41h11.44c-.72-1.16-1.56-2.31-2.45-3.35h-6.53c1.01-1.21 2.12-2.37 3.3-3.41C342.59 3.77 335 .58 326.63.58c-17.806 0-32.317 14.34-32.317 32.028 0 17.64 14.512 31.977 32.316 31.977 8.37 0 15.96-3.132 21.71-8.295 1.17-1.05 2.23-2.15 3.23-3.36h-6.53c-.9-1.1-1.68-2.19-2.46-3.4h11.44c.73-1.1 1.34-2.2 1.9-3.403h-15.18c-.51-1.1-1.01-2.198-1.4-3.35h17.91c.39-1.1.67-2.255.95-3.41.22-1.1.44-2.252.56-3.405.11-1.095.16-2.194.16-3.35s-.05-2.31-.17-3.41z"/>
  <path fill="#FFF" d="M398.014 40.025c0-.604.446-1.043 1.004-1.043.615 0 1.063.44 1.063 1.043 0 .55-.44 1.045-1.06 1.045-.56 0-1-.494-1-1.045zm1.004.77c.447 0 .838-.33.838-.77 0-.438-.39-.77-.838-.77-.39 0-.78.33-.78.77-.002.44.39.77.78.77zm-.11-.33h-.225v-.878h.615c.112.056.112.165.112.274 0 .06-.057.17-.17.23l.225.39h-.277l-.112-.33h-.167l-.01.33v-.49h.11c.06 0 .11 0 .11-.05.05 0 .05-.05.05-.11 0 0 0-.05-.06-.05 0-.05-.06 0-.12 0h-.11v.72z"/>
  <path fill="#003473" d="M337.344 41.84c-1.06.273-1.84.44-2.62.44-1.677 0-2.682-1.046-2.682-2.913 0-.385.058-.77.112-1.208l.224-1.27.167-1.05 1.506-9.01h3.35l-.39 1.98h2.13l-.5 3.29h-2.12l-.89 5.38c-.05.27-.05.44-.05.55 0 .71.34.99 1.17.99.39 0 .73-.06 1.06-.11l-.44 2.91zm10.83-.11c-1.23.328-2.345.492-3.572.492-3.797 0-5.974-1.977-5.974-5.877 0-4.56 2.57-7.855 6.142-7.855 2.846 0 4.688 1.868 4.688 4.78 0 .987-.11 1.923-.39 3.24h-6.98c-.056.22-.056.33-.056.44 0 1.538 1.06 2.307 3.07 2.307 1.286 0 2.4-.273 3.628-.822l-.556 3.295zm-2.067-7.857v-.658c0-1.1-.613-1.703-1.674-1.703-1.117 0-1.897.824-2.232 2.36h3.91zm-35.552 8.13h-3.46l2.01-12.47-4.522 12.47h-2.4l-.28-12.414-2.12 12.41h-3.405l2.735-16.21h5.078l.12 10 3.41-10h5.58m5.7 10.33c-.33-.06-.44-.06-.67-.06-2.01 0-3.01.77-3.01 1.98 0 .82.5 1.37 1.29 1.37 1.68 0 2.35-1.38 2.41-3.3zm2.79 5.88h-3.01l.06-1.38c-.78 1.04-1.84 1.59-3.68 1.59-1.67 0-3.12-1.48-3.12-3.62 0-.61.11-1.16.28-1.71.56-2.03 2.62-3.3 5.8-3.35.39 0 1.01 0 1.57.05.11-.44.11-.61.11-.88 0-.88-.72-1.16-2.34-1.16-1 0-2.12.16-2.9.44l-.5.11-.22.05.51-2.97c1.62-.5 2.79-.72 4.08-.72 3.02 0 4.64 1.37 4.64 3.9 0 .66.06 1.15-.16 2.58l-.78 4.72-.11.82-.06.66-.05.43-.06.38zm43.26-13.07c1.01 0 1.9.27 3.13.88l.62-3.52c-.33-.17-.44-.17-.89-.33l-1.39-.39c-.44-.11-1-.17-1.62-.17-1.72 0-2.73.05-3.79.66-.56.38-1.28.87-2.06 1.75l-.44-.11-3.58 2.47.17-1.38h-3.69l-2.2 13.2h3.52l1.28-7.09s.51-.99.73-1.32c.67-.83 1.23-.83 1.96-.83h.28c-.11.77-.17 1.59-.17 2.52 0 4.28 2.45 6.97 6.25 6.97.95 0 1.79-.11 3.07-.44l.61-3.74c-1.11.6-2.12.88-2.96.88-2.06 0-3.29-1.54-3.29-3.96 0-3.58 1.84-6.1 4.47-6.1zm29.64-3.13l-.78 4.61c-.84-1.26-1.84-1.87-3.18-1.87-1.84 0-3.57 1.04-4.63 3.02v-.06l-2.23-1.32.22-1.38h-3.73L378.22 42h3.46l1.17-7.09s.893-.99 1.115-1.314c.56-.66 1.12-.77 1.57-.824-.39 1.1-.61 2.417-.61 3.9 0 3.297 1.73 5.494 4.3 5.494 1.287 0 2.29-.44 3.24-1.48l-.17 1.32h3.296l2.68-16.2h-3.57zm-4.3 13.07c-1.17 0-1.78-.88-1.78-2.58 0-2.58 1.12-4.45 2.73-4.45 1.23 0 1.85.94 1.85 2.58 0 2.63-1.11 4.45-2.79 4.45zm-16.13-2.75c-.33-.06-.44-.06-.67-.06-2.01 0-3.01.77-3.01 1.97 0 .82.51 1.37 1.29 1.37 1.68 0 2.35-1.37 2.4-3.29zm2.79 5.88h-3.07l.12-1.38c-.78 1.04-1.84 1.59-3.68 1.59-1.73 0-3.23-1.43-3.23-3.63 0-3.14 2.4-5.06 6.2-5.06.4 0 1.01 0 1.51.05.11-.44.17-.61.17-.88 0-.88-.73-1.16-2.4-1.16-.95 0-2.12.17-2.9.44l-.44.11-.22.05.5-2.97c1.62-.49 2.8-.71 4.08-.71 3.02 0 4.58 1.37 4.58 3.9 0 .65.11 1.15-.16 2.58l-.72 4.72-.11.82-.11.66-.06.44v.4zM329.1 31.62c.67 0 1.62.05 2.623.22l.5-3.08c-1.004-.11-2.343-.28-3.124-.28-3.91 0-5.19 2.08-5.19 4.5 0 1.59.72 2.74 2.62 3.62 1.39.66 1.62.77 1.62 1.374 0 .822-.73 1.316-2.07 1.316-1.06 0-2.07-.162-3.19-.55l-.39 3.024.05.056.67.11c.22.054.5.108.89.164.83.055 1.56.11 2.01.11 3.9 0 5.52-1.48 5.52-4.397 0-1.813-.9-2.91-2.63-3.68-1.51-.66-1.68-.77-1.68-1.375 0-.604.67-1.153 1.73-1.153z"/>
  <path fill="#FFF" d="M369.717 25.25l-.613 3.515c-1.23-.604-2.12-.878-3.127-.878-2.62 0-4.463 2.527-4.463 6.097 0 2.472 1.228 3.955 3.293 3.955.836 0 1.84-.28 2.957-.83l-.615 3.68c-1.29.33-2.12.49-3.07.49-3.8 0-6.14-2.69-6.14-7.03 0-5.77 3.23-9.84 7.87-9.84.61 0 1.17.05 1.62.16l1.39.33c.44.16.55.22.89.33zm-11.277 2.416h-.333c-1.172 0-1.844.55-2.9 2.143l.334-2.04h-3.18l-2.18 13.18h3.52c1.28-8.08 1.62-9.45 3.3-9.45h.23c.34-1.59.78-2.75 1.35-3.79l-.11-.06zm-20.204 13.13c-.947.33-1.73.44-2.51.44-1.785 0-2.79-.99-2.79-2.91 0-.33.055-.773.11-1.157l.225-1.32.17-1.05 1.51-9.01h3.46l-.39 1.98h1.79l-.44 3.24h-1.78l-.94 5.49c-.05.22-.05.38-.05.55 0 .66.33.93 1.17.93.39 0 .73 0 .95-.11l-.45 2.91zm-13.45-8.846c0 1.647.78 2.802 2.626 3.682 1.45.66 1.674.88 1.674 1.43 0 .822-.615 1.206-2.01 1.206-1.06 0-2.008-.164-3.125-.492l-.5 3.02.17.057.62.11c.23.054.51.108.95.108.78.11 1.45.11 1.9.11 3.69 0 5.41-1.37 5.41-4.39 0-1.81-.72-2.86-2.45-3.68-1.5-.66-1.67-.82-1.67-1.43 0-.71.62-1.04 1.73-1.04.67 0 1.62.06 2.51.17l.5-3.02c-.89-.16-2.28-.27-3.06-.27-3.9 0-5.3 2.04-5.24 4.45zm71.664 9.01h-3.292l.168-1.265c-.948.99-1.954 1.43-3.237 1.43-2.57 0-4.25-2.143-4.25-5.44 0-4.393 2.62-8.127 5.69-8.127 1.39 0 2.4.604 3.35 1.813l.78-4.61h3.46l-2.68 16.21zm-5.134-3.076c1.62 0 2.733-1.868 2.733-4.45 0-1.703-.62-2.582-1.85-2.582-1.56 0-2.74 1.813-2.74 4.395 0 1.76.61 2.637 1.84 2.637zm-42.362 2.802c-1.228.385-2.343.55-3.627.55-3.908 0-5.916-2.032-5.916-5.934 0-4.505 2.57-7.856 6.09-7.856 2.9 0 4.75 1.868 4.75 4.78 0 .99-.11 1.922-.44 3.295h-6.92c-.06.17-.06.28-.06.39 0 1.54 1.06 2.31 3.07 2.31 1.29 0 2.4-.22 3.63-.82l-.55 3.3zM347 32.83v-.66c0-1.097-.61-1.702-1.673-1.702-1.117 0-1.897.824-2.233 2.362H347zm-35.553 8.13h-3.46l2.01-12.47-4.52 12.47h-2.402l-.28-12.36-2.12 12.36h-3.236l2.73-16.206h5.02l.17 10.053 3.35-10.053h5.47m5.92 10.328c-.34 0-.51-.055-.78-.055-1.96 0-2.96.715-2.96 2.033 0 .823.44 1.317 1.22 1.317 1.45 0 2.45-1.316 2.51-3.295zm2.56 5.88h-2.9l.05-1.375c-.9 1.1-2.07 1.593-3.69 1.593-1.9 0-3.18-1.428-3.18-3.57 0-3.242 2.23-5.11 6.14-5.11.39 0 .89.056 1.45.11.11-.438.11-.603.11-.823 0-.88-.62-1.21-2.23-1.21-1.01 0-2.12.11-2.9.33l-.51.166-.34.055.5-2.967c1.73-.49 2.9-.65 4.18-.65 3.01 0 4.63 1.32 4.63 3.85 0 .66-.06 1.16-.28 2.64l-.79 4.67-.11.82-.06.66-.06.5-.06.33zm52.69-5.88c-.39 0-.56-.055-.78-.055-2.01 0-3.02.715-3.02 2.033 0 .823.5 1.317 1.28 1.317 1.39 0 2.45-1.316 2.51-3.295zm2.56 5.88h-2.9l.06-1.375c-.9 1.1-2.07 1.593-3.69 1.593-1.9 0-3.18-1.428-3.18-3.57 0-3.242 2.23-5.11 6.14-5.11.39 0 .89.056 1.4.11.11-.438.16-.603.16-.823 0-.88-.62-1.21-2.23-1.21-1.01 0-2.18.11-2.96.33l-.45.166-.33.055.5-2.967c1.73-.49 2.9-.65 4.18-.65 3.01 0 4.57 1.32 4.57 3.85 0 .66 0 1.16-.28 2.64l-.73 4.67-.12.82-.11.66-.05.5v.33h-.01zm9.37-13.296h-.34c-1.18 0-1.85.55-2.91 2.143l.34-2.04h-3.18l-2.12 13.18h3.46c1.28-8.08 1.62-9.45 3.29-9.45h.22c.33-1.59.78-2.75 1.34-3.79l-.12-.06zM637.69.583h67.245v63.864H637.69z"/>
  <radialGradient id="c" cx="439.258" cy="309.663" r="79.814" gradientTransform="matrix(1.015 0 0 -.9855 201.015 314.73)" gradientUnits="userSpaceOnUse">
    <stop offset="0" stop-color="#00B8E9"/>
    <stop offset=".427" stop-color="#009ACA"/>
    <stop offset=".508" stop-color="#0090BD"/>
    <stop offset=".835" stop-color="#006D8E"/>
    <stop offset="1" stop-color="#00607E"/>
  </radialGradient>
  <path fill="url(#c)" d="M702.502 47.82l-.252-.012-5.265.002v-.35c-.6.24-1.237.36-1.85.36l-.252-.012h-3.117v.016h-7.545v.013h-5.12v-1.5l.01-1.27h-.34v2.77h-5.18v-3.002c-.85.334-1.82.42-2.75.42h-.5v2.57h-6.11l-1.53-1.64-1.54 1.64h-9.99V36.82H661l1.72 1.824 1.725-1.813h.675l1.605-.01h5.016c.3-.02 1.06-.02 1.88.28v-.25h6.56c.33-.02 1.16-.03 2.03.32v-.31h9.61v.32c.91-.35 1.75-.33 1.87-.32h5.47v.34c.92-.36 1.77-.34 1.9-.33h3.93V.59H637.7v28.02l2.3-5.3h4.993l.6 1.38V23.3h5.847l1.293 2.79 1.284-2.79h18.067c.32-.022 1.157-.04 2.023.312V23.3h5.194v.664c.76-.46 1.63-.695 2.51-.73l2.9.074.01-.01h4.98s.54 1.255.56 1.29V23.3h5.37l.86 1.37V23.3h5.2v10.99h-5.3l-.89-1.435v1.437h-6.66l-.74-1.675h-1.77l-.72 1.674h-4.41l-.11-.01c-.49-.06-1.13-.28-1.75-.67v.72h-3.65v-.03h-4.61v-1.51l.01-1.26h-.34v2.77h-16.06v-.17l-.08.17h-3.69l-.09-.2v.21h-6.7l-.72-1.67h-1.76l-.73 1.68h-3.17v30.15H705v-17.3c-.76.45-1.625.65-2.443.65z"/>
  <radialGradient id="d" cx="631.719" cy="27.206" r="79.819" gradientTransform="matrix(1.015 0 0 -.9855 5.672 36.37)" gradientUnits="userSpaceOnUse">
    <stop offset="0" stop-color="#00B8E9"/>
    <stop offset=".427" stop-color="#009ACA"/>
    <stop offset=".508" stop-color="#0090BD"/>
    <stop offset=".835" stop-color="#006D8E"/>
    <stop offset="1" stop-color="#00607E"/>
  </radialGradient>
  <path fill="url(#d)" d="M672.61 32.792V31.24s-.085-1.218-1.395-1.218h-2.033v2.77h-2.087v-7.987h5.07s2.643-.31 2.643 2.338c0 1.378-1.17 1.865-1.17 1.865s1.018.46 1.018 1.813v1.98h-2.046m-3.426-4.65h2.16c.626 0 1.142-.33 1.142-.75s-.516-.75-1.143-.75h-2.16v1.52"/>
  <radialGradient id="e" cx="631.718" cy="27.205" r="79.82" gradientTransform="matrix(1.015 0 0 -.9855 5.672 36.37)" gradientUnits="userSpaceOnUse">
    <stop offset="0" stop-color="#00B8E9"/>
    <stop offset=".427" stop-color="#009ACA"/>
    <stop offset=".508" stop-color="#0090BD"/>
    <stop offset=".835" stop-color="#006D8E"/>
    <stop offset="1" stop-color="#00607E"/>
  </radialGradient>
  <path fill="url(#e)" d="M697.252 32.792l-3.312-5.337v5.337h-4.095l-.738-1.674h-3.813l-.726 1.674h-3.27s-2.814-.39-2.814-3.77c0-4.434 3.19-4.258 3.3-4.285l2.576.068v1.798l-2.115.026s-1.378 0-1.546 1.74c-.03.2-.03.38-.03.55.01 2.7 2.41 1.86 2.49 1.83l2.59-5.96h2.92l3.13 7.24V24.8h2.95l3.27 5.26V24.8h2.1v7.988h-2.89m-11.07-3.716h2.03l-1-2.378-1.03 2.378"/>
  <radialGradient id="f" cx="631.721" cy="27.206" r="79.82" gradientTransform="matrix(1.015 0 0 -.9855 5.672 36.37)" gradientUnits="userSpaceOnUse">
    <stop offset="0" stop-color="#00B8E9"/>
    <stop offset=".427" stop-color="#009ACA"/>
    <stop offset=".508" stop-color="#0090BD"/>
    <stop offset=".835" stop-color="#006D8E"/>
    <stop offset="1" stop-color="#00607E"/>
  </radialGradient>
  <path fill="url(#f)" d="M656.223 32.792V27.28l-2.616 5.512h-1.713l-2.632-5.487v5.487h-4.12l-.725-1.674h-3.813l-.738 1.674h-2.283l3.466-7.987h2.93l3.17 7.34v-7.34h3.3l2.29 4.96 2.28-4.96h3.3v7.987h-2.12m-14.73-3.717h2.03l-1.02-2.378-1.02 2.378"/>
  <radialGradient id="g" cx="631.717" cy="27.206" r="79.823" gradientTransform="matrix(1.015 0 0 -.9855 5.672 36.37)" gradientUnits="userSpaceOnUse">
    <stop offset="0" stop-color="#00B8E9"/>
    <stop offset=".427" stop-color="#009ACA"/>
    <stop offset=".508" stop-color="#0090BD"/>
    <stop offset=".835" stop-color="#006D8E"/>
    <stop offset="1" stop-color="#00607E"/>
  </radialGradient>
  <path fill="url(#g)" d="M659.495 32.792v-7.987h6.517v1.864h-4.414v1.23h4.302v1.81h-4.302v1.35h4.414v1.73h-6.517"/>
  <radialGradient id="h" cx="631.704" cy="27.207" r="79.849" gradientTransform="matrix(1.015 0 0 -.9855 5.672 36.37)" gradientUnits="userSpaceOnUse">
    <stop offset="0" stop-color="#00B8E9"/>
    <stop offset=".427" stop-color="#009ACA"/>
    <stop offset=".508" stop-color="#0090BD"/>
    <stop offset=".835" stop-color="#006D8E"/>
    <stop offset="1" stop-color="#00607E"/>
  </radialGradient>
  <path fill="url(#h)" d="M675.674 32.82v-8.015h2.102v8.014h-2.102"/>
  <radialGradient id="i" cx="631.725" cy="27.205" r="79.813" gradientTransform="matrix(1.015 0 0 -.9855 5.672 36.37)" gradientUnits="userSpaceOnUse">
    <stop offset="0" stop-color="#00B8E9"/>
    <stop offset=".427" stop-color="#009ACA"/>
    <stop offset=".508" stop-color="#0090BD"/>
    <stop offset=".835" stop-color="#006D8E"/>
    <stop offset="1" stop-color="#00607E"/>
  </radialGradient>
  <path fill="url(#i)" d="M680.672 46.336V44.78s-.086-1.216-1.394-1.216h-2.03v2.77h-2.09v-7.987h5.067s2.646-.312 2.646 2.338c0 1.38-1.16 1.865-1.16 1.865s1.01.458 1.01 1.81v1.976h-2.03m-3.42-4.65h2.16c.63 0 1.14-.336 1.14-.756s-.51-.757-1.14-.757h-2.16v1.513"/>
  <radialGradient id="j" cx="631.721" cy="27.21" r="79.826" gradientTransform="matrix(1.015 0 0 -.9855 5.672 36.37)" gradientUnits="userSpaceOnUse">
    <stop offset="0" stop-color="#00B8E9"/>
    <stop offset=".427" stop-color="#009ACA"/>
    <stop offset=".508" stop-color="#0090BD"/>
    <stop offset=".835" stop-color="#006D8E"/>
    <stop offset="1" stop-color="#00607E"/>
  </radialGradient>
  <path fill="url(#j)" d="M666.75 46.322h-1.826l-2.21-2.365-2.23 2.365h-7.77V38.32h7.603l2.396 2.54 2.408-2.525h1.61v-.013h5.07s2.65-.285 2.65 2.35c0 2.354-.88 3.083-3.58 3.083h-2.04v2.568h-2.06m-2.61-3.932l2.59 2.79v-5.56l-2.59 2.78m-9.31 2.21h4.4l2.06-2.2-2.06-2.19h-4.4v1.23h4.29v1.81h-4.29v1.35m14-2.92H671c.627 0 1.142-.33 1.142-.75s-.51-.76-1.14-.76h-2.155v1.51"/>
  <radialGradient id="k" cx="631.734" cy="27.205" r="79.802" gradientTransform="matrix(1.015 0 0 -.9855 5.672 36.37)" gradientUnits="userSpaceOnUse">
    <stop offset="0" stop-color="#00B8E9"/>
    <stop offset=".427" stop-color="#009ACA"/>
    <stop offset=".508" stop-color="#0090BD"/>
    <stop offset=".835" stop-color="#006D8E"/>
    <stop offset="1" stop-color="#00607E"/>
  </radialGradient>
  <path fill="url(#k)" d="M694.915 46.31h-3.718v-1.84h3.258s1.168.134 1.168-.634c0-.72-1.766-.663-1.766-.663s-2.884.243-2.884-2.38c0-2.607 2.604-2.46 2.604-2.46h4.01v1.865h-3.23s-1.113-.218-1.113.57c0 .658 1.518.564 1.518.564s3.188-.23 3.188 2.176c0 2.58-2.054 2.81-2.782 2.81-.16 0-.253-.01-.253-.01"/>
  <radialGradient id="l" cx="631.716" cy="27.205" r="79.825" gradientTransform="matrix(1.015 0 0 -.9855 5.672 36.37)" gradientUnits="userSpaceOnUse">
    <stop offset="0" stop-color="#00B8E9"/>
    <stop offset=".427" stop-color="#009ACA"/>
    <stop offset=".508" stop-color="#0090BD"/>
    <stop offset=".835" stop-color="#006D8E"/>
    <stop offset="1" stop-color="#00607E"/>
  </radialGradient>
  <path fill="url(#l)" d="M683.735 46.322v-7.974h6.515v1.85h-4.413v1.23h4.302v1.813h-4.31v1.36h4.41v1.73h-6.52"/>
  <radialGradient id="m" cx="631.726" cy="27.205" r="79.81" gradientTransform="matrix(1.015 0 0 -.9855 5.672 36.37)" gradientUnits="userSpaceOnUse">
    <stop offset="0" stop-color="#00B8E9"/>
    <stop offset=".427" stop-color="#009ACA"/>
    <stop offset=".508" stop-color="#0090BD"/>
    <stop offset=".835" stop-color="#006D8E"/>
    <stop offset="1" stop-color="#00607E"/>
  </radialGradient>
  <path fill="url(#m)" d="M702.277 46.31h-3.718v-1.84h3.24s1.18.134 1.18-.634c0-.72-1.77-.663-1.77-.663s-2.89.243-2.89-2.38c0-2.607 2.6-2.46 2.6-2.46h3.99v1.865h-3.22s-1.11-.218-1.11.57c0 .658 1.51.564 1.51.564s3.19-.23 3.19 2.176c0 2.58-2.06 2.81-2.78 2.81-.16 0-.26-.01-.26-.01"/>
  <path fill="#009FDA" d="M629.313 61.582c0-1.663 1.38-3 3.104-3 1.714 0 3.09 1.337 3.09 3s-1.376 3-3.09 3c-1.728 0-3.104-1.337-3.104-3m.458 0c0 1.404 1.13 2.555 2.65 2.555 1.51 0 2.63-1.15 2.63-2.555 0-1.42-1.11-2.555-2.63-2.555-1.53 0-2.64 1.135-2.64 2.555m3.42 1.38c-.07-.23-.08-.65-.08-.745 0-.203-.02-.42-.41-.42h-.85v1.165h-.5V60.15h1.35c.46 0 .98.147.98.785 0 .35-.15.514-.32.635.14.068.25.188.27.5l.02.486c.01.147.03.176.14.24v.165h-.57m-1.35-1.59h.81c.27 0 .5-.06.5-.4 0-.35-.25-.38-.43-.38h-.87v.79"/>
  <g fill-rule="evenodd" clip-rule="evenodd">
    <path fill="#EC8123" d="M486.277 4.61c.66.1 1.33.187 2.135.136-.02.386.823-.112.803.272.328-.018.64-.02.8.138 1.206.175 1.978.792 2.937 1.223.03.14.266.09.267.27.11.06.23.12.26.27.27.04.26.36.53.41.12.24.3.42.53.54.13.18.12.5.4.54-.04.39.3.42.27.81.27.03.12.5.4.54-.1.41.22.4.13.81.36-.1-.1.64.27.54-.11.69.18.99.13 1.63-.06 1.08.13 2.41-.14 3.27-.05 1.09-.33 1.94-.54 2.85-.09.5-.32.85-.4 1.36-.12.16-.18.36-.14.68-.18.09-.25.29-.27.54-.14.18-.13.5-.27.68-.02.11-.13.13-.13.27.02.16-.03.24-.14.27.04.22-.13.23-.13.41.02.15-.03.24-.13.27-.02.25-.09.45-.27.54.01.19.02.38-.14.41.02.15-.03.24-.14.27-.02.25-.09.45-.27.54-.02.25-.09.45-.27.54-.02.25-.09.45-.27.54-.09.51-.38.8-.54 1.22-.18.09-.25.3-.27.55-.25.02-.09.45-.4.41.02.34-.21.42-.27.68-.26.01-.09.45-.4.41.09.37-.27.27-.27.54s-.36.17-.27.54c-.18.05-.21.24-.4.27.05.23-.11.26-.27.27.06.42-.37.36-.41.68-.23.13-.22.5-.53.55-.12.24-.3.42-.54.54-.12.24-.3.42-.54.54-.12.24-.3.42-.54.54-.21.51-.86.57-1.07 1.09-.41-.11-.26.37-.67.27-.04.27-.36.27-.54.41-.12.06-.24.11-.27.27-.16-.02-.24.03-.27.13-.41-.1-.26.37-.67.27-.03.28-.49.13-.53.41-.33-.02-.41.22-.67.27-.34-.02-.42.22-.67.28-.33-.02-.41.21-.67.27-1.03.22-1.86.64-3.07.68-.16.15-.47.15-.8.13-.41-.1-.49.14-.8.13h-1.87c-.81-.08-1.57-.21-2.4-.27-.04-.19-.34-.11-.54-.14-.03-.19-.4-.05-.4-.27-.48.03-.64-.25-1.07-.27 0-.13-.16-.11-.26-.14.03-.12-.05-.13-.13-.14-.11-.12-.37-.08-.4-.27-.23 0-.35-.1-.4-.27-.23 0-.35-.11-.4-.27-.47.02-.44-.46-.8-.55-.31-.09-.36-.45-.67-.55.06-.43-.36-.36-.4-.69-.13-.18-.12-.5-.4-.54-.03-.05.04-.24 0-.27-.02-.02-.12.01-.13 0-.02-.05.04-.24 0-.28-.02-.01-.13.02-.14 0-.09-.22.02-.41-.13-.54-.03-.47-.33-.66-.26-1.22-.29.02-.06-.49-.14-.68-.18-.05-.11-.34-.13-.55.08-.58-.1-.9-.13-1.36.13-.86.09-1.9.26-2.72.02-.13-.03-.28 0-.41.02-.12.1-.14.13-.28.02-.1-.06-.47 0-.54.01-.01.13.01.13 0 .02-.1-.07-.48 0-.55.01-.01.13.01.13 0 .03-.22-.03-.46 0-.68.13-.01.1-.17.13-.28.03-.11.14-.14.13-.27-.02-.24.16-.29.13-.55.1-.12.14-.31.13-.54.19-.04.05-.41.27-.41-.11-.39.18-.35.13-.68.11-.11.08-.38.27-.41-.09-.54.35-.55.26-1.09.18-.09.25-.29.27-.54.13-.01.1-.17.13-.28.11.03.13-.05.13-.13.03-.42.29-.61.4-.95.07-.2.19-.34.27-.54.11-.11.08-.37.26-.41.11-.34.36-.54.4-.96.41-.09.26-.73.67-.82-.01-.23.1-.35.27-.41-.01-.23.1-.35.27-.4-.1-.37.26-.27.26-.55.05-.18.23-.22.27-.41.13 0 .1-.17.13-.27.11.02.12-.05.13-.14.17-.06.27-.17.27-.41.19-.07.32-.21.4-.4.16-.06.27-.17.27-.41.35-.14.45-.54.8-.68.36-.58.97-.92 1.33-1.49.35-.14.45-.54.8-.68.36-.08.33-.57.8-.54-.04-.31.39-.15.4-.41.18-.05.21-.24.4-.27.18-.05.21-.24.4-.27.1-.12.36-.08.39-.27.67-.28 1.11-.78 1.87-.96.01-.13.17-.1.27-.13.11-.02.14-.13.27-.13.11-.11.37-.08.4-.27.48.04.65-.25 1.07-.27.66-.28 1.42-.46 2.27-.55.11-.05.14-.11.27-.14.13-.03.27.02.4 0 .26-.05.37-.02.54-.14h1.33c.15.03.23-.02.26-.13zm-.267 8.162c-.197-.07-.337-.2-.532-.27-.492-.09-.897-.266-1.47-.274-.17.008-.185.176-.4.136-.493-.095-.57.234-1.067.137-.03.2-.29.16-.4.28-.19.07-.33.2-.53.27-.01.26-.44.1-.4.41-.26 0-.17.37-.53.27-.28.52-.87.75-1.06 1.36-.3.1-.4.41-.53.68-.15.03-.21.15-.27.27-.03.2-.22.23-.26.41-.01.17-.17.19-.13.41-.16.06-.27.18-.26.41-.18 0-.12.24-.27.28.03.26-.15.3-.13.55-.28.12-.21.6-.4.82-.12.28-.27.54-.4.82.03.2-.08.29-.13.41-.01.03.02.12 0 .14-.01.02-.13-.01-.13 0-.05.12.04.3 0 .41-.01.02-.12-.01-.14 0-.04.05.05.23 0 .28-.01.02-.12-.02-.13 0-.03.07.02.2 0 .27-.02.13-.09.17-.13.27-.1.3-.28.53-.27.95-.16.03-.14.22-.13.41-.22 0-.08.38-.27.41-.09.73-.3 1.32-.53 1.9-.09.73-.33 1.3-.4 2.04V29c.21.426.29.98.54 1.36.18.14.5.13.53.41.41-.1.39.236.8.14.03.11.11.16.27.14h1.47c.18-.046.26-.198.54-.14.27-.185.63-.26.93-.41.19-.034.23-.224.4-.27.27-.005.17-.375.53-.274.17-.28.39-.51.67-.68-.01-.23.11-.344.27-.404-.09-.37.27-.276.27-.545.19-.035.15-.3.27-.41.07-.2.2-.34.26-.54.19-.034.16-.3.27-.41.07-.2.2-.34.27-.543.3-.144.23-.664.53-.813.07-.43.24-.76.4-1.09.17-.33.33-.66.4-1.09.22 0 .07-.37.27-.4-.05-.32.25-.29.14-.68.22 0 .07-.37.27-.4-.01-.23.03-.42.13-.54.18-.31.23-.77.4-1.09.17-.82.55-1.43.67-2.31.13-.32.24-.67.27-1.09.14-.36.28-.72.27-1.23V15c-.02-.13.14-.16.14-.27 0 0-.13.01-.14 0-.04-.033.04-.22 0-.27.07-.57-.23-.76-.27-1.22-.2-.076-.33-.21-.4-.41zm51.777-8.026h3.734c.02.302.57.06.81.138-.02.294.48.06.67.134.01.134.17.107.27.138.11.024.13.135.27.134.32-.056.29.25.67.137.03.16.25.114.41.136 0 .13.16.106.27.135.09.184.29.255.54.272-.04.313.39.15.4.408.36-.1.27.27.54.27.04.28.36.272.54.41.12.24.32.395.4.68.2.117.43.203.4.542.28.04.27.363.4.545.06.122.12.243.27.27-.02.16.03.244.13.273-.06.428.19.533.27.815-.04.22.13.236.13.41-.01.192-.02.384.14.406.1.62.11 1.33.27 1.9.07 1.2-.08 2.19-.14 3.26-.2.69-.22 1.58-.53 2.17.04.49-.25.65-.27 1.09-.02.43-.3.6-.26 1.09-.19.03-.04.4-.26.41.06.28-.09.36-.13.54-.11.12-.14.3-.13.54-.19.03-.04.4-.26.4-.02.43-.3.6-.27 1.09-.13 0-.11.16-.14.27-.11-.03-.12.05-.13.13-.1.12-.14.31-.13.54-.27.04-.12.5-.4.54.02.16-.03.24-.13.27.02.16-.03.24-.13.27l-.54 1.08c-.07.2-.2.34-.27.54 0 .27-.36.17-.27.54-.18.09-.25.29-.26.54-.25.01-.09.45-.4.4.02.34-.21.42-.27.68-.25.01-.09.45-.4.4-.07.2-.19.34-.26.54-.25.01-.1.45-.4.41.1.37-.27.27-.27.54-.25.02-.09.45-.4.41-.07.19-.21.33-.4.41.1.37-.26.27-.27.54-.32.21-.59.49-.8.81-.41.13-.42.66-.93.68-.08.2-.21.33-.4.4.04.31-.39.15-.4.4-.27 0-.17.37-.54.27.04.31-.39.15-.4.4-.11.07-.22.14-.4.14-.03.15-.27.09-.27.27-.26.06-.34.29-.67.27-.04.28-.5.13-.53.41-.33-.02-.41.21-.67.27-.25.11-.48.23-.8.27.03.17-.2.07-.26.14-.01.01.02.13 0 .14-.12.04-.27-.03-.4 0-.02.16-.24.11-.4.13 0 .13-.16.1-.26.13-.18.14-.49.14-.67.28-1.61.31-3.25.59-5.2.55-.58.09-.75-.23-1.33-.14-.38.11-.34-.19-.67-.14-.21-.02-.51.06-.53-.14-.56.07-.75-.24-1.2-.27-.09-.06-.15-.09-.27-.14-.04-.02-.23.04-.26 0-.01-.01.02-.13 0-.13-.05-.02-.23.04-.27 0-.01-.01.02-.13 0-.13-.08-.03-.18.02-.26 0-.1-.3-.62-.18-.66-.54-.23 0-.35-.11-.4-.28-.21.04-.23-.12-.4-.13-.17-.23-.28-.53-.67-.54-.12-.24-.3-.42-.54-.54.06-.43-.36-.36-.4-.68-.14-.18-.13-.51-.4-.55.02-.25-.16-.29-.13-.55-.15-.03-.1-.27-.27-.27.01-.42-.17-.65-.27-.96.06-.29-.09-.36-.13-.55.01-.2.02-.39-.14-.41 0-.36.05-.78-.13-.95v-2.1c.01-.22-.06-.52.13-.55-.12-1.07.27-1.63.27-2.58.36.1-.09-.64.27-.55-.05-.28.1-.36.14-.54-.04-.49.25-.66.27-1.09.03-.11.14-.13.13-.27-.02-.16.03-.24.14-.27.02-.22-.06-.52.14-.55.02-.44.31-.6.27-1.09.18-.09.25-.29.27-.55.12-.11.08-.37.27-.4-.06-.28.09-.36.13-.54.12-.11.08-.37.27-.4.02-.48.38-.61.4-1.09.3-.15.23-.67.53-.81-.09-.37.27-.27.27-.54-.01-.24.17-.29.14-.54.34-.11.34-.56.53-.81.13 0 .11-.16.14-.27.12.03.13-.05.14-.13.13-.01.11-.17.14-.27.11.03.13-.05.13-.13.13 0 .11-.17.14-.27.11.03.12-.05.13-.14.13 0 .1-.17.13-.27.12.02.13-.05.14-.14.31.05.15-.39.4-.4.05-.18.24-.21.27-.41.13 0 .1-.16.13-.27.12.02.13-.05.14-.14.17-.04.21-.24.4-.27.14-.35.34-.65.66-.81.17-.28.39-.51.67-.68.14-.35.53-.45.67-.81.28-.16.52-.37.8-.54.08-.19.21-.33.4-.41.18-.04.21-.24.4-.27.01-.13.17-.1.27-.13-.02-.11.05-.13.13-.13.06-.17.17-.28.4-.27-.04-.31.39-.15.4-.41.11-.11.37-.08.41-.27.05-.03.23.04.27 0 .02-.02-.03-.11 0-.14.02-.02.11.03.13 0 .01-.02-.02-.12 0-.13.05-.03.23.04.26 0 .02-.01-.01-.13 0-.14.09-.03.19.02.27 0 .01-.13.17-.1.27-.13 0-.13.16-.11.27-.14 0-.13.16-.11.27-.14-.03-.12.05-.13.13-.14.33-.11.52-.37.93-.41.096-.06.156-.09.27-.14.05-.02.24.04.267 0 .02-.02-.01-.13 0-.14.05-.02.24.04.27 0 .01-.01-.01-.13 0-.13.08-.03.19.02.27 0 .43-.02.59-.31 1.07-.27.31-.13.65-.23 1.06-.27.33-.11.72-.18 1.2-.13.15.02.23-.03.27-.14zm.933 7.755c-.104-.03-.264 0-.268-.13h-2.4c-.172.01-.186.18-.402.14-.2.07-.336.21-.533.27-.08.01-.158.02-.134.14-.104.03-.264.01-.268.14-.278.17-.52.38-.8.55-.166.29-.388.51-.666.68-.17.29-.39.52-.67.68-.01.09-.02.16-.14.14-.03.11 0 .27-.13.28-.03.19-.22.23-.27.41-.17.28-.37.53-.54.81-.04.2-.22.23-.27.41-.01.09-.02.16-.14.14-.03.11 0 .27-.14.27 0 .24-.11.35-.27.41.01.24-.03.43-.13.54-.12.35-.37.54-.4.96-.22 0-.08.38-.27.41.01.24-.03.43-.13.55-.15.31-.23.69-.41.96.03.26-.15.3-.14.54-.01.08-.02.16-.14.14-.03.1 0 .27-.13.27-.05.85-.54 1.27-.54 2.18-.22 0-.08.38-.27.41-.02.21.05.51-.14.55.07.53-.24.67-.13 1.23-.2.03-.13.33-.14.55-.04.19-.19.26-.13.55V29c.15.31.22.68.4.957.14.357.53.457.67.816.46.03.64.34 1.2.27h1.6c.03-.11.11-.16.27-.14.13 0 .16-.11.26-.137.33.02.41-.215.66-.273.37-.216.66-.507 1.07-.68.14-.357.53-.46.66-.816.19-.04.15-.3.27-.41.18-.09.25-.29.26-.547.19-.037.15-.3.27-.41.18-.09.25-.29.27-.546.18-.034.15-.296.26-.41.18-.09.25-.29.27-.54.19-.035.15-.3.26-.41.07-.2.2-.34.27-.54.11-.38.43-.56.4-1.09.18-.035.15-.297.26-.41.11-.03.16-.11.14-.27 0-.136.11-.16.14-.27.02-.085-.03-.193 0-.275 0-.01.12.01.13 0 .04-.03-.02-.22 0-.27 0-.02.12 0 .13 0 .03-.04-.02-.23 0-.28.04-.12.07-.18.13-.27.07-.43.23-.76.4-1.09-.03-.26.15-.3.13-.54 0-.14.11-.16.13-.27.03-.11.01-.27.14-.27-.04-.54.31-.69.27-1.23.18-.32.22-.77.4-1.09.1-.9.46-1.53.4-2.59.07-.58-.1-.9-.14-1.36-.18-.09-.25-.29-.27-.55-.2-.08-.33-.22-.4-.41-.11-.03-.27-.01-.27-.14zm-8.81-7.34c-.03.15-.264.09-.265.27-.107.08-.216.15-.4.14-.01.35-.52.2-.533.55-.42-.06-.353.37-.67.41-.117.06-.236.12-.265.27-.154-.02-.235.03-.267.14-.314.05-.247.48-.668.41-.043.32-.413.31-.532.55-.237.13-.413.31-.535.55-.334-.02-.418.21-.532.41-.236.13-.414.31-.535.55-.235.12-.414.31-.532.54-.438.24-.63.72-1.068.96-.04.32-.464.25-.4.68-.274.04-.262.37-.535.41-.154.21-.165.56-.4.68-.06.12-.116.25-.266.27.02.16-.03.24-.134.27-3.63.07-7.525-.14-10.94.14-.362.23-.635.54-.802.96-.27.04-.12.51-.4.55-.02.25-.08.45-.26.54-.16 1.02-.58 1.76-.8 2.72.02.16.25.12.4.14h8.01c.02.42-.16.65-.26.95.02.43-.35.46-.27.95-.19.03-.04.41-.26.41.04.22-.12.24-.13.41-.04.32-.16.56-.26.82.02.43-.35.46-.27.96-.15.02-.11.25-.13.41-.15.02-.11.25-.13.41-.19.03-.04.4-.26.41.01.19.02.38-.13.41-.04.31-.16.56-.27.81h-8.41c-.28.12-.4.4-.4.82-.31.04-.13.59-.4.68.01.2.02.39-.13.41.02.19.02.38-.13.41.03.22-.13.24-.13.41.01.2.02.39-.14.41-.02.39-.24.57-.26.95-.08.29-.33.39-.27.82-.15.02-.11.25-.13.41-.15.03-.11.25-.13.41-.31.05-.13.59-.4.68-.07.66-.34 1.23-.53 1.77-.01.03.02.12 0 .14-.01.01-.12-.02-.13 0-.04.08.06.35 0 .41-.02.02-.13-.02-.14 0-.03.08.03.19 0 .27-.09.28-.23.51-.26.82-.27.09-.08.64-.4.68.02.2.03.39-.13.41.01.2.02.39-.13.41.07.43-.19.53-.27.82.04.4-.3.42-.27.82h-9.87c-.04-.28.08-.37.13-.55.08-.25.11-.55.27-.82.02-.02-.02-.11 0-.13.02-.01.13.02.14 0 .09-.22-.02-.41.14-.54-.02-.25.17-.29.14-.55.19-.03.05-.4.27-.4-.09-.5.28-.52.26-.95.18-.27.25-.65.4-.95-.01-.24.16-.28.14-.54.11-.11.08-.38.27-.41.06-.8.48-1.23.53-2.04.2-.03.05-.4.27-.41-.02-.24.17-.28.14-.54.15-.3.22-.68.4-.95.16-.7.43-1.28.67-1.9.16-.7.44-1.28.67-1.91.07-.38.2-.7.27-1.09.1-.3.28-.53.27-.95.13 0 .1-.17.13-.27.11.03.13-.05.14-.13-.02-.24.16-.29.13-.54.15-.3.22-.68.4-.95-.01-.24.17-.29.14-.55.12-.11.08-.37.27-.4-.01-.42.17-.65.27-.96.16-.75.53-1.28.67-2.04.23-.62.51-1.2.66-1.91.19-.03.05-.4.27-.4-.05-.29.1-.36.14-.55.1-.12.14-.31.13-.54.19-.03.04-.41.26-.41-.02-.24.16-.29.13-.55.11-.11.08-.37.27-.41-.02-.24.16-.28.13-.54.14-.03.09-.27.27-.27-.01-.23.1-.35.26-.4 0-.23.1-.35.27-.41-.01-.23.1-.35.27-.41-.04-.22.12-.24.13-.41.39-.06.32-.58.67-.68.09-.32.44-.36.53-.68.28-.17.52-.38.8-.54 0-.13.16-.1.27-.13-.03-.11.05-.13.13-.13.06-.12.12-.24.27-.27.11-.11.36-.08.4-.27.11-.12.36-.08.4-.27.42.03.44-.36.93-.27.03-.19.4-.04.4-.27.28.06.36-.09.54-.14.31-.1.69-.12.94-.27.7-.11 1.47-.14 2.14-.27 3.87-.01 17.17-.01 19.75-.01zm78.6 0c-.06.1-.086.16-.135.27-.018.05.038.25 0 .27-.013.01-.123-.01-.13 0-.02.05.035.24 0 .27-.017.01-.13-.01-.136 0-.03.09.02.19 0 .27-.11.13-.15.31-.14.55-.19.03-.05.41-.27.41-.2.71-.42 1.39-.67 2.04-.11.12-.15.31-.14.55-.19.03-.05.41-.27.41.08.54-.36.55-.27 1.09-.2.03-.05.41-.27.41.01.25-.17.29-.14.55-.15.31-.22.68-.4.96h-11.21c-.34.02-.22.51-.4.68-.04.32-.16.56-.27.82-.11.26-.22.5-.27.82-.08.29-.33.39-.27.82-.16.02-.12.25-.14.41-.16.03-.11.25-.14.41-.27.09-.09.64-.4.68.01.19.02.39-.14.41.01.19.02.39-.14.41-.02.09.02.19 0 .28-.03.13-.14.36-.27.41.01.19.02.38-.13.41.01.2.02.39-.13.41-.05.32-.16.57-.27.82.03.4-.3.42-.27.82-.14.18-.13.5-.27.68.03.4-.3.42-.27.82-.11.26-.23.5-.27.82-.24.44-.4.96-.54 1.5-.1.26-.22.5-.26.82-.16.02-.12.25-.14.41-.16.02-.11.25-.14.4-.15.04-.09.27-.27.27.01.2.02.39-.13.41.01.2.02.39-.14.41.01.19.02.39-.13.41.06.43-.19.53-.27.82-.04.32-.16.57-.27.82-.11.57-.36.99-.53 1.5-.1.63-.44 1.01-.53 1.63-.08.28-.33.39-.27.81.03.22-.13.24-.14.41.02.16-.03.24-.14.27-.26 1.14-.81 1.99-1.06 3.13h-9.07c.03-.3.18-.58.27-.81.02-.08-.04-.19 0-.27 0-.02.12.02.13 0 .02-.02-.01-.11 0-.13.05-.12.15-.21.13-.4.17-.51.43-.93.53-1.5.41-.99.75-2.04 1.07-3.13.21-.51.39-1.05.53-1.63.15-.02.11-.24.13-.41.16-.02.11-.25.13-.4.16-.02.11-.25.14-.41.13 0 .1-.17.13-.27.2-.52.38-1.06.53-1.63.15-.02.11-.25.13-.41.16-.02.11-.25.13-.41.15-.02.11-.25.13-.41.13 0 .1-.16.13-.27.15-.02.11-.25.13-.4.16-.02.11-.25.13-.41.31-.04.13-.59.4-.68-.06-.42.19-.53.27-.81-.04-.22.13-.23.13-.41-.02-.15.03-.24.13-.27.07-.65.3-1.14.53-1.63.14-.55.3-1.06.54-1.5.09-.63.44-1 .53-1.63.24-.44.4-.95.54-1.49.23-.44.4-.95.53-1.49.11-.25.22-.49.27-.81.15-.02.11-.25.13-.4.02-.11.13-.14.13-.27.02-.29-.48-.06-.67-.13h-4.94c.07-1.03-.09-1.82-.14-2.72-.07-.11-.14-.22-.13-.41.02-.16-.02-.24-.13-.27.1-.42-.23-.4-.13-.82-.16-.02-.11-.25-.13-.41-.13 0-.11-.16-.14-.27-.13 0-.1-.16-.13-.27-.03-.11-.14-.13-.14-.27-.12-.28-.41-.4-.4-.81-.31-.1-.4-.41-.54-.68-.31-.09-.35-.45-.66-.55-.06-.12-.12-.24-.27-.27-.08-.12-.16-.24 0-.27h18.42c4.54.01 9.08.01 13.61.01z"/>
    <path fill="#EC8123" d="M476.403 5.156c.237-.04.273.126.13.134-.058.122-.116.244-.265.273-.235.12-.39.328-.67.408-.117.24-.488.23-.53.55-.335-.02-.418.21-.534.41-.275.08-.43.29-.666.41-.116.2-.202.43-.533.41-.232.45-.705.65-.937 1.09-.234.13-.413.31-.534.55-.235.13-.413.31-.53.55-.436.24-.667.68-.936 1.09-.314.05-.3.42-.534.55-.04.28-.36.27-.402.55-.04.32-.463.26-.398.68-.27.04-.264.37-.533.41h-12.54c-.27.13-.52.28-.8.41-.31.09-.35.45-.67.54-.09.32-.44.37-.53.68-.19.06.02.12 0 .27v.55c.24.21-.02.94.54.82.01.13.17.1.27.14-.02.11.06.13.14.13.12.11.3.15.54.14.01.13.17.11.27.14-.02.11.06.13.14.14.43.02.59.31 1.07.27.03.2.4.05.4.28.37.07.7.2 1.07.27.27.18.64.26.94.41.67.18 1.14.57 1.73.82.04.28.36.27.54.41.04.28.36.27.4.55.27.04.27.37.4.55.31-.04.15.39.4.41-.02.16.03.24.13.27.04.28.07.57.13.82.02.04.13.01.14.14.01.19-.04.39.14.41v2.72c-.08.33-.19.63-.13 1.09-.19.03-.04.41-.26.41v.55c-.2.03-.05.41-.27.41.01.19.02.38-.14.41.09.5-.28.52-.26.95-.29.12-.22.6-.4.82-.13.28-.27.54-.4.82-.12.29-.41.4-.4.82-.15.04-.09.27-.27.27-.07.11-.14.22-.14.41-.39.06-.32.59-.67.68-.09.32-.44.37-.54.68-.27.17-.5.4-.66.69-.18.05-.21.24-.4.27-.11.06-.23.13-.26.28-.57.27-.99.71-1.6.95-.33.11-.52.37-.93.41-.11.29-.59.22-.8.41-1.2.49-2.56.83-4 1.09-1.93.28-3.99.27-6 .27H426c-.05-.33.25-.3.14-.68.19-.03.046-.4.267-.4-.11-.38.19-.35.14-.68.19-.03.05-.41.27-.41-.105-.39.19-.35.14-.68.19-.03.046-.41.27-.41.02-.43.3-.6.265-1.09.18-.08.25-.29.27-.54.1-.12.14-.31.13-.55.13 0 .11-.16.14-.27.02-.11.14-.14.14-.27.1-.12.14-.31.13-.55.13 0 .106-.17.136-.27.023-.11.132-.13.132-.27-.02-.24.16-.29.13-.55.18-.27.26-.64.41-.95 2.75-.02 11.84 0 12.542 0 1.34 0 5.87-.14 6.8-.14.99 0 1.87.09 2.67-.13.074-.07.165-.07.265-.13.656-.4 1.12-1.03 1.066-2.17-.002-.86-.64-1.07-1.2-1.36-.29-.15-.66-.23-.93-.41-.302-.1-.68-.12-.94-.27-.42-.02-.58-.31-1.06-.28-.03-.2-.397-.05-.4-.27-.193.01-.38.02-.403-.14-.82-.03-1.17-.54-1.87-.68-.096-.36-.61-.29-.67-.68-.47.02-.44-.46-.8-.55-.165-.28-.37-.53-.533-.81-.132 0-.106-.16-.135-.27-.12.03-.13-.05-.14-.13-.11-.11-.08-.37-.263-.4.01-.2.02-.39-.14-.41-.08-.2.15-.71-.14-.68.01-.61-.08-1.37.13-1.91-.08-.76.3-1.05.26-1.77.13 0 .1-.16.13-.27.02-.11.13-.13.13-.27-.06-.33.24-.29.13-.68.18-.09.24-.29.26-.54.07-.2.19-.34.26-.54.02-.11.13-.13.13-.27-.02-.16.03-.24.14-.27.02-.25.09-.46.27-.54.02-.48.38-.61.4-1.09.25-.01.48-.86.66-.95.07-.2.19-.34.27-.54.16-.06.27-.18.26-.41.19-.08.32-.22.4-.41.25-.02.09-.45.4-.41.14-.36.53-.46.67-.82.26-.14.57-.24.66-.55.1-.12.36-.08.4-.27.1-.07.96-.38 1.06-.68.42.03.44-.36.93-.27.02-.19.77-.25.8-.4.49.1.57-.23 1.06-.13.2-.21 1.4-.25 1.6-.27.18 0 .77-.13.93-.13h21.22zm79.797 0c4.388.06 9.032-.142 13.213.134.627.13 1.25.267 2 .273.022.16.243.115.4.135.216-.04.228.13.4.136.423-.066.47.246.937.137.034.29.492.13.53.41.335-.02.414.22.666.27.273.05.264.37.536.41.19.08.323.22.4.41.272.04.263.37.535.41.055.12.113.24.265.27-.02.16.03.24.134.28.136.18.128.51.4.55.018.25.09.46.268.55-.01.2-.023.39.132.41.075.2-.155.71.133.69v2.04c.06.43-.24.48-.14.95.04.22-.13.24-.13.41.01.2.02.39-.14.41.1.47-.2.52-.14.95-.16.03-.12.25-.14.41-.14.04-.09.27-.27.27-.01.73-.48.96-.67 1.5-.12.24-.33.4-.4.68-.04.28-.36.27-.4.55-.12.24-.3.42-.54.54.06.43-.36.36-.4.68-.24.13-.42.31-.54.55-.24.13-.42.31-.54.55-.42-.07-.35.36-.67.41-.12.24-.49.22-.53.54-.22-.04-.23.13-.4.14-.03.15-.27.09-.27.27-.18.14-.5.13-.54.41-.39-.03-.41.31-.8.28-.04.28-.5.13-.53.41-.33-.02-.42.21-.67.27-.33-.02-.41.22-.67.27-.09.5.29.52.26.95.32.05.13.6.4.68-.02.43.36.46.27.95.31.05.13.6.4.68.09.31.12.7.27.95.11.26.22.5.26.82.15.26.17.64.27.95.1.26.22.5.26.82.19.58.29 1.24.53 1.77-.05.29.09.37.14.55.01.07-.05.36 0 .41 0 .01.12-.01.13 0 .01.07-.05.36 0 .41.01.01.13-.01.13 0 .03.17-.03.36 0 .54.18.04.11.34.13.55.16.02.11.25.13.41.16.02.11.25.14.41.07.11.14.22.13.41.11.61.4 1.04.4 1.77H561.2c0-.59-.31-.86-.267-1.5-.36.1.09-.64-.27-.54.04-.31-.02-.52-.14-.68 0-.59-.31-.86-.26-1.5-.11-.16-.177-.36-.134-.68-.37.1.1-.64-.27-.54 0-1.13-.49-1.77-.53-2.85-.36.1.09-.64-.27-.54.04-.31-.02-.52-.13-.68-.05-.49-.17-.91-.26-1.36-.28.04-.27.37-.4.55.04.22-.13.24-.14.41.03.16-.02.24-.13.27-.02.09.02.19 0 .27-.03.13-.14.36-.27.41.09.42-.23.4-.13.82-.16.02-.12.25-.14.41-.13 0-.1.16-.13.27-.16.02-.12.25-.14.41-.14 0-.11.16-.14.27-.16.02-.11.25-.13.41-.13 0-.1.16-.13.27-.06.26-.29.34-.27.68-.25.38-.33.93-.53 1.36-.21.42-.29.98-.54 1.36.02.34-.21.42-.27.68.03.22-.13.23-.13.41.02.15-.04.24-.14.27-.09.51-.32.85-.4 1.36H544.3c.15-.8.59-1.3.67-2.18.124 0 .1-.17.13-.27.11.03.124-.05.13-.13-.02-.24.16-.28.134-.54.18-.27.26-.65.4-.95.02-.26.09-.46.27-.55-.056-.29.09-.36.134-.55-.017-.24.164-.29.134-.54.113-.11.08-.37.265-.41.123-.78.384-1.42.67-2.04-.06-.32.24-.29.13-.68.19-.03.042-.4.27-.4.02-.43.3-.6.26-1.09.198-.03.05-.4.27-.4-.06-.28.09-.36.13-.54.11-.12.15-.3.14-.54.197-.03.05-.41.27-.41-.082-.54.36-.55.27-1.09.19-.03.045-.4.27-.4-.06-.28.087-.36.13-.54.25-.65.476-1.33.67-2.04.16-.33.33-.66.396-1.09.18-.27.253-.65.4-.95-.018-.24.163-.28.132-.54.19-.03.05-.4.266-.4-.03-.49.25-.66.27-1.09.13-.01.11-.17.14-.27.02-.12.14-.14.14-.28-.01-.24.17-.29.14-.54.14-.3.22-.68.4-.95.14-.76.51-1.29.66-2.04.17-.33.33-.66.4-1.08.18-.27.26-.65.4-.95-.02-.24.17-.28.14-.54.12-.11.08-.37.27-.4-.05-.29.1-.36.14-.55.12-.11.08-.37.27-.41-.05-.28.08-.36.13-.54.08-.25.1-.55.27-.81.02-.02-.02-.11 0-.13.02-.01.13.02.14 0 .09-.22-.02-.41.13-.54.16-.74.53-1.28.67-2.04.11-.11.07-.37.26-.4zm6.808 14.553c.376.11.344-.2.665-.14.133 0 .16-.11.268-.14.11-.03.27-.01.27-.14.25-.02.45-.09.54-.27.42.1.26-.38.67-.27.17-.29.39-.52.67-.69.03-.2.22-.23.27-.41.08-.2.21-.34.4-.41.11-.66.56-.98.67-1.64.19-.18.08-.64.27-.82-.02-.44.24-.58.14-1.09-.15-.03-.14-.22-.13-.41-.1-.03-.15-.12-.13-.27-.37-.26-.65-.61-1.2-.68-.15-.16-.47-.16-.8-.14-.31 0-.39-.24-.8-.14-.7-.08-1.15.1-1.73.14-.03-.17-.15-.09-.27 0v.27c-.28.11-.21.6-.4.82.02.43-.35.45-.26.95-.16.02-.15.21-.14.4-.18.03-.15.3-.27.41.03.25-.14.3-.12.54-.01.08-.02.16-.13.14-.03.1 0 .26-.13.27.01.42-.16.65-.27.95-.04.18-.19.26-.13.54-.22 0-.08.37-.27.41-.05.8-.48 1.23-.53 2.04.95-.12 2.04-.1 2.94-.27z"/>
    <path fill="#41424A" d="M533.784 46.643c-.098.31-.12.694-.27.95.012.194.023.386-.133.408.02.2.03.39-.13.41-.07.66-.3 1.14-.53 1.64-.53-.27-1.06-.54-1.6-.81-.21-.19-.69-.11-.8-.41-.41.02-.63-.16-.93-.27-.46.11-.51-.2-.93-.13-.85-.05-1.4.2-2.13.27-.03.2-.4.05-.4.28-.21-.03-.22.13-.4.14-.04.04-.23-.04-.26 0-.02.03.02.12 0 .14-.02.02-.11-.02-.13 0-.01.02.02.13 0 .14-.06.04-.19-.03-.26 0-.02.01-.02.22-.13.14-.18.05-.21.24-.4.28-.12.06-.24.12-.27.27-.26.13-.56.23-.66.54-.31.09-.36.45-.67.54 0 .4-.3.51-.53.68-.11.66-.55.98-.66 1.63-.14.04-.09.27-.27.27.02.2.03.39-.13.41.01.2.02.39-.13.41.01.2.02.39-.13.41 0 .82-.23 1.4-.13 2.31.03.11.14.14.14.27.02.58.48.69.67 1.09.27.01.17.38.53.28-.04.32.39.15.4.41.61.06 1.14.21 1.87.14h.54c.15.02.24-.03.26-.13.33.02.65.02.8-.13.29-.11.22-.59.4-.81.11-.3.28-.53.27-.95.19-.03.05-.41.27-.41-.04-.22.13-.23.14-.41.02-.38.25-.56.27-.95-.02-.3-.56-.06-.8-.14h-2.4c-.05-.65.29-.91.4-1.5.16-.02.12-.24.14-.4.14 0 .11-.17.14-.27.13 0 .1-.17.14-.27.03-.11.14-.14.13-.27h6.54c-.08.82-.39 1.41-.53 2.18-.15.71-.46 1.25-.53 2.04-.19.03-.05.41-.27.41.02.24-.16.29-.13.55-.17.27-.25.65-.4.95-.04.42-.29.61-.4.95.02.43-.36.46-.27.95-.2.07-.34.2-.53.27-.07.2-.21.34-.4.41-.32.17-.64.34-1.06.41-.15.11-.36.18-.67.14.1.37-.63-.1-.53.27-.52-.03-.98-.01-1.34.14h-3.2c-.37-.07-.69-.2-1.06-.27-.21-.19-.69-.12-.8-.41-.24.02-.28-.17-.53-.14-.06-.16-.17-.27-.4-.27-.1-.31-.4-.4-.67-.54.02-.34-.2-.42-.4-.54.06-.32-.24-.29-.13-.68-.19-.03-.05-.4-.27-.4v-2.6c-.02-.24.16-.29.13-.54.02-.22-.06-.52.14-.54.01-.22-.07-.52.13-.55.01-.22-.07-.52.13-.54-.03-.5.25-.66.27-1.09.13-.01.1-.17.13-.28.12.02.13-.05.14-.14.12-.11.08-.37.27-.41.14-.76.68-1.13.93-1.77.13-.01.11-.17.14-.27.11.02.13-.06.13-.14.17-.06.28-.18.27-.41.28-.17.5-.39.67-.68.28-.17.5-.39.67-.68.28-.17.52-.38.8-.55.06-.39.57-.32.67-.68.04-.03.23.04.26 0 .02-.03-.02-.11 0-.14.02-.02.11.02.13 0 .02-.02-.02-.12 0-.14.05-.02.23.04.27 0 .01-.01-.02-.13 0-.13.08-.03.18.02.26 0 0-.13.16-.11.27-.14-.03-.11.05-.13.13-.14.11-.12.37-.08.4-.27.53.09.54-.36 1.07-.27.04-.19.33-.11.53-.14.05-.19.34-.11.54-.14.11-.05.14-.11.27-.14.09-.01.19.03.27 0 .2-.05.25-.06.4-.13h2.8c.24-.02.28.17.54.14.19-.01.38-.02.4.14.21.01.51-.06.53.14.19-.01.38-.02.4.13.73.02 1.06.45 1.73.54zm-95.812 6.667c-.042.31.385.148.398.404.192.076.327.214.402.41.33.16.523.465.666.816v1.495c-.073.56-.382.88-.4 1.5-.145.03-.09.268-.266.27-.07.11-.14.22-.136.405-.144.037-.09.27-.267.274-.07.108-.14.22-.14.41-.31.09-.36.45-.67.542-.09.316-.45.363-.54.68-.23-.006-.35.1-.4.27-.8.18-1.21.764-2.14.816.09.37-.63-.096-.54.272-.22.01-.51-.065-.54.138-.49-.04-.87.02-1.21.134-1.07-.005-2.13.007-3.2 0-1.08-.005-2.09-.062-3.07-.134-.04-.49.24-.657.27-1.088.1-.123.14-.31.13-.546.19-.03.04-.404.27-.406-.01-.91.48-1.323.53-2.18.19-.027.04-.403.27-.406-.02-.244.16-.287.13-.543.1-.122.14-.31.13-.545.19-.03.04-.407.27-.408-.04-.49.24-.655.26-1.088.19-.03.04-.405.27-.407-.01-.194-.02-.385.13-.41-.09-.54.35-.55.27-1.088.19-.03.05-.406.26-.408-.02-.25.16-.29.13-.55.14-.31.22-.68.4-.95-.02-.25.16-.29.13-.55.2-.03.05-.41.27-.41-.08-.55.36-.55.27-1.09.19-.03.04-.41.27-.41-.02-.25.16-.29.13-.55.1-.12.14-.31.13-.55.19-.03.05-.41.27-.41-.01-.42.28-.53.4-.82.1-.08.21-.15.4-.14.03-.15.26-.09.26-.27.62-.09 1.27-.12 2-.14.66-.02 1.33.01 2 0 .85.12 1.79.17 2.67.27.02.16.24.11.4.14 0 .13.16.11.26.14.09.18.28.25.53.27.03.27.36.27.39.54.31-.04.15.39.4.41.16.57.15 1.42.14 2.31-.27.08-.09.63-.4.68.04.39-.3.42-.26.81-.23.17-.53.28-.54.68-.27.08-.43.28-.66.4-.12.24-.3.42-.54.54-.24.12-.39.33-.67.41zm-2.134-4.763c-.537-.133-1.172-.167-1.87-.136.007.19-.063.3-.134.41-.12.69-.468 1.16-.535 1.91-.29.12-.22.6-.4.82-.07.38-.2.71-.27 1.09h1.47c.02-.2.32-.12.53-.14.13 0 .16-.11.26-.13.1-.03.26 0 .27-.13.23.01.41-.03.53-.13.26 0 .17-.37.53-.27.21-.33.48-.6.8-.81 0-.44.38-.52.27-1.09.2-.02.12-.32.13-.54.11-.38-.19-.35-.14-.68-.38-.16-.92-.14-1.47-.13zm-.403 7.072c-.08-.01-.157-.03-.132-.14-.103-.04-.265-.01-.268-.14-.184 0-.293-.07-.4-.14-.2-.03-.492.05-.534-.14h-2.53v.41c-.19.03-.15.29-.27.4.03.25-.15.3-.13.54-.04.18-.19.26-.13.54-.22 0-.07.37-.26.4-.18.77-.49 1.4-.66 2.17h.53c.23-.06.35.2.4 0h1.34c.16-.07.21-.09.4-.14.09-.02.19.02.27 0 .13-.03.17-.09.27-.14.26.03.3-.16.54-.14.08-.01.16-.02.14-.14.1-.04.26-.01.27-.14.27-.14.57-.23.67-.54.19-.03.23-.23.4-.28.01-.08.02-.16.14-.13.03-.11 0-.27.14-.27.11-.53.17-1.1.13-1.77-.15-.03-.2-.15-.26-.27zm19.35-9.93c.036 5.52-.016 10.95-.133 16.32-.725-.01-1.11.32-1.87.27h-1.066c-.022-.16-.244-.12-.4-.14-.216.04-.23-.13-.4-.14.083-.13-.128-.12-.132-.14-.02-.1.234-.33.133-.55v-.96c.007-.58.224-.95.134-1.63.03-.3-.47-.07-.66-.14h-5.07c-.31-.04-.15.39-.4.41-.07.2-.2.34-.27.54-.25.02-.09.45-.4.41.1.37-.26.27-.26.54-.21.33-.47.6-.8.81.1.37-.26.27-.27.54-.1.11-.36.08-.4.27-.81.17-1.81.15-2.8.14-.1-.69.37-.81.4-1.36.27-.04.13-.51.4-.55-.09-.37.27-.27.27-.55.04-.28.36-.27.4-.54.01-.27.37-.17.27-.54.2-.12.43-.21.41-.55.19-.08.33-.21.4-.41.04-.28.36-.27.4-.54 0-.27.37-.18.27-.55.2-.12.43-.2.4-.54.31.05.15-.39.4-.41.22-.37.5-.67.67-1.09.28-.04.27-.36.4-.54.26-.02.09-.45.4-.41-.02-.34.21-.43.4-.55-.1-.37.27-.27.27-.54.06-.12.12-.24.27-.27-.02-.16.03-.25.14-.28 0-.27.37-.17.27-.54.2-.12.43-.2.4-.54.31.04.15-.4.4-.41.21-.38.5-.68.67-1.09.15-.03.09-.27.27-.27.03-.11.14-.14.14-.28.25-.02.1-.45.4-.41.17-.42.46-.72.67-1.09.15-.03.09-.27.27-.27.03-.11.14-.14.14-.27.25-.02.09-.45.4-.41.14-.4.6-.47.93-.68 1-.25 2.4-.1 3.61-.14zm-4 4.62c-.17.05-.276.17-.27.4-.167.05-.273.17-.268.4-.15.02-.208.15-.267.27-.034.19-.22.23-.267.41-.19.03-.153.3-.268.4-.188.03-.152.3-.267.41-.176 0-.123.23-.267.27-.03.19-.22.23-.26.41-.16.28-.37.53-.53.81-.03.19-.22.23-.26.4-.19.04-.15.3-.27.41-.18.03-.15.3-.26.41-.19.03-.15.3-.27.41h4.14c.02-2.07.22-3.95.14-6.12-.01-.08-.02-.16-.13-.14.08.48-.46.34-.39.82zm16.945-4.22c.075.96.323 1.76.4 2.72.164.83.386 1.6.4 2.58.287-.02.06.48.133.68-.055.33.245.3.133.68.038.46.214.78.134 1.36.288-.03.063.48.134.68-.02.24.162.28.134.54-.095.59.225.76.133 1.35.28-.04.27-.36.4-.55-.03-.22.13-.24.14-.41-.02-.16.03-.24.13-.27.02-.62.33-.94.4-1.5.21-.43.29-.98.54-1.36.08-.51.32-.86.4-1.36.25-.38.33-.94.53-1.36.21-.43.29-.98.54-1.36-.02-.34.21-.42.27-.68-.03-.22.13-.24.14-.41-.02-.16.03-.25.13-.28-.04-.64.42-.76.54-1.23.58 0 .85-.32 1.47-.27-.02.29.48.06.67.13h.8c-.08.87-.52 1.37-.67 2.17-.19.71-.42 1.39-.66 2.04-.02.25-.09.45-.27.54.06.28-.09.36-.13.54.02.24-.16.28-.13.54-.19.03-.05.4-.27.4.09.54-.35.55-.26 1.09-.19.03-.04.4-.27.41.06.28-.09.36-.13.54-.18.31-.22.77-.4 1.09.02.24-.16.29-.13.54-.19.03-.05.4-.27.41.05.28-.08.36-.13.54-.08.25-.1.55-.27.81-.01.03.02.11 0 .14-.01.01-.12-.02-.13 0-.09.21.02.4-.13.54-.14.76-.51 1.29-.67 2.04-.35.09-.13.77-.53.81.02.25-.16.29-.13.55-.17.06-.27.18-.27.41-.69.01-1.2.22-2 .13-.77.11-1.14-.19-1.86-.13-.07-.11-.14-.22-.14-.41.03-.16-.02-.24-.13-.27-.07-.2.16-.7-.13-.68-.07-.2.16-.7-.13-.68-.07-.2.16-.71-.13-.68-.13-.11.17-.68 0-.82-.01-.01-.13.01-.13 0-.02-.11.08-.62 0-.68-.01-.01-.13.01-.13 0-.07-.45-.06-.96-.13-1.5-.2-.38-.12-1.05-.27-1.5.11-.39-.19-.35-.13-.68-.07-.2.16-.71-.14-.68.07-1.17-.32-1.86-.27-3-.34.02-.21.51-.4.68-.07.11-.14.22-.13.41.02.16-.03.24-.13.27.06.43-.19.53-.27.82.04.22-.13.23-.13.4.02.16-.03.24-.13.28-.01.66-.39.96-.4 1.63-.16.02-.11.24-.14.4-.12 0-.1.16-.13.27-.16.02-.11.25-.13.41-.13 0-.1.17-.13.27-.17.51-.43.92-.53 1.49-.24.44-.4.95-.53 1.5-.16.02-.11.24-.13.41-.16.02-.12.25-.14.41-.15.02-.11.25-.13.41-.13 0-.1.17-.13.27-.25.38-.33.93-.53 1.36h-3.07c.08-.88.52-1.38.67-2.18.25-.66.47-1.33.66-2.04.17-.33.33-.67.4-1.09.11-.12.15-.31.14-.55.19-.03.05-.41.27-.41.02-.43.3-.6.26-1.09.19-.03.05-.4.27-.41-.02-.25.16-.29.13-.55.03-.11.14-.14.13-.27-.02-.16.03-.25.14-.28-.02-.25.16-.29.13-.54.11-.12.15-.31.14-.54.19-.03.05-.41.27-.41-.09-.54.35-.54.27-1.09.19-.03.04-.41.26-.41-.02-.24.17-.29.13-.54.18-.27.26-.65.4-.96-.01-.24.17-.28.14-.54.19-.03.05-.41.27-.41-.06-.28.09-.36.13-.54.11-.11.08-.38.27-.41-.03-.48.45-.45.53-.82.25-.02.45-.09.53-.27.41.1.49-.14.8-.14 1.12-.01 1.97.26 2.94.4zm14.41 6.39c-.195.08.014.16 0 0 .324-.22.59-.49.802-.82.323-.22.59-.49.8-.82.517-.02.526-.56.936-.69.184-.4.615-.55.8-.95.322-.22.59-.49.8-.82.365.1.27-.27.535-.27.04-.28.36-.27.4-.55.323-.21.59-.49.8-.82.19-.08.326-.21.4-.41.177-.13.495-.13.535-.4.487-.09 1.014-.15 1.468-.28.808.04 1.485.21 2.268.27-.196.61-.777.83-1.067 1.36-.177 0-.122.23-.267.27-.033.19-.22.23-.267.4-.28.17-.503.4-.667.68-.152.03-.21.15-.268.27-.23-.01-.342.11-.4.28-.15.03-.208.15-.266.27-.083.01-.16.02-.137.14-.102.03-.262 0-.266.14-.31.09-.36.45-.67.54-.1.36-.61.29-.67.68-.15.03-.21.15-.27.27-.08.01-.16.02-.13.14-.11.03-.27 0-.27.13-.28.17-.5.39-.67.68-.27.14-.57.23-.67.54-.28.17-.51.39-.67.68.12.73.28 1.43.53 2.04.06.38.19.71.26 1.09.04.18.19.26.13.54.22 0 .07.38.26.41.1.8.35 1.45.53 2.17-.03.26.15.3.13.55.02.2-.05.5.13.54-.11.57.2.7.13 1.23-1.08.26-2.59.09-3.87.13.04-.82-.45-1.09-.4-1.91-.16-.02-.15-.21-.14-.41-.04-.18-.19-.26-.13-.54-.11-.3-.28-.53-.27-.95-.25-.56-.29-1.34-.54-1.9-.18-.63-.27-1.35-.53-1.9-.16.03-.15.22-.14.41-.22 0-.08.38-.27.41.08.54-.36.55-.27 1.09-.16.02-.15.22-.14.41-.23-.05-.04.32-.13.41-.02.02-.13-.01-.14 0-.03.08.03.19 0 .27-.09.28-.24.54-.26.82-.01.17-.17.19-.13.41-.22 0-.08.38-.27.41.08.54-.36.54-.27 1.09-.22 0-.08.38-.27.41.03.26-.15.3-.13.54-.15.31-.22.68-.4.95h-3.34c-.05-.5.14-.75.26-1.09-.03-.25.15-.3.13-.54.22 0 .08-.38.27-.41.12-.78.38-1.42.67-2.04.16-.75.53-1.28.67-2.04.28-.61.54-1.26.66-2.04.19-.04.16-.3.27-.41-.03-.26.15-.3.14-.55.14-.31.22-.68.39-.95.16-.75.53-1.28.67-2.04.22 0 .08-.38.27-.41-.01-.24.03-.42.13-.54v-.14c.01-.14.12-.09.13-.14.03-.08-.02-.19 0-.27.02-.1.13-.11.13-.14.03-.08-.02-.19 0-.27.02-.09.13-.12.14-.14.04-.15-.05-.39.13-.41-.01-.24.03-.43.13-.55-.03-.26.15-.3.13-.54 0-.14.11-.17.14-.27.03-.11 0-.27.13-.27.32-.27 1.07-.09 1.6-.14h1.87c.05.82-.41.99-.4 1.63-.15.02-.14.22-.13.41-.15.02-.14.21-.13.4-.27.08-.09.64-.4.68-.01.67-.39.96-.4 1.63-.17 0-.12.24-.27.27-.02.16.02.38-.13.4-.02.16.02.38-.13.41-.02.15.02.38-.14.4v.41zm16.68-6.8c.445-.1.216.28.135.4.055.28-.093.36-.136.54-.03.43-.31.59-.27 1.08-.4 1-.67 2.12-1.07 3.13-.02.43-.3.6-.27 1.08-.13 0-.1.16-.13.27-.12-.03-.13.05-.14.13.01.24-.17.29-.14.54-.19.03-.05.4-.27.41.05.28-.1.36-.14.54-.03.11-.14.14-.14.27.02.16-.03.24-.13.27-.01.21.06.52-.14.54.03.48-.25.65-.27 1.08-.18.27-.26.65-.4.95.01.24-.17.29-.13.54-.19.03-.05.4-.27.41.11.38-.19.35-.13.68-.12.11-.08.37-.27.41.03.49-.25.66-.27 1.09-.18.27-.26.65-.4.95.01.24-.17.29-.14.54-.11.11-.08.37-.27.41-.36.26-1.17.08-1.74.13H490c-.057-.33.243-.3.133-.68.19-.03.044-.41.264-.41.02-.43.303-.6.267-1.09.193-.03.05-.41.27-.41-.02-.25.16-.29.132-.55.1-.12.14-.31.13-.55.19-.03.05-.41.27-.41.02-.43.3-.59.264-1.08.19-.04.045-.41.267-.41-.02-.25.164-.29.135-.55.1-.12.14-.31.13-.54.19-.04.046-.41.27-.41.02-.43.3-.6.265-1.09.126-.01.1-.17.133-.27.024-.11.134-.14.133-.27.105-.13.146-.31.137-.55.19-.03.043-.41.263-.41-.056-.29.093-.36.136-.55.15-.74.52-1.27.66-2.04.18-.27.25-.64.4-.95-.02-.24.16-.29.13-.54.19-.03.05-.41.26-.41-.04-.49.25-.66.27-1.09.19-.03.04-.41.26-.41-.06-.29.09-.36.13-.55.91-.2 2.15-.07 3.06-.27zm9.34.4c.07.98.385 1.69.403 2.72.186.2.078.4.13.68.034.16.222.27.138.68.11.39.16.84.27 1.22.21 1.82.56 3.51.8 5.3.16-.03.11-.25.14-.41.13-.01.11-.17.14-.27.14-.18.13-.51.27-.68 0-.21.08-.26.14-.41.05-.13-.03-.27.14-.27-.05-.33.24-.3.14-.68.16-.03.11-.25.14-.41.13-.01.11-.17.14-.27.06-.26.29-.35.27-.68.14-.18.13-.5.27-.68.02-.25.09-.46.27-.55.02-.62.33-.94.4-1.5.16-.03.12-.25.14-.41.13-.01.11-.17.14-.27.03-.11.14-.14.14-.28-.02-.16.03-.25.13-.28.04-.55.25-.92.4-1.36 0-.29.19-.46.27-.68.02-.05-.03-.24 0-.27.01-.01.13.01.14 0 .03-.13-.03-.28 0-.41 1.04-.12 2.14-.18 3.33-.14-.14.8-.59 1.3-.66 2.17-.13 0-.1.17-.13.27-.12-.02-.13.06-.14.14.02.24-.16.28-.13.54-.15.3-.22.68-.4.95-.18.77-.49 1.4-.67 2.17-.29.61-.55 1.26-.67 2.04-.18.09-.25.29-.27.54-.1.12-.14.3-.13.54-.13 0-.1.17-.13.27-.11-.03-.12.05-.13.13.02.24-.16.28-.13.54-.18.27-.25.65-.4.95.02.25-.16.29-.13.55-.11.11-.08.37-.26.41-.12.78-.39 1.42-.67 2.04.02.24-.16.29-.13.54-.11.11-.08.37-.26.4.02.48-.45.45-.54.81-.58.14-1.08.35-1.87.27-.81.1-1.21-.22-2-.14-.15-.98-.45-1.81-.53-2.86-.29.02-.06-.48-.14-.68-.11-.16-.18-.37-.14-.68-.18-.36-.15-.93-.26-1.36-.13-.46-.18-1-.27-1.5.05-.32-.02-.53-.13-.69-.07-.19.16-.7-.13-.67.03-1.11-.22-1.95-.26-2.99-.34.01-.21.5-.4.68.02.33-.21.42-.27.68-.04.32-.16.56-.26.82.03.22-.13.23-.14.4.02.16-.03.24-.13.27-.28 1.04-.67 1.96-.94 2.99-.24.44-.4.96-.53 1.5-.25.38-.33.94-.53 1.36-.11.25-.23.5-.27.82-.15.03-.09.27-.27.27v.41c-.28.04-.13.51-.4.55.01.19.02.38-.14.41.03.15-.02.24-.13.27-.38.2-.83.33-1.47.27-.55.01-.83-.24-1.47-.14-.06-.57.24-.76.27-1.22.2-.04.05-.41.27-.41-.05-.29.09-.36.14-.54-.01-.25.17-.29.14-.55.19-.03.04-.41.26-.41-.09-.54.35-.55.27-1.09.13 0 .11-.17.14-.27.02-.11.13-.14.13-.28-.02-.24.16-.28.13-.54.19-.03.05-.41.27-.41-.05-.28.1-.35.14-.54.25-.65.48-1.33.67-2.04.36-.59.45-1.45.8-2.04.03-.43.31-.6.27-1.09.13 0 .11-.16.14-.27.11.03.12-.05.13-.13-.02-.25.16-.29.13-.55.05-.11.11-.15.13-.27.02-.08-.03-.2 0-.27s.13.01.14-.14c.01-.08.1-.19.14-.28.08-.22.07-.32.13-.55.05-.14.19-.29.14-.55.3-.15.24-.67.54-.82-.02-.48.45-.45.53-.82.25-.01.45-.09.54-.27 1.29-.19 2.55.02 3.74.27z"/>
  </g>
  <path fill="#0058A1" d="M169.143 55.337l7.62-43.615h12.175l-7.625 43.615m44.08-42.53C222.995 11.96 219.183 11 214.51 11c-12.05 0-20.472 5.897-20.533 14.376-.06 6.258 6.027 9.747 10.637 11.853 4.732 2.16 6.33 3.48 6.27 5.41 0 2.94-3.75 4.27-7.254 4.27-4.857 0-7.438-.67-11.436-2.29l-1.598-.73-1.658 9.74c2.826 1.26 8.054 2.28 13.523 2.34 12.79 0 21.03-5.84 21.15-14.92.06-4.93-3.19-8.72-10.2-11.85-4.24-1.99-6.82-3.31-6.82-5.36 0-1.87 2.22-3.79 6.95-3.79 4-.06 6.89.78 9.1 1.68l1.11.48 1.66-9.44zm31.17-1.025h-9.408c-2.887 0-5.1.782-6.39 3.61l-18.012 40.004h12.724s2.082-5.412 2.578-6.556h15.555c.365 1.504 1.478 6.556 1.478 6.556h11.247l-9.772-43.614zM241.56 39.877c.978-2.47 4.856-12.15 4.856-12.15-.12.118.98-2.53 1.598-4.154l.805 3.728s2.33 10.41 2.82 12.58h-10.08zm-82.562-28.095L147.07 41.5l-1.23-6.016c-2.213-6.977-9.16-14.497-16.843-18.29l10.883 38.142h12.846l19.12-43.556-12.848.002z"/>
  <path fill="#FAA61B" d="M136.068 11.722h-19.612l-.122.96c15.186 3.612 25.327 12.333 29.508 22.802l-4.302-20.03c-.738-2.772-2.83-3.614-5.472-3.732z"/>
</svg>
