<?xml version="1.0" encoding="utf-8"?>
<!-- Generator: Adobe Illustrator 15.1.0, SVG Export Plug-In . SVG Version: 6.00 Build 0)  -->
<!DOCTYPE svg PUBLIC "-//W3C//DTD SVG 1.1//EN" "http://www.w3.org/Graphics/SVG/1.1/DTD/svg11.dtd">
<svg version="1.1" id="Layer_1" xmlns="http://www.w3.org/2000/svg" xmlns:xlink="http://www.w3.org/1999/xlink" x="0px" y="0px"
	 width="546.334px" height="65px" viewBox="0 0 546.334 65" enable-background="new 0 0 546.334 65" xml:space="preserve">
<g>
	<g id="Paypal_logo">
		<path fill="#1D3764" d="M472.139,56.404c0,0.529-0.432,0.957-0.961,0.957h-53.634V38.29h53.6c0.563,0,0.995,0.424,0.995,0.952
			V56.404z"/>
		<g id="layer1" transform="translate(-428.71429,-460.51587)">
			<g id="g2993" transform="matrix(1.3703704,0,0,-1.3703704,430.71429,538.48235)">
				<g id="g2995" transform="translate(165.274,21.91)">
					<path id="path2997" fill="#34679A" d="M198.439,18.236c-0.234-0.147-0.484-0.277-0.743-0.384
						c-0.348-0.138-0.681-0.212-0.988-0.212c-0.472,0-0.835,0.066-1.077,0.207c-0.244,0.133-0.376,0.371-0.373,0.707
						c0,0.385,0.09,0.685,0.279,0.923c0.182,0.226,0.462,0.405,0.807,0.543c0.345,0.117,0.765,0.213,1.251,0.279
						c0.43,0.055,1.283,0.155,1.395,0.155c0.11,0,0.182,0.062,0.133-0.23c-0.023-0.125-0.264-1.139-0.378-1.597
						C198.708,18.487,198.524,18.288,198.439,18.236z M201.793,25.335c-0.718,0.398-1.844,0.601-3.384,0.601
						c-0.765,0-1.529-0.06-2.295-0.181c-0.566-0.086-0.621-0.098-0.971-0.176c-0.725-0.155-0.836-0.874-0.836-0.874l-0.228-0.949
						c-0.131-0.608,0.213-0.584,0.368-0.536c0.316,0.097,0.486,0.192,1.127,0.334c0.611,0.141,1.263,0.243,1.779,0.238
						c0.759,0,1.335-0.082,1.721-0.243c0.381-0.164,0.573-0.448,0.573-0.856c0.004-0.098,0.004-0.186-0.031-0.269
						c-0.031-0.072-0.093-0.144-0.274-0.169c-1.083-0.064-1.859-0.165-2.796-0.3c-0.924-0.13-1.732-0.353-2.407-0.66
						c-0.717-0.316-1.258-0.743-1.629-1.285c-0.363-0.541-0.546-1.197-0.546-1.971c0-0.732,0.265-1.328,0.772-1.791
						c0.519-0.457,1.192-0.683,2.002-0.683c0.506,0.005,0.904,0.039,1.187,0.111c0.281,0.071,0.589,0.17,0.916,0.312
						c0.243,0.099,0.505,0.244,0.777,0.427c0.279,0.186,0.469,0.317,0.716,0.479l0.01-0.02l-0.069-0.303
						c-0.001-0.004-0.006-0.006-0.006-0.008l0.002-0.002c-0.08-0.37,0.141-0.673,0.506-0.707l0.005-0.009h0.03l0.001-0.001
						c0.241,0,1.073,0,1.459,0.001h0.272c0.016,0,0.019,0.007,0.028,0.011c0.37,0.044,0.727,0.347,0.81,0.707l1.382,5.961
						c0.033,0.136,0.061,0.3,0.074,0.489c0.014,0.184,0.035,0.339,0.033,0.452C202.877,24.311,202.513,24.936,201.793,25.335"/>
				</g>
				<g id="g2999">
					<g>
						<g>
							<g>
								<defs>
									<rect id="SVGID_1_" x="256.857" y="19.349" width="177.196" height="45.301"/>
								</defs>
								<clipPath id="SVGID_2_">
									<use xlink:href="#SVGID_1_"  overflow="visible"/>
								</clipPath>
								<g id="g3001" clip-path="url(#SVGID_2_)">
									<g id="g3007" transform="translate(101.082,45.728)">
										<path id="path3009" fill="#1D3764" d="M242.171,1.986c-0.408,0-0.939-0.326-1.193-0.722c0,0-2.717-4.645-2.982-5.109
											c-0.148-0.249-0.292-0.092-0.316,0.002c-0.02,0.114-0.843,5.074-0.843,5.074c-0.093,0.4-0.511,0.747-1.034,0.745
											l-1.695-0.004c-0.409,0-0.663-0.325-0.574-0.72c0,0,1.298-7.318,1.549-9.038c0.13-0.953-0.011-1.125-0.011-1.125
											l-1.678-2.916c-0.246-0.398-0.112-0.721,0.296-0.721l1.964,0.001c0.403,0,0.943,0.322,1.185,0.719l7.55,12.735
											c0,0,0.723,1.089,0.06,1.077C243.99,1.981,242.171,1.986,242.171,1.986"/>
									</g>
									<g id="g3011" transform="translate(39.137,49.474)">
										<path id="path3013" fill="#1D3764" d="M284.366-0.57c-0.235,0.462-0.587,0.835-1.038,1.113
											c-0.467,0.288-1.013,0.486-1.645,0.608c-0.639,0.11-1.382,0.168-2.239,0.177l-3.959-0.002
											c-0.408-0.006-0.815-0.329-0.904-0.724l-2.674-11.564c-0.088-0.395,0.168-0.722,0.577-0.722h1.898
											c0.409,0,0.818,0.315,0.906,0.722l0.656,2.808c0.086,0.39,0.493,0.714,0.901,0.714h0.539
											c2.32,0.003,4.118,0.478,5.413,1.424c1.288,0.944,1.934,2.198,1.93,3.744C284.733-1.59,284.613-1.022,284.366-0.57
											 M280.276-4.35c-0.572-0.415-1.365-0.621-2.394-0.621h-0.465c-0.408,0-0.668,0.322-0.579,0.72l0.57,2.451
											c0.088,0.395,0.497,0.721,0.905,0.719l0.62,0.002c0.728,0,1.278-0.121,1.65-0.368c0.365-0.238,0.552-0.616,0.544-1.125
											C281.141-3.334,280.85-3.93,280.276-4.35"/>
									</g>
								</g>
							</g>
						</g>
					</g>
				</g>
				<g id="g3015" transform="translate(147.108,49.341)">
					<path id="path3017" fill="#34679A" d="M210.815-0.479c-0.234,0.459-0.591,0.829-1.04,1.118
						c-0.462,0.286-1.014,0.487-1.653,0.601c-0.626,0.11-1.373,0.176-2.229,0.177h-3.964c-0.41-0.009-0.812-0.331-0.901-0.724
						l-2.672-11.569c-0.093-0.392,0.172-0.718,0.574-0.718l1.9,0.001c0.403-0.001,0.818,0.325,0.91,0.717l0.644,2.808
						c0.091,0.393,0.502,0.722,0.911,0.715h0.539c2.322,0,4.125,0.479,5.413,1.424c1.283,0.951,1.931,2.199,1.931,3.749
						C211.172-1.499,211.058-0.928,210.815-0.479 M206.726-4.261c-0.572-0.413-1.368-0.619-2.393-0.619h-0.473
						c-0.405-0.004-0.668,0.325-0.574,0.718l0.57,2.457c0.086,0.386,0.499,0.716,0.901,0.713l0.621,0.003
						c0.73-0.003,1.272-0.123,1.649-0.362c0.368-0.246,0.548-0.625,0.55-1.128C207.58-3.247,207.296-3.841,206.726-4.261"/>
				</g>
				<g id="g3019" transform="translate(57.28,21.938)">
					<path id="path3021" fill="#1D3764" d="M272.01,18.216c-0.238-0.149-0.485-0.272-0.748-0.38
						c-0.349-0.142-0.681-0.216-0.986-0.216c-0.472,0-0.832,0.066-1.079,0.208c-0.244,0.136-0.373,0.367-0.369,0.704
						c0,0.389,0.091,0.688,0.274,0.921c0.19,0.228,0.464,0.413,0.811,0.55c0.341,0.112,0.763,0.207,1.249,0.276
						c0.43,0.057,1.287,0.152,1.397,0.154c0.107,0.001,0.182,0.06,0.134-0.229c-0.023-0.127-0.27-1.136-0.383-1.594
						C272.276,18.471,272.091,18.269,272.01,18.216z M275.364,25.315c-0.723,0.401-1.849,0.605-3.387,0.605
						c-0.761,0-1.529-0.06-2.297-0.181c-0.562-0.084-0.624-0.1-0.971-0.176c-0.72-0.157-0.83-0.874-0.83-0.874l-0.234-0.95
						c-0.13-0.609,0.215-0.583,0.371-0.535c0.315,0.093,0.486,0.186,1.126,0.336c0.617,0.133,1.263,0.241,1.783,0.236
						c0.758,0,1.333-0.081,1.717-0.241c0.387-0.171,0.574-0.455,0.574-0.857c0.003-0.099,0.006-0.191-0.03-0.268
						c-0.031-0.078-0.091-0.151-0.274-0.173c-1.082-0.066-1.859-0.162-2.798-0.299c-0.924-0.129-1.73-0.352-2.407-0.658
						c-0.72-0.321-1.259-0.744-1.628-1.286c-0.361-0.54-0.543-1.201-0.544-1.975c0-0.73,0.264-1.326,0.774-1.79
						c0.515-0.456,1.187-0.684,1.995-0.684c0.51,0.005,0.906,0.044,1.192,0.111c0.284,0.073,0.593,0.176,0.914,0.312
						c0.243,0.105,0.503,0.249,0.783,0.434c0.274,0.18,0.467,0.313,0.713,0.472l0.009-0.013l-0.07-0.303
						c0-0.004-0.006-0.006-0.006-0.01l0.005-0.006c-0.077-0.365,0.143-0.668,0.505-0.707l0.006-0.003h0.034l0.001-0.002
						c0.242,0,1.07,0.001,1.458,0.002h0.268c0.02,0,0.02,0.002,0.027,0.007c0.372,0.047,0.728,0.347,0.812,0.71l1.387,5.956
						c0.029,0.142,0.056,0.305,0.071,0.488c0.019,0.193,0.04,0.346,0.033,0.459C276.445,24.291,276.077,24.913,275.364,25.315"/>
				</g>
				<g id="g3023" transform="translate(196.3,54.997)">
					<path id="path3025" fill="#34679A" d="M177.307-4.335h-1.699c-0.001,0-0.001,0-0.001,0l0,0c-0.389,0-0.783-0.299-0.891-0.677
						c-0.006-0.014-0.014-0.026-0.016-0.045c0,0-0.043-0.181-0.108-0.502l-2.332-10.527c-0.053-0.238-0.091-0.393-0.1-0.436
						l0.002-0.002c-0.081-0.372,0.143-0.676,0.507-0.707l0.001-0.009h1.765c0.383,0,0.775,0.296,0.887,0.668
						c0.007,0.016,0.018,0.032,0.021,0.05l2.541,11.465l-0.001,0.002C177.965-4.659,177.71-4.335,177.307-4.335"/>
				</g>
				<g id="g3027" transform="translate(206.375,47.652)">
					<path id="path3029" fill="#34679A" d="M170.442,0.676c-0.056-0.018-0.118-0.027-0.188-0.04
						c-0.071-0.006-0.13-0.013-0.187-0.013c-0.187,0-0.331,0.053-0.427,0.151c-0.101,0.1-0.151,0.263-0.151,0.485v0.98h-0.207v0.259
						h0.207v0.529h0.311V2.498h0.642V2.239H169.8V1.401c0-0.098,0.004-0.173,0.009-0.227c0.006-0.056,0.02-0.104,0.047-0.151
						c0.024-0.045,0.055-0.079,0.098-0.099c0.043-0.021,0.106-0.027,0.195-0.027c0.05,0,0.106,0.004,0.16,0.022
						c0.056,0.013,0.095,0.022,0.119,0.035h0.016V0.676"/>
				</g>
				<g id="g3031" transform="translate(216,47.601)">
					<path id="path3033" fill="#34679A" d="M163.884,0.708h-0.31v1.05c0,0.077-0.002,0.156-0.009,0.228
						c-0.009,0.073-0.022,0.133-0.045,0.177c-0.026,0.045-0.06,0.085-0.109,0.109c-0.048,0.024-0.115,0.035-0.205,0.035
						c-0.087,0-0.175-0.022-0.262-0.065c-0.088-0.043-0.172-0.1-0.259-0.167c0.004-0.022,0.004-0.053,0.004-0.088
						c0.004-0.032,0.004-0.066,0.004-0.099v-1.18h-0.309v1.05c0,0.079-0.005,0.159-0.009,0.228
						c-0.009,0.076-0.024,0.133-0.047,0.177c-0.026,0.047-0.061,0.086-0.108,0.11c-0.048,0.022-0.116,0.033-0.206,0.033
						c-0.085,0-0.167-0.021-0.254-0.062c-0.088-0.041-0.175-0.097-0.258-0.161V0.708h-0.309v1.841h0.311V2.344
						c0.1,0.084,0.193,0.145,0.291,0.191c0.1,0.046,0.2,0.068,0.309,0.068c0.123,0,0.232-0.027,0.321-0.082
						c0.088-0.05,0.152-0.124,0.197-0.219c0.122,0.104,0.237,0.183,0.339,0.23c0.105,0.047,0.215,0.071,0.333,0.071
						c0.203,0,0.353-0.064,0.449-0.185c0.096-0.122,0.143-0.296,0.143-0.514L163.884,0.708"/>
				</g>
			</g>
		</g>
		<path fill="#34679A" d="M514.616,56.54c0,0.522-0.431,0.95-0.965,0.95h-36.529c-0.527,0-0.959-0.428-0.959-0.95V39.377
			c0-0.529,0.432-0.958,0.959-0.958h36.529c0.534,0,0.965,0.429,0.965,0.958V56.54z"/>
		<rect x="417.757" y="1.583" fill="none" stroke="#727074" stroke-width="2" stroke-miterlimit="10" width="116.037" height="62"/>
	</g>
	<g id="Mastercard_logo">
		<path fill="#FCB131" d="M208.447,56.288c5.692,5.163,13.339,8.295,21.655,8.295c17.859,0,32.316-14.338,32.316-31.973
			c0-17.689-14.458-32.027-32.316-32.027c-8.316,0-15.963,3.131-21.655,8.295c-6.53,5.877-10.662,14.338-10.662,23.731
			S201.918,50.465,208.447,56.288L208.447,56.288z"/>
		<path fill="#FCB131" d="M258.12,50.409c0-0.55,0.446-0.989,1.004-0.989c0.615,0,1.063,0.439,1.063,0.989
			c0,0.604-0.446,1.044-1.063,1.044C258.566,51.453,258.12,51.014,258.12,50.409L258.12,50.409z M259.124,51.234
			c0.447,0,0.838-0.385,0.838-0.825s-0.391-0.769-0.838-0.769c-0.389,0-0.781,0.327-0.781,0.769
			C258.343,50.85,258.735,51.234,259.124,51.234L259.124,51.234z M259.014,50.904h-0.224v-0.937h0.391c0.057,0,0.166,0,0.224,0.058
			c0.112,0.054,0.112,0.107,0.112,0.219c0,0.109-0.057,0.22-0.17,0.22l0.225,0.438h-0.277l-0.112-0.385h-0.167L259.014,50.904
			l0.001-0.549h0.109c0.058,0,0.113,0,0.113,0c0.057,0,0.057-0.057,0.057-0.11c0-0.056,0-0.056-0.057-0.11c0,0-0.057,0-0.113,0
			h-0.109v0.221L259.014,50.904L259.014,50.904z"/>
		<path fill="#ED1C2E" d="M218.884,29.204c-0.112-1.153-0.336-2.252-0.56-3.405h-19.757c0.223-1.154,0.557-2.252,0.893-3.351h17.917
			c-0.391-1.153-0.838-2.308-1.341-3.406h-15.18c0.558-1.153,1.171-2.307,1.841-3.406h11.441c-0.726-1.153-1.563-2.308-2.455-3.352
			h-6.53c1.004-1.208,2.121-2.362,3.293-3.405c-5.749-5.109-13.34-8.295-21.711-8.295c-17.805,0-32.317,14.338-32.317,32.027
			c0,17.635,14.512,31.973,32.317,31.973c8.371,0,15.962-3.132,21.711-8.295l0,0l0,0c1.172-1.045,2.232-2.143,3.237-3.352h-6.53
			c-0.894-1.1-1.675-2.197-2.456-3.405h11.441c0.727-1.099,1.34-2.198,1.897-3.406h-15.18c-0.504-1.099-1.006-2.196-1.396-3.351
			h17.917c0.39-1.101,0.668-2.252,0.947-3.406c0.224-1.1,0.447-2.253,0.56-3.406c0.111-1.098,0.166-2.197,0.166-3.351
			S218.997,30.303,218.884,29.204L218.884,29.204z"/>
		<path fill="#FFFFFF" d="M258.12,40.025c0-0.604,0.446-1.043,1.004-1.043c0.615,0,1.063,0.438,1.063,1.043
			c0,0.551-0.446,1.045-1.063,1.045C258.566,41.07,258.12,40.576,258.12,40.025L258.12,40.025z M259.124,40.795
			c0.447,0,0.838-0.329,0.838-0.77c0-0.438-0.391-0.77-0.838-0.77c-0.389,0-0.781,0.33-0.781,0.77
			C258.343,40.466,258.735,40.795,259.124,40.795L259.124,40.795z M259.014,40.466h-0.224v-0.879h0.391c0.057,0,0.166,0,0.224,0
			c0.112,0.056,0.112,0.165,0.112,0.274c0,0.055-0.057,0.164-0.17,0.221l0.225,0.384h-0.277l-0.112-0.33h-0.167L259.014,40.466
			l0.001-0.495h0.109c0.058,0,0.113,0,0.113-0.055c0.057,0,0.057-0.055,0.057-0.109c0,0,0-0.056-0.057-0.056
			c0-0.056-0.057,0-0.113,0h-0.109v0.22L259.014,40.466L259.014,40.466z"/>
		<path fill="#003473" d="M197.451,41.84c-1.059,0.273-1.841,0.439-2.622,0.439c-1.675,0-2.68-1.045-2.68-2.912
			c0-0.385,0.057-0.77,0.112-1.208l0.224-1.265l0.167-1.043l1.506-9.011h3.35l-0.392,1.978h2.123l-0.504,3.296h-2.12l-0.893,5.383
			c-0.056,0.275-0.056,0.439-0.056,0.55c0,0.716,0.335,0.988,1.172,0.988c0.39,0,0.725-0.056,1.06-0.109L197.451,41.84
			L197.451,41.84z"/>
		<path fill="#003473" d="M208.28,41.73c-1.229,0.328-2.345,0.492-3.573,0.492c-3.796,0-5.973-1.978-5.973-5.878
			c0-4.56,2.569-7.854,6.141-7.854c2.846,0,4.688,1.868,4.688,4.779c0,0.987-0.111,1.924-0.391,3.24h-6.978
			c-0.056,0.221-0.056,0.33-0.056,0.439c0,1.539,1.061,2.308,3.071,2.308c1.285,0,2.4-0.272,3.628-0.821L208.28,41.73L208.28,41.73z
			 M206.213,33.873c0-0.273,0-0.494,0-0.658c0-1.099-0.613-1.703-1.674-1.703c-1.116,0-1.897,0.824-2.232,2.361H206.213
			L206.213,33.873z"/>
		<polygon fill="#003473" points="170.661,42.003 167.201,42.003 169.21,29.534 164.689,42.003 162.29,42.003 162.009,29.589 
			159.89,42.003 156.484,42.003 159.22,25.798 164.298,25.798 164.411,35.796 167.814,25.798 173.397,25.798 		"/>
		<path fill="#003473" d="M179.089,36.125c-0.335-0.055-0.447-0.055-0.67-0.055c-2.01,0-3.014,0.77-3.014,1.978
			c0,0.824,0.501,1.374,1.283,1.374C178.363,39.422,179.033,38.049,179.089,36.125L179.089,36.125z M181.879,42.003h-3.014
			l0.057-1.373c-0.782,1.043-1.842,1.593-3.684,1.593c-1.674,0-3.125-1.481-3.125-3.625c0-0.604,0.112-1.154,0.278-1.705
			c0.559-2.031,2.624-3.295,5.805-3.35c0.391,0,1.005,0,1.564,0.055c0.111-0.439,0.111-0.604,0.111-0.88
			c0-0.878-0.726-1.153-2.345-1.153c-1.004,0-2.12,0.165-2.902,0.439l-0.502,0.11l-0.223,0.055l0.502-2.967
			c1.619-0.494,2.791-0.714,4.074-0.714c3.014,0,4.633,1.374,4.633,3.9c0,0.659,0.055,1.155-0.168,2.583l-0.781,4.725l-0.111,0.824
			l-0.056,0.66l-0.056,0.438L181.879,42.003L181.879,42.003z"/>
		<path fill="#003473" d="M225.135,28.93c1.005,0,1.896,0.274,3.125,0.879l0.613-3.516c-0.335-0.166-0.445-0.166-0.894-0.33
			l-1.395-0.385c-0.445-0.109-1.005-0.164-1.618-0.164c-1.73,0-2.734,0.055-3.795,0.659c-0.559,0.384-1.284,0.878-2.064,1.757
			l-0.446-0.109l-3.574,2.473l0.168-1.374h-3.683l-2.177,13.184h3.516l1.283-7.086c0,0,0.503-0.988,0.726-1.318
			c0.67-0.823,1.228-0.823,1.953-0.823c0.113,0,0.224,0,0.28,0c-0.112,0.77-0.167,1.592-0.167,2.528c0,4.284,2.455,6.978,6.25,6.978
			c0.949,0,1.786-0.11,3.07-0.439l0.613-3.733c-1.115,0.604-2.121,0.879-2.957,0.879c-2.066,0-3.294-1.539-3.294-3.957
			C220.67,31.456,222.511,28.93,225.135,28.93L225.135,28.93z"/>
		<path fill="#003473" d="M254.772,25.798l-0.78,4.614c-0.838-1.263-1.843-1.868-3.182-1.868c-1.842,0-3.572,1.045-4.634,3.022
			v-0.055l-2.231-1.318l0.223-1.374h-3.738l-2.121,13.184h3.46l1.172-7.086c0,0,0.894-0.989,1.117-1.317
			c0.559-0.661,1.115-0.77,1.563-0.824c-0.393,1.098-0.615,2.417-0.615,3.899c0,3.298,1.73,5.495,4.299,5.495
			c1.283,0,2.289-0.439,3.237-1.484l-0.169,1.318h3.292l2.68-16.205L254.772,25.798L254.772,25.798z M250.474,38.873
			c-1.171,0-1.785-0.878-1.785-2.582c0-2.583,1.116-4.45,2.734-4.45c1.229,0,1.842,0.934,1.842,2.582
			C253.265,37.061,252.148,38.873,250.474,38.873L250.474,38.873z"/>
		<path fill="#003473" d="M234.344,36.125c-0.336-0.055-0.447-0.055-0.67-0.055c-2.009,0-3.016,0.77-3.016,1.978
			c0,0.824,0.503,1.374,1.285,1.374C233.619,39.422,234.289,38.049,234.344,36.125L234.344,36.125z M237.134,42.003h-3.069
			l0.111-1.373c-0.781,1.043-1.842,1.593-3.684,1.593c-1.731,0-3.238-1.429-3.238-3.625c0-3.133,2.4-5.054,6.196-5.054
			c0.392,0,1.005,0,1.506,0.054c0.112-0.438,0.169-0.604,0.169-0.879c0-0.878-0.726-1.153-2.4-1.153
			c-0.949,0-2.121,0.165-2.902,0.439l-0.446,0.11l-0.223,0.055l0.501-2.967c1.619-0.494,2.793-0.714,4.074-0.714
			c3.015,0,4.578,1.374,4.578,3.9c0,0.659,0.11,1.155-0.168,2.583l-0.727,4.723l-0.111,0.826l-0.111,0.658l-0.056,0.438V42.003
			L237.134,42.003z"/>
		<path fill="#003473" d="M189.191,31.621c0.669,0,1.619,0.056,2.623,0.22l0.502-3.077c-1.005-0.11-2.344-0.274-3.125-0.274
			c-3.906,0-5.191,2.087-5.191,4.505c0,1.593,0.727,2.747,2.625,3.625c1.394,0.66,1.618,0.769,1.618,1.375
			c0,0.823-0.725,1.317-2.065,1.317c-1.061,0-2.065-0.164-3.182-0.549l-0.39,3.021l0.055,0.056l0.669,0.11
			c0.224,0.054,0.504,0.108,0.894,0.164c0.837,0.056,1.563,0.11,2.01,0.11c3.907,0,5.525-1.482,5.525-4.396
			c0-1.813-0.894-2.912-2.624-3.682c-1.506-0.66-1.674-0.77-1.674-1.374C187.461,32.17,188.13,31.621,189.191,31.621L189.191,31.621
			z"/>
		<path fill="#FFFFFF" d="M229.823,25.249l-0.613,3.516c-1.229-0.604-2.122-0.878-3.127-0.878c-2.622,0-4.464,2.527-4.464,6.097
			c0,2.472,1.228,3.955,3.293,3.955c0.837,0,1.841-0.273,2.958-0.824l-0.615,3.681c-1.282,0.33-2.119,0.495-3.068,0.495
			c-3.796,0-6.141-2.691-6.141-7.032c0-5.768,3.238-9.833,7.871-9.833c0.613,0,1.171,0.056,1.618,0.165l1.396,0.329
			C229.377,25.084,229.487,25.139,229.823,25.249L229.823,25.249z"/>
		<path fill="#FFFFFF" d="M218.548,27.666c-0.11,0-0.224,0-0.335,0c-1.172,0-1.843,0.55-2.901,2.143l0.335-2.032h-3.182
			l-2.178,13.185h3.517c1.283-8.076,1.619-9.449,3.293-9.449c0.112,0,0.112,0,0.223,0c0.336-1.593,0.781-2.748,1.342-3.791
			L218.548,27.666L218.548,27.666z"/>
		<path fill="#FFFFFF" d="M198.343,40.795c-0.948,0.33-1.729,0.439-2.51,0.439c-1.786,0-2.792-0.988-2.792-2.91
			c0-0.33,0.056-0.771,0.112-1.155l0.224-1.317l0.167-1.045l1.507-9.009h3.459l-0.391,1.978h1.785l-0.445,3.241h-1.787l-0.947,5.494
			c-0.057,0.22-0.057,0.384-0.057,0.55c0,0.658,0.334,0.936,1.173,0.936c0.389,0,0.725,0,0.948-0.11L198.343,40.795L198.343,40.795z
			"/>
		<path fill="#FFFFFF" d="M184.894,31.951c0,1.646,0.782,2.801,2.625,3.681c1.451,0.659,1.674,0.879,1.674,1.429
			c0,0.823-0.615,1.207-2.009,1.207c-1.061,0-2.009-0.164-3.126-0.492l-0.503,3.021l0.168,0.058l0.614,0.108
			c0.222,0.056,0.502,0.108,0.949,0.108c0.781,0.109,1.451,0.109,1.897,0.109c3.683,0,5.413-1.373,5.413-4.394
			c0-1.813-0.725-2.858-2.455-3.681c-1.507-0.662-1.676-0.825-1.676-1.431c0-0.714,0.615-1.044,1.73-1.044
			c0.67,0,1.619,0.055,2.512,0.165l0.502-3.021c-0.893-0.166-2.288-0.275-3.068-0.275C186.233,27.501,184.838,29.534,184.894,31.951
			L184.894,31.951z"/>
		<path fill="#FFFFFF" d="M256.558,40.961h-3.293l0.168-1.266c-0.948,0.99-1.954,1.43-3.237,1.43c-2.567,0-4.242-2.143-4.242-5.439
			c0-4.394,2.623-8.127,5.694-8.127c1.395,0,2.398,0.604,3.348,1.813l0.781-4.615h3.461L256.558,40.961L256.558,40.961z
			 M251.422,37.884c1.619,0,2.734-1.868,2.734-4.45c0-1.703-0.612-2.582-1.842-2.582c-1.562,0-2.735,1.813-2.735,4.395
			C249.581,37.006,250.195,37.884,251.422,37.884L251.422,37.884z"/>
		<path fill="#FFFFFF" d="M209.061,40.686c-1.227,0.385-2.343,0.549-3.627,0.549c-3.908,0-5.916-2.03-5.916-5.933
			c0-4.505,2.566-7.856,6.083-7.856c2.902,0,4.744,1.868,4.744,4.779c0,0.99-0.111,1.923-0.446,3.296h-6.921
			c-0.057,0.164-0.057,0.273-0.057,0.385c0,1.539,1.061,2.309,3.07,2.309c1.284,0,2.401-0.22,3.628-0.826L209.061,40.686
			L209.061,40.686z M207.107,32.83c0-0.274,0-0.494,0-0.659c0-1.098-0.613-1.703-1.674-1.703c-1.117,0-1.898,0.824-2.233,2.362
			H207.107L207.107,32.83z"/>
		<polygon fill="#FFFFFF" points="171.553,40.961 168.093,40.961 170.103,28.49 165.583,40.961 163.182,40.961 162.902,28.6 
			160.781,40.961 157.545,40.961 160.279,24.754 165.302,24.754 165.47,34.807 168.819,24.754 174.29,24.754 		"/>
		<path fill="#FFFFFF" d="M180.206,35.082c-0.334,0-0.502-0.055-0.781-0.055c-1.953,0-2.958,0.715-2.958,2.033
			c0,0.822,0.446,1.316,1.227,1.316C179.145,38.378,180.149,37.061,180.206,35.082L180.206,35.082z M182.772,40.961h-2.902
			l0.055-1.374c-0.893,1.099-2.064,1.593-3.684,1.593c-1.896,0-3.181-1.428-3.181-3.57c0-3.241,2.232-5.108,6.14-5.108
			c0.389,0,0.893,0.055,1.451,0.11c0.111-0.439,0.111-0.604,0.111-0.824c0-0.879-0.614-1.209-2.232-1.209
			c-1.005,0-2.121,0.11-2.901,0.33l-0.502,0.165l-0.336,0.055l0.503-2.967c1.73-0.494,2.902-0.659,4.186-0.659
			c3.014,0,4.632,1.318,4.632,3.846c0,0.659-0.055,1.153-0.278,2.636l-0.782,4.671l-0.112,0.821l-0.056,0.66l-0.055,0.495
			L182.772,40.961L182.772,40.961z"/>
		<path fill="#FFFFFF" d="M235.46,35.082c-0.391,0-0.559-0.055-0.781-0.055c-2.009,0-3.013,0.715-3.013,2.033
			c0,0.822,0.501,1.316,1.282,1.316C234.344,38.378,235.404,37.061,235.46,35.082L235.46,35.082z M238.027,40.961h-2.901
			l0.057-1.374c-0.895,1.099-2.066,1.593-3.685,1.593c-1.897,0-3.182-1.428-3.182-3.57c0-3.241,2.233-5.108,6.14-5.108
			c0.391,0,0.893,0.055,1.395,0.11c0.113-0.439,0.168-0.604,0.168-0.824c0-0.879-0.614-1.209-2.232-1.209
			c-1.005,0-2.177,0.11-2.958,0.33l-0.446,0.165l-0.334,0.055l0.502-2.967c1.729-0.494,2.901-0.659,4.185-0.659
			c3.015,0,4.577,1.318,4.577,3.846c0,0.659,0,1.153-0.279,2.636l-0.725,4.671l-0.113,0.821l-0.11,0.66l-0.057,0.495v0.329H238.027z
			"/>
		<path fill="#FFFFFF" d="M247.404,27.666c-0.111,0-0.225,0-0.335,0c-1.172,0-1.843,0.55-2.902,2.143l0.335-2.032h-3.181
			l-2.122,13.185h3.461c1.284-8.076,1.618-9.449,3.293-9.449c0.111,0,0.111,0,0.223,0c0.336-1.593,0.781-2.748,1.34-3.791
			L247.404,27.666L247.404,27.666z"/>
	</g>
	<g id="American_Express_logo">
		<rect x="303.798" y="0.583" fill="#FFFFFF" width="67.244" height="63.864"/>
		
			<radialGradient id="SVGID_3_" cx="101.8614" cy="513.0059" r="79.8166" gradientTransform="matrix(1.0151 0 0 0.9855 209.6112 -496.0098)" gradientUnits="userSpaceOnUse">
			<stop  offset="0" style="stop-color:#00B8E9"/>
			<stop  offset="0.427" style="stop-color:#009ACA"/>
			<stop  offset="0.5077" style="stop-color:#0090BD"/>
			<stop  offset="0.8347" style="stop-color:#006D8E"/>
			<stop  offset="1" style="stop-color:#00607E"/>
		</radialGradient>
		<path fill="url(#SVGID_3_)" d="M368.608,47.82c0,0-0.13-0.006-0.252-0.012l-5.266,0.002V47.46c-0.6,0.24-1.236,0.36-1.848,0.36
			c0,0-0.13-0.006-0.254-0.012h-3.117v0.016h-7.545v0.013H345.2v-1.501c0,0,0.008-1.068,0.01-1.27c-0.047,0-0.217,0-0.34,0
			c0,0.629,0,2.771,0,2.771h-5.184v-3.002c-0.854,0.334-1.827,0.421-2.754,0.421c0,0-0.316,0-0.501,0c0,0.518,0,2.568,0,2.568
			h-6.116c0,0-0.996-1.066-1.531-1.639c-0.541,0.573-1.544,1.639-1.544,1.639h-9.995V36.82h9.829c0,0,1.091,1.156,1.722,1.824
			c0.631-0.664,1.726-1.813,1.726-1.813h0.675l1.604-0.013h5.015c0.292-0.02,1.058-0.023,1.876,0.274v-0.249h6.557
			c0.321-0.021,1.157-0.037,2.021,0.313v-0.313h8.063h1.547v0.315c0.906-0.354,1.742-0.333,1.871-0.325l5.469-0.004v0.34
			c0.916-0.367,1.768-0.344,1.896-0.336l3.935-0.003V0.583h-67.244v28.021l2.302-5.301h4.992c0,0,0.575,1.329,0.6,1.384
			c0-0.199,0-1.384,0-1.384h5.847c0,0,0.875,1.89,1.293,2.791c0.414-0.899,1.283-2.791,1.283-2.791h3.914h0.391h1.548h5.663h0.459
			h1.548h4.546c0.32-0.021,1.156-0.039,2.023,0.313v-0.313h3.646h1.547v0.664c0.762-0.459,1.631-0.694,2.506-0.731
			c0,0,2.787,0.073,2.896,0.076l0.004-0.009h4.979c0,0,0.541,1.253,0.56,1.289c0-0.314,0-1.289,0-1.289h5.37
			c0,0,0.77,1.23,0.854,1.369c0-0.219,0-1.369,0-1.369h5.196v10.99h-5.306c0,0-0.789-1.271-0.892-1.437c0,0.118,0,1.437,0,1.437
			h-6.661c0,0-0.568-1.296-0.736-1.675c-0.692,0-1.068,0-1.768,0c-0.16,0.373-0.723,1.675-0.723,1.675h-4.41l-0.111-0.016
			c-0.488-0.066-1.127-0.285-1.756-0.67v0.713h-3.646c0,0,0-0.023,0-0.027h-4.609v-1.502c0,0,0.008-1.066,0.01-1.268
			c-0.047,0-0.217,0-0.34,0c0,0.63,0,2.77,0,2.77h-3.177h-2.007h-5.663h-0.39h-4.82c0,0,0-0.134,0-0.168
			c-0.025,0.053-0.082,0.168-0.082,0.168h-3.689c0,0-0.062-0.131-0.095-0.205c0,0.048,0,0.205,0,0.205H310.2
			c0,0-0.563-1.302-0.725-1.675c-0.695,0-1.072,0-1.766,0c-0.166,0.378-0.737,1.675-0.737,1.675h-3.166v30.154h67.245V47.172
			C370.296,47.617,369.427,47.82,368.608,47.82z"/>
		<g>
			<g>
				<g>
					
						<radialGradient id="SVGID_5_" cx="294.3233" cy="795.4609" r="79.8226" gradientTransform="matrix(1.0151 0 0 0.9855 14.2684 -774.3691)" gradientUnits="userSpaceOnUse">
						<stop  offset="0" style="stop-color:#00B8E9"/>
						<stop  offset="0.427" style="stop-color:#009ACA"/>
						<stop  offset="0.5077" style="stop-color:#0090BD"/>
						<stop  offset="0.8347" style="stop-color:#006D8E"/>
						<stop  offset="1" style="stop-color:#00607E"/>
					</radialGradient>
					<path id="SVGID_4_" fill="url(#SVGID_5_)" d="M338.716,32.792v-1.553c0,0-0.084-1.217-1.395-1.217h-2.033v2.77h-2.086v-7.987
						h5.068c0,0,2.645-0.311,2.645,2.338c0,1.378-1.17,1.865-1.17,1.865s1.018,0.46,1.018,1.813v1.971H338.716 M335.29,28.143h2.159
						c0.628,0,1.144-0.339,1.144-0.757c0-0.419-0.516-0.757-1.144-0.757h-2.159V28.143L335.29,28.143"/>
				</g>
			</g>
			<g>
				<g>
					
						<radialGradient id="SVGID_6_" cx="294.3252" cy="795.4609" r="79.8174" gradientTransform="matrix(1.0151 0 0 0.9855 14.2684 -774.3691)" gradientUnits="userSpaceOnUse">
						<stop  offset="0" style="stop-color:#00B8E9"/>
						<stop  offset="0.427" style="stop-color:#009ACA"/>
						<stop  offset="0.5077" style="stop-color:#0090BD"/>
						<stop  offset="0.8347" style="stop-color:#006D8E"/>
						<stop  offset="1" style="stop-color:#00607E"/>
					</radialGradient>
					<path id="SVGID_7_" fill="url(#SVGID_6_)" d="M363.358,32.792l-3.313-5.337v5.337h-1.797h-0.338h-1.959l-0.738-1.674H351.4
						l-0.726,1.674h-1.92h-0.349h-1.003c0,0-2.813-0.391-2.813-3.77c0-4.434,3.188-4.258,3.301-4.285l2.574,0.068v1.798
						l-2.114,0.026c0,0-1.378,0-1.546,1.744c-0.021,0.2-0.029,0.384-0.027,0.555c0.008,2.7,2.414,1.863,2.492,1.837l2.59-5.961
						h2.923l3.13,7.245v-7.245h2.954l3.271,5.258v-5.258h2.104v7.987L363.358,32.792 M352.292,29.075h2.031l-1.002-2.378
						L352.292,29.075L352.292,29.075"/>
				</g>
			</g>
			<g>
				<g>
					
						<radialGradient id="SVGID_8_" cx="294.3262" cy="795.4609" r="79.8235" gradientTransform="matrix(1.0151 0 0 0.9855 14.2684 -774.3691)" gradientUnits="userSpaceOnUse">
						<stop  offset="0" style="stop-color:#00B8E9"/>
						<stop  offset="0.427" style="stop-color:#009ACA"/>
						<stop  offset="0.5077" style="stop-color:#0090BD"/>
						<stop  offset="0.8347" style="stop-color:#006D8E"/>
						<stop  offset="1" style="stop-color:#00607E"/>
					</radialGradient>
					<path id="SVGID_10_" fill="url(#SVGID_8_)" d="M322.329,32.792v-5.513l-2.615,5.513h-1.713l-2.633-5.487v5.487h-1.822h-0.277
						h-2.021l-0.724-1.674h-3.813l-0.737,1.674h-2.283l3.466-7.987h2.938l3.176,7.339v-7.339h3.298l2.298,4.959l2.284-4.959h3.299
						v7.987H322.329 M307.6,29.075h2.032l-1.017-2.378L307.6,29.075L307.6,29.075"/>
				</g>
			</g>
			<g>
				<g>
					
						<radialGradient id="SVGID_9_" cx="294.3213" cy="795.4609" r="79.8273" gradientTransform="matrix(1.0151 0 0 0.9855 14.2684 -774.3691)" gradientUnits="userSpaceOnUse">
						<stop  offset="0" style="stop-color:#00B8E9"/>
						<stop  offset="0.427" style="stop-color:#009ACA"/>
						<stop  offset="0.5077" style="stop-color:#0090BD"/>
						<stop  offset="0.8347" style="stop-color:#006D8E"/>
						<stop  offset="1" style="stop-color:#00607E"/>
					</radialGradient>
					<polyline id="SVGID_13_" fill="url(#SVGID_9_)" points="325.602,32.792 325.602,24.805 332.118,24.805 332.118,26.669 
						327.704,26.669 327.704,27.899 332.007,27.899 332.007,29.711 327.704,29.711 327.704,31.063 332.118,31.063 332.118,32.792 
						325.602,32.792 					"/>
				</g>
			</g>
			<g>
				<g>
					
						<radialGradient id="SVGID_11_" cx="294.3155" cy="795.46" r="79.8395" gradientTransform="matrix(1.0151 0 0 0.9855 14.2684 -774.3691)" gradientUnits="userSpaceOnUse">
						<stop  offset="0" style="stop-color:#00B8E9"/>
						<stop  offset="0.427" style="stop-color:#009ACA"/>
						<stop  offset="0.5077" style="stop-color:#0090BD"/>
						<stop  offset="0.8347" style="stop-color:#006D8E"/>
						<stop  offset="1" style="stop-color:#00607E"/>
					</radialGradient>
					<polyline id="SVGID_16_" fill="url(#SVGID_11_)" points="341.78,32.819 341.78,24.805 343.882,24.805 343.882,32.819 
						341.78,32.819 					"/>
				</g>
			</g>
		</g>
		<g>
			<g>
				<g>
					
						<radialGradient id="SVGID_12_" cx="294.3291" cy="795.4629" r="79.8124" gradientTransform="matrix(1.0151 0 0 0.9855 14.2684 -774.3691)" gradientUnits="userSpaceOnUse">
						<stop  offset="0" style="stop-color:#00B8E9"/>
						<stop  offset="0.427" style="stop-color:#009ACA"/>
						<stop  offset="0.5077" style="stop-color:#0090BD"/>
						<stop  offset="0.8347" style="stop-color:#006D8E"/>
						<stop  offset="1" style="stop-color:#00607E"/>
					</radialGradient>
					<path id="SVGID_19_" fill="url(#SVGID_12_)" d="M346.778,46.336v-1.555c0,0-0.086-1.217-1.395-1.217h-2.03v2.771h-2.089v-7.987
						h5.066c0,0,2.646-0.313,2.646,2.338c0,1.379-1.169,1.864-1.169,1.864s1.003,0.458,1.003,1.812v1.975H346.778 M343.354,41.686
						h2.159c0.623,0,1.14-0.336,1.14-0.756s-0.517-0.757-1.14-0.757h-2.159V41.686L343.354,41.686"/>
				</g>
			</g>
			<g>
				<g>
					
						<radialGradient id="SVGID_14_" cx="294.3252" cy="795.4551" r="79.831" gradientTransform="matrix(1.0151 0 0 0.9855 14.2684 -774.3691)" gradientUnits="userSpaceOnUse">
						<stop  offset="0" style="stop-color:#00B8E9"/>
						<stop  offset="0.427" style="stop-color:#009ACA"/>
						<stop  offset="0.5077" style="stop-color:#0090BD"/>
						<stop  offset="0.8347" style="stop-color:#006D8E"/>
						<stop  offset="1" style="stop-color:#00607E"/>
					</radialGradient>
					<path id="SVGID_22_" fill="url(#SVGID_14_)" d="M332.856,46.322h-1.826l-2.211-2.365l-2.229,2.365h-1.268h-6.502V38.32h6.502
						h1.1l2.396,2.541l2.408-2.526h1.602v-0.013h5.067c0,0,2.646-0.285,2.646,2.351c0,2.353-0.879,3.082-3.58,3.082h-2.045v2.568
						L332.856,46.322 M330.239,42.391l2.59,2.783v-5.556L330.239,42.391L330.239,42.391 M320.923,44.594h4.399l2.062-2.203
						l-2.062-2.19h-4.399v1.229h4.289v1.813h-4.289V44.594L320.923,44.594 M334.917,41.671h2.156c0.629,0,1.143-0.336,1.143-0.756
						c0-0.418-0.514-0.756-1.143-0.756h-2.156V41.671L334.917,41.671"/>
				</g>
			</g>
			<g>
				<g>
					
						<radialGradient id="SVGID_15_" cx="294.3311" cy="795.4629" r="79.8122" gradientTransform="matrix(1.0151 0 0 0.9855 14.2684 -774.3691)" gradientUnits="userSpaceOnUse">
						<stop  offset="0" style="stop-color:#00B8E9"/>
						<stop  offset="0.427" style="stop-color:#009ACA"/>
						<stop  offset="0.5077" style="stop-color:#0090BD"/>
						<stop  offset="0.8347" style="stop-color:#006D8E"/>
						<stop  offset="1" style="stop-color:#00607E"/>
					</radialGradient>
					<path id="SVGID_25_" fill="url(#SVGID_15_)" d="M361.022,46.309h-3.718V44.47h3.258c0,0,1.168,0.134,1.168-0.634
						c0-0.719-1.766-0.663-1.766-0.663s-2.885,0.243-2.885-2.379c0-2.608,2.604-2.461,2.604-2.461h4.01v1.865h-3.229
						c0,0-1.113-0.218-1.113,0.569c0,0.658,1.518,0.564,1.518,0.564s3.188-0.229,3.188,2.176c0,2.58-2.054,2.811-2.782,2.811
						C361.115,46.318,361.022,46.309,361.022,46.309"/>
				</g>
			</g>
			<g>
				<g>
					
						<radialGradient id="SVGID_17_" cx="294.3203" cy="795.4551" r="79.8322" gradientTransform="matrix(1.0151 0 0 0.9855 14.2684 -774.3691)" gradientUnits="userSpaceOnUse">
						<stop  offset="0" style="stop-color:#00B8E9"/>
						<stop  offset="0.427" style="stop-color:#009ACA"/>
						<stop  offset="0.5077" style="stop-color:#0090BD"/>
						<stop  offset="0.8347" style="stop-color:#006D8E"/>
						<stop  offset="1" style="stop-color:#00607E"/>
					</radialGradient>
					<polyline id="SVGID_28_" fill="url(#SVGID_17_)" points="349.841,46.322 349.841,38.348 356.356,38.348 356.356,40.199 
						351.943,40.199 351.943,41.428 356.245,41.428 356.245,43.241 351.943,43.241 351.943,44.594 356.356,44.594 356.356,46.322 
						349.841,46.322 					"/>
				</g>
			</g>
			<g>
				<g>
					
						<radialGradient id="SVGID_18_" cx="294.3272" cy="795.4629" r="79.8126" gradientTransform="matrix(1.0151 0 0 0.9855 14.2684 -774.3691)" gradientUnits="userSpaceOnUse">
						<stop  offset="0" style="stop-color:#00B8E9"/>
						<stop  offset="0.427" style="stop-color:#009ACA"/>
						<stop  offset="0.5077" style="stop-color:#0090BD"/>
						<stop  offset="0.8347" style="stop-color:#006D8E"/>
						<stop  offset="1" style="stop-color:#00607E"/>
					</radialGradient>
					<path id="SVGID_31_" fill="url(#SVGID_18_)" d="M368.384,46.309h-3.719V44.47h3.246c0,0,1.184,0.134,1.184-0.634
						c0-0.719-1.77-0.663-1.77-0.663s-2.883,0.243-2.883-2.379c0-2.608,2.604-2.461,2.604-2.461h3.998v1.865h-3.22
						c0,0-1.112-0.218-1.112,0.569c0,0.658,1.519,0.564,1.519,0.564s3.188-0.229,3.188,2.176c0,2.58-2.056,2.811-2.781,2.811
						C368.48,46.318,368.384,46.309,368.384,46.309"/>
				</g>
			</g>
		</g>
		<path fill="#009FDA" d="M295.419,61.582c0-1.663,1.379-3,3.104-3c1.714,0,3.09,1.337,3.09,3s-1.376,3.001-3.09,3.001
			C296.796,64.583,295.419,63.245,295.419,61.582 M295.878,61.582c0,1.404,1.129,2.555,2.646,2.555c1.504,0,2.632-1.15,2.632-2.555
			c0-1.42-1.113-2.555-2.632-2.555C296.993,59.027,295.878,60.162,295.878,61.582 M299.29,62.961
			c-0.07-0.229-0.084-0.648-0.084-0.744c0-0.203-0.026-0.419-0.418-0.419h-0.849v1.164h-0.501V60.15h1.35
			c0.459,0,0.976,0.146,0.976,0.785c0,0.351-0.152,0.514-0.321,0.635c0.141,0.068,0.252,0.188,0.268,0.5l0.015,0.486
			c0.012,0.146,0.028,0.176,0.139,0.24v0.164H299.29 M297.939,61.365h0.808c0.266,0,0.5-0.067,0.5-0.404
			c0-0.354-0.25-0.379-0.431-0.379h-0.877V61.365"/>
	</g>
	<g id="Bancontact_Mr_Cash">
		<path fill="#FFFFFF" stroke="#0079BE" stroke-width="1.8887" stroke-miterlimit="2.6131" d="M62.635,1.573h44.619
			c5.908,0,7.743,4.318,7.743,7.369v47.32c0,2.938-1.835,7.369-7.743,7.369H18.016c-5.85,0-7.743-4.431-7.743-7.369V8.942
			c0-3.051,1.893-7.369,7.743-7.369H62.635L62.635,1.573z"/>
		<polygon fill="#0079BE" points="41.645,37.552 57.933,37.552 67.05,27.824 83.397,27.824 69.518,43.252 18.188,43.252 
			18.188,32.946 45.716,32.946 		"/>
		<polygon fill="#FFE237" points="83.397,27.824 67.05,27.824 57.933,37.61 41.53,37.61 55.408,22.183 106.795,22.183 
			106.795,32.43 79.267,32.43 		"/>
		<path fill="#0079BE" d="M100.199,18.383c-0.745,0.461-1.719,0.691-2.637,0.691c-2.637,0-4.989-1.958-4.989-4.664
			c0-2.705,2.122-4.662,4.817-4.662c0.976,0,2.064,0.174,2.809,0.633v2.877c-0.573-0.518-1.432-0.69-2.407-0.69
			c-0.917,0-2.008,0.749-2.008,1.958c0,1.036,1.09,1.669,2.008,1.669c1.032,0,1.664-0.059,2.407-0.633V18.383L100.199,18.383z"/>
		<path fill="#0079BE" d="M106.911,16.196v2.187c-2.352,1.728-5.048,0.29-5.048-1.728v-4.028h-1.146V9.979h1.146v-2.13l3.213-1.728
			v3.858h1.834v2.417h-1.665v3.742C105.248,16.829,106.395,16.771,106.911,16.196L106.911,16.196z"/>
		<path fill="#0079BE" d="M83.683,12.857l0.517-2.476c3.21-1.094,7.8-0.46,7.8,2.417v6.102h-2.983l-0.115-0.288
			c-1.376,0.863-6.423,1.266-5.736-2.706c0.403-2.359,3.098-2.936,4.762-2.936c0.86,0,1.205-0.805,0.113-0.863
			C87.068,12.049,85.116,12.166,83.683,12.857L83.683,12.857z"/>
		<path fill="#0079BE" d="M29.543,12.857l0.459-2.476c3.211-1.094,7.799-0.46,7.799,2.417v6.102h-3.039l-0.057-0.288
			c-1.319,0.863-6.539,1.266-5.736-2.706c0.402-2.359,3.039-2.936,4.703-2.936c0.859,0,1.204-0.805,0.172-0.863
			C32.869,12.049,30.863,12.166,29.543,12.857L29.543,12.857z"/>
		<path fill="#0079BE" d="M66.307,14.526c0,2.705-2.236,4.606-4.932,4.606s-4.991-2.016-4.991-4.721
			c0-2.647,2.295-4.721,4.933-4.721C64.07,9.689,66.307,11.764,66.307,14.526L66.307,14.526z"/>
		<path fill="#0079BE" d="M82.594,16.196v2.187c-2.408,1.728-5.045,0.29-5.045-1.728v-4.028h-1.147V9.979h1.147v-2.13l3.268-1.728
			v3.858h1.777v2.417h-1.722v3.742C80.872,16.829,82.077,16.771,82.594,16.196L82.594,16.196z"/>
		<path fill="#0079BE" d="M24.209,5.487c2.984,0,5.163,3.974,2.409,6.449c3.441,2.13,1.892,6.85-1.95,6.907h-6.424V5.487H24.209
			L24.209,5.487z"/>
		<path fill="#0079BE" d="M55.81,18.383c-0.745,0.461-1.606,0.691-2.581,0.691c-2.696,0-4.99-1.958-4.99-4.664
			c0-2.705,2.122-4.662,4.761-4.662c0.973,0,2.064,0.174,2.81,0.633v2.877c-0.63-0.518-1.376-0.69-2.351-0.69
			s-2.065,0.749-2.065,1.958c0,1.036,1.148,1.669,2.065,1.669c0.975,0,1.606-0.059,2.351-0.633V18.383L55.81,18.383z"/>
		<path fill="#0079BE" d="M47.609,13.086V18.9h-3.212v-5.008c0-1.784-2.581-1.728-2.581,0V18.9h-3.211V9.979h3.269v0.748
			C44.57,8.711,47.609,10.554,47.609,13.086L47.609,13.086z"/>
		<path fill="#0079BE" d="M75.941,13.086V18.9H72.73v-5.008c0-1.784-2.582-1.728-2.582,0V18.9h-3.211V9.979h3.211v0.748
			C72.902,8.711,75.941,10.554,75.941,13.086L75.941,13.086z"/>
		<path fill="#0079BE" d="M88.042,12.108c1.091,0.058,0.747,0.864-0.113,0.864c-1.665,0-4.359,0.576-4.762,2.936
			c-0.688,3.972,4.359,3.569,5.736,2.706l0.115,0.287H92v-6.101c0-2.877-4.59-3.512-7.8-2.418l-0.517,2.476
			C85.116,12.166,87.068,12.049,88.042,12.108L88.042,12.108z"/>
		<path fill="#0079BE" d="M33.845,12.108c1.032,0.058,0.688,0.864-0.172,0.864c-1.664,0-4.301,0.576-4.704,2.936
			c-0.802,3.972,4.417,3.569,5.736,2.706l0.057,0.287h3.039v-6.101c0-2.877-4.588-3.512-7.799-2.418l-0.459,2.476
			C30.863,12.166,32.869,12.049,33.845,12.108L33.845,12.108z"/>
		<path fill="#0079BE" d="M61.317,9.689c-2.638,0-4.933,2.074-4.933,4.721c0,2.706,2.295,4.722,4.991,4.722s4.932-1.901,4.932-4.605
			C66.307,11.764,64.07,9.689,61.317,9.689L61.317,9.689z"/>
		<path fill="#0079BE" d="M80.872,16.138v-3.742h1.722V9.979h-1.777V6.121l-3.268,1.728v2.131h-1.147v2.647h1.147v4.029
			c0,2.016,2.637,3.456,5.045,1.728v-2.187C82.077,16.771,80.872,16.829,80.872,16.138L80.872,16.138z"/>
		<path fill="#0079BE" d="M18.244,5.487v13.356h6.424c3.842-0.058,5.391-4.778,1.95-6.907c2.753-2.475,0.575-6.449-2.409-6.449
			H18.244L18.244,5.487z"/>
		<path fill="#0079BE" d="M55.81,15.562c-0.745,0.576-1.376,0.634-2.351,0.634c-0.917,0-2.065-0.634-2.065-1.669
			c0-1.209,1.09-1.958,2.065-1.958s1.721,0.172,2.351,0.69v-2.877c-0.745-0.46-1.835-0.633-2.81-0.633
			c-2.639,0-4.761,1.958-4.761,4.662c0,2.706,2.293,4.663,4.99,4.663c0.975,0,1.835-0.229,2.581-0.69V15.562L55.81,15.562z"/>
		<path fill="#0079BE" d="M41.874,10.727V9.979h-3.269v8.922h3.212v-5.009c0-1.728,2.582-1.784,2.582,0v5.009h3.211v-5.814
			C47.609,10.554,44.57,8.711,41.874,10.727L41.874,10.727z"/>
		<path fill="#0079BE" d="M70.148,10.727V9.979h-3.211v8.922h3.211v-5.009c0-1.728,2.582-1.784,2.582,0v5.009h3.211v-5.814
			C75.941,10.554,72.902,8.711,70.148,10.727L70.148,10.727z"/>
		<path fill="#0079BE" d="M100.199,15.562c-0.745,0.576-1.375,0.634-2.407,0.634c-0.917,0-2.008-0.634-2.008-1.669
			c0-1.209,1.09-1.958,2.008-1.958c0.977,0,1.834,0.172,2.407,0.69v-2.877c-0.745-0.46-1.833-0.633-2.809-0.633
			c-2.695,0-4.817,1.958-4.817,4.662c0,2.706,2.351,4.663,4.989,4.663c0.918,0,1.892-0.229,2.637-0.69V15.562L100.199,15.562z"/>
		<path fill="#0079BE" d="M105.248,16.138v-3.742h1.663V9.979h-1.834V6.121l-3.212,1.728v2.131h-1.148v2.647h1.148v4.029
			c0,2.016,2.695,3.456,5.046,1.728v-2.187C106.395,16.771,105.248,16.829,105.248,16.138L105.248,16.138z"/>
		<path fill="#0079BE" d="M63.209,14.526c0,0.979-0.861,1.785-1.835,1.785s-1.778-0.807-1.778-1.901
			c0-1.151,0.804-1.784,1.778-1.784S63.209,13.259,63.209,14.526L63.209,14.526z"/>
		<path fill="#0079BE" d="M21.916,13.49h1.434c1.777,0,1.951,2.706,0.058,2.706h-1.491V13.49L21.916,13.49z"/>
		<path fill="#0079BE" d="M34.591,14.987v1.094c0,1.209-2.41,1.554-2.41,0.289C32.181,15.217,33.902,14.872,34.591,14.987
			L34.591,14.987z"/>
		<path fill="#0079BE" d="M88.789,14.987v1.094c0,1.209-2.353,1.554-2.353,0.289C86.436,15.217,88.156,14.872,88.789,14.987
			L88.789,14.987z"/>
		<path fill="#0079BE" d="M23.349,8.195c1.664,0.747,1.09,2.532,0.058,2.532h-1.491V8.195C21.916,8.136,22.948,8.079,23.349,8.195
			L23.349,8.195z"/>
		<path fill="#FFFFFF" d="M61.375,12.627c-0.975,0-1.778,0.632-1.778,1.784c0,1.094,0.804,1.901,1.778,1.901
			s1.835-0.807,1.835-1.785C63.209,13.259,62.348,12.627,61.375,12.627L61.375,12.627z"/>
		<path fill="#FFFFFF" d="M86.436,16.37c0,1.266,2.353,0.92,2.353-0.29v-1.094C88.156,14.872,86.436,15.217,86.436,16.37
			L86.436,16.37z"/>
		<path fill="#FFFFFF" d="M21.916,8.195v2.532h1.491c1.033,0,1.606-1.785-0.058-2.532C22.948,8.079,21.916,8.136,21.916,8.195
			L21.916,8.195z"/>
		<path fill="#FFFFFF" d="M32.181,16.37c0,1.266,2.41,0.92,2.41-0.29v-1.094C33.902,14.872,32.181,15.217,32.181,16.37L32.181,16.37
			z"/>
		<path fill="#FFFFFF" d="M21.916,16.196h1.491c1.893,0,1.72-2.706-0.058-2.706h-1.434V16.196L21.916,16.196z"/>
		<path fill="#0079BE" d="M58.106,55.286c0-3.111-1.264-5.126-4.417-5.126c-2.982,0-4.76,2.244-4.76,4.777
			c0,2.765,2.122,4.781,5.104,4.781c2.581,0,3.899-1.036,3.899-1.036v-2.647c-1.091,0.574-2.294,0.92-3.154,0.92
			c-1.721,0-2.64-0.462-2.64-1.668L58.106,55.286L58.106,55.286z"/>
		<polygon fill="#0079BE" points="24.439,55.744 27.078,51.945 27.078,59.486 30.518,59.486 30.576,46.418 27.078,46.418 
			24.439,50.333 21.744,46.418 18.244,46.418 18.303,59.486 21.744,59.486 21.744,51.945 		"/>
		<path fill="#0079BE" d="M61.832,54.248c0.344-0.748,1.09-1.38,2.065-1.38c0.516,0,1.091,0.229,1.492,0.518v-2.82
			c-0.287-0.347-0.746-0.463-1.205-0.463c-0.803,0-1.893,0.463-2.352,1.037v-0.923h-3.096v9.27h3.096V54.248L61.832,54.248z"/>
		<path fill="#0079BE" d="M35.452,58.91c1.088,0.46,2.408,0.634,3.269,0.634c3.327,0,4.302-1.727,4.302-3.166
			c0-1.67-1.722-2.592-3.269-2.821c-0.23,0-0.862-0.172-0.862-0.461c0-0.229,0.173-0.52,0.917-0.52c0.632,0,1.779,0.232,2.352,0.52
			l-0.114-2.416c-0.86-0.291-2.064-0.52-2.981-0.52c-1.894,0-3.557,1.151-3.557,2.994c0,1.438,1.032,2.188,2.695,2.533
			c0.688,0.056,1.319,0.346,1.319,0.69c0,0.46-0.458,0.577-0.917,0.577c-0.402,0-1.434,0.115-3.153-0.577L35.452,58.91L35.452,58.91
			z"/>
		<path fill="#0079BE" d="M47.208,56.666v-3.798h1.777v-2.479h-1.892v-3.971l-3.269,1.728v2.245h-1.147v2.652h1.147v4.14
			c0,2.075,2.696,3.457,5.161,1.729v-2.246C48.469,57.182,47.208,57.299,47.208,56.666L47.208,56.666z"/>
		<polygon fill="#0079BE" points="34.876,59.37 34.876,50.389 31.438,50.389 31.438,59.37 		"/>
		<path fill="#0079BE" d="M33.157,50.103c1.033,0,1.893-0.864,1.893-1.899c0-0.979-0.86-1.785-1.893-1.785
			c-0.976,0-1.778,0.809-1.778,1.785C31.379,49.238,32.181,50.103,33.157,50.103L33.157,50.103z"/>
		<path fill="#0079BE" d="M89.706,58.91c1.088,0.46,2.407,0.634,3.27,0.634c3.325,0,4.357-1.727,4.357-3.166
			c0-1.67-1.722-2.592-3.325-2.821c-0.23,0-0.86-0.172-0.86-0.461c0-0.229,0.171-0.52,0.975-0.52c0.631,0,1.72,0.232,2.351,0.52
			l-0.171-2.416c-0.86-0.291-2.064-0.52-2.983-0.52c-1.892,0-3.554,1.151-3.554,2.994c0,1.438,1.031,2.188,2.695,2.533
			c0.689,0.056,1.319,0.346,1.319,0.69c0,0.46-0.459,0.577-0.919,0.577c-0.4,0-1.433,0.115-3.152-0.577V58.91L89.706,58.91z"/>
		<path fill="#0079BE" d="M79.611,55.688c-1.091,0.806-1.95,0.979-3.385,0.979c-2.179,0-4.128-1.784-4.128-3.626
			c0-2.016,1.09-3.916,4.128-3.916c1.377,0,2.523,0.231,3.385,1.036v-3.107c-1.091-0.635-2.581-0.809-3.899-0.809
			c-3.958,0-6.997,2.821-6.997,6.68c0,3.8,3.326,6.678,7.227,6.678c1.32,0,2.581-0.287,3.67-0.919V55.688L79.611,55.688z"/>
		<path fill="#0079BE" d="M85.116,52.404c1.089,0.058,0.746,0.922-0.114,0.922c-1.72,0-4.472,0.578-4.817,2.936
			c-0.746,4.03,4.417,3.685,5.792,2.822l0.115,0.23h3.096v-6.218c0-2.937-4.703-3.511-8.029-2.415l-0.458,2.474
			C82.137,52.462,84.142,52.348,85.116,52.404L85.116,52.404z"/>
		<path fill="#0079BE" d="M101.004,51.082v-4.664h-3.212v13.068h3.212v-5.122c0-1.729,2.637-1.788,2.637,0v5.122h3.27v-5.93
			C106.911,50.909,103.814,49.067,101.004,51.082L101.004,51.082z"/>
		<path fill="#FFFFFF" d="M52.024,53.499c0.173-0.863,0.862-1.152,1.492-1.152s1.434,0.289,1.434,1.152H52.024L52.024,53.499z"/>
		<path fill="#FFFFFF" d="M85.862,55.343v1.093c0,1.267-2.408,1.555-2.408,0.289C83.455,55.572,85.231,55.286,85.862,55.343
			L85.862,55.343z"/>
	</g>
</g>
</svg>
