<?xml version="1.0" encoding="utf-8"?>
<!-- Generator: Adobe Illustrator 15.1.0, SVG Export Plug-In . SVG Version: 6.00 Build 0)  -->
<!DOCTYPE svg PUBLIC "-//W3C//DTD SVG 1.1//EN" "http://www.w3.org/Graphics/SVG/1.1/DTD/svg11.dtd">
<svg version="1.1" id="Layer_1" xmlns="http://www.w3.org/2000/svg" xmlns:xlink="http://www.w3.org/1999/xlink" x="0px" y="0px"
	 width="367.833px" height="25px" viewBox="0 0 367.833 25" enable-background="new 0 0 367.833 25" xml:space="preserve">
<g>
	<path fill="#7B7B7B" d="M16.006,12.478c0,0.094,0.059,0.155,0.176,0.185c0.633,0.182,1.192,0.535,1.679,1.059
		s0.729,1.147,0.729,1.868c0,1.107-0.709,2.246-2.127,3.418s-2.909,1.758-4.474,1.758c-0.439,0-0.784-0.057-1.033-0.171
		s-0.374-0.247-0.374-0.399c0-0.738,0.521-1.107,1.564-1.107c0.146,0,0.374,0.006,0.681,0.018s0.662-0.063,1.063-0.225
		s0.792-0.369,1.173-0.624s0.708-0.519,0.98-0.791s0.492-0.562,0.659-0.866s0.25-0.611,0.25-0.922c0-0.504-0.218-0.953-0.655-1.346
		s-1.018-0.588-1.745-0.588c-0.117,0-0.396,0.094-0.835,0.281c-0.439,0.193-0.727,0.289-0.861,0.289
		c-0.457,0-0.743-0.059-0.857-0.176s-0.171-0.324-0.171-0.623c0-0.182,0.495-0.475,1.485-0.879c0.826-0.328,1.627-0.864,2.404-1.608
		s1.165-1.374,1.165-1.89c0-0.357-0.146-0.642-0.439-0.853s-0.703-0.316-1.23-0.316c-0.873,0-1.74,0.107-2.602,0.321
		s-1.334,0.415-1.419,0.602s-0.324,1.607-0.716,4.258s-0.589,4.186-0.589,4.602c0,0.41,0.009,0.792,0.026,1.146
		s-0.045,0.659-0.189,0.914s-0.388,0.383-0.734,0.383c-0.316,0-0.561-0.125-0.734-0.374s-0.259-0.563-0.259-0.944
		c0-0.1,0.026-0.252,0.079-0.457c0.305-1.26,0.592-2.871,0.861-4.834c0.27-1.963,0.404-3.097,0.404-3.402
		c0-0.246-0.034-0.428-0.101-0.545S9.021,9.463,8.781,9.463c-0.094,0-0.186,0.003-0.277,0.009s-0.182-0.05-0.272-0.167
		S8.096,9.047,8.096,8.883c0-0.516,0.829-1.022,2.487-1.521s3.343-0.747,5.054-0.747c0.879,0,1.598,0.236,2.158,0.708
		s0.839,1.024,0.839,1.657c0,0.469-0.239,1.021-0.716,1.657S16.803,11.886,16.006,12.478z"/>
	<path fill="#7B7B7B" d="M28.328,16.688c0,0.598-0.529,1.318-1.586,2.162s-2.149,1.266-3.274,1.266
		c-0.943,0-1.671-0.277-2.184-0.834s-0.769-1.334-0.769-2.33c0-1.676,0.565-3.27,1.696-4.781c1.131-1.512,2.367-2.268,3.709-2.268
		c0.439,0,0.798,0.144,1.077,0.431s0.417,0.633,0.417,1.037c0,0.902-0.442,1.766-1.327,2.592s-2.068,1.639-3.551,2.436
		c-0.305,0.158-0.457,0.363-0.457,0.615c0,0.486,0.141,0.875,0.422,1.168s0.697,0.439,1.248,0.439c1.26,0,2.546-0.697,3.858-2.092
		c0.193-0.193,0.34-0.289,0.439-0.289C28.234,16.24,28.328,16.389,28.328,16.688z M22.22,15.316
		c2.484-1.477,3.727-2.663,3.727-3.559c0-0.352-0.158-0.527-0.475-0.527c-0.539,0-1.147,0.396-1.824,1.187
		C22.971,13.207,22.495,14.174,22.22,15.316z"/>
	<path fill="#7B7B7B" d="M31.844,17.717c0,0.445,0.062,0.945,0.185,1.502c0.023,0.105,0.035,0.193,0.035,0.264
		c0,0.105-0.097,0.242-0.29,0.409s-0.398,0.251-0.615,0.251c-0.568,0-0.853-0.521-0.853-1.564c0-1.078,0.223-2.783,0.668-5.115
		c0.152-0.815,0.229-1.316,0.229-1.503c0-0.369,0.067-0.684,0.202-0.945s0.325-0.391,0.571-0.391c0.299,0,0.535,0.072,0.708,0.215
		s0.259,0.303,0.259,0.479s-0.041,0.407-0.123,0.694c-0.439,1.546-0.712,2.654-0.817,3.322S31.844,16.797,31.844,17.717z
		 M32.995,7.899c-0.123,0-0.217-0.132-0.281-0.396c-0.023-0.082-0.056-0.173-0.097-0.272C32.459,6.85,32.38,6.519,32.38,6.238
		c0-0.234,0.139-0.473,0.417-0.716s0.587-0.365,0.927-0.365c0.17,0,0.36,0.066,0.571,0.198s0.316,0.259,0.316,0.382
		c0,0.193-0.072,0.521-0.215,0.984s-0.372,0.775-0.686,0.936S33.159,7.899,32.995,7.899z"/>
	<path fill="#7B7B7B" d="M48.771,15.844c-0.75,1.26-1.518,2.236-2.303,2.928s-1.515,1.037-2.188,1.037
		c-0.387,0-0.781-0.227-1.182-0.678s-0.602-1.145-0.602-2.082c0-0.768,0.185-1.898,0.554-3.393c0.311-1.249,0.466-2.125,0.466-2.628
		c0.17-0.352,0.437-0.527,0.8-0.527c0.246,0,0.442,0.086,0.589,0.259s0.22,0.353,0.22,0.541c0,0.41-0.144,0.993-0.431,1.749
		c-0.545,1.471-0.817,2.734-0.817,3.789c0,0.961,0.223,1.441,0.668,1.441c0.568,0,1.292-0.484,2.171-1.451s1.632-2.314,2.259-4.042
		c0.246-0.691,0.447-1.141,0.602-1.349s0.365-0.312,0.628-0.312c0.398,0,0.598,0.264,0.598,0.791c0,0.064-0.056,0.278-0.167,0.642
		c-0.352,1.283-0.527,2.496-0.527,3.638c0,1.371,0.226,2.26,0.677,2.664c0.234,0.217,0.352,0.393,0.352,0.527
		c0,0.164-0.119,0.313-0.356,0.447s-0.453,0.203-0.646,0.203c-0.41,0-0.741-0.305-0.993-0.914s-0.378-1.51-0.378-2.699v-0.289
		C48.763,16.041,48.766,15.943,48.771,15.844z"/>
	<path fill="#7B7B7B" d="M59.529,12.909c-0.305,0-0.637,0.199-0.998,0.597s-0.91,1.293-1.648,2.682
		c-0.973,1.863-1.601,2.924-1.885,3.182s-0.52,0.387-0.708,0.387c-0.691,0-1.037-0.334-1.037-1.002c0-0.281,0.047-0.68,0.141-1.195
		c0.322-1.77,0.483-3.637,0.483-5.599c0-0.223,0.095-0.47,0.286-0.743s0.371-0.409,0.541-0.409c0.305,0,0.521,0.094,0.65,0.281
		s0.193,0.565,0.193,1.134c0,0.592-0.176,1.81-0.527,3.656c-0.117,0.609-0.176,0.996-0.176,1.16c0,0.094,0.023,0.141,0.07,0.141
		c0.088,0,0.495-0.699,1.222-2.1c0.732-1.424,1.374-2.426,1.925-3.006s1.157-0.87,1.819-0.87c0.527,0,0.957,0.24,1.288,0.721
		s0.573,1.357,0.725,2.628c0.164,1.447,0.312,2.348,0.444,2.702s0.341,0.532,0.628,0.532c0.182,0,0.41-0.064,0.686-0.193
		c0.047-0.023,0.082-0.035,0.105-0.035c0.252,0,0.378,0.146,0.378,0.439c0,0.258-0.173,0.531-0.519,0.821s-0.762,0.435-1.248,0.435
		c-0.498,0-0.883-0.197-1.156-0.593s-0.488-1.452-0.646-3.169C60.402,13.77,60.057,12.909,59.529,12.909z"/>
	<path fill="#7B7B7B" d="M69.9,17.654c0-0.381-0.469-0.814-1.406-1.301c-1.189-0.609-1.994-1.097-2.413-1.463
		s-0.628-0.775-0.628-1.227c0-1.166,0.584-2.132,1.753-2.9s2.123-1.151,2.861-1.151c0.475,0,0.819,0.082,1.033,0.246
		s0.321,0.448,0.321,0.853c0,0.182-0.078,0.337-0.233,0.466s-0.277,0.193-0.365,0.193c-0.064,0-0.19-0.044-0.378-0.132
		c-0.188-0.082-0.311-0.123-0.369-0.123c-0.293,0-0.888,0.214-1.784,0.642s-1.345,0.911-1.345,1.45c0,0.328,0.158,0.626,0.475,0.893
		s0.885,0.594,1.705,0.98c0.662,0.316,1.191,0.654,1.586,1.015s0.593,0.784,0.593,1.271c0,0.896-0.618,1.598-1.854,2.104
		s-2.417,0.761-3.542,0.761c-0.949,0-1.424-0.322-1.424-0.967c0-0.223,0.107-0.387,0.321-0.492s0.429-0.158,0.646-0.158
		c0.088,0,0.255,0.029,0.501,0.088c0.24,0.059,0.398,0.088,0.475,0.088c0.65,0,1.348-0.109,2.092-0.326S69.725,17.977,69.9,17.654z"
		/>
	<path fill="#7B7B7B" d="M82.064,20.072c-0.041,0.146-0.152,0.27-0.334,0.369s-0.363,0.148-0.545,0.148
		c-0.598,0-0.896-0.436-0.896-1.309c0-0.416,0.138-1.594,0.413-3.533c0.17-1.189,0.255-2.092,0.255-2.707
		c0-0.106-0.123-0.244-0.369-0.414c-0.252-0.164-0.378-0.325-0.378-0.483c0-0.252,0.19-0.524,0.571-0.817
		c0.293-0.229,0.473-0.483,0.541-0.765s0.145-0.671,0.233-1.169c0.299-1.816,0.766-3.126,1.402-3.929s1.446-1.204,2.43-1.204
		c0.521,0,0.964,0.177,1.327,0.532s0.545,0.795,0.545,1.323c0,0.428-0.101,0.913-0.303,1.455s-0.432,0.813-0.69,0.813
		c-0.193,0-0.29-0.097-0.29-0.29l0.062-0.853c0-1.131-0.316-1.696-0.949-1.696c-0.686,0-1.254,0.672-1.705,2.017
		S82.706,10,82.706,10.843c0,0.27,0.176,0.404,0.527,0.404c1.529,0,2.43-0.006,2.703-0.018s0.409,0.103,0.409,0.343
		s-0.148,0.423-0.444,0.549s-0.942,0.239-1.938,0.338c-0.85,0.088-1.33,0.161-1.441,0.22c-0.393,2.179-0.589,4.123-0.589,5.828
		c0,0.51,0.023,0.887,0.07,1.133C82.044,19.869,82.064,20.014,82.064,20.072z"/>
	<path fill="#7B7B7B" d="M88.7,17.717c0,0.445,0.062,0.945,0.185,1.502c0.023,0.105,0.035,0.193,0.035,0.264
		c0,0.105-0.097,0.242-0.29,0.409s-0.398,0.251-0.615,0.251c-0.568,0-0.853-0.521-0.853-1.564c0-1.078,0.223-2.783,0.668-5.115
		c0.152-0.815,0.229-1.316,0.229-1.503c0-0.369,0.067-0.684,0.202-0.945s0.325-0.391,0.571-0.391c0.299,0,0.535,0.072,0.708,0.215
		s0.259,0.303,0.259,0.479s-0.041,0.407-0.123,0.694c-0.439,1.546-0.712,2.654-0.817,3.322S88.7,16.797,88.7,17.717z M89.852,7.899
		c-0.123,0-0.217-0.132-0.281-0.396c-0.023-0.082-0.056-0.173-0.097-0.272c-0.158-0.381-0.237-0.712-0.237-0.993
		c0-0.234,0.139-0.473,0.417-0.716s0.587-0.365,0.927-0.365c0.17,0,0.36,0.066,0.571,0.198s0.316,0.259,0.316,0.382
		c0,0.193-0.072,0.521-0.215,0.984s-0.372,0.775-0.686,0.936S90.016,7.899,89.852,7.899z"/>
	<path fill="#7B7B7B" d="M98.21,12.909c-0.305,0-0.637,0.199-0.998,0.597s-0.91,1.293-1.648,2.682
		c-0.973,1.863-1.601,2.924-1.885,3.182s-0.52,0.387-0.708,0.387c-0.691,0-1.037-0.334-1.037-1.002c0-0.281,0.047-0.68,0.141-1.195
		c0.322-1.77,0.483-3.637,0.483-5.599c0-0.223,0.095-0.47,0.286-0.743s0.371-0.409,0.541-0.409c0.305,0,0.521,0.094,0.65,0.281
		s0.193,0.565,0.193,1.134c0,0.592-0.176,1.81-0.527,3.656c-0.117,0.609-0.176,0.996-0.176,1.16c0,0.094,0.023,0.141,0.07,0.141
		c0.088,0,0.495-0.699,1.222-2.1c0.732-1.424,1.374-2.426,1.925-3.006s1.157-0.87,1.819-0.87c0.527,0,0.957,0.24,1.288,0.721
		s0.573,1.357,0.725,2.628c0.164,1.447,0.312,2.348,0.444,2.702s0.341,0.532,0.628,0.532c0.182,0,0.41-0.064,0.686-0.193
		c0.047-0.023,0.082-0.035,0.105-0.035c0.252,0,0.378,0.146,0.378,0.439c0,0.258-0.173,0.531-0.519,0.821s-0.762,0.435-1.248,0.435
		c-0.498,0-0.883-0.197-1.156-0.593s-0.488-1.452-0.646-3.169C99.083,13.77,98.737,12.909,98.21,12.909z"/>
	<path fill="#7B7B7B" d="M110.462,16.029c-0.785,1.26-1.617,2.23-2.496,2.913s-1.688,1.024-2.426,1.024
		c-0.568,0-1.018-0.219-1.349-0.655s-0.497-1.019-0.497-1.745c0-1.482,0.602-3.002,1.806-4.561c1.204-1.559,2.503-2.338,3.898-2.338
		c0.609,0,1.175,0.261,1.696,0.782l1.23-5.748c0.088-0.393,0.25-0.656,0.488-0.791s0.423-0.202,0.558-0.202
		c0.41,0,0.615,0.363,0.615,1.09c0,0.129-0.135,0.609-0.404,1.441c-0.428,1.289-0.833,2.873-1.217,4.75s-0.576,3.385-0.576,4.521
		c0,1.172,0.255,1.758,0.765,1.758c0.328,0,0.668-0.107,1.02-0.324c0.146-0.105,0.284-0.158,0.413-0.158
		c0.188,0,0.281,0.123,0.281,0.369c0,0.299-0.262,0.645-0.787,1.037s-1.062,0.588-1.613,0.588c-0.967,0-1.45-0.932-1.45-2.795
		C110.418,16.67,110.433,16.352,110.462,16.029z M109.311,11.916c-0.949,0-1.89,0.643-2.821,1.929s-1.397,2.474-1.397,3.563
		c0,0.732,0.243,1.1,0.729,1.1c0.457,0,1.012-0.24,1.666-0.721s1.326-1.247,2.017-2.299s1.037-1.842,1.037-2.369
		c0-0.257-0.119-0.522-0.356-0.795S109.656,11.916,109.311,11.916z"/>
	<path fill="#7B7B7B" d="M123.584,16.688c0,0.598-0.529,1.318-1.586,2.162s-2.149,1.266-3.274,1.266
		c-0.943,0-1.671-0.277-2.184-0.834s-0.769-1.334-0.769-2.33c0-1.676,0.565-3.27,1.696-4.781c1.131-1.512,2.367-2.268,3.709-2.268
		c0.439,0,0.798,0.144,1.077,0.431s0.417,0.633,0.417,1.037c0,0.902-0.442,1.766-1.327,2.592s-2.068,1.639-3.551,2.436
		c-0.305,0.158-0.457,0.363-0.457,0.615c0,0.486,0.141,0.875,0.422,1.168s0.697,0.439,1.248,0.439c1.26,0,2.546-0.697,3.858-2.092
		c0.193-0.193,0.34-0.289,0.439-0.289C123.49,16.24,123.584,16.389,123.584,16.688z M117.476,15.316
		c2.484-1.477,3.727-2.663,3.727-3.559c0-0.352-0.158-0.527-0.475-0.527c-0.539,0-1.147,0.396-1.824,1.187
		C118.227,13.207,117.751,14.174,117.476,15.316z"/>
	<path fill="#7B7B7B" d="M131.406,12.909c-0.305,0-0.637,0.199-0.998,0.597s-0.91,1.293-1.648,2.682
		c-0.973,1.863-1.601,2.924-1.885,3.182s-0.52,0.387-0.708,0.387c-0.691,0-1.037-0.334-1.037-1.002c0-0.281,0.047-0.68,0.141-1.195
		c0.322-1.77,0.483-3.637,0.483-5.599c0-0.223,0.095-0.47,0.286-0.743s0.371-0.409,0.541-0.409c0.305,0,0.521,0.094,0.65,0.281
		s0.193,0.565,0.193,1.134c0,0.592-0.176,1.81-0.527,3.656c-0.117,0.609-0.176,0.996-0.176,1.16c0,0.094,0.023,0.141,0.07,0.141
		c0.088,0,0.495-0.699,1.222-2.1c0.732-1.424,1.374-2.426,1.925-3.006s1.157-0.87,1.819-0.87c0.527,0,0.957,0.24,1.288,0.721
		s0.573,1.357,0.725,2.628c0.164,1.447,0.312,2.348,0.444,2.702s0.341,0.532,0.628,0.532c0.182,0,0.41-0.064,0.686-0.193
		c0.047-0.023,0.082-0.035,0.105-0.035c0.252,0,0.378,0.146,0.378,0.439c0,0.258-0.173,0.531-0.519,0.821s-0.762,0.435-1.248,0.435
		c-0.498,0-0.883-0.197-1.156-0.593s-0.488-1.452-0.646-3.169C132.279,13.77,131.934,12.909,131.406,12.909z"/>
	<path fill="#7B7B7B" d="M153.212,9.859c0-0.779-0.202-1.255-0.606-1.428s-0.908-0.259-1.512-0.259
		c-1.242,0-2.369,0.245-3.379,0.734s-1.516,1.077-1.516,1.762c0,0.492,0.224,0.921,0.672,1.288s1.425,0.769,2.931,1.209
		c1.459,0.422,2.498,0.856,3.116,1.305s0.927,0.988,0.927,1.621c0,0.639-0.431,1.329-1.292,2.07s-1.9,1.305-3.116,1.691
		s-2.249,0.58-3.098,0.58c-0.709,0-1.247-0.083-1.613-0.25s-0.549-0.377-0.549-0.629c0-0.176,0.054-0.391,0.163-0.646
		s0.218-0.382,0.33-0.382c0.117,0,0.237,0.02,0.36,0.061c0.627,0.234,1.248,0.352,1.863,0.352c1.107,0,2.282-0.323,3.524-0.971
		s1.863-1.252,1.863-1.814c0-0.24-0.189-0.471-0.567-0.69s-1.334-0.573-2.87-1.06c-1.904-0.604-3.075-1.19-3.511-1.762
		s-0.655-1.173-0.655-1.806c0-1.219,0.7-2.202,2.101-2.949s2.865-1.121,4.395-1.121c1.014,0,1.793,0.171,2.338,0.514
		s0.817,0.722,0.817,1.138c0,0.199-0.062,0.489-0.185,0.87S153.71,9.859,153.212,9.859z"/>
	<path fill="#7B7B7B" d="M157.729,17.717c0,0.445,0.062,0.945,0.185,1.502c0.023,0.105,0.035,0.193,0.035,0.264
		c0,0.105-0.097,0.242-0.29,0.409s-0.398,0.251-0.615,0.251c-0.568,0-0.853-0.521-0.853-1.564c0-1.078,0.223-2.783,0.668-5.115
		c0.152-0.815,0.229-1.316,0.229-1.503c0-0.369,0.067-0.684,0.202-0.945s0.325-0.391,0.571-0.391c0.299,0,0.535,0.072,0.708,0.215
		s0.259,0.303,0.259,0.479s-0.041,0.407-0.123,0.694c-0.439,1.546-0.712,2.654-0.817,3.322S157.729,16.797,157.729,17.717z
		 M158.881,7.899c-0.123,0-0.217-0.132-0.281-0.396c-0.023-0.082-0.056-0.173-0.097-0.272c-0.158-0.381-0.237-0.712-0.237-0.993
		c0-0.234,0.139-0.473,0.417-0.716s0.587-0.365,0.927-0.365c0.17,0,0.36,0.066,0.571,0.198s0.316,0.259,0.316,0.382
		c0,0.193-0.072,0.521-0.215,0.984s-0.372,0.775-0.686,0.936S159.045,7.899,158.881,7.899z"/>
	<path fill="#7B7B7B" d="M168.777,16.688c0,0.598-0.529,1.318-1.586,2.162s-2.149,1.266-3.274,1.266
		c-0.943,0-1.671-0.277-2.184-0.834s-0.769-1.334-0.769-2.33c0-1.676,0.565-3.27,1.696-4.781c1.131-1.512,2.367-2.268,3.709-2.268
		c0.439,0,0.798,0.144,1.077,0.431s0.417,0.633,0.417,1.037c0,0.902-0.442,1.766-1.327,2.592s-2.068,1.639-3.551,2.436
		c-0.305,0.158-0.457,0.363-0.457,0.615c0,0.486,0.141,0.875,0.422,1.168s0.697,0.439,1.248,0.439c1.26,0,2.546-0.697,3.858-2.092
		c0.193-0.193,0.34-0.289,0.439-0.289C168.684,16.24,168.777,16.389,168.777,16.688z M162.669,15.316
		c2.484-1.477,3.727-2.663,3.727-3.559c0-0.352-0.158-0.527-0.475-0.527c-0.539,0-1.147,0.396-1.824,1.187
		C163.42,13.207,162.944,14.174,162.669,15.316z"/>
	<path fill="#7B7B7B" d="M181.372,8.022c-0.035,0.229-0.231,1.046-0.589,2.452c-0.17,0.662-0.281,1.219-0.334,1.67
		c-0.035,0.305-0.079,0.636-0.132,0.993c-0.234,1.5-0.352,2.525-0.352,3.076c0,0.826,0.05,1.639,0.149,2.436
		c0.059,0.463-0.023,0.797-0.246,1.002s-0.445,0.307-0.668,0.307c-0.316,0-0.536-0.177-0.659-0.531s-0.185-0.928-0.185-1.719
		c0-0.826,0.117-1.969,0.352-3.428c0.082-0.551,0.129-0.881,0.141-0.992c0.012-0.199,0.035-0.405,0.07-0.616
		c0.029-0.205,0.053-0.41,0.07-0.615c0.035-0.545,0.141-1.257,0.316-2.136c0.129-0.662,0.223-1.245,0.281-1.749
		c0.041-0.352,0.088-0.589,0.141-0.712s0.188-0.258,0.409-0.404c0.219-0.146,0.385-0.22,0.496-0.22c0.246,0,0.431,0.119,0.554,0.356
		S181.372,7.706,181.372,8.022z"/>
	<path fill="#7B7B7B" d="M184.958,17.031c2.18-4.025,3.977-6.039,5.389-6.039c0.375,0,0.68,0.214,0.914,0.642
		s0.424,1.377,0.57,2.848c0.146,1.564,0.479,2.695,0.994,3.393c0.264,0.357,0.395,0.621,0.395,0.791
		c0,0.152-0.088,0.293-0.264,0.422s-0.363,0.193-0.563,0.193c-0.457,0-0.861-0.257-1.213-0.77s-0.576-1.414-0.676-2.703
		c-0.1-1.219-0.205-2.016-0.316-2.391s-0.297-0.562-0.555-0.562c-0.615,0-1.854,1.609-3.717,4.826
		c-0.557,0.961-0.967,1.589-1.23,1.885s-0.504,0.443-0.721,0.443c-0.258,0-0.475-0.076-0.65-0.229s-0.264-0.34-0.264-0.563
		c0-0.164,0.047-0.48,0.141-0.949c0.721-3.721,1.29-7.4,1.706-11.039c0.094-0.85,0.244-1.415,0.451-1.696
		c0.209-0.281,0.383-0.422,0.523-0.422c0.252,0,0.48,0.103,0.686,0.308s0.309,0.489,0.309,0.853c0,1.078-0.264,2.558-0.791,4.438
		c-0.258,0.932-0.531,2.115-0.818,3.55c-0.287,1.436-0.43,2.324-0.43,2.664c0,0.07,0.031,0.105,0.096,0.105H184.958z"/>
	<path fill="#7B7B7B" d="M196.559,16.178c0.059-0.105,0.129-0.252,0.211-0.439c0.398-0.914,0.766-1.63,1.1-2.148
		s0.701-1.015,1.102-1.49c0.402-0.475,0.768-0.835,1.1-1.081c0.33-0.246,0.631-0.417,0.9-0.514s0.531-0.145,0.783-0.145
		c0.51,0,0.926,0.154,1.248,0.461s0.482,0.667,0.482,1.077c0,0.182-0.057,0.346-0.172,0.492c-0.113,0.146-0.287,0.22-0.521,0.22
		c-0.246,0-0.473-0.108-0.678-0.325c-0.211-0.217-0.43-0.325-0.658-0.325c-0.609,0-1.453,0.738-2.531,2.214
		c-1.078,1.477-1.734,3.104-1.969,4.879c-0.059,0.457-0.17,0.758-0.334,0.904s-0.396,0.221-0.695,0.221
		c-0.287,0-0.494-0.215-0.623-0.643s-0.193-1.148-0.193-2.162c0-0.275,0.014-0.881,0.043-1.818c0.035-1.107,0.105-2.002,0.211-2.681
		c0.018-0.111,0.047-0.372,0.088-0.782c0.041-0.451,0.092-0.765,0.154-0.94c0.061-0.176,0.188-0.34,0.377-0.492
		c0.191-0.152,0.398-0.229,0.621-0.229c0.217,0,0.379,0.069,0.486,0.207c0.109,0.138,0.164,0.286,0.164,0.444
		c0,0.229-0.059,0.551-0.176,0.967c-0.135,0.463-0.215,0.782-0.238,0.958c-0.018,0.199-0.049,0.406-0.096,0.623
		c-0.059,0.252-0.117,0.914-0.176,1.986l-0.01,0.326V16.178z"/>
	<path fill="#7B7B7B" d="M211.563,16.688c0,0.598-0.529,1.318-1.588,2.162c-1.057,0.844-2.148,1.266-3.273,1.266
		c-0.943,0-1.672-0.277-2.184-0.834c-0.514-0.557-0.77-1.334-0.77-2.33c0-1.676,0.566-3.27,1.697-4.781
		c1.131-1.512,2.367-2.268,3.709-2.268c0.439,0,0.797,0.144,1.076,0.431c0.277,0.287,0.418,0.633,0.418,1.037
		c0,0.902-0.443,1.766-1.328,2.592s-2.068,1.639-3.551,2.436c-0.305,0.158-0.457,0.363-0.457,0.615c0,0.486,0.141,0.875,0.422,1.168
		s0.697,0.439,1.248,0.439c1.26,0,2.547-0.697,3.859-2.092c0.193-0.193,0.34-0.289,0.439-0.289
		C211.469,16.24,211.563,16.389,211.563,16.688z M205.454,15.316c2.484-1.477,3.727-2.663,3.727-3.559
		c0-0.352-0.158-0.527-0.475-0.527c-0.539,0-1.146,0.396-1.824,1.187C206.206,13.207,205.729,14.174,205.454,15.316z"/>
	<path fill="#7B7B7B" d="M229.036,12.715c-0.199,0.27-0.566,0.876-1.1,1.82c-2.221,3.996-3.463,5.994-3.727,5.994
		c-0.398,0-0.721-0.233-0.967-0.699s-0.584-1.701-1.016-3.705c-0.43-2.004-0.795-3.919-1.094-5.748
		c-0.111-0.516-0.219-0.938-0.324-1.266c-0.146-0.439-0.221-0.768-0.221-0.984c0-0.229,0.086-0.435,0.26-0.62
		c0.172-0.185,0.365-0.277,0.576-0.277c0.258,0,0.48,0.198,0.672,0.593c0.189,0.396,0.402,1.355,0.637,2.878
		c0.504,3.311,1.02,5.813,1.547,7.506c1.465-2.338,2.377-3.825,2.734-4.461s0.861-1.663,1.512-3.081
		c0.17-0.311,0.404-0.466,0.703-0.466c0.129,0,0.275,0.127,0.439,0.382s0.451,0.957,0.861,2.105c1.02,2.842,1.713,4.547,2.082,5.116
		c2.063-3.41,3.262-6.947,3.596-10.609c0-0.082,0.076-0.195,0.232-0.338c0.154-0.144,0.303-0.215,0.443-0.215
		c0.469,0,0.703,0.299,0.703,0.896c0,0.621-0.156,1.551-0.471,2.791c-0.313,1.239-0.688,2.382-1.125,3.428
		c-0.436,1.046-1.17,2.638-2.201,4.776c-0.17,0.346-0.313,0.654-0.43,0.924c-0.059,0.111-0.172,0.205-0.34,0.281
		c-0.166,0.076-0.299,0.113-0.398,0.113c-0.252,0-0.508-0.137-0.766-0.412s-0.65-1.083-1.178-2.422s-0.908-2.346-1.143-3.02
		C229.372,13.535,229.206,13.107,229.036,12.715z"/>
	<path fill="#7B7B7B" d="M244.68,15.844c-0.75,1.26-1.518,2.236-2.303,2.928s-1.516,1.037-2.189,1.037
		c-0.387,0-0.781-0.227-1.182-0.678c-0.402-0.451-0.602-1.145-0.602-2.082c0-0.768,0.184-1.898,0.553-3.393
		c0.311-1.249,0.467-2.125,0.467-2.628c0.17-0.352,0.436-0.527,0.799-0.527c0.246,0,0.443,0.086,0.59,0.259s0.219,0.353,0.219,0.541
		c0,0.41-0.143,0.993-0.43,1.749c-0.545,1.471-0.818,2.734-0.818,3.789c0,0.961,0.223,1.441,0.668,1.441
		c0.568,0,1.293-0.484,2.172-1.451s1.631-2.314,2.258-4.042c0.246-0.691,0.447-1.141,0.602-1.349
		c0.156-0.208,0.365-0.312,0.629-0.312c0.398,0,0.598,0.264,0.598,0.791c0,0.064-0.055,0.278-0.166,0.642
		c-0.352,1.283-0.527,2.496-0.527,3.638c0,1.371,0.225,2.26,0.676,2.664c0.234,0.217,0.352,0.393,0.352,0.527
		c0,0.164-0.119,0.313-0.355,0.447c-0.238,0.135-0.453,0.203-0.646,0.203c-0.41,0-0.74-0.305-0.992-0.914s-0.379-1.51-0.379-2.699
		v-0.289C244.67,16.041,244.674,15.943,244.68,15.844z"/>
	<path fill="#7B7B7B" d="M255.438,12.909c-0.305,0-0.639,0.199-0.998,0.597c-0.361,0.398-0.91,1.293-1.648,2.682
		c-0.973,1.863-1.602,2.924-1.885,3.182c-0.285,0.258-0.52,0.387-0.707,0.387c-0.691,0-1.037-0.334-1.037-1.002
		c0-0.281,0.047-0.68,0.141-1.195c0.322-1.77,0.482-3.637,0.482-5.599c0-0.223,0.096-0.47,0.285-0.743
		c0.191-0.272,0.371-0.409,0.541-0.409c0.305,0,0.521,0.094,0.65,0.281s0.193,0.565,0.193,1.134c0,0.592-0.176,1.81-0.527,3.656
		c-0.117,0.609-0.176,0.996-0.176,1.16c0,0.094,0.023,0.141,0.07,0.141c0.088,0,0.496-0.699,1.223-2.1
		c0.732-1.424,1.373-2.426,1.924-3.006s1.158-0.87,1.82-0.87c0.527,0,0.955,0.24,1.287,0.721c0.33,0.48,0.572,1.357,0.725,2.628
		c0.164,1.447,0.313,2.348,0.443,2.702c0.133,0.354,0.342,0.532,0.629,0.532c0.182,0,0.41-0.064,0.686-0.193
		c0.047-0.023,0.082-0.035,0.105-0.035c0.252,0,0.379,0.146,0.379,0.439c0,0.258-0.174,0.531-0.52,0.821s-0.762,0.435-1.248,0.435
		c-0.498,0-0.883-0.197-1.156-0.593c-0.271-0.396-0.486-1.452-0.645-3.169C256.311,13.77,255.965,12.909,255.438,12.909z"/>
	<path fill="#7B7B7B" d="M265.809,17.654c0-0.381-0.469-0.814-1.406-1.301c-1.189-0.609-1.994-1.097-2.414-1.463
		c-0.418-0.366-0.627-0.775-0.627-1.227c0-1.166,0.584-2.132,1.752-2.9c1.17-0.768,2.123-1.151,2.861-1.151
		c0.475,0,0.818,0.082,1.033,0.246c0.213,0.164,0.32,0.448,0.32,0.853c0,0.182-0.078,0.337-0.232,0.466
		c-0.156,0.129-0.277,0.193-0.365,0.193c-0.064,0-0.189-0.044-0.377-0.132c-0.188-0.082-0.311-0.123-0.369-0.123
		c-0.293,0-0.889,0.214-1.785,0.642s-1.344,0.911-1.344,1.45c0,0.328,0.158,0.626,0.475,0.893s0.885,0.594,1.705,0.98
		c0.662,0.316,1.189,0.654,1.586,1.015c0.395,0.36,0.594,0.784,0.594,1.271c0,0.896-0.619,1.598-1.855,2.104
		s-2.416,0.761-3.541,0.761c-0.949,0-1.424-0.322-1.424-0.967c0-0.223,0.105-0.387,0.32-0.492c0.213-0.105,0.43-0.158,0.646-0.158
		c0.088,0,0.254,0.029,0.5,0.088c0.24,0.059,0.398,0.088,0.475,0.088c0.65,0,1.348-0.109,2.092-0.326S265.633,17.977,265.809,17.654
		z"/>
	<path fill="#7B7B7B" d="M271.424,20.168c-0.879,0-1.555-0.252-2.025-0.756c-0.473-0.504-0.707-1.209-0.707-2.117
		c0-1.529,0.605-3.143,1.818-4.839s2.342-2.544,3.385-2.544c0.475,0,0.883,0.256,1.225,0.769c0.344,0.513,0.516,1.056,0.516,1.63
		c0,0.346-0.076,0.643-0.225,0.892c-0.15,0.249-0.301,0.373-0.453,0.373c-0.34,0-0.58-0.342-0.721-1.028
		c-0.158-0.738-0.387-1.107-0.686-1.107c-0.609,0-1.33,0.724-2.162,2.17c-0.832,1.447-1.248,2.67-1.248,3.666
		s0.566,1.494,1.697,1.494c0.861,0,1.875-0.404,3.041-1.213c0.41-0.287,0.711-0.432,0.904-0.432c0.199,0,0.299,0.115,0.299,0.344
		c0,0.445-0.523,1.006-1.572,1.683S272.432,20.168,271.424,20.168z"/>
	<path fill="#7B7B7B" d="M279.59,17.031c2.18-4.025,3.975-6.039,5.387-6.039c0.375,0,0.68,0.214,0.914,0.642
		s0.426,1.377,0.572,2.848c0.146,1.564,0.477,2.695,0.992,3.393c0.264,0.357,0.396,0.621,0.396,0.791
		c0,0.152-0.088,0.293-0.264,0.422s-0.363,0.193-0.563,0.193c-0.457,0-0.861-0.257-1.213-0.77s-0.578-1.414-0.678-2.703
		c-0.1-1.219-0.205-2.016-0.316-2.391s-0.295-0.562-0.553-0.562c-0.615,0-1.855,1.609-3.719,4.826
		c-0.557,0.961-0.967,1.589-1.23,1.885s-0.504,0.443-0.721,0.443c-0.258,0-0.475-0.076-0.65-0.229s-0.264-0.34-0.264-0.563
		c0-0.164,0.047-0.48,0.141-0.949c0.721-3.721,1.289-7.4,1.705-11.039c0.094-0.85,0.244-1.415,0.453-1.696
		c0.207-0.281,0.383-0.422,0.523-0.422c0.252,0,0.48,0.103,0.686,0.308s0.307,0.489,0.307,0.853c0,1.078-0.264,2.558-0.791,4.438
		c-0.258,0.932-0.529,2.115-0.816,3.55c-0.287,1.436-0.432,2.324-0.432,2.664c0,0.07,0.033,0.105,0.098,0.105H279.59z"/>
	<path fill="#7B7B7B" d="M291.122,15.563c0.076-0.1,0.6-0.57,1.572-1.414c0.92-0.803,1.563-1.386,1.926-1.75
		c1.354-1.354,2.326-2.03,2.918-2.03c0.457,0,0.686,0.22,0.686,0.659c0,0.498-0.227,0.864-0.678,1.099
		c-0.586,0.299-1.367,0.795-2.346,1.49s-1.469,1.185-1.469,1.472c0,0.117,0.346,0.556,1.037,1.314s1.289,1.318,1.793,1.679
		s0.994,0.54,1.469,0.54l0.289-0.008c0.205-0.012,0.309,0.078,0.309,0.271c0,0.258-0.162,0.521-0.484,0.787s-0.746,0.4-1.273,0.4
		c-0.34,0-0.686-0.119-1.033-0.356c-0.35-0.237-0.969-0.878-1.859-1.921c-0.709-0.861-1.15-1.375-1.326-1.542
		s-0.322-0.251-0.439-0.251c-0.064,0-0.27,0.152-0.615,0.457s-0.535,0.537-0.568,0.695c-0.031,0.158-0.047,0.762-0.047,1.811v0.412
		c0,0.217-0.104,0.41-0.309,0.58s-0.428,0.256-0.668,0.256c-0.246,0-0.439-0.072-0.58-0.216s-0.211-0.292-0.211-0.444
		c0-0.211,0.08-0.709,0.238-1.494c0.223-1.131,0.428-2.645,0.615-4.543c0.434-4.483,0.768-7.019,1.002-7.607
		s0.568-0.883,1.002-0.883c0.152,0,0.279,0.082,0.381,0.246c0.104,0.164,0.154,0.375,0.154,0.633c0,0.469-0.201,1.714-0.605,3.735
		C291.596,11.667,291.303,13.641,291.122,15.563z"/>
	<path fill="#7B7B7B" d="M307.583,16.688c0,0.598-0.529,1.318-1.586,2.162c-1.059,0.844-2.148,1.266-3.273,1.266
		c-0.943,0-1.672-0.277-2.186-0.834c-0.512-0.557-0.768-1.334-0.768-2.33c0-1.676,0.564-3.27,1.695-4.781
		c1.131-1.512,2.367-2.268,3.709-2.268c0.439,0,0.799,0.144,1.076,0.431c0.279,0.287,0.418,0.633,0.418,1.037
		c0,0.902-0.441,1.766-1.326,2.592s-2.068,1.639-3.551,2.436c-0.305,0.158-0.457,0.363-0.457,0.615c0,0.486,0.141,0.875,0.422,1.168
		s0.697,0.439,1.248,0.439c1.26,0,2.545-0.697,3.857-2.092c0.193-0.193,0.34-0.289,0.439-0.289
		C307.489,16.24,307.583,16.389,307.583,16.688z M301.475,15.316c2.484-1.477,3.727-2.663,3.727-3.559
		c0-0.352-0.158-0.527-0.475-0.527c-0.539,0-1.148,0.396-1.824,1.187C302.225,13.207,301.75,14.174,301.475,15.316z"/>
	<path fill="#7B7B7B" d="M312.997,10.799c0.604-0.047,1.172-0.103,1.705-0.167c0.527-0.059,0.967-0.088,1.318-0.088
		c0.445,0,0.727,0.041,0.844,0.123s0.176,0.226,0.176,0.431c0,0.475-0.33,0.732-0.992,0.773c-0.85,0.053-1.633,0.126-2.348,0.22
		s-1.1,0.171-1.156,0.233c-0.055,0.062-0.232,0.759-0.531,2.092s-0.447,2.199-0.447,2.598c0,0.645,0.084,1.073,0.254,1.287
		s0.426,0.32,0.766,0.32c0.504,0,1.203-0.377,2.1-1.133c0.346-0.311,0.613-0.467,0.801-0.467c0.252,0,0.377,0.135,0.377,0.404
		c0,0.422-0.406,0.969-1.217,1.64c-0.813,0.671-1.643,1.007-2.492,1.007c-1.418,0-2.127-0.836-2.127-2.506
		c0-0.604,0.146-1.537,0.439-2.803c0.287-1.26,0.432-2.016,0.432-2.268c0-0.088-0.07-0.132-0.211-0.132l-0.914,0.079
		c-0.75,0-1.125-0.299-1.125-0.896c0-0.34,0.172-0.51,0.518-0.51h1.811c0.123,0,0.232-0.056,0.326-0.167s0.23-0.485,0.412-1.121
		s0.344-1.264,0.484-1.885c0.141-0.615,0.416-0.923,0.826-0.923c0.252,0,0.447,0.088,0.588,0.264s0.211,0.34,0.211,0.492
		c0,0.082-0.105,0.501-0.316,1.257L312.997,10.799z"/>
	<path fill="#7B7B7B" d="M321.434,10.799c0.604-0.047,1.172-0.103,1.705-0.167c0.527-0.059,0.967-0.088,1.318-0.088
		c0.445,0,0.727,0.041,0.844,0.123s0.176,0.226,0.176,0.431c0,0.475-0.33,0.732-0.992,0.773c-0.85,0.053-1.633,0.126-2.348,0.22
		s-1.1,0.171-1.156,0.233c-0.055,0.062-0.232,0.759-0.531,2.092s-0.447,2.199-0.447,2.598c0,0.645,0.084,1.073,0.254,1.287
		s0.426,0.32,0.766,0.32c0.504,0,1.203-0.377,2.1-1.133c0.346-0.311,0.613-0.467,0.801-0.467c0.252,0,0.377,0.135,0.377,0.404
		c0,0.422-0.406,0.969-1.217,1.64c-0.813,0.671-1.643,1.007-2.492,1.007c-1.418,0-2.127-0.836-2.127-2.506
		c0-0.604,0.146-1.537,0.439-2.803c0.287-1.26,0.432-2.016,0.432-2.268c0-0.088-0.07-0.132-0.211-0.132l-0.914,0.079
		c-0.75,0-1.125-0.299-1.125-0.896c0-0.34,0.172-0.51,0.518-0.51h1.811c0.123,0,0.232-0.056,0.326-0.167s0.23-0.485,0.412-1.121
		s0.344-1.264,0.484-1.885c0.141-0.615,0.416-0.923,0.826-0.923c0.252,0,0.447,0.088,0.588,0.264s0.211,0.34,0.211,0.492
		c0,0.082-0.105,0.501-0.316,1.257L321.434,10.799z"/>
	<path fill="#7B7B7B" d="M333.819,16.688c0,0.598-0.529,1.318-1.588,2.162c-1.057,0.844-2.148,1.266-3.273,1.266
		c-0.943,0-1.672-0.277-2.184-0.834c-0.514-0.557-0.77-1.334-0.77-2.33c0-1.676,0.566-3.27,1.697-4.781
		c1.131-1.512,2.367-2.268,3.709-2.268c0.439,0,0.797,0.144,1.076,0.431c0.277,0.287,0.418,0.633,0.418,1.037
		c0,0.902-0.443,1.766-1.328,2.592s-2.068,1.639-3.551,2.436c-0.305,0.158-0.457,0.363-0.457,0.615c0,0.486,0.141,0.875,0.422,1.168
		s0.697,0.439,1.248,0.439c1.26,0,2.547-0.697,3.859-2.092c0.193-0.193,0.34-0.289,0.439-0.289
		C333.725,16.24,333.819,16.389,333.819,16.688z M327.709,15.316c2.484-1.477,3.727-2.663,3.727-3.559
		c0-0.352-0.158-0.527-0.475-0.527c-0.539,0-1.146,0.396-1.824,1.187C328.461,13.207,327.985,14.174,327.709,15.316z"/>
</g>
</svg>
