<?xml version="1.0" encoding="utf-8"?>
<!-- Generator: Adobe Illustrator 16.0.0, SVG Export Plug-In . SVG Version: 6.00 Build 0)  -->
<!DOCTYPE svg PUBLIC "-//W3C//DTD SVG 1.1//EN" "http://www.w3.org/Graphics/SVG/1.1/DTD/svg11.dtd">
<svg version="1.1"
	 id="svg2" xmlns:dc="http://purl.org/dc/elements/1.1/" xmlns:cc="http://creativecommons.org/ns#" xmlns:rdf="http://www.w3.org/1999/02/22-rdf-syntax-ns#" xmlns:svg="http://www.w3.org/2000/svg"
	 xmlns="http://www.w3.org/2000/svg" xmlns:xlink="http://www.w3.org/1999/xlink" x="0px" y="0px" width="813.174px"
	 height="249.373px" viewBox="0 0 813.174 249.373" enable-background="new 0 0 813.174 249.373" xml:space="preserve">
<g id="g10" transform="matrix(1.3333333,0,0,-1.3333333,0,249.37333)">
	<g id="g12" transform="scale(0.1)">
		<path id="path14" fill="#1E1E1E" d="M2507.862,1217.952h95.208v-77.014h68.613v-78.398h-68.613V921.116
			c0-54.595,16.802-65.793,53.914-65.793c6.299,0,9.785,0,17.498,0.688v-82.61c0,0-14.707-3.494-41.309-3.494
			c-87.51,0-126.021,48.999-126.021,148.411v144.221h-38.489v78.398h39.199V1217.952"/>
		<path id="path16" fill="#1E1E1E" d="M3061.581,986.229V774.808h-95.911v222.62c0,40.605-28,65.815-60.908,65.815
			c-40.598,0-66.504-29.399-66.504-68.621V774.808h-96.606v506.155h96.606v-182.725c15.403,25.203,49.007,51.812,96.614,51.812
			C3039.879,1150.049,3061.581,1063.938,3061.581,986.229"/>
		<path id="path18" fill="#1E1E1E" d="M3142.748,929.517v211.421h96.613v-222.62c0-40.598,28.001-65.801,60.908-65.801
			c39.91,0,65.105,29.407,65.105,68.599v219.822h96.621v-366.13h-94.512v42.708c-15.41-25.21-50.413-51.804-98.013-51.804
			C3165.152,765.711,3142.748,851.807,3142.748,929.517"/>
		<path id="path20" fill="#1E1E1E" d="M3544.555,1140.938h96.599v-366.13h-96.599V1140.938z M3592.154,1284.456
			c32.205,0,56.719-23.796,56.719-55.305c0-31.501-24.514-55.298-56.719-55.298c-31.501,0-56.001,23.796-56.001,55.298
			C3536.153,1260.66,3560.653,1284.456,3592.154,1284.456"/>
		<path id="path22" fill="#1E1E1E" d="M3703.446,833.606l56.719,50.413c18.193-21.006,42.686-39.895,83.994-39.895
			c27.312,0,44.81,11.887,44.81,32.893c0,56.008-172.925,34.307-172.925,164.524c0,67.896,58.096,108.508,133.022,108.508
			c69.294,0,107.813-36.409,125.317-65.112l-63.714-47.6c-11.198,14.004-31.509,35.002-65.808,35.002
			c-22.397,0-37.808-11.206-37.808-29.399c0-58.11,173.62-30.11,173.62-161.016c0-71.411-61.611-116.213-140.713-116.213
			C3767.855,765.711,3723.053,802.112,3703.446,833.606"/>
		<path id="path24" fill="#1E1E1E" d="M4294.979,1009.329l-67.91-234.521h-107.806l-109.226,366.13h105.021l64.395-259.717
			l70.02,259.717h90.996l69.324-259.717l65.09,259.717h105.022l-109.922-366.13h-107.791L4294.979,1009.329"/>
		<path id="path26" fill="#1E1E1E" d="M4632.333,1140.938h96.621v-366.13h-96.621V1140.938z M4679.94,1284.456
			c32.189,0,56.704-23.796,56.704-55.305c0-31.501-24.515-55.298-56.704-55.298c-31.494,0-56.009,23.796-56.009,55.298
			C4623.932,1260.66,4648.446,1284.456,4679.94,1284.456"/>
		<path id="path28" fill="#1E1E1E" d="M5134.965,986.229V774.808h-96.606v222.62c0,40.605-28.008,65.815-60.916,65.815
			c-39.902,0-65.104-29.399-65.104-68.621V774.808h-96.614v366.13h94.52v-42.7c15.41,25.203,50.405,51.812,97.998,51.812
			C5112.56,1150.049,5134.965,1063.938,5134.965,986.229"/>
		<path id="path30" fill="#1E1E1E" d="M5218.227,1280.962h96.613V986.932l117.605,154.006h108.516l-128.812-165.916l138.611-200.215
			h-113.423L5314.84,963.824V774.808h-96.621v506.155"/>
		<path id="path32" fill="#1E1E1E" d="M5840.551,996.724c-2.088,44.817-34.3,74.216-78.398,74.216
			c-45.513,0-74.897-32.212-79.102-74.216H5840.551z M5760.746,1150.049c113.415,0,177.817-75.608,177.817-195.33
			c0-6.995,0-14.004-0.688-20.991h-257.637c2.102-49.014,41.301-84.016,95.215-84.016c49.709,0,78.398,29.407,88.908,44.81
			l63.714-48.303c-14.012-25.913-63.011-80.508-154.036-80.508c-117.604,0-192.517,81.196-192.517,191.111
			C5581.522,1067.439,5656.435,1150.049,5760.746,1150.049"/>
		<path id="path34" fill="#1E1E1E" d="M6002.232,1280.962h96.6V774.808h-96.6V1280.962"/>
		<path id="path36" fill="#1E1E1E" d="M2726.161,393.26l-90.352-268.462h-56.558l-113.752,338.02h55.898l88.411-278.21
			c0,0,0.652,1.289,91.011,278.21h50.691c89.715-276.921,90.359-278.21,90.359-278.21l89.055,278.21h55.898l-114.404-338.02h-56.55
			L2726.161,393.26"/>
		<path id="path38" fill="#1E1E1E" d="M3160.362,159.251c49.409,0,83.841,29.246,83.841,70.21c0,42.253-33.794,69.551-84.5,69.551
			c-51.343,0-84.499-29.905-84.499-69.551C3075.204,190.459,3108.36,159.251,3160.362,159.251z M3153.214,339.961
			c42.898,0,75.396-16.252,89.056-30.549v41.602c0,47.446-31.86,74.751-81.907,74.751c-41.602,0-75.402-14.956-99.463-29.253
			l-20.801,37.698c22.749,14.304,67.603,37.061,124.813,37.061c92.3,0,128.701-51.357,128.701-123.508V124.798h-44.188
			l-5.866,28.601c-17.534-20.149-46.143-37.046-91.655-37.046c-74.1,0-128.701,46.794-128.701,112.449
			C3023.202,293.16,3077.152,339.961,3153.214,339.961"/>
		<path id="path40" fill="#1E1E1E" d="M3500.961,159.251c49.395,0,83.848,29.246,83.848,70.21c0,42.253-33.809,69.551-84.515,69.551
			c-51.343,0-84.492-29.905-84.492-69.551C3415.802,190.459,3448.951,159.251,3500.961,159.251z M3493.813,339.961
			c42.891,0,75.388-16.252,89.04-30.549v41.602c0,47.446-31.853,74.751-81.892,74.751c-41.602,0-75.41-14.956-99.448-29.253
			l-20.809,37.698c22.742,14.304,67.596,37.061,124.813,37.061c92.3,0,128.687-51.357,128.687-123.508V124.798h-44.202
			l-5.837,28.601c-17.563-20.149-46.15-37.046-91.663-37.046c-74.099,0-128.708,46.794-128.708,112.449
			C3363.793,293.16,3417.765,339.961,3493.813,339.961"/>
		<path id="path42" fill="#1E1E1E" d="M3877.953,419.913c-77.358,0-100.101-61.106-100.101-133.25V124.798h-51.364v338.02h50.705
			v-56.55c11.697,33.794,49.409,65.002,100.76,65.002V419.913"/>
		<path id="path44" fill="#1E1E1E" d="M4108.695,162.51c64.995,0,115.708,51.343,115.708,130.005
			c0,77.344-48.113,131.946-114.404,131.946c-63.706,0-115.693-48.105-115.693-131.946
			C3994.306,221.661,4038.5,162.51,4108.695,162.51z M3944.882,594.771h51.372V408.208c10.386,17.556,48.75,63.062,119.59,63.062
			c95.566,0,161.206-74.114,161.206-178.11c0-103.359-68.899-176.807-165.096-176.807c-73.454,0-109.211,49.395-117.648,61.75
			v-53.306h-49.424V594.771"/>
		<path id="path46" fill="#1E1E1E" d="M4505.199,163.147c72.817,0,124.805,55.254,124.805,130.657
			c0,74.751-51.995,130.657-124.805,130.657c-72.796,0-123.494-56.55-123.494-130.657
			C4381.705,217.75,4433.056,163.147,4505.199,163.147z M4505.865,471.27c102.049,0,176.147-76.062,176.147-177.466
			c0-101.396-75.41-177.451-176.813-177.451c-101.404,0-176.155,74.751-176.155,177.451c0,102.063,76.063,177.466,176.814,177.466"
			/>
		<path id="path48" fill="#1E1E1E" d="M4908.185,419.913c-77.344,0-100.093-61.106-100.093-133.25V124.798h-51.35v338.02h50.698
			v-56.55c11.704,33.794,49.401,65.002,100.744,65.002V419.913"/>
		<path id="path50" fill="#1E1E1E" d="M5118.793,424.461c-65.64,0-114.39-53.95-114.39-131.301
			c0-78.647,50.676-130.012,115.7-130.012c69.551,0,114.39,57.209,114.39,130.012
			C5234.493,375.059,5183.15,424.461,5118.793,424.461z M5011.544,74.1c12.986-7.8,53.299-27.949,102.049-27.949
			c64.357,0,118.945,26.653,118.945,102.048v29.905c-7.786-12.356-42.884-61.75-116.982-61.75
			c-96.863,0-163.177,73.447-163.177,176.807c0,103.997,66.966,178.11,162.503,178.11c70.225,0,108.56-44.861,119.611-63.062v54.609
			h49.402V171.607C5283.896,43.55,5211.744,0,5114.244,0c-44.201,0-91.662,15.586-120.9,33.801L5011.544,74.1"/>
		<path id="path52" fill="#1E1E1E" d="M1010.499,765.762l-848.628,489.946l848.628,489.969l848.643-489.969L1010.499,765.762z
			 M956.549,225.147H107.913v937.112l848.636-489.961V225.147z M1913.092,225.147h-848.628v447.151l848.628,489.961V225.147z
			 M1010.499,1870.277L-0.002,1286.873V117.239H2021v1169.634L1010.499,1870.277"/>
		<path id="path54" fill="#BDEA18" d="M1913.092,1162.259l-848.628-489.961V225.147h848.628V1162.259"/>
		<path id="path56" fill="#FC3F4D" d="M107.913,225.147h848.636v447.151l-848.636,489.961V225.147"/>
		<path id="path58" fill="#FFFFFF" d="M161.871,1255.708l848.628-489.946l848.643,489.946l-848.643,489.969L161.871,1255.708"/>
	</g>
</g>
</svg>
