<?xml version="1.0" encoding="utf-8"?>
<!-- Generator: Adobe Illustrator 15.1.0, SVG Export Plug-In . SVG Version: 6.00 Build 0)  -->
<!DOCTYPE svg PUBLIC "-//W3C//DTD SVG 1.1//EN" "http://www.w3.org/Graphics/SVG/1.1/DTD/svg11.dtd">
<svg version="1.1" id="Layer_1" xmlns="http://www.w3.org/2000/svg" xmlns:xlink="http://www.w3.org/1999/xlink" x="0px" y="0px"
	 width="47px" height="47px" viewBox="0 0 47 47" enable-background="new 0 0 47 47" xml:space="preserve">
<path display="none" fill="#90348F" d="M23.357,0.65c-12.643,0-22.892,10.249-22.892,22.893c0,12.643,10.249,22.891,22.892,22.891
	S46.25,36.185,46.25,23.542C46.25,10.899,36,0.65,23.357,0.65z M28.261,23.55h-3.208c0,5.123,0,11.437,0,11.437H20.3
	c0,0,0-6.248,0-11.437H18.04v-4.04H20.3v-2.616c0-1.872,0.89-4.798,4.795-4.798l3.521,0.014v3.924c0,0-2.141,0-2.554,0
	c-0.417,0-1.01,0.207-1.01,1.101v2.376h3.625L28.261,23.55z"/>
<g>
	<path fill="#FFFFFF" d="M25.053,17.134c0-0.894,0.593-1.101,1.01-1.101c0.413,0,2.554,0,2.554,0V12.11l-3.521-0.014
		c-3.905,0-4.795,2.926-4.795,4.798v2.616H18.04v4.04H20.3c0,5.188,0,11.437,0,11.437h4.753c0,0,0-6.313,0-11.437h3.208l0.417-4.04
		h-3.625V17.134z"/>
	<path fill="#90348F" d="M23.357,0.65c-12.643,0-22.892,10.249-22.892,22.893c0,12.643,10.249,22.891,22.892,22.891
		S46.25,36.185,46.25,23.542C46.25,10.899,36,0.65,23.357,0.65z M28.261,23.55h-3.208c0,5.123,0,11.437,0,11.437H20.3
		c0,0,0-6.248,0-11.437H18.04v-4.04H20.3v-2.616c0-1.872,0.89-4.798,4.795-4.798l3.521,0.014v3.924c0,0-2.141,0-2.554,0
		c-0.417,0-1.01,0.207-1.01,1.101v2.376h3.625L28.261,23.55z"/>
</g>
<g display="none">
	<g display="inline">
		<path fill="#90348F" d="M23.157,20.054c0.175,0,0.315-0.047,0.419-0.145c0.105-0.099,0.159-0.235,0.159-0.405v-3.477
			c0-0.14-0.054-0.251-0.159-0.338c-0.106-0.087-0.246-0.129-0.419-0.129c-0.16,0-0.288,0.042-0.389,0.129
			c-0.099,0.087-0.148,0.198-0.148,0.338v3.477c0,0.176,0.048,0.31,0.14,0.405C22.852,20.01,22.984,20.054,23.157,20.054z"/>
		<path fill="#90348F" d="M26.035,26.476c-0.183,0-0.357,0.044-0.537,0.136c-0.174,0.093-0.337,0.229-0.493,0.402v-2.527h-1.172
			v7.854h1.172v-0.445c0.149,0.179,0.317,0.308,0.493,0.392c0.177,0.086,0.378,0.126,0.606,0.126c0.343,0,0.607-0.106,0.786-0.328
			c0.184-0.221,0.273-0.532,0.273-0.941v-3.216c0-0.475-0.095-0.836-0.291-1.084C26.681,26.598,26.401,26.476,26.035,26.476z
			 M25.971,30.981c0,0.188-0.033,0.319-0.1,0.4c-0.068,0.084-0.172,0.126-0.313,0.126c-0.099,0-0.19-0.022-0.28-0.065
			c-0.089-0.039-0.181-0.11-0.272-0.203v-3.61c0.077-0.081,0.156-0.14,0.236-0.179c0.081-0.036,0.166-0.056,0.246-0.056
			c0.156,0,0.276,0.05,0.361,0.15c0.083,0.101,0.122,0.249,0.122,0.446V30.981z"/>
		<polygon fill="#90348F" points="15.14,25.628 16.49,25.628 16.49,32.341 17.794,32.341 17.794,25.628 19.146,25.628 
			19.146,24.486 15.14,24.486 		"/>
		<path fill="#90348F" d="M21.805,30.946c-0.109,0.125-0.229,0.229-0.36,0.313c-0.129,0.081-0.238,0.12-0.321,0.12
			c-0.109,0-0.188-0.027-0.237-0.092c-0.048-0.063-0.073-0.159-0.073-0.297v-4.445h-1.157v4.846c0,0.347,0.067,0.601,0.201,0.773
			c0.138,0.177,0.339,0.26,0.607,0.26c0.218,0,0.441-0.059,0.673-0.184c0.231-0.123,0.452-0.302,0.668-0.537v0.638h1.156v-5.796
			h-1.156V30.946z"/>
		<path fill="#90348F" d="M23.358,0.649c-12.643,0-22.892,10.249-22.892,22.893c0,12.643,10.249,22.891,22.892,22.891
			c12.644,0,22.892-10.248,22.892-22.891C46.25,10.898,36.002,0.649,23.358,0.649z M26.119,14.617h1.303v4.893
			c0,0.15,0.029,0.26,0.083,0.326c0.053,0.071,0.146,0.104,0.266,0.104c0.095,0,0.218-0.045,0.365-0.135
			c0.146-0.092,0.28-0.204,0.399-0.344v-4.845h1.306V21h-1.306v-0.708c-0.236,0.26-0.489,0.461-0.747,0.595
			c-0.26,0.135-0.513,0.207-0.758,0.207c-0.302,0-0.528-0.098-0.682-0.29c-0.151-0.188-0.229-0.473-0.229-0.853V14.617z
			 M21.279,16.075c0-0.495,0.176-0.889,0.525-1.18c0.349-0.294,0.824-0.438,1.416-0.438c0.54,0,0.981,0.153,1.327,0.461
			c0.342,0.308,0.515,0.71,0.515,1.193v3.297c0,0.548-0.168,0.974-0.505,1.285c-0.339,0.311-0.806,0.468-1.398,0.468
			c-0.569,0-1.025-0.161-1.369-0.483c-0.341-0.321-0.511-0.753-0.511-1.294V16.075z M17.727,12.347l0.954,3.46h0.092l0.908-3.46
			h1.493l-1.711,5.064V21h-1.468v-3.43l-1.746-5.224H17.727z M34.804,30.555c0,2.308-1.871,4.183-4.181,4.183h-14.53
			c-2.309,0-4.182-1.875-4.182-4.183v-3.361c0-2.308,1.873-4.182,4.182-4.182h14.53c2.31,0,4.181,1.874,4.181,4.182V30.555z"/>
		<path fill="#90348F" d="M29.531,26.402c-0.52,0-0.938,0.156-1.269,0.473c-0.328,0.314-0.492,0.729-0.492,1.229v2.601
			c0,0.559,0.151,0.998,0.448,1.313c0.297,0.322,0.706,0.479,1.226,0.479c0.576,0,1.012-0.147,1.3-0.447
			c0.292-0.302,0.437-0.749,0.437-1.345v-0.296h-1.19v0.263c0,0.341-0.043,0.562-0.115,0.662c-0.079,0.101-0.212,0.151-0.405,0.151
			c-0.186,0-0.316-0.059-0.391-0.177c-0.076-0.119-0.115-0.332-0.115-0.637v-1.091h2.217v-1.477c0-0.551-0.145-0.97-0.429-1.265
			C30.471,26.547,30.062,26.402,29.531,26.402z M29.99,28.68h-1.026v-0.584c0-0.244,0.039-0.42,0.12-0.52
			c0.081-0.109,0.212-0.162,0.397-0.162c0.175,0,0.307,0.053,0.384,0.162c0.082,0.1,0.125,0.275,0.125,0.52V28.68z"/>
	</g>
</g>
<path display="none" fill="#90348F" d="M69.976,3.733c-12.644,0-22.893,10.249-22.893,22.893c0,12.643,10.249,22.891,22.893,22.891
	c12.642,0,22.892-10.248,22.892-22.891C92.868,13.982,82.618,3.733,69.976,3.733z M72.34,31.721c-1.42,0-2.755-0.766-3.214-1.638
	c0,0-0.763,3.029-0.926,3.613c-0.569,2.068-2.243,4.136-2.372,4.304c-0.092,0.116-0.294,0.08-0.313-0.075
	c-0.037-0.263-0.464-2.87,0.039-4.997c0.251-1.067,1.69-7.163,1.69-7.163s-0.419-0.839-0.419-2.079c0-1.95,1.129-3.404,2.537-3.404
	c1.196,0,1.772,0.896,1.772,1.973c0,1.202-0.767,3.002-1.16,4.667c-0.329,1.393,0.698,2.53,2.073,2.53
	c2.493,0,4.169-3.197,4.169-6.989c0-2.882-1.938-5.04-5.471-5.04c-3.988,0-6.473,2.978-6.473,6.3c0,1.146,0.339,1.953,0.867,2.576
	c0.242,0.288,0.276,0.405,0.189,0.735c-0.065,0.241-0.207,0.824-0.268,1.052c-0.087,0.335-0.358,0.453-0.66,0.33
	c-1.837-0.748-2.69-2.76-2.69-5.022c0-3.734,3.149-8.214,9.397-8.214c5.018,0,8.324,3.633,8.324,7.534
	C79.435,27.869,76.566,31.721,72.34,31.721z"/>
<g display="none">
	<path display="inline" fill="#FFFFFF" d="M24.493,12.096c-6.248,0-9.397,4.479-9.397,8.214c0,2.263,0.854,4.274,2.69,5.022
		c0.302,0.123,0.573,0.005,0.66-0.33c0.061-0.228,0.202-0.811,0.268-1.052c0.087-0.33,0.053-0.447-0.189-0.735
		c-0.528-0.623-0.867-1.431-0.867-2.576c0-3.322,2.484-6.3,6.473-6.3c3.532,0,5.471,2.158,5.471,5.04
		c0,3.792-1.676,6.989-4.169,6.989c-1.375,0-2.402-1.138-2.073-2.53c0.394-1.665,1.16-3.465,1.16-4.667
		c0-1.076-0.576-1.973-1.772-1.973c-1.408,0-2.537,1.454-2.537,3.404c0,1.24,0.419,2.079,0.419,2.079s-1.439,6.096-1.69,7.163
		c-0.503,2.127-0.076,4.734-0.039,4.997c0.019,0.155,0.221,0.191,0.313,0.075c0.129-0.168,1.803-2.235,2.372-4.304
		C21.746,30.029,22.509,27,22.509,27c0.459,0.872,1.794,1.638,3.214,1.638c4.226,0,7.095-3.853,7.095-9.008
		C32.817,15.729,29.511,12.096,24.493,12.096z"/>
	<path display="inline" fill="#90348F" d="M23.358,0.649c-12.644,0-22.893,10.249-22.893,22.893
		c0,12.643,10.249,22.891,22.893,22.891C36,46.433,46.25,36.185,46.25,23.542C46.25,10.898,36,0.649,23.358,0.649z M25.723,28.638
		c-1.42,0-2.755-0.766-3.214-1.638c0,0-0.763,3.029-0.926,3.613c-0.569,2.068-2.243,4.136-2.372,4.304
		c-0.092,0.116-0.294,0.08-0.313-0.075c-0.037-0.263-0.464-2.87,0.039-4.997c0.251-1.067,1.69-7.163,1.69-7.163
		s-0.419-0.839-0.419-2.079c0-1.95,1.129-3.404,2.537-3.404c1.196,0,1.772,0.896,1.772,1.973c0,1.202-0.767,3.002-1.16,4.667
		c-0.329,1.393,0.698,2.53,2.073,2.53c2.493,0,4.169-3.197,4.169-6.989c0-2.882-1.938-5.04-5.471-5.04
		c-3.988,0-6.473,2.978-6.473,6.3c0,1.146,0.339,1.953,0.867,2.576c0.242,0.288,0.276,0.405,0.189,0.735
		c-0.065,0.241-0.207,0.824-0.268,1.052c-0.087,0.335-0.358,0.453-0.66,0.33c-1.837-0.748-2.69-2.76-2.69-5.022
		c0-3.734,3.149-8.214,9.397-8.214c5.018,0,8.324,3.633,8.324,7.534C32.817,24.785,29.948,28.638,25.723,28.638z"/>
</g>
</svg>
