<?xml version="1.0" encoding="utf-8"?>
<!-- Generator: Adobe Illustrator 15.1.0, SVG Export Plug-In . SVG Version: 6.00 Build 0)  -->
<!DOCTYPE svg PUBLIC "-//W3C//DTD SVG 1.1//EN" "http://www.w3.org/Graphics/SVG/1.1/DTD/svg11.dtd">
<svg version="1.1" id="Layer_1" xmlns="http://www.w3.org/2000/svg" xmlns:xlink="http://www.w3.org/1999/xlink" x="0px" y="0px"
	 width="10px" height="10px" viewBox="0 0 10 10" enable-background="new 0 0 10 10" xml:space="preserve">
<path display="none" fill="#90348F" d="M8.44-18.479c-12.643,0-22.892,10.249-22.892,22.893c0,12.643,10.249,22.891,22.892,22.891
	S31.333,17.057,31.333,4.414C31.333-8.229,21.083-18.479,8.44-18.479z M13.344,4.422h-3.208c0,5.123,0,11.437,0,11.437H5.383
	c0,0,0-6.248,0-11.437H3.123v-4.04h2.261v-2.616c0-1.872,0.89-4.798,4.795-4.798L13.7-7.019v3.924c0,0-2.141,0-2.554,0
	c-0.417,0-1.01,0.207-1.01,1.101v2.376h3.625L13.344,4.422z"/>
<g display="none">
	<path fill="#FFFFFF" d="M10.136-1.994c0-0.894,0.593-1.101,1.01-1.101c0.413,0,2.554,0,2.554,0v-3.924l-3.521-0.014
		c-3.905,0-4.795,2.926-4.795,4.798v2.616H3.123v4.04h2.261c0,5.188,0,11.437,0,11.437h4.753c0,0,0-6.313,0-11.437h3.208l0.417-4.04
		h-3.625V-1.994z"/>
	<path fill="#90348F" d="M8.44-18.479c-12.643,0-22.892,10.249-22.892,22.893c0,12.643,10.249,22.891,22.892,22.891
		S31.333,17.057,31.333,4.414C31.333-8.229,21.083-18.479,8.44-18.479z M13.344,4.422h-3.208c0,5.123,0,11.437,0,11.437H5.383
		c0,0,0-6.248,0-11.437H3.123v-4.04h2.261v-2.616c0-1.872,0.89-4.798,4.795-4.798L13.7-7.019v3.924c0,0-2.141,0-2.554,0
		c-0.417,0-1.01,0.207-1.01,1.101v2.376h3.625L13.344,4.422z"/>
</g>
<g display="none">
	<g display="inline">
		<g>
			<path fill="#FFFFFF" d="M8.242,2.033c0.593,0,1.06-0.157,1.398-0.468c0.337-0.312,0.505-0.737,0.505-1.285v-3.297
				c0-0.483-0.173-0.886-0.515-1.193C9.285-4.518,8.844-4.671,8.304-4.671c-0.592,0-1.067,0.145-1.416,0.438
				c-0.35,0.291-0.525,0.685-0.525,1.18v3.309c0,0.541,0.17,0.973,0.511,1.294C7.217,1.872,7.673,2.033,8.242,2.033z"/>
			<polygon fill="#FFFFFF" points="3.078,1.872 4.546,1.872 4.546,-1.717 6.257,-6.782 4.764,-6.782 3.855,-3.322 3.764,-3.322 
				2.81,-6.782 1.332,-6.782 3.078,-1.558 			"/>
			<path fill="#FFFFFF" d="M12.113,1.965c0.245,0,0.498-0.072,0.758-0.207c0.258-0.134,0.511-0.335,0.747-0.595v0.708h1.306v-6.383
				h-1.306v4.845c-0.119,0.14-0.253,0.252-0.399,0.344c-0.147,0.09-0.271,0.135-0.365,0.135c-0.12,0-0.213-0.033-0.266-0.104
				c-0.054-0.066-0.083-0.176-0.083-0.326v-4.893h-1.303v5.334c0,0.38,0.078,0.665,0.229,0.853
				C11.585,1.868,11.812,1.965,12.113,1.965z"/>
			<path fill="#FFFFFF" d="M15.706,3.883H1.176c-2.309,0-4.182,1.874-4.182,4.182v3.361c0,2.308,1.873,4.183,4.182,4.183h14.53
				c2.31,0,4.181-1.875,4.181-4.183V8.065C19.887,5.757,18.016,3.883,15.706,3.883z"/>
			<path fill="#90348F" d="M8.24,0.925c0.175,0,0.315-0.047,0.419-0.145c0.105-0.099,0.159-0.235,0.159-0.405v-3.477
				c0-0.14-0.054-0.251-0.159-0.338C8.553-3.526,8.413-3.568,8.24-3.568c-0.16,0-0.288,0.042-0.389,0.129
				C7.753-3.352,7.703-3.241,7.703-3.101v3.477c0,0.176,0.048,0.31,0.14,0.405C7.935,0.881,8.067,0.925,8.24,0.925z"/>
			<path fill="#90348F" d="M11.118,7.347c-0.183,0-0.357,0.044-0.537,0.136c-0.174,0.093-0.337,0.229-0.493,0.402V5.358H8.916v7.854
				h1.172v-0.445c0.149,0.179,0.317,0.308,0.493,0.392c0.177,0.086,0.378,0.126,0.606,0.126c0.343,0,0.607-0.106,0.786-0.328
				c0.184-0.221,0.273-0.532,0.273-0.941V8.799c0-0.475-0.095-0.836-0.291-1.084C11.764,7.469,11.484,7.347,11.118,7.347z
				 M11.054,11.853c0,0.188-0.033,0.319-0.1,0.4c-0.068,0.084-0.172,0.126-0.313,0.126c-0.099,0-0.19-0.022-0.28-0.065
				c-0.089-0.039-0.181-0.11-0.272-0.203V8.5c0.077-0.081,0.156-0.14,0.236-0.179c0.081-0.036,0.166-0.056,0.246-0.056
				c0.156,0,0.276,0.05,0.361,0.15c0.083,0.101,0.122,0.249,0.122,0.446V11.853z"/>
			<polygon fill="#90348F" points="0.223,6.5 1.573,6.5 1.573,13.212 2.877,13.212 2.877,6.5 4.229,6.5 4.229,5.358 0.223,5.358 			
				"/>
			<path fill="#90348F" d="M6.888,11.818c-0.109,0.125-0.229,0.229-0.36,0.313c-0.129,0.081-0.238,0.12-0.321,0.12
				c-0.109,0-0.188-0.027-0.237-0.092C5.921,12.096,5.896,12,5.896,11.862V7.417H4.738v4.846c0,0.347,0.067,0.601,0.201,0.773
				c0.138,0.177,0.339,0.26,0.607,0.26c0.218,0,0.441-0.059,0.673-0.184c0.231-0.123,0.452-0.302,0.668-0.537v0.638h1.156V7.417
				H6.888V11.818z"/>
			<path fill="#90348F" d="M8.441-18.479C-4.201-18.479-14.45-8.23-14.45,4.414c0,12.643,10.249,22.891,22.892,22.891
				c12.644,0,22.892-10.248,22.892-22.891C31.333-8.23,21.085-18.479,8.441-18.479z M11.202-4.511h1.303v4.893
				c0,0.15,0.029,0.26,0.083,0.326c0.053,0.071,0.146,0.104,0.266,0.104c0.095,0,0.218-0.045,0.365-0.135
				c0.146-0.092,0.28-0.204,0.399-0.344v-4.845h1.306v6.383h-1.306V1.164c-0.236,0.26-0.489,0.461-0.747,0.595
				c-0.26,0.135-0.513,0.207-0.758,0.207c-0.302,0-0.528-0.098-0.682-0.29c-0.151-0.188-0.229-0.473-0.229-0.853V-4.511z
				 M6.362-3.053c0-0.495,0.176-0.889,0.525-1.18c0.349-0.294,0.824-0.438,1.416-0.438c0.54,0,0.981,0.153,1.327,0.461
				c0.342,0.308,0.515,0.71,0.515,1.193V0.28c0,0.548-0.168,0.974-0.505,1.285C9.302,1.875,8.835,2.033,8.242,2.033
				c-0.569,0-1.025-0.161-1.369-0.483C6.532,1.228,6.362,0.796,6.362,0.255V-3.053z M2.81-6.782l0.954,3.46h0.092l0.908-3.46h1.493
				L4.546-1.717v3.589H3.078v-3.43L1.332-6.782H2.81z M19.887,11.426c0,2.308-1.871,4.183-4.181,4.183H1.176
				c-2.309,0-4.182-1.875-4.182-4.183V8.065c0-2.308,1.873-4.182,4.182-4.182h14.53c2.31,0,4.181,1.874,4.181,4.182V11.426z"/>
			<path fill="#90348F" d="M14.614,7.274c-0.52,0-0.938,0.156-1.269,0.473c-0.328,0.314-0.492,0.729-0.492,1.229v2.601
				c0,0.559,0.151,0.998,0.448,1.313c0.297,0.322,0.706,0.479,1.226,0.479c0.576,0,1.012-0.147,1.3-0.447
				c0.292-0.302,0.437-0.749,0.437-1.345v-0.296h-1.19v0.263c0,0.341-0.043,0.562-0.115,0.662c-0.079,0.101-0.212,0.151-0.405,0.151
				c-0.186,0-0.316-0.059-0.391-0.177c-0.076-0.119-0.115-0.332-0.115-0.637v-1.091h2.217V8.976c0-0.551-0.145-0.97-0.429-1.265
				C15.554,7.418,15.145,7.274,14.614,7.274z M15.073,9.551h-1.026V8.967c0-0.244,0.039-0.42,0.12-0.52
				c0.081-0.109,0.212-0.162,0.397-0.162c0.175,0,0.307,0.053,0.384,0.162c0.082,0.1,0.125,0.275,0.125,0.52V9.551z"/>
		</g>
	</g>
</g>
<path display="none" fill="#90348F" d="M55.059-15.396c-12.644,0-22.893,10.249-22.893,22.893c0,12.643,10.249,22.891,22.893,22.891
	c12.642,0,22.892-10.248,22.892-22.891C77.951-5.146,67.701-15.396,55.059-15.396z M57.423,12.593c-1.42,0-2.755-0.766-3.214-1.638
	c0,0-0.763,3.029-0.926,3.613c-0.569,2.068-2.243,4.136-2.372,4.304c-0.092,0.116-0.294,0.08-0.313-0.075
	c-0.037-0.263-0.464-2.87,0.039-4.997c0.251-1.067,1.69-7.163,1.69-7.163S51.91,5.798,51.91,4.558c0-1.95,1.129-3.404,2.537-3.404
	c1.196,0,1.772,0.896,1.772,1.973c0,1.202-0.767,3.002-1.16,4.667c-0.329,1.393,0.698,2.53,2.073,2.53
	c2.493,0,4.169-3.197,4.169-6.989c0-2.882-1.938-5.04-5.471-5.04c-3.988,0-6.473,2.978-6.473,6.3c0,1.146,0.339,1.953,0.867,2.576
	c0.242,0.288,0.276,0.405,0.189,0.735c-0.065,0.241-0.207,0.824-0.268,1.052c-0.087,0.335-0.358,0.453-0.66,0.33
	c-1.837-0.748-2.69-2.76-2.69-5.022c0-3.734,3.149-8.214,9.397-8.214c5.018,0,8.324,3.633,8.324,7.534
	C64.518,8.74,61.649,12.593,57.423,12.593z"/>
<g display="none">
	<path display="inline" fill="#FFFFFF" d="M9.576-7.033c-6.248,0-9.397,4.479-9.397,8.214c0,2.263,0.854,4.274,2.69,5.022
		c0.302,0.123,0.573,0.005,0.66-0.33C3.59,5.646,3.731,5.063,3.797,4.822c0.087-0.33,0.053-0.447-0.189-0.735
		C3.079,3.463,2.74,2.656,2.74,1.51c0-3.322,2.484-6.3,6.473-6.3c3.532,0,5.471,2.158,5.471,5.04c0,3.792-1.676,6.989-4.169,6.989
		c-1.375,0-2.402-1.138-2.073-2.53c0.394-1.665,1.16-3.465,1.16-4.667c0-1.076-0.576-1.973-1.772-1.973
		c-1.408,0-2.537,1.454-2.537,3.404c0,1.24,0.419,2.079,0.419,2.079s-1.439,6.096-1.69,7.163c-0.503,2.127-0.076,4.734-0.039,4.997
		C4,15.869,4.202,15.905,4.294,15.789c0.129-0.168,1.803-2.235,2.372-4.304c0.163-0.584,0.926-3.613,0.926-3.613
		c0.459,0.872,1.794,1.638,3.214,1.638c4.226,0,7.095-3.853,7.095-9.008C17.9-3.4,14.594-7.033,9.576-7.033z"/>
	<path display="inline" fill="#90348F" d="M8.441-18.479c-12.644,0-22.893,10.249-22.893,22.893
		c0,12.643,10.249,22.891,22.893,22.891c12.642,0,22.892-10.248,22.892-22.891C31.333-8.23,21.083-18.479,8.441-18.479z
		 M10.806,9.509c-1.42,0-2.755-0.766-3.214-1.638c0,0-0.763,3.029-0.926,3.613c-0.569,2.068-2.243,4.136-2.372,4.304
		C4.202,15.905,4,15.869,3.981,15.713c-0.037-0.263-0.464-2.87,0.039-4.997c0.251-1.067,1.69-7.163,1.69-7.163
		S5.292,2.714,5.292,1.474c0-1.95,1.129-3.404,2.537-3.404c1.196,0,1.772,0.896,1.772,1.973c0,1.202-0.767,3.002-1.16,4.667
		C8.112,6.102,9.14,7.24,10.515,7.24c2.493,0,4.169-3.197,4.169-6.989c0-2.882-1.938-5.04-5.471-5.04
		c-3.988,0-6.473,2.978-6.473,6.3c0,1.146,0.339,1.953,0.867,2.576C3.85,4.375,3.884,4.492,3.797,4.822
		C3.731,5.063,3.59,5.646,3.529,5.874c-0.087,0.335-0.358,0.453-0.66,0.33c-1.837-0.748-2.69-2.76-2.69-5.022
		c0-3.734,3.149-8.214,9.397-8.214c5.018,0,8.324,3.633,8.324,7.534C17.9,5.657,15.031,9.509,10.806,9.509z"/>
</g>
<text transform="matrix(1 0 0 1 0.0156 9.3838)" fill="#575757" font-family="'OpenSans-Bold'" font-size="12">©</text>
</svg>
