<?xml version="1.0" encoding="utf-8"?>
<!-- Generator: Adobe Illustrator 15.1.0, SVG Export Plug-In . SVG Version: 6.00 Build 0)  -->
<!DOCTYPE svg PUBLIC "-//W3C//DTD SVG 1.1//EN" "http://www.w3.org/Graphics/SVG/1.1/DTD/svg11.dtd">
<svg version="1.1" id="Layer_1" xmlns="http://www.w3.org/2000/svg" xmlns:xlink="http://www.w3.org/1999/xlink" x="0px" y="0px"
	 width="367.833px" height="25px" viewBox="0 0 367.833 25" enable-background="new 0 0 367.833 25" xml:space="preserve">
<g display="none">
	<g display="inline">
		<g>
			<defs>
				<rect id="SVGID_1_" x="-792" y="-511.417" width="1948" height="1095.75"/>
			</defs>
			<clipPath id="SVGID_2_">
				<use xlink:href="#SVGID_1_"  overflow="visible"/>
			</clipPath>
			<g id="Bovenkant_Header" clip-path="url(#SVGID_2_)">
				<g id="Schaduw_header_bovenkant_volledige_breedte">
					<g opacity="0.33">
						<defs>
							<rect id="SVGID_3_" x="-800.106" y="-429.647" opacity="0.33" width="1945.996" height="67.999"/>
						</defs>
						<clipPath id="SVGID_4_">
							<use xlink:href="#SVGID_3_"  overflow="visible"/>
						</clipPath>
						<g clip-path="url(#SVGID_4_)">
							<g>
								<defs>
									<rect id="SVGID_5_" x="-800.106" y="-429.648" width="1946" height="68"/>
								</defs>
								<clipPath id="SVGID_6_">
									<use xlink:href="#SVGID_5_"  overflow="visible"/>
								</clipPath>
								<g clip-path="url(#SVGID_6_)">
									
										<image overflow="visible" enable-background="new    " width="1947" height="69" xlink:href="A0445CE4.png"  transform="matrix(0.9995 0 0 0.9855 -800.1074 -429.6484)">
									</image>
								</g>
							</g>
						</g>
					</g>
				</g>
				<rect id="Header_bovenkant_volledige_breedte" x="-792" y="-421.542" fill="#EFEBE7" width="1929" height="50"/>
				<g id="Tagline">
					<g>
						<path fill="#7B7B7B" d="M14.634,11.005c-0.199,0.27-0.565,0.876-1.099,1.819c-2.221,3.996-3.463,5.994-3.727,5.994
							c-0.398,0-0.721-0.233-0.967-0.698c-0.246-0.468-0.584-1.701-1.015-3.705c-0.431-2.004-0.795-3.92-1.094-5.748
							c-0.111-0.516-0.22-0.938-0.325-1.266c-0.146-0.439-0.22-0.768-0.22-0.984c0-0.229,0.086-0.436,0.259-0.619
							C6.62,5.612,6.812,5.521,7.023,5.521c0.258,0,0.482,0.197,0.672,0.594c0.19,0.395,0.403,1.354,0.637,2.878
							c0.504,3.311,1.02,5.813,1.547,7.506c1.465-2.338,2.376-3.825,2.733-4.46c0.357-0.637,0.861-1.663,1.512-3.081
							c0.17-0.311,0.404-0.466,0.703-0.466c0.129,0,0.275,0.127,0.439,0.383c0.164,0.254,0.451,0.956,0.861,2.104
							c1.02,2.841,1.714,4.546,2.083,5.115c2.063-3.41,3.261-6.946,3.595-10.608c0-0.082,0.078-0.195,0.233-0.338
							c0.155-0.145,0.303-0.216,0.444-0.216c0.469,0,0.703,0.299,0.703,0.896c0,0.621-0.157,1.552-0.47,2.79
							c-0.313,1.24-0.688,2.383-1.125,3.428c-0.437,1.047-1.17,2.64-2.202,4.777c-0.17,0.346-0.313,0.653-0.431,0.923
							c-0.059,0.111-0.171,0.205-0.338,0.281s-0.3,0.113-0.4,0.113c-0.252,0-0.507-0.138-0.765-0.412
							c-0.258-0.275-0.65-1.084-1.178-2.422c-0.527-1.34-0.908-2.346-1.143-3.02C14.971,11.825,14.804,11.397,14.634,11.005z"/>
						<path fill="#7B7B7B" d="M26.104,16.006c0,0.445,0.062,0.946,0.185,1.503c0.023,0.105,0.035,0.193,0.035,0.265
							c0,0.104-0.097,0.242-0.29,0.408c-0.193,0.168-0.398,0.25-0.615,0.25c-0.568,0-0.853-0.521-0.853-1.563
							c0-1.078,0.223-2.783,0.668-5.115c0.152-0.814,0.229-1.315,0.229-1.503c0-0.369,0.067-0.684,0.202-0.945
							c0.135-0.26,0.325-0.391,0.571-0.391c0.299,0,0.535,0.072,0.708,0.215c0.173,0.145,0.259,0.304,0.259,0.479
							c0,0.175-0.041,0.407-0.123,0.694c-0.439,1.547-0.712,2.654-0.817,3.322S26.104,15.086,26.104,16.006z M27.255,6.188
							c-0.123,0-0.217-0.132-0.281-0.396c-0.023-0.082-0.056-0.173-0.097-0.272c-0.158-0.38-0.237-0.711-0.237-0.993
							c0-0.234,0.139-0.474,0.417-0.716c0.278-0.244,0.587-0.365,0.927-0.365c0.17,0,0.36,0.066,0.571,0.197
							c0.211,0.133,0.316,0.26,0.316,0.383c0,0.193-0.072,0.521-0.215,0.984c-0.143,0.463-0.372,0.775-0.686,0.936
							C27.658,6.108,27.419,6.188,27.255,6.188z"/>
						<path fill="#7B7B7B" d="M28.521,23.538c-0.697,0-1.373-0.291-2.026-0.875c-0.653-0.582-0.98-1.085-0.98-1.507
							c0-0.117,0.041-0.233,0.123-0.348c0.082-0.115,0.144-0.172,0.185-0.172c0.041,0,0.132,0.059,0.272,0.176
							c0.92,0.81,1.661,1.213,2.224,1.213c0.463,0,0.861-0.221,1.195-0.664c0.334-0.44,0.574-1.262,0.721-2.461
							c0.146-1.196,0.284-3.06,0.413-5.584c0.088-1.822,0.166-2.979,0.233-3.473c0.067-0.493,0.207-0.836,0.417-1.033
							c0.211-0.195,0.48-0.294,0.809-0.294c0.17,0,0.33,0.065,0.479,0.198c0.149,0.131,0.224,0.291,0.224,0.479
							c0,0.105-0.021,0.249-0.062,0.431c-0.428,1.852-0.706,4.264-0.835,7.232c-0.082,1.793-0.249,3.121-0.501,3.981
							c-0.252,0.861-0.64,1.526-1.165,1.995S29.148,23.538,28.521,23.538z M32.081,3.745h0.026c0.164,0,0.41,0.059,0.738,0.176
							c0.328,0.117,0.543,0.215,0.646,0.295c0.103,0.078,0.154,0.212,0.154,0.399c0,0.363-0.167,0.681-0.501,0.954
							c-0.334,0.271-0.583,0.408-0.747,0.408c-0.281,0-0.527-0.123-0.738-0.369s-0.316-0.492-0.316-0.738
							C31.342,4.237,31.588,3.862,32.081,3.745z"/>
						<path fill="#7B7B7B" d="M49.263,11.005c-0.545,0.012-1.711,1.626-3.498,4.843c-0.604,1.084-0.955,1.676-1.055,1.771
							c-0.1,0.098-0.283,0.184-0.549,0.26c-0.266,0.076-0.488,0.114-0.664,0.114c-0.393,0-0.589-0.765-0.589-2.294
							c0-0.861,0.185-2.42,0.554-4.676c0.152-0.914,0.229-1.567,0.229-1.96c0-0.387,0.173-0.58,0.519-0.58
							c0.65,0,0.976,0.469,0.976,1.406c0,0.439-0.108,1.301-0.325,2.584c-0.252,1.464-0.381,2.355-0.387,2.671
							c0.363-0.352,0.896-1.121,1.6-2.312c0.996-1.629,1.73-2.662,2.202-3.098c0.472-0.438,0.959-0.655,1.463-0.655
							c0.381,0,0.684,0.255,0.91,0.765c0.226,0.51,0.362,1.726,0.409,3.647c0.012,0.48,0.056,0.838,0.132,1.072
							c0.076,0.233,0.132,0.352,0.167,0.352c0.275,0,0.873-0.938,1.793-2.813c0.492-0.99,0.971-1.743,1.437-2.259
							c0.466-0.516,0.983-0.773,1.551-0.773c0.475,0,0.82,0.244,1.037,0.734c0.217,0.488,0.372,1.214,0.466,2.175
							c0.088,0.973,0.224,1.863,0.409,2.672c0.185,0.809,0.523,1.326,1.015,1.556c0.334,0.158,0.501,0.343,0.501,0.554
							c0,0.205-0.141,0.416-0.422,0.633c-0.281,0.217-0.539,0.326-0.773,0.326c-0.469,0-0.888-0.287-1.257-0.861
							c-0.369-0.574-0.647-1.816-0.835-3.728c-0.082-0.768-0.161-1.313-0.237-1.635c-0.076-0.322-0.196-0.483-0.36-0.483
							c-0.246,0-0.538,0.234-0.875,0.703c-0.337,0.469-0.88,1.422-1.63,2.856c-0.586,1.118-1.03,1.864-1.332,2.235
							c-0.302,0.373-0.593,0.56-0.875,0.56c-0.252,0-0.478-0.103-0.677-0.304c-0.199-0.203-0.325-0.444-0.378-0.729
							c-0.053-0.283-0.108-0.981-0.167-2.096C49.659,12.388,49.498,11.31,49.263,11.005z"/>
						<path fill="#7B7B7B" d="M67.052,14.758c-0.82,1.102-1.632,1.928-2.435,2.479c-0.803,0.552-1.538,0.826-2.206,0.826
							c-0.451,0-0.841-0.189-1.169-0.57c-0.328-0.381-0.492-0.87-0.492-1.469c0-1.541,0.688-3.199,2.065-4.979
							c1.377-1.777,2.745-2.667,4.104-2.667c0.492,0,0.858,0.281,1.099,0.844c0.076,0.188,0.196,0.281,0.36,0.281
							c0.469,0,0.703,0.182,0.703,0.545c0,0.182-0.029,0.431-0.088,0.747c-0.316,1.729-0.475,2.947-0.475,3.656
							c0,1.418,0.27,2.268,0.809,2.549c0.258,0.141,0.387,0.313,0.387,0.52c0,0.182-0.126,0.363-0.378,0.549
							c-0.252,0.185-0.495,0.276-0.729,0.276c-0.451,0-0.823-0.311-1.116-0.932S67.052,15.906,67.052,14.758z M66.516,9.81
							c-0.773,0-1.673,0.725-2.698,2.176c-1.025,1.45-1.538,2.653-1.538,3.607c0,0.675,0.223,1.011,0.668,1.011
							c0.645,0,1.538-0.649,2.681-1.951c1.143-1.301,1.714-2.495,1.714-3.585C67.342,10.229,67.067,9.81,66.516,9.81z"/>
						<path fill="#7B7B7B" d="M73.398,13.854c0.076-0.101,0.601-0.571,1.573-1.416c0.92-0.803,1.562-1.386,1.925-1.749
							c1.354-1.354,2.326-2.03,2.918-2.03c0.457,0,0.686,0.22,0.686,0.659c0,0.498-0.226,0.864-0.677,1.099
							c-0.586,0.299-1.368,0.796-2.347,1.489c-0.979,0.695-1.468,1.186-1.468,1.473c0,0.117,0.346,0.555,1.037,1.314
							c0.691,0.758,1.289,1.317,1.793,1.678c0.504,0.361,0.993,0.541,1.468,0.541l0.29-0.01c0.205-0.012,0.308,0.08,0.308,0.272
							c0,0.259-0.161,0.521-0.483,0.787c-0.322,0.267-0.747,0.399-1.274,0.399c-0.34,0-0.684-0.118-1.033-0.356
							c-0.349-0.235-0.968-0.877-1.859-1.92c-0.709-0.86-1.151-1.375-1.327-1.543c-0.176-0.166-0.322-0.25-0.439-0.25
							c-0.064,0-0.27,0.151-0.615,0.457c-0.345,0.306-0.535,0.536-0.567,0.694c-0.032,0.158-0.048,0.762-0.048,1.811v0.413
							c0,0.217-0.103,0.41-0.308,0.58c-0.205,0.17-0.428,0.255-0.668,0.255c-0.246,0-0.439-0.07-0.58-0.216
							c-0.141-0.144-0.211-0.291-0.211-0.443c0-0.211,0.079-0.709,0.237-1.493c0.223-1.132,0.428-2.646,0.615-4.544
							c0.434-4.482,0.768-7.019,1.002-7.606c0.234-0.59,0.568-0.884,1.002-0.884c0.152,0,0.28,0.082,0.382,0.246
							s0.154,0.375,0.154,0.633c0,0.469-0.202,1.714-0.606,3.735C73.873,9.956,73.58,11.931,73.398,13.854z"/>
						<path fill="#7B7B7B" d="M89.86,14.979c0,0.598-0.529,1.317-1.586,2.162c-1.057,0.844-2.149,1.265-3.274,1.265
							c-0.943,0-1.671-0.278-2.184-0.835c-0.513-0.557-0.769-1.334-0.769-2.329c0-1.677,0.565-3.27,1.696-4.781
							c1.131-1.511,2.367-2.268,3.709-2.268c0.439,0,0.798,0.144,1.077,0.431c0.279,0.287,0.417,0.633,0.417,1.037
							c0,0.902-0.442,1.767-1.327,2.593c-0.885,0.826-2.068,1.638-3.551,2.435c-0.305,0.158-0.457,0.363-0.457,0.615
							c0,0.486,0.141,0.877,0.422,1.17c0.281,0.293,0.697,0.438,1.248,0.438c1.26,0,2.546-0.697,3.858-2.093
							c0.193-0.192,0.34-0.289,0.439-0.289C89.766,14.529,89.86,14.68,89.86,14.979z M83.751,13.605
							c2.484-1.477,3.727-2.663,3.727-3.56c0-0.352-0.158-0.527-0.475-0.527c-0.539,0-1.147,0.396-1.824,1.187
							C84.502,11.497,84.027,12.464,83.751,13.605z"/>
						<path fill="#7B7B7B" d="M97.682,11.198c-0.305,0-0.637,0.199-0.998,0.598s-0.91,1.292-1.648,2.681
							c-0.973,1.863-1.601,2.924-1.885,3.183c-0.284,0.258-0.52,0.387-0.708,0.387c-0.691,0-1.037-0.334-1.037-1.002
							c0-0.28,0.047-0.68,0.141-1.194c0.322-1.771,0.483-3.637,0.483-5.6c0-0.223,0.095-0.471,0.286-0.742
							c0.19-0.273,0.371-0.409,0.541-0.409c0.305,0,0.521,0.094,0.65,0.281c0.129,0.187,0.193,0.565,0.193,1.134
							c0,0.592-0.176,1.811-0.527,3.656c-0.117,0.609-0.176,0.996-0.176,1.16c0,0.094,0.023,0.141,0.07,0.141
							c0.088,0,0.495-0.699,1.222-2.101c0.732-1.424,1.374-2.426,1.925-3.006c0.551-0.58,1.157-0.87,1.819-0.87
							c0.527,0,0.957,0.24,1.288,0.721c0.331,0.481,0.573,1.356,0.725,2.628c0.164,1.447,0.312,2.349,0.444,2.702
							c0.132,0.355,0.341,0.532,0.628,0.532c0.182,0,0.41-0.063,0.686-0.193c0.047-0.022,0.082-0.034,0.105-0.034
							c0.252,0,0.378,0.146,0.378,0.438c0,0.258-0.173,0.532-0.519,0.821c-0.346,0.291-0.762,0.436-1.248,0.436
							c-0.498,0-0.883-0.197-1.156-0.594c-0.272-0.395-0.488-1.451-0.646-3.168C98.555,12.06,98.209,11.198,97.682,11.198z"/>
						<path fill="#7B7B7B" d="M117.132,14.318c-0.785,1.26-1.617,2.23-2.496,2.912c-0.879,0.685-1.688,1.024-2.426,1.024
							c-0.568,0-1.018-0.218-1.349-0.655c-0.331-0.436-0.497-1.018-0.497-1.744c0-1.481,0.602-3.002,1.806-4.562
							s2.503-2.338,3.898-2.338c0.609,0,1.175,0.261,1.696,0.782l1.23-5.748c0.088-0.393,0.25-0.656,0.488-0.791
							c0.238-0.135,0.423-0.202,0.558-0.202c0.41,0,0.615,0.363,0.615,1.09c0,0.129-0.135,0.609-0.404,1.441
							c-0.428,1.289-0.833,2.872-1.217,4.751c-0.384,1.877-0.576,3.385-0.576,4.521c0,1.173,0.255,1.759,0.765,1.759
							c0.328,0,0.668-0.108,1.02-0.326c0.146-0.104,0.284-0.157,0.413-0.157c0.188,0,0.281,0.123,0.281,0.368
							c0,0.3-0.262,0.646-0.787,1.037c-0.525,0.393-1.062,0.59-1.613,0.59c-0.967,0-1.45-0.932-1.45-2.795
							C117.088,14.96,117.103,14.641,117.132,14.318z M115.981,10.205c-0.949,0-1.89,0.644-2.821,1.929
							c-0.932,1.287-1.397,2.476-1.397,3.564c0,0.731,0.243,1.099,0.729,1.099c0.457,0,1.012-0.24,1.666-0.721
							c0.654-0.481,1.326-1.247,2.017-2.299c0.691-1.052,1.037-1.841,1.037-2.368c0-0.258-0.119-0.523-0.356-0.795
							C116.618,10.341,116.327,10.205,115.981,10.205z"/>
						<path fill="#7B7B7B" d="M130.254,14.979c0,0.598-0.529,1.317-1.586,2.162c-1.057,0.844-2.149,1.266-3.274,1.266
							c-0.943,0-1.671-0.278-2.184-0.836c-0.513-0.557-0.769-1.332-0.769-2.328c0-1.676,0.565-3.27,1.696-4.781
							c1.131-1.511,2.367-2.268,3.709-2.268c0.439,0,0.798,0.144,1.077,0.431c0.279,0.287,0.417,0.633,0.417,1.037
							c0,0.902-0.442,1.767-1.327,2.593c-0.885,0.826-2.068,1.639-3.551,2.436c-0.305,0.158-0.457,0.362-0.457,0.615
							c0,0.485,0.141,0.875,0.422,1.168c0.281,0.293,0.697,0.439,1.248,0.439c1.26,0,2.546-0.697,3.858-2.092
							c0.193-0.193,0.34-0.29,0.439-0.29C130.161,14.529,130.254,14.68,130.254,14.979z M124.146,13.605
							c2.484-1.477,3.727-2.663,3.727-3.56c0-0.352-0.158-0.527-0.475-0.527c-0.539,0-1.147,0.396-1.824,1.187
							C124.897,11.497,124.421,12.464,124.146,13.605z"/>
						<path fill="#7B7B7B" d="M140.995,13.854c0.076-0.101,0.601-0.571,1.573-1.416c0.92-0.803,1.562-1.386,1.925-1.749
							c1.354-1.354,2.326-2.03,2.918-2.03c0.457,0,0.686,0.22,0.686,0.659c0,0.498-0.226,0.864-0.677,1.099
							c-0.586,0.299-1.368,0.796-2.347,1.489c-0.979,0.695-1.468,1.186-1.468,1.473c0,0.117,0.346,0.555,1.037,1.314
							c0.691,0.758,1.289,1.317,1.793,1.678c0.504,0.361,0.993,0.541,1.468,0.541l0.29-0.01c0.205-0.012,0.308,0.08,0.308,0.272
							c0,0.259-0.161,0.521-0.483,0.787c-0.322,0.267-0.747,0.399-1.274,0.399c-0.34,0-0.684-0.118-1.033-0.356
							c-0.349-0.235-0.968-0.877-1.859-1.92c-0.709-0.86-1.151-1.375-1.327-1.543c-0.176-0.166-0.322-0.25-0.439-0.25
							c-0.064,0-0.27,0.151-0.615,0.457c-0.345,0.306-0.535,0.536-0.567,0.694c-0.032,0.158-0.048,0.762-0.048,1.811v0.413
							c0,0.217-0.103,0.41-0.308,0.58s-0.428,0.255-0.668,0.255c-0.246,0-0.439-0.07-0.58-0.216
							c-0.141-0.144-0.211-0.291-0.211-0.443c0-0.211,0.079-0.709,0.237-1.493c0.223-1.132,0.428-2.646,0.615-4.544
							c0.434-4.482,0.768-7.019,1.002-7.606c0.234-0.59,0.568-0.884,1.002-0.884c0.152,0,0.28,0.082,0.382,0.246
							s0.154,0.375,0.154,0.633c0,0.469-0.202,1.714-0.606,3.735C141.469,9.956,141.176,11.931,140.995,13.854z"/>
						<path fill="#7B7B7B" d="M157.457,14.979c0,0.598-0.528,1.317-1.586,2.162c-1.057,0.844-2.148,1.266-3.273,1.266
							c-0.943,0-1.671-0.278-2.184-0.836c-0.513-0.557-0.769-1.332-0.769-2.328c0-1.676,0.565-3.27,1.696-4.781
							c1.131-1.511,2.367-2.268,3.708-2.268c0.439,0,0.799,0.144,1.078,0.431c0.278,0.287,0.416,0.633,0.416,1.037
							c0,0.902-0.441,1.767-1.326,2.593s-2.068,1.639-3.551,2.436c-0.305,0.158-0.457,0.362-0.457,0.615
							c0,0.485,0.141,0.875,0.422,1.168c0.281,0.293,0.697,0.439,1.248,0.439c1.26,0,2.545-0.697,3.858-2.092
							c0.193-0.193,0.34-0.29,0.439-0.29C157.363,14.529,157.457,14.68,157.457,14.979z M151.348,13.605
							c2.484-1.477,3.728-2.663,3.728-3.56c0-0.352-0.158-0.527-0.476-0.527c-0.539,0-1.147,0.396-1.824,1.187
							C152.099,11.497,151.624,12.464,151.348,13.605z"/>
						<path fill="#7B7B7B" d="M162.871,9.089c0.604-0.047,1.172-0.103,1.705-0.167c0.527-0.059,0.967-0.088,1.318-0.088
							c0.445,0,0.727,0.041,0.844,0.123s0.176,0.226,0.176,0.431c0,0.475-0.332,0.732-0.994,0.773
							c-0.85,0.053-1.631,0.126-2.346,0.22c-0.715,0.094-1.101,0.171-1.156,0.233c-0.056,0.061-0.231,0.758-0.531,2.092
							c-0.299,1.332-0.448,2.198-0.448,2.597c0,0.646,0.085,1.073,0.255,1.288c0.17,0.214,0.424,0.32,0.764,0.32
							c0.504,0,1.205-0.378,2.103-1.134c0.346-0.312,0.61-0.467,0.799-0.467c0.252,0,0.379,0.135,0.379,0.404
							c0,0.422-0.405,0.969-1.218,1.639c-0.813,0.672-1.643,1.008-2.491,1.008c-1.418,0-2.127-0.836-2.127-2.506
							c0-0.604,0.146-1.537,0.438-2.804c0.287-1.26,0.432-2.016,0.432-2.268c0-0.088-0.07-0.132-0.211-0.132l-0.914,0.079
							c-0.75,0-1.125-0.299-1.125-0.896c0-0.34,0.173-0.51,0.52-0.51h1.811c0.123,0,0.23-0.056,0.324-0.167
							c0.095-0.111,0.232-0.484,0.414-1.121c0.182-0.635,0.343-1.264,0.482-1.885c0.141-0.615,0.416-0.923,0.826-0.923
							c0.252,0,0.449,0.088,0.59,0.264c0.141,0.176,0.211,0.34,0.211,0.492c0,0.082-0.105,0.501-0.316,1.257L162.871,9.089z"/>
						<path fill="#7B7B7B" d="M171.309,9.089c0.604-0.047,1.172-0.103,1.705-0.167c0.526-0.059,0.967-0.088,1.317-0.088
							c0.445,0,0.728,0.041,0.844,0.123c0.117,0.082,0.177,0.226,0.177,0.431c0,0.475-0.332,0.732-0.994,0.773
							c-0.851,0.053-1.631,0.126-2.346,0.22c-0.716,0.094-1.101,0.171-1.156,0.233c-0.056,0.061-0.231,0.758-0.53,2.092
							c-0.3,1.332-0.449,2.198-0.449,2.597c0,0.646,0.086,1.073,0.256,1.288c0.17,0.214,0.424,0.32,0.764,0.32
							c0.504,0,1.205-0.378,2.102-1.134c0.346-0.312,0.611-0.467,0.799-0.467c0.252,0,0.379,0.135,0.379,0.404
							c0,0.422-0.405,0.969-1.217,1.639c-0.813,0.672-1.643,1.008-2.492,1.008c-1.418,0-2.127-0.836-2.127-2.506
							c0-0.604,0.146-1.537,0.439-2.804c0.287-1.26,0.43-2.016,0.43-2.268c0-0.088-0.069-0.132-0.211-0.132l-0.914,0.079
							c-0.75,0-1.125-0.299-1.125-0.896c0-0.34,0.174-0.51,0.521-0.51h1.812c0.123,0,0.229-0.056,0.323-0.167
							c0.095-0.111,0.232-0.484,0.414-1.121c0.183-0.635,0.343-1.264,0.481-1.885c0.142-0.615,0.416-0.923,0.826-0.923
							c0.252,0,0.449,0.088,0.59,0.264c0.142,0.176,0.212,0.34,0.212,0.492c0,0.082-0.104,0.501-0.316,1.257L171.309,9.089z"/>
						<path fill="#7B7B7B" d="M177.848,16.006c0,0.445,0.062,0.946,0.185,1.503c0.022,0.105,0.034,0.193,0.034,0.265
							c0,0.104-0.096,0.242-0.289,0.408c-0.192,0.168-0.397,0.25-0.614,0.25c-0.568,0-0.854-0.521-0.854-1.563
							c0-1.078,0.224-2.783,0.668-5.115c0.151-0.814,0.229-1.315,0.229-1.503c0-0.369,0.067-0.684,0.203-0.945
							c0.135-0.26,0.323-0.391,0.569-0.391c0.299,0,0.535,0.072,0.708,0.215c0.173,0.145,0.259,0.304,0.259,0.479
							c0,0.175-0.041,0.407-0.122,0.694c-0.439,1.547-0.712,2.654-0.816,3.322C177.902,14.292,177.848,15.086,177.848,16.006z
							 M178.998,6.188c-0.123,0-0.217-0.132-0.281-0.396c-0.022-0.082-0.055-0.173-0.096-0.272
							c-0.158-0.381-0.238-0.712-0.238-0.993c0-0.234,0.141-0.474,0.418-0.716c0.279-0.244,0.589-0.365,0.929-0.365
							c0.17,0,0.358,0.066,0.569,0.197c0.211,0.133,0.316,0.26,0.316,0.383c0,0.193-0.07,0.521-0.215,0.984
							c-0.145,0.463-0.372,0.775-0.686,0.936C179.401,6.108,179.162,6.188,178.998,6.188z"/>
						<path fill="#7B7B7B" d="M187.357,11.198c-0.305,0-0.639,0.199-0.998,0.598s-0.91,1.292-1.648,2.681
							c-0.973,1.863-1.601,2.924-1.885,3.183c-0.283,0.258-0.52,0.387-0.707,0.387c-0.69,0-1.037-0.334-1.037-1.002
							c0-0.28,0.047-0.68,0.142-1.194c0.321-1.771,0.481-3.637,0.481-5.6c0-0.223,0.096-0.471,0.287-0.742
							c0.189-0.273,0.369-0.409,0.539-0.409c0.305,0,0.521,0.094,0.65,0.281s0.193,0.565,0.193,1.134
							c0,0.592-0.177,1.811-0.527,3.656c-0.117,0.609-0.176,0.996-0.176,1.16c0,0.094,0.022,0.141,0.07,0.141
							c0.088,0,0.495-0.699,1.223-2.101c0.731-1.424,1.373-2.426,1.924-3.006c0.551-0.58,1.158-0.87,1.82-0.87
							c0.526,0,0.955,0.24,1.287,0.721c0.33,0.481,0.571,1.356,0.725,2.628c0.164,1.447,0.313,2.349,0.443,2.702
							c0.133,0.355,0.342,0.532,0.629,0.532c0.182,0,0.41-0.063,0.686-0.193c0.047-0.022,0.082-0.034,0.105-0.034
							c0.252,0,0.379,0.146,0.379,0.438c0,0.258-0.174,0.532-0.521,0.821c-0.346,0.291-0.762,0.436-1.248,0.436
							c-0.498,0-0.883-0.197-1.155-0.594c-0.271-0.395-0.486-1.451-0.646-3.168C188.23,12.06,187.884,11.198,187.357,11.198z"/>
						<path fill="#7B7B7B" d="M199.521,14.775c-0.07-0.053-0.268,0.11-0.59,0.492c-0.533,0.627-1.215,1.184-2.043,1.67
							c-0.829,0.485-1.598,0.729-2.307,0.729c-0.527,0-0.941-0.166-1.24-0.496c-0.299-0.332-0.447-0.79-0.447-1.376
							c0-0.908,0.342-1.921,1.027-3.036c0.686-1.117,1.646-2.091,2.879-2.923c1.232-0.832,2.313-1.248,3.238-1.248
							c0.485,0,0.914,0.141,1.282,0.422c0.089,0.07,0.164,0.129,0.229,0.176c0.104,0.076,0.205,0.229,0.299,0.462
							c0.094,0.23,0.141,0.417,0.141,0.558c0,0.088-0.031,0.223-0.096,0.404c-0.357,0.973-0.602,1.778-0.73,2.417
							c-0.127,0.64-0.27,1.715-0.422,3.227c-0.141,1.359-0.293,2.405-0.457,3.139c-0.164,0.732-0.459,1.44-0.887,2.127
							c-0.428,0.686-0.941,1.198-1.539,1.543c-0.598,0.342-1.213,0.514-1.846,0.514c-1.096,0-2.176-0.379-3.242-1.135
							s-1.6-1.361-1.6-1.818c0-0.287,0.106-0.432,0.324-0.432c0.104,0,0.42,0.174,0.94,0.52c1.377,0.92,2.614,1.38,3.717,1.38
							c0.961,0,1.692-0.513,2.193-1.538s0.842-2.558,1.022-4.597C199.412,15.49,199.462,15.098,199.521,14.775z M199.503,9.95
							c-0.498,0-1.121,0.258-1.867,0.773c-0.747,0.515-1.473,1.271-2.176,2.268s-1.055,1.831-1.055,2.505
							c0,0.229,0.071,0.409,0.215,0.54c0.145,0.133,0.303,0.198,0.479,0.198c0.521,0,1.203-0.271,2.044-0.81
							s1.564-1.288,2.171-2.245c0.606-0.958,0.91-1.71,0.91-2.255C200.225,10.275,199.984,9.95,199.503,9.95z"/>
						<path fill="#7B7B7B" d="M217.143,14.318c-0.785,1.26-1.617,2.23-2.496,2.912c-0.879,0.685-1.688,1.024-2.426,1.024
							c-0.568,0-1.019-0.218-1.349-0.655c-0.332-0.436-0.498-1.018-0.498-1.744c0-1.481,0.604-3.002,1.808-4.562
							s2.504-2.338,3.897-2.338c0.609,0,1.174,0.261,1.695,0.782l1.23-5.748c0.088-0.393,0.25-0.656,0.488-0.791
							c0.236-0.135,0.424-0.202,0.559-0.202c0.41,0,0.615,0.363,0.615,1.09c0,0.129-0.135,0.609-0.404,1.441
							c-0.428,1.289-0.834,2.872-1.219,4.751c-0.383,1.877-0.574,3.385-0.574,4.521c0,1.173,0.254,1.759,0.764,1.759
							c0.328,0,0.668-0.108,1.02-0.326c0.146-0.104,0.285-0.157,0.414-0.157c0.188,0,0.281,0.123,0.281,0.368
							c0,0.3-0.263,0.646-0.787,1.037c-0.523,0.393-1.063,0.59-1.613,0.59c-0.967,0-1.448-0.932-1.448-2.795
							C217.1,14.96,217.113,14.641,217.143,14.318z M215.992,10.205c-0.949,0-1.891,0.644-2.822,1.929
							c-0.932,1.287-1.396,2.476-1.396,3.564c0,0.731,0.242,1.099,0.729,1.099c0.457,0,1.013-0.24,1.666-0.721
							c0.652-0.481,1.326-1.247,2.018-2.299c0.691-1.052,1.037-1.841,1.037-2.368c0-0.258-0.119-0.523-0.355-0.795
							C216.628,10.341,216.337,10.205,215.992,10.205z"/>
						<path fill="#7B7B7B" d="M224.419,16.006c0,0.445,0.063,0.946,0.187,1.503c0.022,0.105,0.035,0.193,0.035,0.265
							c0,0.104-0.099,0.242-0.291,0.408c-0.192,0.168-0.397,0.25-0.615,0.25c-0.567,0-0.853-0.521-0.853-1.563
							c0-1.078,0.224-2.783,0.668-5.115c0.152-0.814,0.229-1.315,0.229-1.503c0-0.369,0.066-0.684,0.201-0.945
							c0.136-0.26,0.326-0.391,0.572-0.391c0.299,0,0.534,0.072,0.706,0.215c0.174,0.145,0.261,0.304,0.261,0.479
							c0,0.175-0.041,0.407-0.123,0.694c-0.438,1.547-0.713,2.654-0.817,3.322C224.474,14.292,224.419,15.086,224.419,16.006z
							 M225.572,6.188c-0.123,0-0.217-0.132-0.281-0.396c-0.022-0.082-0.057-0.173-0.098-0.272
							c-0.158-0.381-0.236-0.712-0.236-0.993c0-0.234,0.14-0.474,0.418-0.716c0.277-0.244,0.586-0.365,0.926-0.365
							c0.171,0,0.361,0.066,0.572,0.197c0.211,0.133,0.316,0.26,0.316,0.383c0,0.193-0.072,0.521-0.216,0.984
							c-0.144,0.463-0.372,0.775-0.687,0.936C225.975,6.108,225.736,6.188,225.572,6.188z"/>
						<path fill="#7B7B7B" d="M235.468,14.979c0,0.598-0.528,1.317-1.586,2.162c-1.059,0.844-2.149,1.266-3.274,1.266
							c-0.942,0-1.671-0.278-2.185-0.836c-0.512-0.557-0.77-1.332-0.77-2.328c0-1.676,0.566-3.27,1.697-4.781
							c1.131-1.511,2.367-2.268,3.709-2.268c0.439,0,0.798,0.144,1.076,0.431c0.277,0.287,0.418,0.633,0.418,1.037
							c0,0.902-0.443,1.767-1.328,2.593s-2.068,1.639-3.551,2.436c-0.305,0.158-0.457,0.362-0.457,0.615
							c0,0.485,0.141,0.875,0.422,1.168s0.697,0.439,1.248,0.439c1.26,0,2.547-0.697,3.859-2.092c0.192-0.193,0.34-0.29,0.438-0.29
							C235.375,14.529,235.468,14.68,235.468,14.979z M229.359,13.605c2.484-1.477,3.727-2.663,3.727-3.56
							c0-0.352-0.157-0.527-0.475-0.527c-0.539,0-1.146,0.396-1.822,1.187C230.111,11.497,229.634,12.464,229.359,13.605z"/>
						<path fill="#7B7B7B" d="M243.396,23.538c-0.697,0-1.373-0.291-2.025-0.875c-0.654-0.582-0.979-1.085-0.979-1.507
							c0-0.117,0.041-0.233,0.123-0.348c0.082-0.115,0.144-0.172,0.185-0.172c0.04,0,0.133,0.059,0.272,0.176
							c0.92,0.81,1.659,1.213,2.223,1.213c0.464,0,0.861-0.221,1.195-0.664c0.334-0.44,0.573-1.262,0.721-2.461
							c0.146-1.196,0.285-3.06,0.414-5.584c0.088-1.822,0.165-2.979,0.231-3.473c0.068-0.493,0.207-0.836,0.418-1.033
							c0.211-0.195,0.48-0.294,0.81-0.294c0.17,0,0.329,0.065,0.479,0.198c0.148,0.131,0.225,0.291,0.225,0.479
							c0,0.105-0.021,0.249-0.063,0.431c-0.429,1.852-0.705,4.264-0.834,7.232c-0.082,1.793-0.25,3.121-0.502,3.981
							c-0.252,0.861-0.641,1.526-1.164,1.995C244.6,23.303,244.023,23.538,243.396,23.538z M246.955,3.745h0.027
							c0.164,0,0.41,0.059,0.738,0.176c0.328,0.117,0.543,0.215,0.646,0.295c0.102,0.078,0.152,0.212,0.152,0.399
							c0,0.363-0.166,0.681-0.5,0.954c-0.334,0.271-0.584,0.408-0.748,0.408c-0.281,0-0.527-0.123-0.738-0.369
							s-0.316-0.492-0.316-0.738C246.216,4.237,246.462,3.862,246.955,3.745z"/>
						<path fill="#7B7B7B" d="M251.982,16.006c0,0.445,0.063,0.946,0.186,1.503c0.023,0.105,0.035,0.193,0.035,0.265
							c0,0.104-0.098,0.242-0.291,0.408c-0.193,0.168-0.397,0.25-0.615,0.25c-0.567,0-0.852-0.521-0.852-1.563
							c0-1.078,0.223-2.783,0.668-5.115c0.152-0.814,0.229-1.315,0.229-1.503c0-0.369,0.066-0.684,0.201-0.945
							c0.135-0.26,0.326-0.391,0.572-0.391c0.299,0,0.534,0.072,0.707,0.215c0.174,0.145,0.26,0.304,0.26,0.479
							c0,0.175-0.041,0.407-0.123,0.694c-0.438,1.547-0.713,2.654-0.817,3.322S251.982,15.086,251.982,16.006z M253.134,6.188
							c-0.122,0-0.217-0.132-0.28-0.396c-0.022-0.082-0.058-0.173-0.099-0.272c-0.157-0.381-0.235-0.712-0.235-0.993
							c0-0.234,0.14-0.474,0.417-0.716c0.277-0.244,0.587-0.365,0.928-0.365c0.17,0,0.36,0.066,0.571,0.197
							c0.211,0.133,0.315,0.26,0.315,0.383c0,0.193-0.071,0.521-0.215,0.984c-0.145,0.463-0.373,0.775-0.687,0.936
							C253.537,6.108,253.298,6.188,253.134,6.188z"/>
						<path fill="#7B7B7B" d="M254.4,23.538c-0.697,0-1.373-0.291-2.025-0.875c-0.653-0.582-0.979-1.085-0.979-1.507
							c0-0.117,0.041-0.233,0.123-0.348c0.082-0.115,0.144-0.172,0.185-0.172s0.133,0.059,0.272,0.176
							c0.92,0.81,1.659,1.213,2.224,1.213c0.463,0,0.86-0.221,1.194-0.664c0.334-0.44,0.573-1.262,0.722-2.461
							c0.145-1.196,0.284-3.06,0.413-5.584c0.089-1.822,0.165-2.979,0.231-3.473c0.068-0.493,0.207-0.836,0.419-1.033
							c0.211-0.195,0.479-0.294,0.809-0.294c0.171,0,0.329,0.065,0.479,0.198c0.148,0.131,0.225,0.291,0.225,0.479
							c0,0.105-0.021,0.249-0.063,0.431c-0.428,1.852-0.705,4.264-0.834,7.232c-0.082,1.793-0.25,3.121-0.502,3.981
							c-0.252,0.861-0.641,1.526-1.164,1.995C255.604,23.303,255.027,23.538,254.4,23.538z M257.958,3.745h0.027
							c0.164,0,0.41,0.059,0.738,0.176c0.328,0.117,0.543,0.215,0.646,0.295c0.103,0.078,0.152,0.212,0.152,0.399
							c0,0.363-0.166,0.681-0.5,0.954c-0.334,0.271-0.584,0.408-0.748,0.408c-0.281,0-0.527-0.123-0.738-0.369
							s-0.315-0.492-0.315-0.738C257.221,4.237,257.466,3.862,257.958,3.745z"/>
						<path fill="#7B7B7B" d="M275.466,12.139c-0.163,0.006-0.559,0.688-1.186,2.048c-0.516,1.119-1.043,2.117-1.582,2.992
							c-0.539,0.877-0.936,1.313-1.188,1.313c-0.727,0-1.398-1.08-2.018-3.238c-0.617-2.16-0.927-3.898-0.927-5.217
							c0-0.428,0.106-0.782,0.32-1.063c0.214-0.281,0.467-0.434,0.76-0.457c0.041-0.006,0.115-0.005,0.222,0.005
							c0.104,0.008,0.233,0.105,0.387,0.289c0.152,0.186,0.229,0.365,0.229,0.541v0.035c0,0.07-0.033,0.363-0.098,0.879
							c-0.053,0.381-0.078,0.847-0.078,1.397c0,0.873,0.166,1.837,0.5,2.893c0.334,1.055,0.615,1.582,0.844,1.582
							c0.164,0,0.707-0.892,1.627-2.673c0.58-1.131,0.996-1.91,1.248-2.338l0.281-0.527c0.404-0.773,0.787-1.307,1.15-1.6
							c0.504,0.064,0.756,0.316,0.756,0.756c0,0.146-0.012,0.27-0.035,0.369s-0.035,0.223-0.035,0.369
							c0,1.084,0.281,2.219,0.844,3.405s0.965,1.779,1.205,1.779c0.176,0,0.453-0.621,0.834-1.863
							c0.516-1.688,0.992-2.952,1.43-3.796c0.437-0.844,0.756-1.345,0.961-1.503c0.205-0.158,0.438-0.237,0.695-0.237
							c0.146,0,0.271,0.063,0.373,0.188c0.104,0.125,0.154,0.262,0.154,0.408c0,0.217-0.033,0.366-0.098,0.448
							c-0.728,0.955-1.424,2.446-2.092,4.474c-0.568,1.74-0.957,2.833-1.168,3.278c-0.212,0.444-0.388,0.668-0.527,0.668
							c-0.709,0-1.289-0.259-1.74-0.778c-0.451-0.518-1.049-1.896-1.793-4.135C275.634,12.569,275.548,12.338,275.466,12.139z"/>
						<path fill="#7B7B7B" d="M286.048,16.006c0,0.445,0.063,0.946,0.187,1.503c0.022,0.105,0.035,0.193,0.035,0.265
							c0,0.104-0.099,0.242-0.291,0.408c-0.192,0.168-0.397,0.25-0.614,0.25c-0.568,0-0.853-0.521-0.853-1.563
							c0-1.078,0.223-2.783,0.668-5.115c0.151-0.814,0.229-1.315,0.229-1.503c0-0.369,0.065-0.684,0.2-0.945
							c0.136-0.26,0.326-0.391,0.572-0.391c0.299,0,0.534,0.072,0.707,0.215c0.173,0.145,0.26,0.304,0.26,0.479
							c0,0.175-0.041,0.407-0.123,0.694c-0.438,1.547-0.713,2.654-0.817,3.322C286.103,14.292,286.048,15.086,286.048,16.006z
							 M287.201,6.188c-0.123,0-0.217-0.132-0.281-0.396c-0.022-0.082-0.057-0.173-0.098-0.272
							c-0.158-0.381-0.236-0.712-0.236-0.993c0-0.234,0.14-0.474,0.418-0.716c0.277-0.244,0.586-0.365,0.927-0.365
							c0.17,0,0.36,0.066,0.571,0.197c0.211,0.133,0.316,0.26,0.316,0.383c0,0.193-0.072,0.521-0.216,0.984
							c-0.144,0.463-0.372,0.775-0.687,0.936C287.604,6.108,287.365,6.188,287.201,6.188z"/>
						<path fill="#7B7B7B" d="M292.65,3.077c0.422,0,0.633,0.27,0.633,0.809c0,0.48-0.256,1.623-0.766,3.428
							c-0.322,1.137-0.57,2.391-0.746,3.762s-0.264,2.445-0.264,3.226c0,0.968,0.061,1.929,0.184,2.884
							c0.023,0.182,0.035,0.313,0.035,0.396c0,0.293-0.1,0.545-0.299,0.756s-0.41,0.315-0.633,0.315
							c-0.312,0-0.525-0.192-0.646-0.579c-0.121-0.388-0.182-1.011-0.182-1.872c0-1.963,0.236-4.395,0.709-7.295
							c0.472-2.9,0.847-4.597,1.125-5.089C292.078,3.325,292.363,3.077,292.65,3.077z"/>
						<path fill="#7B7B7B" d="M298.3,9.089c0.605-0.047,1.172-0.103,1.705-0.167c0.527-0.059,0.967-0.088,1.318-0.088
							c0.445,0,0.727,0.041,0.844,0.123s0.176,0.226,0.176,0.431c0,0.475-0.33,0.732-0.992,0.773
							c-0.85,0.053-1.633,0.126-2.348,0.22c-0.715,0.094-1.1,0.171-1.154,0.233c-0.057,0.061-0.232,0.758-0.532,2.092
							c-0.299,1.332-0.446,2.198-0.446,2.597c0,0.646,0.084,1.073,0.254,1.288c0.17,0.214,0.426,0.32,0.766,0.32
							c0.504,0,1.203-0.378,2.1-1.134c0.346-0.312,0.613-0.467,0.801-0.467c0.252,0,0.377,0.135,0.377,0.404
							c0,0.422-0.404,0.969-1.217,1.639c-0.813,0.672-1.643,1.008-2.492,1.008c-1.418,0-2.127-0.836-2.127-2.506
							c0-0.604,0.146-1.537,0.439-2.804c0.287-1.26,0.432-2.016,0.432-2.268c0-0.088-0.07-0.132-0.211-0.132l-0.914,0.079
							c-0.75,0-1.125-0.299-1.125-0.896c0-0.34,0.172-0.51,0.518-0.51h1.812c0.123,0,0.232-0.056,0.326-0.167
							c0.095-0.111,0.229-0.484,0.412-1.121c0.183-0.635,0.344-1.264,0.483-1.885c0.142-0.615,0.416-0.923,0.826-0.923
							c0.252,0,0.447,0.088,0.588,0.264c0.141,0.176,0.211,0.34,0.211,0.492c0,0.082-0.105,0.501-0.316,1.257L298.3,9.089z"/>
					</g>
				</g>
				<g id="Winkelwagen">
					<text transform="matrix(1 0 0 1 585.0776 -399.542)" fill="#575757" font-family="'DroidSans-Bold'" font-size="16.5209">2 producten</text>
					<text transform="matrix(1 0 0 1 612.7749 -380.3418)" fill="#575757" font-family="'DroidSans-Bold'" font-size="16.5209">€</text>
					<text transform="matrix(1 0 0 1 620.9819 -380.3418)" fill="#90348F" font-family="'DroidSans-Bold'" font-size="16.5209"> </text>
					<text transform="matrix(1 0 0 1 625.2749 -380.3418)" fill="#575757" font-family="'DroidSans-Bold'" font-size="16.5209">126 ,00</text>
				</g>
			</g>
		</g>
	</g>
</g>
<g>
	<path fill="#7B7B7B" d="M8.65,8.097c-0.035,0.229-0.231,1.046-0.589,2.452c-0.17,0.662-0.281,1.219-0.334,1.67
		c-0.035,0.305-0.079,0.636-0.132,0.993c-0.234,1.5-0.352,2.525-0.352,3.076c0,0.826,0.05,1.638,0.149,2.435
		c0.059,0.463-0.023,0.797-0.246,1.002s-0.445,0.308-0.668,0.308c-0.316,0-0.536-0.178-0.659-0.532
		c-0.123-0.354-0.185-0.927-0.185-1.718c0-0.826,0.117-1.969,0.352-3.428c0.082-0.551,0.129-0.882,0.141-0.993
		c0.012-0.199,0.035-0.404,0.07-0.615c0.029-0.205,0.053-0.41,0.07-0.615c0.035-0.545,0.141-1.257,0.316-2.136
		C6.713,9.333,6.807,8.75,6.866,8.246c0.041-0.352,0.088-0.589,0.141-0.712S7.195,7.276,7.415,7.13S7.8,6.91,7.912,6.91
		c0.246,0,0.431,0.119,0.554,0.355C8.588,7.504,8.65,7.78,8.65,8.097z"/>
	<path fill="#7B7B7B" d="M12.236,17.105c2.18-4.025,3.976-6.038,5.388-6.038c0.375,0,0.68,0.214,0.914,0.642
		s0.425,1.377,0.571,2.848c0.146,1.564,0.478,2.695,0.993,3.393c0.264,0.357,0.396,0.621,0.396,0.791
		c0,0.152-0.088,0.293-0.264,0.422s-0.363,0.193-0.563,0.193c-0.457,0-0.861-0.256-1.213-0.77c-0.352-0.512-0.577-1.413-0.677-2.702
		c-0.1-1.219-0.205-2.016-0.316-2.391s-0.296-0.563-0.554-0.563c-0.615,0-1.854,1.608-3.718,4.825
		c-0.557,0.961-0.967,1.59-1.23,1.885c-0.264,0.296-0.504,0.444-0.721,0.444c-0.258,0-0.475-0.076-0.65-0.229
		s-0.264-0.34-0.264-0.563c0-0.164,0.047-0.48,0.141-0.949c0.721-3.721,1.289-7.4,1.705-11.039c0.094-0.85,0.245-1.415,0.453-1.696
		s0.382-0.422,0.523-0.422c0.252,0,0.48,0.103,0.686,0.308s0.308,0.489,0.308,0.853c0,1.078-0.264,2.558-0.791,4.438
		c-0.258,0.932-0.53,2.115-0.817,3.551S12.104,16.66,12.104,17c0,0.07,0.032,0.105,0.097,0.105H12.236z"/>
	<path fill="#7B7B7B" d="M23.837,16.253c0.059-0.105,0.129-0.252,0.211-0.439c0.398-0.914,0.765-1.63,1.099-2.149
		c0.334-0.518,0.702-1.015,1.103-1.489s0.768-0.835,1.099-1.081s0.631-0.418,0.901-0.514c0.27-0.098,0.53-0.146,0.782-0.146
		c0.51,0,0.926,0.153,1.248,0.462c0.322,0.307,0.483,0.666,0.483,1.076c0,0.182-0.057,0.346-0.171,0.492s-0.289,0.22-0.523,0.22
		c-0.246,0-0.472-0.108-0.677-0.325c-0.211-0.217-0.431-0.325-0.659-0.325c-0.609,0-1.453,0.738-2.531,2.215
		s-1.734,3.103-1.969,4.878c-0.059,0.457-0.17,0.759-0.334,0.905s-0.396,0.22-0.694,0.22c-0.287,0-0.495-0.214-0.624-0.642
		s-0.193-1.148-0.193-2.162c0-0.275,0.015-0.882,0.044-1.819c0.035-1.107,0.105-2.001,0.211-2.681
		c0.018-0.111,0.047-0.372,0.088-0.782c0.041-0.451,0.092-0.765,0.154-0.94s0.188-0.34,0.378-0.492s0.397-0.229,0.62-0.229
		c0.217,0,0.379,0.069,0.488,0.206c0.108,0.139,0.163,0.286,0.163,0.444c0,0.229-0.059,0.551-0.176,0.967
		c-0.135,0.463-0.214,0.782-0.237,0.958c-0.018,0.199-0.05,0.407-0.097,0.624c-0.059,0.252-0.117,0.914-0.176,1.986l-0.009,0.325
		V16.253z"/>
	<path fill="#7B7B7B" d="M38.84,16.763c0,0.598-0.529,1.318-1.586,2.162s-2.149,1.266-3.274,1.266c-0.943,0-1.671-0.278-2.184-0.835
		s-0.769-1.333-0.769-2.329c0-1.676,0.565-3.27,1.696-4.781s2.367-2.268,3.709-2.268c0.439,0,0.798,0.144,1.077,0.431
		s0.417,0.633,0.417,1.037c0,0.902-0.442,1.767-1.327,2.593s-2.068,1.638-3.551,2.435c-0.305,0.158-0.457,0.363-0.457,0.615
		c0,0.486,0.141,0.876,0.422,1.169s0.697,0.439,1.248,0.439c1.26,0,2.546-0.697,3.858-2.092c0.193-0.193,0.34-0.29,0.439-0.29
		C38.747,16.314,38.84,16.464,38.84,16.763z M32.732,15.392c2.484-1.477,3.727-2.663,3.727-3.56c0-0.352-0.158-0.527-0.475-0.527
		c-0.539,0-1.147,0.396-1.824,1.187S33.007,14.249,32.732,15.392z"/>
	<path fill="#7B7B7B" d="M52.173,14.1c0.322,0.229,1.025,0.768,2.109,1.617c1.143,0.896,2.013,1.546,2.61,1.947
		s1.024,0.637,1.279,0.707s0.719,0.129,1.393,0.176c0.023,0.082,0.035,0.173,0.035,0.272c0,0.375-0.098,0.667-0.294,0.874
		c-0.196,0.208-0.461,0.313-0.795,0.313c-0.34,0-0.747-0.125-1.222-0.373c-0.475-0.249-1.339-0.846-2.593-1.789l-2.004-1.521
		c-0.686-0.545-1.327-0.946-1.925-1.204c-0.146-0.023-0.325,0.053-0.536,0.229c-0.182,0.369-0.311,0.835-0.387,1.397
		s-0.114,0.999-0.114,1.31c-0.082,1.611-0.416,2.417-1.002,2.417c-0.229,0-0.41-0.075-0.545-0.224
		c-0.135-0.15-0.202-0.339-0.202-0.567c0-0.17,0.038-0.41,0.114-0.721c0.176-0.727,0.419-2.836,0.729-6.328
		c0.105-1.072,0.237-2.15,0.396-3.234s0.278-1.726,0.36-1.925s0.19-0.346,0.325-0.439s0.264-0.141,0.387-0.141
		c0.545,0,0.812,0.331,0.8,0.993c-0.404,1.664-0.656,3.211-0.756,4.641c-0.035,0.451-0.082,0.899-0.141,1.345
		c0,0.023,0.001,0.046,0.004,0.066s0.034,0.018,0.092-0.01c0.059-0.025,0.245-0.154,0.558-0.387c0.313-0.23,0.653-0.5,1.02-0.809
		c0.366-0.307,0.658-0.581,0.875-0.821c0.135-0.158,0.313-0.337,0.536-0.536c0.727-0.65,1.266-1.164,1.617-1.543
		c0.352-0.377,0.68-0.827,0.984-1.349c0.428-0.75,0.735-1.125,0.923-1.125c0.205,0,0.419,0.11,0.642,0.329
		c0.223,0.221,0.334,0.438,0.334,0.655c0,0.563-0.891,1.623-2.672,3.182c-0.393,0.34-0.645,0.565-0.756,0.677
		C54.154,12.389,53.427,13.021,52.173,14.1z"/>
	<path fill="#7B7B7B" d="M68.793,16.763c0,0.598-0.529,1.318-1.586,2.162s-2.149,1.266-3.274,1.266
		c-0.943,0-1.671-0.278-2.184-0.835s-0.769-1.333-0.769-2.329c0-1.676,0.565-3.27,1.696-4.781s2.367-2.268,3.709-2.268
		c0.439,0,0.798,0.144,1.077,0.431s0.417,0.633,0.417,1.037c0,0.902-0.442,1.767-1.327,2.593s-2.068,1.638-3.551,2.435
		c-0.305,0.158-0.457,0.363-0.457,0.615c0,0.486,0.141,0.876,0.422,1.169s0.697,0.439,1.248,0.439c1.26,0,2.546-0.697,3.858-2.092
		c0.193-0.193,0.34-0.29,0.439-0.29C68.7,16.314,68.793,16.464,68.793,16.763z M62.685,15.392c2.484-1.477,3.727-2.663,3.727-3.56
		c0-0.352-0.158-0.527-0.475-0.527c-0.539,0-1.147,0.396-1.824,1.187S62.96,14.249,62.685,15.392z"/>
	<path fill="#7B7B7B" d="M74.208,10.874c0.604-0.047,1.172-0.103,1.705-0.167c0.527-0.059,0.967-0.088,1.318-0.088
		c0.445,0,0.727,0.041,0.844,0.123s0.176,0.226,0.176,0.431c0,0.475-0.331,0.732-0.993,0.773c-0.85,0.053-1.632,0.126-2.347,0.22
		s-1.1,0.172-1.156,0.232c-0.056,0.063-0.233,0.76-0.532,2.092c-0.299,1.334-0.448,2.199-0.448,2.598
		c0,0.645,0.085,1.074,0.255,1.287c0.17,0.215,0.425,0.321,0.765,0.321c0.504,0,1.204-0.378,2.101-1.134
		c0.346-0.311,0.612-0.466,0.8-0.466c0.252,0,0.378,0.135,0.378,0.404c0,0.422-0.406,0.969-1.217,1.64
		c-0.812,0.67-1.642,1.006-2.492,1.006c-1.418,0-2.127-0.835-2.127-2.505c0-0.604,0.146-1.538,0.439-2.804
		c0.287-1.26,0.431-2.016,0.431-2.268c0-0.088-0.07-0.132-0.211-0.132l-0.914,0.079c-0.75,0-1.125-0.299-1.125-0.896
		c0-0.34,0.173-0.51,0.519-0.51h1.811c0.123,0,0.231-0.056,0.325-0.167s0.231-0.484,0.413-1.12s0.343-1.265,0.483-1.886
		c0.141-0.615,0.416-0.923,0.826-0.923c0.252,0,0.448,0.088,0.589,0.264s0.211,0.34,0.211,0.492c0,0.082-0.105,0.501-0.316,1.257
		L74.208,10.874z"/>
	<path fill="#7B7B7B" d="M82.645,10.874c0.604-0.047,1.172-0.103,1.705-0.167c0.527-0.059,0.967-0.088,1.318-0.088
		c0.445,0,0.727,0.041,0.844,0.123s0.176,0.226,0.176,0.431c0,0.475-0.331,0.732-0.993,0.773c-0.85,0.053-1.632,0.126-2.347,0.22
		s-1.1,0.172-1.156,0.232c-0.056,0.063-0.233,0.76-0.532,2.092c-0.299,1.334-0.448,2.199-0.448,2.598
		c0,0.645,0.085,1.074,0.255,1.287c0.17,0.215,0.425,0.321,0.765,0.321c0.504,0,1.204-0.378,2.101-1.134
		c0.346-0.311,0.612-0.466,0.8-0.466c0.252,0,0.378,0.135,0.378,0.404c0,0.422-0.406,0.969-1.217,1.64
		c-0.812,0.67-1.642,1.006-2.492,1.006c-1.418,0-2.127-0.835-2.127-2.505c0-0.604,0.146-1.538,0.439-2.804
		c0.287-1.26,0.431-2.016,0.431-2.268c0-0.088-0.07-0.132-0.211-0.132l-0.914,0.079c-0.75,0-1.125-0.299-1.125-0.896
		c0-0.34,0.173-0.51,0.519-0.51h1.811c0.123,0,0.231-0.056,0.325-0.167s0.231-0.484,0.413-1.12s0.343-1.265,0.483-1.886
		c0.141-0.615,0.416-0.923,0.826-0.923c0.252,0,0.448,0.088,0.589,0.264s0.211,0.34,0.211,0.492c0,0.082-0.105,0.501-0.316,1.257
		L82.645,10.874z"/>
	<path fill="#7B7B7B" d="M95.029,16.763c0,0.598-0.529,1.318-1.586,2.162s-2.149,1.266-3.274,1.266
		c-0.943,0-1.671-0.278-2.184-0.835s-0.769-1.333-0.769-2.329c0-1.676,0.565-3.27,1.696-4.781s2.367-2.268,3.709-2.268
		c0.439,0,0.798,0.144,1.077,0.431s0.417,0.633,0.417,1.037c0,0.902-0.442,1.767-1.327,2.593s-2.068,1.638-3.551,2.435
		c-0.305,0.158-0.457,0.363-0.457,0.615c0,0.486,0.141,0.876,0.422,1.169s0.697,0.439,1.248,0.439c1.26,0,2.546-0.697,3.858-2.092
		c0.193-0.193,0.34-0.29,0.439-0.29C94.935,16.314,95.029,16.464,95.029,16.763z M88.92,15.392c2.484-1.477,3.727-2.663,3.727-3.56
		c0-0.352-0.158-0.527-0.475-0.527c-0.539,0-1.147,0.396-1.824,1.187S89.196,14.249,88.92,15.392z"/>
	<path fill="#7B7B7B" d="M110.049,12.983c-0.305,0-0.637,0.199-0.998,0.598s-0.91,1.292-1.648,2.681
		c-0.973,1.863-1.601,2.924-1.885,3.182s-0.52,0.387-0.708,0.387c-0.691,0-1.037-0.334-1.037-1.002c0-0.281,0.047-0.68,0.141-1.195
		c0.322-1.77,0.483-3.636,0.483-5.599c0-0.223,0.095-0.47,0.286-0.743c0.19-0.271,0.371-0.408,0.541-0.408
		c0.305,0,0.521,0.094,0.65,0.281s0.193,0.565,0.193,1.134c0,0.592-0.176,1.811-0.527,3.656c-0.117,0.609-0.176,0.996-0.176,1.16
		c0,0.094,0.023,0.141,0.07,0.141c0.088,0,0.495-0.7,1.222-2.101c0.732-1.424,1.374-2.426,1.925-3.006s1.157-0.87,1.819-0.87
		c0.527,0,0.957,0.24,1.288,0.721s0.573,1.356,0.725,2.628c0.164,1.447,0.312,2.349,0.444,2.703s0.341,0.531,0.628,0.531
		c0.182,0,0.41-0.064,0.686-0.193c0.047-0.023,0.082-0.035,0.105-0.035c0.252,0,0.378,0.146,0.378,0.439
		c0,0.258-0.173,0.531-0.519,0.822c-0.346,0.289-0.762,0.435-1.248,0.435c-0.498,0-0.883-0.198-1.156-0.593
		c-0.272-0.396-0.488-1.452-0.646-3.169C110.922,13.845,110.577,12.983,110.049,12.983z"/>
	<path fill="#7B7B7B" d="M121.923,16.543c-0.82,1.102-1.632,1.928-2.435,2.479s-1.538,0.826-2.206,0.826
		c-0.451,0-0.841-0.19-1.169-0.571s-0.492-0.87-0.492-1.468c0-1.541,0.688-3.2,2.065-4.979s2.745-2.668,4.104-2.668
		c0.492,0,0.858,0.281,1.099,0.844c0.076,0.188,0.196,0.281,0.36,0.281c0.469,0,0.703,0.182,0.703,0.545
		c0,0.182-0.029,0.431-0.088,0.747c-0.316,1.729-0.475,2.947-0.475,3.656c0,1.418,0.27,2.268,0.809,2.549
		c0.258,0.141,0.387,0.313,0.387,0.519c0,0.182-0.126,0.365-0.378,0.549c-0.252,0.186-0.495,0.277-0.729,0.277
		c-0.451,0-0.823-0.311-1.116-0.932S121.923,17.691,121.923,16.543z M121.387,11.595c-0.773,0-1.673,0.726-2.698,2.175
		c-1.025,1.451-1.538,2.653-1.538,3.608c0,0.674,0.223,1.011,0.668,1.011c0.645,0,1.538-0.65,2.681-1.951s1.714-2.496,1.714-3.586
		C122.213,12.014,121.938,11.595,121.387,11.595z"/>
	<path fill="#7B7B7B" d="M128.963,20.243c-0.879,0-1.554-0.252-2.026-0.756s-0.708-1.21-0.708-2.118
		c0-1.529,0.606-3.143,1.819-4.838c1.213-1.697,2.341-2.545,3.384-2.545c0.475,0,0.883,0.257,1.226,0.77s0.514,1.056,0.514,1.63
		c0,0.346-0.075,0.644-0.224,0.892c-0.149,0.25-0.3,0.374-0.453,0.374c-0.34,0-0.58-0.343-0.721-1.028
		c-0.158-0.738-0.387-1.107-0.686-1.107c-0.609,0-1.33,0.724-2.162,2.171s-1.248,2.669-1.248,3.665s0.565,1.494,1.696,1.494
		c0.861,0,1.875-0.404,3.041-1.213c0.41-0.287,0.712-0.431,0.905-0.431c0.199,0,0.299,0.114,0.299,0.343
		c0,0.445-0.524,1.006-1.573,1.684C131,19.904,129.971,20.243,128.963,20.243z"/>
	<path fill="#7B7B7B" d="M137.128,17.105c2.18-4.025,3.976-6.038,5.388-6.038c0.375,0,0.68,0.214,0.914,0.642
		s0.425,1.377,0.571,2.848c0.146,1.564,0.478,2.695,0.993,3.393c0.264,0.357,0.396,0.621,0.396,0.791
		c0,0.152-0.088,0.293-0.264,0.422s-0.363,0.193-0.563,0.193c-0.457,0-0.861-0.256-1.213-0.77c-0.352-0.512-0.577-1.413-0.677-2.702
		c-0.1-1.219-0.205-2.016-0.316-2.391s-0.296-0.563-0.554-0.563c-0.615,0-1.854,1.608-3.718,4.825
		c-0.557,0.961-0.967,1.59-1.23,1.885c-0.264,0.296-0.504,0.444-0.721,0.444c-0.258,0-0.475-0.076-0.65-0.229
		s-0.264-0.34-0.264-0.563c0-0.164,0.047-0.48,0.141-0.949c0.721-3.721,1.289-7.4,1.705-11.039c0.094-0.85,0.245-1.415,0.453-1.696
		s0.382-0.422,0.523-0.422c0.252,0,0.48,0.103,0.686,0.308s0.308,0.489,0.308,0.853c0,1.078-0.264,2.558-0.791,4.438
		c-0.258,0.932-0.53,2.115-0.817,3.551s-0.431,2.323-0.431,2.663c0,0.07,0.032,0.105,0.097,0.105H137.128z"/>
	<path fill="#7B7B7B" d="M162.591,12.79c-0.199,0.27-0.566,0.876-1.1,1.819c-2.221,3.996-3.463,5.994-3.727,5.994
		c-0.398,0-0.721-0.232-0.967-0.699c-0.246-0.465-0.584-1.7-1.016-3.704c-0.43-2.004-0.795-3.92-1.094-5.748
		c-0.111-0.516-0.219-0.938-0.324-1.266c-0.146-0.439-0.221-0.768-0.221-0.984c0-0.229,0.086-0.435,0.26-0.62
		c0.172-0.184,0.365-0.276,0.576-0.276c0.258,0,0.48,0.198,0.672,0.593c0.189,0.396,0.402,1.355,0.637,2.879
		c0.504,3.311,1.02,5.813,1.547,7.506c1.465-2.338,2.377-3.824,2.734-4.461c0.357-0.635,0.861-1.662,1.512-3.08
		c0.17-0.311,0.404-0.466,0.703-0.466c0.129,0,0.275,0.128,0.439,0.382c0.164,0.256,0.451,0.957,0.861,2.105
		c1.02,2.842,1.713,4.547,2.082,5.115c2.063-3.41,3.262-6.946,3.596-10.608c0-0.082,0.076-0.194,0.232-0.339
		c0.154-0.143,0.303-0.215,0.443-0.215c0.469,0,0.703,0.299,0.703,0.896c0,0.621-0.156,1.551-0.471,2.791
		c-0.313,1.238-0.688,2.381-1.125,3.428c-0.436,1.045-1.17,2.638-2.201,4.776c-0.17,0.346-0.313,0.653-0.43,0.923
		c-0.059,0.111-0.172,0.205-0.34,0.281c-0.166,0.076-0.299,0.114-0.398,0.114c-0.252,0-0.508-0.138-0.766-0.413
		s-0.65-1.082-1.178-2.422c-0.527-1.338-0.908-2.345-1.143-3.019C162.927,13.61,162.761,13.183,162.591,12.79z"/>
	<path fill="#7B7B7B" d="M178.236,15.919c-0.75,1.26-1.518,2.235-2.303,2.927s-1.516,1.037-2.189,1.037
		c-0.387,0-0.781-0.226-1.182-0.677c-0.402-0.451-0.602-1.146-0.602-2.083c0-0.768,0.184-1.898,0.553-3.393
		c0.311-1.248,0.467-2.124,0.467-2.628c0.17-0.352,0.436-0.527,0.799-0.527c0.246,0,0.443,0.087,0.59,0.259
		c0.146,0.174,0.219,0.354,0.219,0.541c0,0.41-0.143,0.993-0.43,1.749c-0.545,1.471-0.818,2.733-0.818,3.788
		c0,0.961,0.223,1.441,0.668,1.441c0.568,0,1.293-0.483,2.172-1.45s1.631-2.314,2.258-4.043c0.246-0.691,0.447-1.141,0.602-1.349
		c0.156-0.208,0.365-0.313,0.629-0.313c0.398,0,0.598,0.264,0.598,0.791c0,0.064-0.055,0.278-0.166,0.642
		c-0.352,1.283-0.527,2.496-0.527,3.639c0,1.371,0.225,2.259,0.676,2.663c0.234,0.217,0.352,0.393,0.352,0.527
		c0,0.164-0.119,0.313-0.355,0.448c-0.238,0.135-0.453,0.202-0.646,0.202c-0.41,0-0.74-0.305-0.992-0.914s-0.379-1.509-0.379-2.698
		v-0.29C178.226,16.115,178.23,16.019,178.236,15.919z"/>
	<path fill="#7B7B7B" d="M188.994,12.983c-0.305,0-0.639,0.199-0.998,0.598c-0.361,0.398-0.91,1.292-1.648,2.681
		c-0.973,1.863-1.602,2.924-1.885,3.182c-0.285,0.258-0.52,0.387-0.707,0.387c-0.691,0-1.037-0.334-1.037-1.002
		c0-0.281,0.047-0.68,0.141-1.195c0.322-1.77,0.482-3.636,0.482-5.599c0-0.223,0.096-0.47,0.285-0.743
		c0.191-0.271,0.371-0.408,0.541-0.408c0.305,0,0.521,0.094,0.65,0.281s0.193,0.565,0.193,1.134c0,0.592-0.176,1.811-0.527,3.656
		c-0.117,0.609-0.176,0.996-0.176,1.16c0,0.094,0.023,0.141,0.07,0.141c0.088,0,0.496-0.7,1.223-2.101
		c0.732-1.424,1.373-2.426,1.924-3.006s1.158-0.87,1.82-0.87c0.527,0,0.955,0.24,1.287,0.721c0.33,0.48,0.572,1.356,0.725,2.628
		c0.164,1.447,0.313,2.349,0.443,2.703c0.133,0.354,0.342,0.531,0.629,0.531c0.182,0,0.41-0.064,0.686-0.193
		c0.047-0.023,0.082-0.035,0.105-0.035c0.252,0,0.379,0.146,0.379,0.439c0,0.258-0.174,0.531-0.52,0.822
		c-0.346,0.289-0.762,0.435-1.248,0.435c-0.498,0-0.883-0.198-1.156-0.593c-0.271-0.396-0.486-1.452-0.645-3.169
		C189.867,13.845,189.521,12.983,188.994,12.983z"/>
	<path fill="#7B7B7B" d="M199.365,17.729c0-0.381-0.469-0.814-1.406-1.301c-1.189-0.609-1.994-1.097-2.414-1.464
		c-0.418-0.365-0.627-0.774-0.627-1.226c0-1.166,0.584-2.133,1.752-2.9c1.17-0.768,2.123-1.151,2.861-1.151
		c0.475,0,0.818,0.082,1.033,0.246c0.213,0.164,0.32,0.448,0.32,0.853c0,0.182-0.078,0.337-0.232,0.466
		c-0.156,0.129-0.277,0.193-0.365,0.193c-0.064,0-0.189-0.044-0.377-0.132c-0.188-0.082-0.311-0.123-0.369-0.123
		c-0.293,0-0.889,0.214-1.785,0.642s-1.344,0.911-1.344,1.45c0,0.328,0.158,0.626,0.475,0.892c0.316,0.268,0.885,0.594,1.705,0.98
		c0.662,0.316,1.189,0.654,1.586,1.016c0.395,0.359,0.594,0.783,0.594,1.27c0,0.896-0.619,1.599-1.855,2.105
		c-1.236,0.506-2.416,0.76-3.541,0.76c-0.949,0-1.424-0.322-1.424-0.967c0-0.223,0.105-0.387,0.32-0.492
		c0.213-0.105,0.43-0.158,0.646-0.158c0.088,0,0.254,0.029,0.5,0.088c0.24,0.059,0.398,0.088,0.475,0.088
		c0.65,0,1.348-0.108,2.092-0.325S199.189,18.052,199.365,17.729z"/>
	<path fill="#7B7B7B" d="M204.98,20.243c-0.879,0-1.555-0.252-2.025-0.756c-0.473-0.504-0.707-1.21-0.707-2.118
		c0-1.529,0.605-3.143,1.818-4.838c1.213-1.697,2.342-2.545,3.385-2.545c0.475,0,0.883,0.257,1.225,0.77
		c0.344,0.513,0.516,1.056,0.516,1.63c0,0.346-0.076,0.644-0.225,0.892c-0.15,0.25-0.301,0.374-0.453,0.374
		c-0.34,0-0.58-0.343-0.721-1.028c-0.158-0.738-0.387-1.107-0.686-1.107c-0.609,0-1.33,0.724-2.162,2.171s-1.248,2.669-1.248,3.665
		s0.566,1.494,1.697,1.494c0.861,0,1.875-0.404,3.041-1.213c0.41-0.287,0.711-0.431,0.904-0.431c0.199,0,0.299,0.114,0.299,0.343
		c0,0.445-0.523,1.006-1.572,1.684C207.017,19.904,205.988,20.243,204.98,20.243z"/>
	<path fill="#7B7B7B" d="M213.146,17.105c2.18-4.025,3.975-6.038,5.387-6.038c0.375,0,0.68,0.214,0.914,0.642
		s0.426,1.377,0.572,2.848c0.146,1.564,0.477,2.695,0.992,3.393c0.264,0.357,0.396,0.621,0.396,0.791
		c0,0.152-0.088,0.293-0.264,0.422s-0.363,0.193-0.563,0.193c-0.457,0-0.861-0.256-1.213-0.77c-0.352-0.512-0.578-1.413-0.678-2.702
		c-0.1-1.219-0.205-2.016-0.316-2.391s-0.295-0.563-0.553-0.563c-0.615,0-1.855,1.608-3.719,4.825
		c-0.557,0.961-0.967,1.59-1.23,1.885c-0.264,0.296-0.504,0.444-0.721,0.444c-0.258,0-0.475-0.076-0.65-0.229
		s-0.264-0.34-0.264-0.563c0-0.164,0.047-0.48,0.141-0.949c0.721-3.721,1.289-7.4,1.705-11.039c0.094-0.85,0.244-1.415,0.453-1.696
		c0.207-0.281,0.383-0.422,0.523-0.422c0.252,0,0.48,0.103,0.686,0.308s0.307,0.489,0.307,0.853c0,1.078-0.264,2.558-0.791,4.438
		c-0.258,0.932-0.529,2.115-0.816,3.551s-0.432,2.323-0.432,2.663c0,0.07,0.033,0.105,0.098,0.105H213.146z"/>
	<path fill="#7B7B7B" d="M231.919,20.146c-0.041,0.146-0.152,0.27-0.334,0.369s-0.363,0.149-0.545,0.149
		c-0.598,0-0.896-0.437-0.896-1.31c0-0.416,0.137-1.594,0.412-3.533c0.17-1.189,0.256-2.092,0.256-2.707
		c0-0.105-0.123-0.243-0.369-0.413c-0.252-0.164-0.379-0.325-0.379-0.483c0-0.252,0.191-0.524,0.572-0.817
		c0.293-0.229,0.473-0.483,0.539-0.765c0.068-0.281,0.146-0.671,0.234-1.169c0.299-1.816,0.766-3.126,1.4-3.929
		c0.637-0.803,1.447-1.204,2.432-1.204c0.521,0,0.963,0.178,1.326,0.532s0.545,0.795,0.545,1.322c0,0.428-0.102,0.913-0.303,1.455
		c-0.203,0.542-0.432,0.813-0.689,0.813c-0.193,0-0.291-0.097-0.291-0.29l0.063-0.853c0-1.131-0.316-1.696-0.949-1.696
		c-0.686,0-1.254,0.673-1.705,2.017c-0.451,1.346-0.678,2.439-0.678,3.283c0,0.27,0.176,0.404,0.527,0.404
		c1.529,0,2.43-0.006,2.703-0.018c0.271-0.012,0.408,0.103,0.408,0.343s-0.148,0.424-0.443,0.55
		c-0.297,0.126-0.941,0.238-1.938,0.338c-0.85,0.088-1.33,0.161-1.441,0.22c-0.393,2.18-0.59,4.122-0.59,5.827
		c0,0.51,0.023,0.888,0.07,1.134C231.898,19.944,231.919,20.088,231.919,20.146z"/>
	<path fill="#7B7B7B" d="M238.554,17.791c0,0.445,0.063,0.946,0.186,1.503c0.023,0.105,0.035,0.193,0.035,0.264
		c0,0.105-0.098,0.241-0.291,0.409c-0.193,0.166-0.398,0.25-0.615,0.25c-0.568,0-0.852-0.521-0.852-1.564
		c0-1.078,0.223-2.783,0.668-5.115c0.152-0.814,0.229-1.315,0.229-1.503c0-0.369,0.066-0.684,0.201-0.944s0.326-0.392,0.572-0.392
		c0.299,0,0.533,0.072,0.707,0.216c0.172,0.144,0.26,0.303,0.26,0.479s-0.041,0.407-0.123,0.694
		c-0.439,1.547-0.713,2.654-0.818,3.322S238.554,16.871,238.554,17.791z M239.707,7.974c-0.123,0-0.217-0.132-0.281-0.396
		c-0.023-0.082-0.057-0.173-0.098-0.272c-0.158-0.381-0.236-0.712-0.236-0.993c0-0.234,0.139-0.473,0.416-0.717
		c0.279-0.242,0.588-0.364,0.928-0.364c0.17,0,0.361,0.065,0.572,0.198c0.211,0.131,0.316,0.259,0.316,0.382
		c0,0.193-0.072,0.521-0.217,0.984c-0.143,0.463-0.371,0.775-0.686,0.937C240.109,7.894,239.871,7.974,239.707,7.974z"/>
	<path fill="#7B7B7B" d="M248.064,12.983c-0.305,0-0.637,0.199-0.998,0.598c-0.359,0.398-0.908,1.292-1.646,2.681
		c-0.973,1.863-1.602,2.924-1.887,3.182c-0.283,0.258-0.52,0.387-0.707,0.387c-0.691,0-1.037-0.334-1.037-1.002
		c0-0.281,0.047-0.68,0.141-1.195c0.322-1.77,0.484-3.636,0.484-5.599c0-0.223,0.094-0.47,0.285-0.743
		c0.189-0.271,0.371-0.408,0.541-0.408c0.305,0,0.521,0.094,0.65,0.281s0.193,0.565,0.193,1.134c0,0.592-0.176,1.811-0.527,3.656
		c-0.117,0.609-0.176,0.996-0.176,1.16c0,0.094,0.023,0.141,0.07,0.141c0.088,0,0.494-0.7,1.221-2.101
		c0.732-1.424,1.375-2.426,1.926-3.006s1.156-0.87,1.818-0.87c0.527,0,0.957,0.24,1.287,0.721c0.332,0.48,0.574,1.356,0.727,2.628
		c0.164,1.447,0.311,2.349,0.443,2.703c0.131,0.354,0.342,0.531,0.629,0.531c0.182,0,0.41-0.064,0.686-0.193
		c0.047-0.023,0.082-0.035,0.105-0.035c0.252,0,0.377,0.146,0.377,0.439c0,0.258-0.172,0.531-0.518,0.822
		c-0.346,0.289-0.762,0.435-1.248,0.435c-0.498,0-0.885-0.198-1.156-0.593c-0.273-0.396-0.488-1.452-0.646-3.169
		C248.937,13.845,248.591,12.983,248.064,12.983z"/>
	<path fill="#7B7B7B" d="M260.316,16.104c-0.785,1.26-1.617,2.231-2.496,2.914s-1.688,1.023-2.426,1.023
		c-0.568,0-1.018-0.219-1.35-0.654c-0.33-0.437-0.496-1.019-0.496-1.745c0-1.482,0.602-3.003,1.807-4.562
		c1.203-1.559,2.504-2.338,3.898-2.338c0.609,0,1.174,0.261,1.695,0.782l1.23-5.748c0.088-0.393,0.25-0.656,0.488-0.791
		c0.236-0.135,0.424-0.202,0.559-0.202c0.41,0,0.615,0.363,0.615,1.09c0,0.129-0.135,0.609-0.404,1.441
		c-0.428,1.289-0.834,2.873-1.219,4.75c-0.383,1.879-0.574,3.386-0.574,4.522c0,1.172,0.254,1.758,0.764,1.758
		c0.328,0,0.668-0.108,1.02-0.325c0.146-0.105,0.285-0.158,0.414-0.158c0.188,0,0.281,0.123,0.281,0.369
		c0,0.299-0.264,0.645-0.787,1.037c-0.525,0.393-1.063,0.589-1.613,0.589c-0.967,0-1.449-0.932-1.449-2.795
		C260.273,16.745,260.287,16.426,260.316,16.104z M259.166,11.99c-0.949,0-1.891,0.644-2.822,1.93s-1.396,2.474-1.396,3.563
		c0,0.732,0.242,1.099,0.729,1.099c0.457,0,1.012-0.24,1.666-0.721c0.652-0.48,1.326-1.246,2.018-2.299
		c0.691-1.051,1.037-1.841,1.037-2.368c0-0.258-0.119-0.522-0.357-0.796C259.802,12.127,259.511,11.99,259.166,11.99z"/>
	<path fill="#7B7B7B" d="M273.439,16.763c0,0.598-0.529,1.318-1.588,2.162c-1.057,0.844-2.148,1.266-3.273,1.266
		c-0.943,0-1.672-0.278-2.184-0.835c-0.514-0.557-0.77-1.333-0.77-2.329c0-1.676,0.566-3.27,1.697-4.781s2.367-2.268,3.709-2.268
		c0.439,0,0.797,0.144,1.076,0.431c0.277,0.287,0.418,0.633,0.418,1.037c0,0.902-0.443,1.767-1.328,2.593s-2.068,1.638-3.551,2.435
		c-0.305,0.158-0.457,0.363-0.457,0.615c0,0.486,0.141,0.876,0.422,1.169s0.697,0.439,1.248,0.439c1.26,0,2.547-0.697,3.859-2.092
		c0.193-0.193,0.34-0.29,0.439-0.29C273.345,16.314,273.439,16.464,273.439,16.763z M267.33,15.392
		c2.484-1.477,3.727-2.663,3.727-3.56c0-0.352-0.158-0.527-0.475-0.527c-0.539,0-1.146,0.396-1.824,1.187
		C268.082,13.282,267.605,14.249,267.33,15.392z"/>
	<path fill="#7B7B7B" d="M281.261,12.983c-0.305,0-0.639,0.199-0.998,0.598c-0.361,0.398-0.91,1.292-1.648,2.681
		c-0.973,1.863-1.602,2.924-1.885,3.182c-0.285,0.258-0.52,0.387-0.707,0.387c-0.691,0-1.037-0.334-1.037-1.002
		c0-0.281,0.047-0.68,0.141-1.195c0.322-1.77,0.482-3.636,0.482-5.599c0-0.223,0.096-0.47,0.285-0.743
		c0.191-0.271,0.371-0.408,0.541-0.408c0.305,0,0.521,0.094,0.65,0.281s0.193,0.565,0.193,1.134c0,0.592-0.176,1.811-0.527,3.656
		c-0.117,0.609-0.176,0.996-0.176,1.16c0,0.094,0.023,0.141,0.07,0.141c0.088,0,0.496-0.7,1.223-2.101
		c0.732-1.424,1.373-2.426,1.924-3.006s1.158-0.87,1.82-0.87c0.527,0,0.955,0.24,1.287,0.721c0.33,0.48,0.572,1.356,0.725,2.628
		c0.164,1.447,0.313,2.349,0.443,2.703c0.133,0.354,0.342,0.531,0.629,0.531c0.182,0,0.41-0.064,0.686-0.193
		c0.047-0.023,0.082-0.035,0.105-0.035c0.252,0,0.379,0.146,0.379,0.439c0,0.258-0.174,0.531-0.52,0.822
		c-0.346,0.289-0.762,0.435-1.248,0.435c-0.498,0-0.883-0.198-1.156-0.593c-0.271-0.396-0.486-1.452-0.645-3.169
		C282.134,13.845,281.789,12.983,281.261,12.983z"/>
	<path fill="#7B7B7B" d="M303.066,9.934c0-0.779-0.201-1.255-0.605-1.428s-0.908-0.26-1.512-0.26c-1.242,0-2.369,0.245-3.381,0.734
		c-1.01,0.489-1.516,1.076-1.516,1.762c0,0.492,0.225,0.922,0.672,1.287c0.449,0.367,1.426,0.77,2.932,1.209
		c1.459,0.422,2.498,0.857,3.115,1.305c0.619,0.449,0.928,0.989,0.928,1.622c0,0.639-0.43,1.329-1.291,2.069
		c-0.861,0.742-1.9,1.306-3.117,1.692c-1.215,0.387-2.248,0.58-3.098,0.58c-0.709,0-1.246-0.083-1.613-0.251
		c-0.365-0.166-0.549-0.376-0.549-0.628c0-0.176,0.055-0.392,0.162-0.646c0.109-0.256,0.219-0.383,0.33-0.383
		c0.117,0,0.238,0.021,0.361,0.062c0.627,0.234,1.248,0.352,1.863,0.352c1.107,0,2.281-0.323,3.523-0.972
		c1.242-0.646,1.863-1.252,1.863-1.814c0-0.24-0.189-0.471-0.566-0.689c-0.379-0.221-1.334-0.573-2.869-1.06
		c-1.904-0.604-3.076-1.19-3.512-1.763c-0.438-0.57-0.654-1.173-0.654-1.806c0-1.219,0.699-2.202,2.1-2.948
		c1.4-0.748,2.865-1.121,4.395-1.121c1.014,0,1.793,0.172,2.338,0.514c0.545,0.344,0.818,0.723,0.818,1.139
		c0,0.199-0.063,0.489-0.186,0.87S303.564,9.934,303.066,9.934z"/>
	<path fill="#7B7B7B" d="M307.583,17.791c0,0.445,0.063,0.946,0.186,1.503c0.023,0.105,0.035,0.193,0.035,0.264
		c0,0.105-0.098,0.241-0.291,0.409c-0.193,0.166-0.398,0.25-0.615,0.25c-0.568,0-0.852-0.521-0.852-1.564
		c0-1.078,0.223-2.783,0.668-5.115c0.152-0.814,0.229-1.315,0.229-1.503c0-0.369,0.066-0.684,0.201-0.944s0.326-0.392,0.572-0.392
		c0.299,0,0.533,0.072,0.707,0.216c0.172,0.144,0.26,0.303,0.26,0.479s-0.041,0.407-0.123,0.694
		c-0.439,1.547-0.713,2.654-0.818,3.322S307.583,16.871,307.583,17.791z M308.736,7.974c-0.123,0-0.217-0.132-0.281-0.396
		c-0.023-0.082-0.057-0.173-0.098-0.272c-0.158-0.381-0.236-0.712-0.236-0.993c0-0.234,0.139-0.473,0.416-0.717
		c0.279-0.242,0.588-0.364,0.928-0.364c0.17,0,0.361,0.065,0.572,0.198c0.211,0.131,0.316,0.259,0.316,0.382
		c0,0.193-0.072,0.521-0.217,0.984c-0.143,0.463-0.371,0.775-0.686,0.937C309.138,7.894,308.9,7.974,308.736,7.974z"/>
	<path fill="#7B7B7B" d="M318.632,16.763c0,0.598-0.529,1.318-1.588,2.162c-1.057,0.844-2.148,1.266-3.273,1.266
		c-0.943,0-1.672-0.278-2.184-0.835c-0.514-0.557-0.77-1.333-0.77-2.329c0-1.676,0.566-3.27,1.697-4.781s2.367-2.268,3.709-2.268
		c0.439,0,0.797,0.144,1.076,0.431c0.277,0.287,0.418,0.633,0.418,1.037c0,0.902-0.443,1.767-1.328,2.593s-2.068,1.638-3.551,2.435
		c-0.305,0.158-0.457,0.363-0.457,0.615c0,0.486,0.141,0.876,0.422,1.169s0.697,0.439,1.248,0.439c1.26,0,2.547-0.697,3.859-2.092
		c0.193-0.193,0.34-0.29,0.439-0.29C318.539,16.314,318.632,16.464,318.632,16.763z M312.523,15.392
		c2.484-1.477,3.727-2.663,3.727-3.56c0-0.352-0.158-0.527-0.475-0.527c-0.539,0-1.146,0.396-1.824,1.187
		C313.275,13.282,312.798,14.249,312.523,15.392z"/>
	<path fill="#7B7B7B" d="M329.109,17.105c2.18-4.025,3.975-6.038,5.387-6.038c0.375,0,0.68,0.214,0.914,0.642
		s0.426,1.377,0.572,2.848c0.146,1.564,0.477,2.695,0.992,3.393c0.264,0.357,0.396,0.621,0.396,0.791
		c0,0.152-0.088,0.293-0.264,0.422s-0.363,0.193-0.563,0.193c-0.457,0-0.861-0.256-1.213-0.77c-0.352-0.512-0.578-1.413-0.678-2.702
		c-0.1-1.219-0.205-2.016-0.316-2.391s-0.295-0.563-0.553-0.563c-0.615,0-1.855,1.608-3.719,4.825
		c-0.557,0.961-0.967,1.59-1.23,1.885c-0.264,0.296-0.504,0.444-0.721,0.444c-0.258,0-0.475-0.076-0.65-0.229
		s-0.264-0.34-0.264-0.563c0-0.164,0.047-0.48,0.141-0.949c0.721-3.721,1.289-7.4,1.705-11.039c0.094-0.85,0.244-1.415,0.453-1.696
		c0.207-0.281,0.383-0.422,0.523-0.422c0.252,0,0.48,0.103,0.686,0.308s0.307,0.489,0.307,0.853c0,1.078-0.264,2.558-0.791,4.438
		c-0.258,0.932-0.529,2.115-0.816,3.551s-0.432,2.323-0.432,2.663c0,0.07,0.033,0.105,0.098,0.105H329.109z"/>
	<path fill="#7B7B7B" d="M340.613,17.791c0,0.445,0.063,0.946,0.186,1.503c0.023,0.105,0.035,0.193,0.035,0.264
		c0,0.105-0.098,0.241-0.291,0.409c-0.193,0.166-0.398,0.25-0.615,0.25c-0.568,0-0.852-0.521-0.852-1.564
		c0-1.078,0.223-2.783,0.668-5.115c0.152-0.814,0.229-1.315,0.229-1.503c0-0.369,0.066-0.684,0.201-0.944s0.326-0.392,0.572-0.392
		c0.299,0,0.533,0.072,0.707,0.216c0.172,0.144,0.26,0.303,0.26,0.479s-0.041,0.407-0.123,0.694
		c-0.439,1.547-0.713,2.654-0.818,3.322S340.613,16.871,340.613,17.791z M341.765,7.974c-0.123,0-0.217-0.132-0.281-0.396
		c-0.023-0.082-0.057-0.173-0.098-0.272c-0.158-0.381-0.236-0.712-0.236-0.993c0-0.234,0.139-0.473,0.416-0.717
		c0.279-0.242,0.588-0.364,0.928-0.364c0.17,0,0.361,0.065,0.572,0.198c0.211,0.131,0.316,0.259,0.316,0.382
		c0,0.193-0.072,0.521-0.217,0.984c-0.143,0.463-0.371,0.775-0.686,0.937C342.167,7.894,341.929,7.974,341.765,7.974z"/>
	<path fill="#7B7B7B" d="M351.662,16.763c0,0.598-0.529,1.318-1.588,2.162c-1.057,0.844-2.148,1.266-3.273,1.266
		c-0.943,0-1.672-0.278-2.184-0.835c-0.514-0.557-0.77-1.333-0.77-2.329c0-1.676,0.566-3.27,1.697-4.781s2.367-2.268,3.709-2.268
		c0.439,0,0.797,0.144,1.076,0.431c0.277,0.287,0.418,0.633,0.418,1.037c0,0.902-0.443,1.767-1.328,2.593s-2.068,1.638-3.551,2.435
		c-0.305,0.158-0.457,0.363-0.457,0.615c0,0.486,0.141,0.876,0.422,1.169s0.697,0.439,1.248,0.439c1.26,0,2.547-0.697,3.859-2.092
		c0.193-0.193,0.34-0.29,0.439-0.29C351.568,16.314,351.662,16.464,351.662,16.763z M345.552,15.392
		c2.484-1.477,3.727-2.663,3.727-3.56c0-0.352-0.158-0.527-0.475-0.527c-0.539,0-1.146,0.396-1.824,1.187
		C346.304,13.282,345.828,14.249,345.552,15.392z"/>
	<path fill="#7B7B7B" d="M355.273,16.253c0.059-0.105,0.129-0.252,0.211-0.439c0.398-0.914,0.766-1.63,1.1-2.149
		c0.334-0.518,0.701-1.015,1.102-1.489c0.402-0.475,0.768-0.835,1.1-1.081c0.33-0.246,0.631-0.418,0.9-0.514
		c0.27-0.098,0.531-0.146,0.783-0.146c0.51,0,0.926,0.153,1.248,0.462c0.322,0.307,0.482,0.666,0.482,1.076
		c0,0.182-0.057,0.346-0.172,0.492c-0.113,0.146-0.287,0.22-0.521,0.22c-0.246,0-0.473-0.108-0.678-0.325
		c-0.211-0.217-0.43-0.325-0.658-0.325c-0.609,0-1.453,0.738-2.531,2.215s-1.734,3.103-1.969,4.878
		c-0.059,0.457-0.17,0.759-0.334,0.905s-0.396,0.22-0.695,0.22c-0.287,0-0.494-0.214-0.623-0.642s-0.193-1.148-0.193-2.162
		c0-0.275,0.014-0.882,0.043-1.819c0.035-1.107,0.105-2.001,0.211-2.681c0.018-0.111,0.047-0.372,0.088-0.782
		c0.041-0.451,0.092-0.765,0.154-0.94c0.061-0.176,0.188-0.34,0.377-0.492c0.191-0.152,0.398-0.229,0.621-0.229
		c0.217,0,0.379,0.069,0.486,0.206c0.109,0.139,0.164,0.286,0.164,0.444c0,0.229-0.059,0.551-0.176,0.967
		c-0.135,0.463-0.215,0.782-0.238,0.958c-0.018,0.199-0.049,0.407-0.096,0.624c-0.059,0.252-0.117,0.914-0.176,1.986l-0.01,0.325
		V16.253z"/>
</g>
</svg>
