<?xml version="1.0" encoding="utf-8"?>
<!-- Generator: Adobe Illustrator 15.1.0, SVG Export Plug-In . SVG Version: 6.00 Build 0)  -->
<!DOCTYPE svg PUBLIC "-//W3C//DTD SVG 1.1//EN" "http://www.w3.org/Graphics/SVG/1.1/DTD/svg11.dtd">
<svg version="1.1" id="Layer_1" xmlns="http://www.w3.org/2000/svg" xmlns:xlink="http://www.w3.org/1999/xlink" x="0px" y="0px"
	 width="43.307px" height="40px" viewBox="0 0 43.307 40" enable-background="new 0 0 43.307 40" xml:space="preserve">
<g id="Definitief_header_met_koord_1_">
	<path fill="#6E2771" d="M24.935,4.4c-1.438,0-2.601,1.164-2.601,2.601s1.163,2.601,2.601,2.601c1.437,0,2.601-1.166,2.601-2.601
		C27.535,5.564,26.371,4.4,24.935,4.4z M24.935,8.148c-0.636,0-1.149-0.514-1.149-1.148s0.515-1.15,1.149-1.15s1.15,0.516,1.15,1.15
		C26.085,7.634,25.571,8.148,24.935,8.148z"/>
	
		<radialGradient id="SVGID_1_" cx="13.2634" cy="-4.6719" r="19.1824" gradientTransform="matrix(1 0 0 -1 8.3398 16.04)" gradientUnits="userSpaceOnUse">
		<stop  offset="0" style="stop-color:#B169A7"/>
		<stop  offset="0.197" style="stop-color:#AF66A5"/>
		<stop  offset="0.3888" style="stop-color:#A95D9F"/>
		<stop  offset="0.5783" style="stop-color:#9E4D97"/>
		<stop  offset="0.7658" style="stop-color:#91368F"/>
		<stop  offset="0.7678" style="stop-color:#91368E"/>
	</radialGradient>
	<path fill="url(#SVGID_1_)" stroke="#6E2771" stroke-miterlimit="10" d="M40.968,25.432l-0.055-0.047
		c0.531-0.682,0.842-1.514,0.842-2.4c0-1.223-0.612-2.451-1.796-3.213c2.303-8.433-6.278-15.1-15.688-10.677
		c-5.689-9.672-18.444-8.188-19.66,2.667c-0.14-0.02-0.277-0.041-0.424-0.041c-1.559,0-2.826,1.165-2.826,2.596v6.021
		c0,0.797,0.384,1.531,1.054,2.014c0.479,0.344,0.905,0.592,1.327,0.607c0,0-0.047,3.234,0.037,3.547
		c0.042,0.208,0.088,1.047,0.917,1.739c1.546,0.901,3.364,0.047,3.364,0.047c2.964,6.792,6.881,10.479,6.881,10.479
		s9.891-2.762,17.64-9.135c0.077-0.029,0.16-0.049,0.234-0.084c0.404,0.219,0.866,0.354,1.366,0.354
		c0.979,0,1.843-0.479,2.334-1.197l0.457,0.443c0.511,0.484,1.245,0.764,2.019,0.768h0.011c1.595,0,2.845-1.145,2.845-2.605
		C41.845,26.631,41.559,25.984,40.968,25.432z"/>
	<g>
		<path fill="#FFFFFF" d="M10.379,14.283v5.644c0,0.306-0.334,0.581-0.735,0.608c-0.249,0.016-0.483-0.07-0.615-0.209l-4.027-4.148
			v4.064c0,0.32-0.369,0.613-0.813,0.641c-0.448,0.029-0.826-0.219-0.826-0.543v-6.021c0-0.324,0.378-0.597,0.826-0.597
			c0.286,0,0.515,0.093,0.657,0.249l4.053,4.264v-3.942c0-0.308,0.342-0.567,0.746-0.565C10.045,13.725,10.379,13.98,10.379,14.283z
			"/>
		<path fill="#FFFFFF" d="M13.444,18.547l-0.741,1.426c-0.109,0.208-0.346,0.387-0.667,0.408c-0.387,0.025-0.712-0.208-0.712-0.51
			c0-0.057,0.013-0.135,0.051-0.205l2.886-5.6c0.07-0.131,0.261-0.338,0.627-0.338c0.362,0,0.548,0.205,0.617,0.336l2.663,5.215
			c0.032,0.063,0.045,0.135,0.045,0.188c0,0.282-0.287,0.537-0.631,0.56c-0.289,0.019-0.503-0.125-0.604-0.313l-0.69-1.3
			L13.444,18.547z M14.886,15.512l-0.974,2.008l1.926-0.07L14.886,15.512z"/>
		<path fill="#FFFFFF" d="M21.857,18.511l-1.623-2.399v3.236c0,0.276-0.272,0.525-0.604,0.547s-0.61-0.195-0.61-0.475v-5.178
			c0-0.278,0.279-0.512,0.61-0.512c0.267,0,0.435,0.125,0.541,0.284l2.181,3.298l2.084-3.309c0.096-0.152,0.25-0.271,0.487-0.271
			c0.294,0,0.538,0.219,0.538,0.479v4.829c0,0.261-0.244,0.495-0.538,0.514c-0.295,0.019-0.546-0.187-0.546-0.45v-3.095l-1.535,2.45
			c-0.1,0.16-0.289,0.257-0.49,0.268C22.152,18.738,21.96,18.662,21.857,18.511z"/>
		<path fill="#FFFFFF" d="M27.629,16.119l1.657-0.045c0.238-0.006,0.437,0.172,0.437,0.396s-0.197,0.415-0.437,0.424l-1.657,0.061
			v1.508l2.306-0.124c0.246-0.013,0.438,0.159,0.438,0.39c0,0.229-0.191,0.424-0.438,0.44l-2.827,0.179
			c-0.291,0.018-0.528-0.182-0.528-0.447v-4.621c0-0.265,0.237-0.48,0.528-0.48l2.734-0.001c0.246,0,0.439,0.183,0.439,0.414
			s-0.193,0.416-0.439,0.417l-2.213,0.021V16.119z"/>
		<path fill="#FFFFFF" d="M32.978,14.49c-0.66,0.006-0.909,0.312-0.909,0.623c0,1.019,2.839,0.479,2.839,2.358
			c0,0.917-0.649,1.53-1.93,1.612c-0.949,0.063-1.723-0.354-2.043-0.83c-0.042-0.061-0.067-0.139-0.067-0.219
			c0-0.235,0.199-0.434,0.438-0.444c0.181-0.008,0.277,0.081,0.358,0.155c0.341,0.313,0.766,0.552,1.313,0.521
			c0.71-0.039,1.05-0.285,1.05-0.755c0-1.11-2.902-0.489-2.902-2.385c0-0.778,0.58-1.438,1.854-1.438
			c0.78,0.002,1.446,0.281,1.751,0.709c0.044,0.067,0.074,0.15,0.074,0.24c0,0.219-0.183,0.402-0.409,0.406
			c-0.106,0.001-0.214-0.057-0.328-0.162C33.827,14.658,33.425,14.486,32.978,14.49z"/>
	</g>
	<g>
		<path fill="#FFFFFF" d="M18.747,24.861l1.514-0.063c0.229-0.009,0.422,0.154,0.422,0.364c0,0.208-0.192,0.386-0.422,0.393
			l-1.514,0.044v1.333l2.143-0.021c0.244-0.002,0.438,0.169,0.438,0.388c0,0.218-0.193,0.391-0.438,0.391l-2.596-0.004
			c-0.244-0.002-0.441-0.188-0.441-0.415v-3.979c0-0.228,0.197-0.428,0.441-0.445l2.504-0.184c0.243-0.018,0.439,0.143,0.439,0.36
			c0,0.219-0.196,0.403-0.439,0.418l-2.049,0.126v1.295H18.747z"/>
		<path fill="#FFFFFF" d="M23.975,27.47l-2.005-4.331c-0.025-0.052-0.033-0.097-0.033-0.166c0-0.241,0.224-0.454,0.498-0.476
			c0.254-0.018,0.412,0.108,0.465,0.228l1.568,3.511l1.641-3.734c0.059-0.125,0.232-0.29,0.516-0.312
			c0.313-0.022,0.57,0.169,0.57,0.43c0,0.075-0.011,0.123-0.04,0.182l-2.187,4.665c-0.073,0.158-0.223,0.292-0.5,0.292
			C24.195,27.758,24.046,27.624,23.975,27.47z"/>
		<path fill="#FFFFFF" d="M29.189,24.438l2.032-0.086c0.312-0.012,0.568,0.178,0.568,0.42c0,0.243-0.257,0.449-0.568,0.458
			l-2.032,0.063v1.54l2.883-0.028c0.328-0.002,0.59,0.197,0.59,0.451s-0.262,0.455-0.59,0.455l-3.486-0.008
			c-0.328,0-0.594-0.215-0.594-0.479v-4.591c0-0.263,0.264-0.497,0.594-0.522l3.361-0.245c0.326-0.022,0.59,0.16,0.59,0.414
			s-0.263,0.471-0.59,0.49l-2.758,0.169V24.438z"/>
		<path fill="#FFFFFF" d="M35.1,25.386v1.876c0,0.29-0.315,0.522-0.702,0.522c-0.379,0-0.688-0.232-0.688-0.517v-5.016
			c0-0.284,0.31-0.537,0.688-0.565l2.353-0.17c1.749-0.128,2.765,0.712,2.765,1.787c0,0.904-0.777,1.802-2.035,1.95l1.955,1.658
			c0.121,0.113,0.162,0.228,0.162,0.332c0,0.306-0.352,0.551-0.779,0.551c-0.228-0.002-0.464-0.076-0.594-0.199l-2.326-2.233
			L35.1,25.386z M35.1,22.577v1.887l1.678-0.064c0.793-0.03,1.143-0.519,1.143-1.014c0-0.505-0.35-0.96-1.183-0.91L35.1,22.577z"/>
		<path fill="#FFFFFF" d="M6.38,27.039c0.001,0.184-0.146,0.325-0.328,0.316c-0.179-0.007-0.324-0.161-0.325-0.341l-0.014-3.188
			c-0.001-0.182,0.143-0.335,0.321-0.344l1.84-0.104c0.181-0.009,0.325,0.122,0.325,0.297C8.201,23.852,8.057,23.994,7.877,24
			l-1.51,0.063l0.004,1.06l1.114-0.014c0.168-0.002,0.311,0.133,0.312,0.299c0.001,0.167-0.139,0.305-0.31,0.303l-1.113-0.004
			L6.38,27.039z"/>
		<path fill="#FFFFFF" d="M8.653,25.342c-0.006-1.379,0.586-2.081,1.687-2.156c1.175-0.078,1.885,0.609,1.892,2.139
			c0.006,1.509-0.696,2.217-1.873,2.147C9.258,27.411,8.659,26.701,8.653,25.342 M9.275,25.339c0.005,0.977,0.354,1.47,1.082,1.497
			c0.759,0.031,1.144-0.466,1.14-1.509c-0.006-1.048-0.396-1.541-1.153-1.506C9.615,23.857,9.271,24.354,9.275,25.339"/>
		<path fill="#FFFFFF" d="M13.913,25.839l0.006,1.392c0,0.215-0.186,0.379-0.411,0.367s-0.405-0.192-0.406-0.401l-0.017-3.706
			c-0.002-0.209,0.179-0.391,0.402-0.404L14.88,23c1.045-0.064,1.66,0.583,1.664,1.389c0.003,0.68-0.461,1.334-1.215,1.412
			l1.18,1.293c0.072,0.088,0.1,0.174,0.1,0.253c0,0.228-0.212,0.401-0.47,0.389c-0.136-0.007-0.278-0.071-0.359-0.166l-1.394-1.727
			L13.913,25.839z M13.904,23.758l0.006,1.398l0.996-0.01c0.473-0.005,0.683-0.361,0.68-0.732c0-0.375-0.213-0.723-0.71-0.7
			L13.904,23.758z"/>
	</g>
	<g>
		<path fill="#ECE6EA" d="M6.828,11.688c-0.015-1.119,0.264-2.244,0.755-3.264c0.479-1.031,1.182-1.975,2.08-2.747
			c0.909-0.75,2.051-1.306,3.251-1.405c1.195-0.131,2.372,0.209,3.307,0.813l-0.028,0.084c-1.017-0.319-2.107-0.427-3.15-0.22
			C11.997,5.15,11.03,5.66,10.224,6.347c-0.82,0.677-1.499,1.517-2.051,2.429c-0.551,0.914-0.991,1.9-1.261,2.935L6.828,11.688z"/>
	</g>
	<g>
		<path fill="#6E2771" d="M25.263,6.523c-0.018,0-0.033,0-0.051-0.002c-0.783-0.059-1.014-1.664-1.019-1.73
			c-0.055-0.895,0.33-1.629,0.867-1.879c0.448-0.207,0.828-0.03,1.024,0.066c0.223,0.11,0.374,0.426,0.374,0.76
			c0,0-0.746,0.017-0.749,0c-0.143-0.808-0.682,0.42-0.659,0.746c0.01,0.162,0.153,0.61,0.192,0.771
			c1.395-1.888,2.803-2.485,3.604-2.356c0.386,0.063,0.666,0.506,0.666,0.842h-0.856c-0.077-0.307-0.63-0.065-1.308,0.5
			c-0.662,0.554-1.296,1.115-1.39,1.49C25.905,5.949,25.761,6.523,25.263,6.523z"/>
	</g>
</g>
</svg>
