<?xml version="1.0" encoding="utf-8"?>
<!-- Generator: Adobe Illustrator 15.1.0, SVG Export Plug-In . SVG Version: 6.00 Build 0)  -->
<!DOCTYPE svg PUBLIC "-//W3C//DTD SVG 1.1//EN" "http://www.w3.org/Graphics/SVG/1.1/DTD/svg11.dtd">
<svg version="1.1" id="Layer_1" xmlns="http://www.w3.org/2000/svg" xmlns:xlink="http://www.w3.org/1999/xlink" x="0px" y="0px"
	 width="102.833px" height="42.166px" viewBox="0 0 102.833 42.166" enable-background="new 0 0 102.833 42.166"
	 xml:space="preserve">
<g id="g10" transform="matrix(1.3333333,0,0,-1.3333333,0,249.37333)">
	<g id="g12" transform="scale(0.1)">
		<g id="g14">
			<g>
				<g id="g16">
					<path id="path22" fill="#1E1E1E" d="M318.908,1747.019h11.733v-9.485h8.452v-9.657h-8.452v-17.428
						c0-6.724,2.073-8.101,6.643-8.101c0.769,0,1.201,0,2.153,0.088v-10.181c0,0-1.809-0.432-5.09-0.432
						c-10.781,0-15.527,6.035-15.527,18.281v17.772h-4.739v9.657h4.827V1747.019"/>
					<path id="path24" fill="#1E1E1E" d="M387.133,1718.469v-26.045h-11.829v27.429c0,5.002-3.45,8.112-7.5,8.112
						c-5.002,0-8.188-3.625-8.188-8.456v-27.085h-11.909v62.358h11.909v-22.507c1.897,3.102,6.035,6.379,11.902,6.379
						C384.452,1738.655,387.133,1728.049,387.133,1718.469"/>
					<path id="path26" fill="#1E1E1E" d="M397.123,1711.482v26.052h11.909v-27.429c0-4.995,3.442-8.101,7.5-8.101
						c4.907,0,8.027,3.618,8.027,8.445v27.085h11.895v-45.11h-11.646v5.266c-1.89-3.113-6.211-6.387-12.07-6.387
						C399.877,1691.304,397.123,1701.916,397.123,1711.482"/>
					<path id="path28" fill="#1E1E1E" d="M446.62,1737.534h11.909v-45.11H446.62V1737.534z M452.479,1755.215
						c3.984,0,6.987-2.93,6.987-6.815c0-3.882-3.003-6.808-6.987-6.808c-3.867,0-6.885,2.926-6.885,6.808
						C445.595,1752.285,448.612,1755.215,452.479,1755.215"/>
					<path id="path30" fill="#1E1E1E" d="M466.205,1699.675l6.973,6.204c2.256-2.585,5.259-4.915,10.342-4.915
						c3.384,0,5.537,1.472,5.537,4.05c0,6.899-21.313,4.226-21.313,20.273c0,8.364,7.163,13.367,16.406,13.367
						c8.525,0,13.271-4.486,15.425-8.024l-7.837-5.859c-1.392,1.725-3.896,4.314-8.115,4.314c-2.769,0-4.658-1.384-4.658-3.625
						c0-7.159,21.387-3.71,21.387-19.838c0-8.804-7.573-14.319-17.329-14.319C474.13,1691.304,468.607,1695.793,466.205,1699.675"/>
					<path id="path32" fill="#1E1E1E" d="M539.066,1721.326l-8.364-28.901H517.43l-13.462,45.11h12.935l7.925-32l8.628,32h11.221
						l8.54-32l8.027,32h12.935l-13.55-45.11h-13.271L539.066,1721.326"/>
					<path id="path34" fill="#1E1E1E" d="M580.638,1737.534h11.88v-45.11h-11.88V1737.534z M586.498,1755.215
						c3.97,0,6.987-2.93,6.987-6.815c0-3.882-3.018-6.808-6.987-6.808c-3.882,0-6.899,2.926-6.899,6.808
						C579.598,1752.285,582.616,1755.215,586.498,1755.215"/>
					<path id="path36" fill="#1E1E1E" d="M642.543,1718.469v-26.045h-11.895v27.429c0,5.002-3.442,8.112-7.5,8.112
						c-4.922,0-8.027-3.625-8.027-8.456v-27.085h-11.895v45.11h11.631v-5.259c1.904,3.102,6.226,6.379,12.085,6.379
						C639.804,1738.655,642.543,1728.049,642.543,1718.469"/>
					<path id="path38" fill="#1E1E1E" d="M652.811,1754.783h11.895v-36.226l14.502,18.977h13.345l-15.85-20.442l17.08-24.668
						h-13.975l-15.103,23.291v-23.291h-11.895V1754.783"/>
					<path id="path40" fill="#1E1E1E" d="M729.467,1719.758c-0.234,5.53-4.219,9.148-9.653,9.148c-5.596,0-9.229-3.966-9.741-9.148
						H729.467z M719.638,1738.655c13.975,0,21.914-9.316,21.914-24.067c0-0.864,0-1.721-0.088-2.585h-31.729
						c0.264-6.035,5.083-10.349,11.719-10.349c6.138,0,9.653,3.625,10.957,5.522l7.852-5.947c-1.729-3.193-7.764-9.924-18.984-9.924
						c-14.487,0-23.716,10.012-23.716,23.547C697.562,1728.474,706.791,1738.655,719.638,1738.655"/>
					<path id="path42" fill="#1E1E1E" d="M749.403,1692.424h11.88v62.358h-11.88V1692.424z"/>
					<path id="path44" fill="#1E1E1E" d="M345.802,1645.425l-11.125-33.076h-6.973l-14.011,41.638h6.885l10.891-34.27
						c0,0,0.081,0.161,11.213,34.27h6.24c11.06-34.109,11.133-34.27,11.133-34.27l10.972,34.27h6.885l-14.092-41.638h-6.965
						L345.802,1645.425"/>
					<path id="path46" fill="#1E1E1E" d="M399.291,1616.589c6.094,0,10.327,3.604,10.327,8.65c0,5.215-4.16,8.577-10.4,8.577
						c-6.328,0-10.415-3.691-10.415-8.577C388.803,1620.442,392.889,1616.589,399.291,1616.589z M398.412,1638.862
						c5.288,0,9.287-2.007,10.972-3.765v5.12c0,5.845-3.926,9.207-10.093,9.207c-5.127,0-9.287-1.838-12.246-3.596l-2.563,4.644
						c2.798,1.758,8.32,4.563,15.381,4.563c11.367,0,15.85-6.328,15.85-15.212v-27.473h-5.449l-0.718,3.523
						c-2.168-2.483-5.698-4.556-11.294-4.556c-9.126,0-15.85,5.764-15.85,13.85C382.401,1633.083,389.037,1638.862,398.412,1638.862
						"/>
					<path id="path48" fill="#1E1E1E" d="M441.259,1616.589c6.079,0,10.327,3.604,10.327,8.65c0,5.215-4.175,8.577-10.415,8.577
						c-6.328,0-10.4-3.691-10.4-8.577C430.77,1620.442,434.843,1616.589,441.259,1616.589z M440.365,1638.862
						c5.288,0,9.287-2.007,10.972-3.765v5.12c0,5.845-3.926,9.207-10.078,9.207c-5.127,0-9.287-1.838-12.261-3.596l-2.563,4.644
						c2.798,1.758,8.335,4.563,15.381,4.563c11.367,0,15.85-6.328,15.85-15.212v-27.473h-5.435l-0.718,3.523
						c-2.168-2.483-5.684-4.556-11.294-4.556c-9.126,0-15.864,5.764-15.864,13.85
						C424.354,1633.083,431.005,1638.862,440.365,1638.862"/>
					<path id="path50" fill="#1E1E1E" d="M487.694,1648.706c-9.536,0-12.334-7.529-12.334-16.414v-19.944h-6.313v41.638h6.24v-6.965
						c1.436,4.167,6.079,8.013,12.407,8.013V1648.706"/>
					<path id="path52" fill="#1E1E1E" d="M516.127,1616.999c8.013,0,14.238,6.328,14.238,16.018c0,9.521-5.918,16.252-14.077,16.252
						c-7.852,0-14.253-5.933-14.253-16.252C502.035,1624.287,507.47,1616.999,516.127,1616.999z M495.941,1670.246h6.328v-22.983
						c1.274,2.161,6.006,7.771,14.736,7.771c11.763,0,19.849-9.133,19.849-21.951c0-12.729-8.481-21.768-20.317-21.768
						c-9.067,0-13.477,6.079-14.502,7.603v-6.57h-6.094V1670.246"/>
					<path id="path54" fill="#1E1E1E" d="M564.965,1617.08c8.979,0,15.381,6.804,15.381,16.091c0,9.207-6.401,16.099-15.381,16.099
						c-8.965,0-15.22-6.973-15.22-16.099C549.745,1623.804,556.088,1617.08,564.965,1617.08z M565.053,1655.034
						c12.568,0,21.709-9.375,21.709-21.863s-9.287-21.855-21.797-21.855c-12.495,0-21.694,9.199-21.694,21.855
						C543.27,1645.747,552.645,1655.034,565.053,1655.034"/>
					<path id="path56" fill="#1E1E1E" d="M614.608,1648.706c-9.521,0-12.334-7.529-12.334-16.414v-19.944h-6.313v41.638h6.24v-6.965
						c1.436,4.167,6.094,8.013,12.407,8.013V1648.706"/>
					<path id="path58" fill="#1E1E1E" d="M640.551,1649.27c-8.086,0-14.077-6.643-14.077-16.187c0-9.683,6.24-16.003,14.253-16.003
						c8.569,0,14.077,7.039,14.077,16.003C654.804,1643.183,648.49,1649.27,640.551,1649.27z M627.352,1606.101
						c1.597-0.959,6.563-3.442,12.568-3.442c7.925,0,14.648,3.281,14.648,12.576v3.684c-0.952-1.523-5.273-7.603-14.414-7.603
						c-11.924,0-20.098,9.038-20.098,21.768c0,12.817,8.247,21.951,20.024,21.951c8.657,0,13.359-5.53,14.722-7.771v6.724h6.094
						v-35.867c0-15.784-8.892-21.145-20.903-21.145c-5.435,0-11.279,1.919-14.883,4.167L627.352,1606.101"/>
					<path id="path60" fill="#1E1E1E" d="M134.447,1691.311L29.901,1751.67l104.546,60.363l104.546-60.363L134.447,1691.311z
						 M127.797,1624.719H23.251v115.441l104.546-60.355V1624.719z M245.636,1624.719H141.09v55.085l104.546,60.355V1624.719z
						 M134.447,1827.38l-124.49-71.869v-144.093h248.972v144.093L134.447,1827.38"/>
					<path id="path62" fill="#BDEA18" d="M245.636,1740.16l-104.546-60.355v-55.085h104.546V1740.16"/>
					<path id="path64" fill="#FC3F4D" d="M23.251,1624.719h104.546v55.085L23.251,1740.16V1624.719"/>
					<path id="path66" fill="#FFFFFF" d="M29.901,1751.67l104.546-60.359l104.546,60.359l-104.546,60.363L29.901,1751.67"/>
				</g>
			</g>
		</g>
	</g>
</g>
</svg>
