<?xml version="1.0" encoding="utf-8"?>
<!-- Generator: Adobe Illustrator 15.1.0, SVG Export Plug-In . SVG Version: 6.00 Build 0)  -->
<!DOCTYPE svg PUBLIC "-//W3C//DTD SVG 1.1//EN" "http://www.w3.org/Graphics/SVG/1.1/DTD/svg11.dtd">
<svg version="1.1" id="Layer_1" xmlns="http://www.w3.org/2000/svg" xmlns:xlink="http://www.w3.org/1999/xlink" x="0px" y="0px"
	 width="102.833px" height="42.166px" viewBox="0 0 102.833 42.166" enable-background="new 0 0 102.833 42.166"
	 xml:space="preserve">
<g id="Thuiswinkel_waarborg_2_">
	<g>
		<polygon fill="#010101" points="23.152,6.815 39.017,17.772 39.017,36.112 7.007,36.112 7.007,17.772 		"/>
		<polyline fill="#010101" points="23.152,3.416 7.007,14.252 7.007,16.352 23.152,5.316 39.017,16.35 39.019,14.261 		"/>
		<polygon fill="#FFFFFF" points="23.152,8.764 36.544,17.772 23.152,27.313 9.505,17.772 		"/>
		<polygon fill="#E31B23" points="22.32,28.602 8.222,18.99 8.222,34.838 22.32,34.838 		"/>
		<polygon fill="#B0BC22" points="37.699,18.99 23.857,28.602 23.857,34.838 37.699,34.838 		"/>
	</g>
	<g>
		<path fill="#1B181C" d="M44.972,25.525h-1.319c-0.505,0-0.896-0.154-1.173-0.463s-0.417-0.734-0.417-1.277v-5.004h0.98v1.375
			h1.929v0.937h-1.929v2.819c0,0.248,0.06,0.424,0.174,0.524c0.117,0.103,0.305,0.152,0.561,0.152h1.194V25.525z"/>
		<path fill="#1B181C" d="M50.228,25.525h-0.979v-3.135c0-0.513-0.12-0.875-0.358-1.089c-0.236-0.215-0.558-0.322-0.958-0.322
			c-0.368,0-0.682,0.135-0.934,0.401c-0.254,0.267-0.378,0.604-0.378,1.01v3.135h-0.984v-7.85h0.984v2.943
			c0.156-0.18,0.353-0.321,0.59-0.423s0.499-0.152,0.785-0.152c0.69,0,1.235,0.179,1.634,0.536c0.399,0.357,0.599,0.96,0.599,1.811
			V25.525z"/>
		<path fill="#1B181C" d="M55.844,23.28c0,0.707-0.215,1.276-0.647,1.71c-0.433,0.432-0.984,0.647-1.652,0.647
			c-0.662,0-1.209-0.216-1.641-0.647c-0.433-0.434-0.649-1.003-0.649-1.71v-3.124h0.981v3.124c0,0.414,0.127,0.755,0.38,1.021
			c0.253,0.268,0.564,0.401,0.935,0.401s0.681-0.134,0.935-0.401c0.252-0.266,0.379-0.606,0.379-1.021v-3.124h0.98V23.28z"/>
		<path fill="#1B181C" d="M58.507,18.938c0,0.173-0.051,0.315-0.151,0.429c-0.102,0.112-0.247,0.17-0.442,0.17
			c-0.178,0-0.321-0.059-0.429-0.175c-0.109-0.117-0.162-0.258-0.162-0.424c0-0.165,0.052-0.305,0.155-0.417
			c0.104-0.113,0.25-0.169,0.436-0.169c0.18,0,0.322,0.058,0.431,0.174S58.507,18.781,58.507,18.938z M58.405,25.525h-0.98v-5.369
			h0.98V25.525z"/>
		<path fill="#1B181C" d="M64.236,24.025c0,0.489-0.154,0.861-0.462,1.116c-0.308,0.257-0.711,0.384-1.208,0.384h-2.751v-0.937
			h2.751c0.431,0,0.645-0.173,0.645-0.519c0-0.248-0.374-0.49-1.123-0.727c-0.749-0.238-1.313-0.453-1.697-0.65
			c-0.383-0.195-0.575-0.555-0.575-1.082c0-0.473,0.157-0.834,0.474-1.082s0.771-0.373,1.364-0.373h2.312v0.937h-2.48
			c-0.24,0-0.408,0.036-0.502,0.107c-0.095,0.071-0.142,0.194-0.142,0.366c0,0.24,0.367,0.471,1.101,0.688
			c0.734,0.219,1.299,0.432,1.697,0.638C64.037,23.1,64.236,23.477,64.236,24.025z"/>
		<path fill="#1B181C" d="M72.019,23.799c0,0.512-0.185,0.946-0.548,1.304c-0.364,0.357-0.825,0.535-1.381,0.535
			c-0.324,0-0.622-0.062-0.896-0.187c-0.276-0.123-0.503-0.316-0.683-0.58c-0.165,0.248-0.391,0.438-0.671,0.569
			c-0.282,0.132-0.582,0.197-0.898,0.197c-0.541,0-0.996-0.181-1.364-0.541s-0.552-0.793-0.552-1.298v-3.643h0.98v3.418
			c0,0.346,0.087,0.619,0.26,0.823c0.174,0.203,0.406,0.305,0.699,0.305c0.331,0,0.591-0.103,0.778-0.311
			c0.188-0.207,0.281-0.531,0.281-0.976v-3.26h0.981v3.26c0,0.451,0.091,0.777,0.271,0.981c0.181,0.203,0.439,0.305,0.777,0.305
			c0.294,0,0.531-0.102,0.712-0.305c0.18-0.204,0.271-0.478,0.271-0.823v-3.418h0.981V23.799z"/>
		<path fill="#1B181C" d="M74.725,18.938c0,0.173-0.051,0.315-0.151,0.429c-0.1,0.112-0.247,0.17-0.441,0.17
			c-0.177,0-0.322-0.059-0.43-0.175c-0.107-0.117-0.162-0.258-0.162-0.424c0-0.165,0.052-0.305,0.157-0.417
			c0.104-0.113,0.248-0.169,0.435-0.169c0.18,0,0.323,0.058,0.431,0.174S74.725,18.781,74.725,18.938z M74.624,25.525h-0.98v-5.369
			h0.98V25.525z"/>
		<path fill="#1B181C" d="M80.815,25.525h-0.98v-3.135c0-0.406-0.126-0.743-0.379-1.01c-0.255-0.267-0.565-0.401-0.936-0.401
			c-0.354,0-0.663,0.135-0.923,0.401s-0.391,0.604-0.391,1.01v3.135h-0.981v-3.135c0-0.693,0.214-1.256,0.644-1.693
			c0.428-0.436,0.977-0.653,1.646-0.653c0.663,0,1.212,0.218,1.647,0.653c0.438,0.438,0.653,1,0.653,1.693V25.525z"/>
		<path fill="#1B181C" d="M86.193,20.156l-0.704,1.209c-0.165,0.279-0.312,0.501-0.438,0.67c-0.13,0.17-0.261,0.272-0.396,0.31
			c0.414,0.099,0.721,0.272,0.923,0.524c0.201,0.252,0.302,0.611,0.302,1.077v1.579H84.9v-1.467c0-0.322-0.08-0.564-0.238-0.728
			c-0.158-0.161-0.371-0.241-0.644-0.241h-1.116v2.436h-0.979v-7.85h0.979v4.466h0.417c0.392,0,0.665-0.135,0.824-0.406l0.936-1.579
			H86.193z"/>
		<path fill="#1B181C" d="M92.241,23.145c0,0.708-0.272,1.301-0.817,1.777c-0.545,0.478-1.209,0.716-1.991,0.716
			c-0.759,0-1.414-0.263-1.962-0.789c-0.549-0.525-0.824-1.195-0.824-2.008c0-0.804,0.272-1.472,0.818-2.001
			c0.545-0.531,1.201-0.796,1.968-0.796c0.61,0,1.129,0.146,1.562,0.439c0.434,0.294,0.781,0.711,1.044,1.252l-3.632,2.02
			l-0.407-0.78l2.652-1.475c-0.181-0.181-0.357-0.313-0.53-0.396c-0.172-0.083-0.403-0.125-0.688-0.125
			c-0.52,0-0.943,0.171-1.27,0.514c-0.327,0.343-0.49,0.792-0.49,1.348c0,0.55,0.164,0.996,0.496,1.343
			c0.331,0.346,0.752,0.519,1.263,0.519c0.542,0,0.949-0.146,1.224-0.435c0.275-0.289,0.469-0.705,0.582-1.246L92.241,23.145z"/>
		<path fill="#1B181C" d="M94.293,25.525h-0.981v-7.85h0.981V25.525z"/>
	</g>
	<g>
		<path fill="#1B181C" d="M52.975,33.344c0,0.512-0.183,0.944-0.547,1.303c-0.365,0.356-0.825,0.535-1.382,0.535
			c-0.323,0-0.623-0.063-0.896-0.187c-0.274-0.124-0.502-0.317-0.682-0.581c-0.166,0.249-0.39,0.438-0.672,0.57
			c-0.282,0.131-0.581,0.197-0.896,0.197c-0.542,0-0.997-0.181-1.365-0.541c-0.368-0.361-0.553-0.793-0.553-1.297V29.7h0.981v3.417
			c0,0.347,0.087,0.62,0.259,0.824c0.173,0.203,0.406,0.304,0.698,0.304c0.332,0,0.592-0.103,0.78-0.31
			c0.188-0.207,0.281-0.532,0.281-0.976V29.7h0.981v3.26c0,0.45,0.091,0.777,0.271,0.981c0.18,0.203,0.439,0.304,0.777,0.304
			c0.295,0,0.532-0.101,0.712-0.304c0.181-0.204,0.271-0.478,0.271-0.824V29.7h0.981V33.344z"/>
		<path fill="#1B181C" d="M59.326,35.068h-0.982v-3.021c0-0.475-0.171-0.847-0.516-1.117c-0.342-0.271-0.756-0.406-1.238-0.406
			c-0.528,0-0.956,0.183-1.284,0.547c-0.327,0.365-0.492,0.811-0.492,1.337c0,0.503,0.168,0.937,0.503,1.297
			c0.337,0.361,0.757,0.541,1.264,0.541c0.271,0,0.518-0.063,0.741-0.191c0.223-0.128,0.427-0.312,0.617-0.553v1.162
			c-0.242,0.181-0.464,0.312-0.662,0.395c-0.2,0.083-0.466,0.124-0.798,0.124c-0.761,0-1.393-0.276-1.894-0.828
			c-0.503-0.553-0.752-1.229-0.752-2.025c0-0.789,0.251-1.443,0.755-1.963s1.177-0.777,2.02-0.777c0.833,0,1.496,0.229,1.983,0.688
			c0.489,0.459,0.735,1.079,0.735,1.861V35.068z"/>
		<path fill="#1B181C" d="M65.574,35.068h-0.981v-3.021c0-0.475-0.172-0.847-0.517-1.117c-0.343-0.271-0.755-0.406-1.238-0.406
			c-0.528,0-0.955,0.183-1.283,0.547c-0.328,0.365-0.493,0.811-0.493,1.337c0,0.503,0.169,0.937,0.505,1.297
			c0.335,0.361,0.755,0.541,1.261,0.541c0.272,0,0.52-0.063,0.741-0.191c0.224-0.128,0.429-0.312,0.617-0.553v1.162
			c-0.241,0.181-0.462,0.312-0.661,0.395c-0.2,0.083-0.466,0.124-0.797,0.124c-0.763,0-1.394-0.276-1.895-0.828
			c-0.501-0.553-0.752-1.229-0.752-2.025c0-0.789,0.252-1.443,0.755-1.963c0.504-0.52,1.178-0.777,2.02-0.777
			c0.835,0,1.497,0.229,1.984,0.688c0.488,0.459,0.734,1.079,0.734,1.861V35.068z"/>
		<path fill="#1B181C" d="M69.171,30.523h-0.147c-0.488,0-0.862,0.164-1.122,0.49c-0.26,0.327-0.389,0.846-0.389,1.552v2.503h-0.982
			V29.7h0.938v0.609c0.172-0.256,0.379-0.44,0.619-0.553c0.242-0.112,0.526-0.169,0.858-0.169h0.226V30.523z"/>
		<path fill="#1B181C" d="M75.091,32.249c0,0.827-0.251,1.522-0.755,2.087c-0.504,0.563-1.181,0.846-2.03,0.846
			c-0.789,0-1.439-0.272-1.946-0.818c-0.507-0.545-0.761-1.258-0.761-2.136v-5.009h0.981v4.828c0,0.707,0.163,1.249,0.492,1.629
			c0.328,0.38,0.741,0.569,1.238,0.569c0.528,0,0.96-0.175,1.296-0.523c0.336-0.351,0.505-0.8,0.505-1.349
			c0-0.557-0.163-1.003-0.487-1.342c-0.325-0.338-0.755-0.508-1.291-0.508c-0.227,0-0.455,0.042-0.685,0.124
			c-0.23,0.083-0.455,0.2-0.675,0.35v-1.038c0.234-0.127,0.478-0.221,0.734-0.281c0.256-0.061,0.518-0.09,0.789-0.09
			c0.699,0,1.307,0.258,1.821,0.771C74.833,30.875,75.091,31.505,75.091,32.249z"/>
		<path fill="#1B181C" d="M81.306,32.385c0,0.813-0.275,1.481-0.823,2.008c-0.548,0.525-1.207,0.789-1.975,0.789
			c-0.759,0-1.413-0.264-1.961-0.789c-0.55-0.526-0.824-1.195-0.824-2.008c0-0.805,0.272-1.473,0.818-2.002
			c0.544-0.531,1.2-0.795,1.967-0.795c0.761,0,1.416,0.264,1.969,0.795C81.03,30.912,81.306,31.58,81.306,32.385z M80.269,32.385
			c0-0.549-0.166-0.996-0.497-1.343c-0.33-0.345-0.752-0.519-1.264-0.519c-0.518,0-0.94,0.171-1.269,0.514
			c-0.326,0.342-0.489,0.791-0.489,1.348c0,0.549,0.164,0.996,0.495,1.342c0.33,0.346,0.752,0.519,1.263,0.519
			c0.512,0,0.934-0.173,1.264-0.519C80.103,33.381,80.269,32.934,80.269,32.385z"/>
		<path fill="#1B181C" d="M84.78,30.523h-0.146c-0.489,0-0.863,0.164-1.123,0.49c-0.26,0.327-0.39,0.846-0.39,1.552v2.503H82.14
			V29.7h0.937v0.609c0.174-0.256,0.381-0.44,0.62-0.553c0.24-0.112,0.526-0.169,0.856-0.169h0.227V30.523z"/>
		<path fill="#1B181C" d="M90.543,34.641c0,0.97-0.26,1.709-0.778,2.216s-1.196,0.762-2.029,0.762c-0.302,0-0.588-0.024-0.858-0.073
			c-0.27-0.049-0.575-0.127-0.914-0.231l0.236-0.902c0.295,0.083,0.563,0.147,0.807,0.197c0.244,0.049,0.474,0.073,0.684,0.073
			c0.519,0,0.961-0.133,1.325-0.4c0.364-0.267,0.547-0.701,0.547-1.303v-2.504c0-0.586-0.166-1.058-0.498-1.416
			c-0.332-0.355-0.735-0.535-1.211-0.535c-0.558,0-0.989,0.189-1.296,0.57c-0.304,0.379-0.458,0.851-0.458,1.415
			c0,0.519,0.172,0.938,0.516,1.258c0.343,0.319,0.774,0.479,1.296,0.479c0.204,0,0.403-0.038,0.6-0.112
			c0.196-0.076,0.415-0.184,0.656-0.327v1.016c-0.194,0.105-0.407,0.191-0.633,0.259c-0.226,0.068-0.438,0.102-0.633,0.102
			c-0.784,0-1.444-0.26-1.98-0.777c-0.534-0.52-0.803-1.17-0.803-1.951c0-0.828,0.254-1.512,0.762-2.053
			c0.508-0.543,1.179-0.813,2.014-0.813c0.789,0,1.429,0.264,1.917,0.795c0.488,0.529,0.733,1.152,0.733,1.866V34.641z"/>
	</g>
</g>
</svg>
