<?xml version="1.0" encoding="utf-8"?>
<!-- Generator: Adobe Illustrator 15.1.0, SVG Export Plug-In . SVG Version: 6.00 Build 0)  -->
<!DOCTYPE svg PUBLIC "-//W3C//DTD SVG 1.1//EN" "http://www.w3.org/Graphics/SVG/1.1/DTD/svg11.dtd">
<svg version="1.1" id="Layer_1" xmlns="http://www.w3.org/2000/svg" xmlns:xlink="http://www.w3.org/1999/xlink" x="0px" y="0px"
	 width="84.833px" height="42.166px" viewBox="0 0 84.833 42.166" enable-background="new 0 0 84.833 42.166" xml:space="preserve">
<g id="Thuiswinkel_waarborg_2_" display="none">
	<g display="inline">
		<polygon fill="#010101" points="17.819,6.815 33.684,17.772 33.684,36.112 1.674,36.112 1.674,17.772 		"/>
		<polyline fill="#010101" points="17.819,3.416 1.674,14.252 1.674,16.352 17.819,5.316 33.684,16.35 33.686,14.261 		"/>
		<polygon fill="#FFFFFF" points="17.819,8.764 31.211,17.772 17.819,27.313 4.172,17.772 		"/>
		<polygon fill="#E31B23" points="16.987,28.602 2.889,18.99 2.889,34.838 16.987,34.838 		"/>
		<polygon fill="#B0BC22" points="32.366,18.99 18.524,28.602 18.524,34.838 32.366,34.838 		"/>
	</g>
	<g display="inline">
		<path fill="#1B181C" d="M39.639,25.525H38.32c-0.505,0-0.896-0.154-1.173-0.463s-0.417-0.734-0.417-1.277v-5.004h0.98v1.375h1.929
			v0.937H37.71v2.819c0,0.248,0.06,0.424,0.174,0.524c0.117,0.103,0.305,0.152,0.561,0.152h1.194V25.525z"/>
		<path fill="#1B181C" d="M44.895,25.525h-0.979v-3.135c0-0.513-0.12-0.875-0.358-1.089c-0.236-0.215-0.558-0.322-0.958-0.322
			c-0.368,0-0.682,0.135-0.934,0.401c-0.254,0.267-0.378,0.604-0.378,1.01v3.135h-0.984v-7.85h0.984v2.943
			c0.156-0.18,0.353-0.321,0.59-0.423s0.499-0.152,0.785-0.152c0.69,0,1.235,0.179,1.634,0.536c0.399,0.357,0.599,0.96,0.599,1.811
			V25.525z"/>
		<path fill="#1B181C" d="M50.511,23.28c0,0.707-0.215,1.276-0.647,1.71c-0.433,0.432-0.984,0.647-1.652,0.647
			c-0.662,0-1.209-0.216-1.641-0.647c-0.433-0.434-0.649-1.003-0.649-1.71v-3.124h0.981v3.124c0,0.414,0.127,0.755,0.38,1.021
			c0.253,0.268,0.564,0.401,0.935,0.401s0.681-0.134,0.935-0.401c0.252-0.266,0.379-0.606,0.379-1.021v-3.124h0.98V23.28z"/>
		<path fill="#1B181C" d="M53.174,18.938c0,0.173-0.051,0.315-0.151,0.429c-0.102,0.112-0.247,0.17-0.442,0.17
			c-0.178,0-0.321-0.059-0.429-0.175c-0.109-0.117-0.162-0.258-0.162-0.424c0-0.165,0.052-0.305,0.155-0.417
			c0.104-0.113,0.25-0.169,0.436-0.169c0.18,0,0.322,0.058,0.431,0.174S53.174,18.781,53.174,18.938z M53.072,25.525h-0.98v-5.369
			h0.98V25.525z"/>
		<path fill="#1B181C" d="M58.903,24.025c0,0.489-0.154,0.861-0.462,1.116c-0.308,0.257-0.711,0.384-1.208,0.384h-2.751v-0.937
			h2.751c0.431,0,0.645-0.173,0.645-0.519c0-0.248-0.374-0.49-1.123-0.727c-0.749-0.238-1.313-0.453-1.697-0.65
			c-0.383-0.195-0.575-0.555-0.575-1.082c0-0.473,0.157-0.834,0.474-1.082s0.771-0.373,1.364-0.373h2.312v0.937h-2.48
			c-0.24,0-0.408,0.036-0.502,0.107c-0.095,0.071-0.142,0.194-0.142,0.366c0,0.24,0.367,0.471,1.101,0.688
			c0.734,0.219,1.299,0.432,1.697,0.638C58.704,23.1,58.903,23.477,58.903,24.025z"/>
		<path fill="#1B181C" d="M66.686,23.799c0,0.512-0.185,0.946-0.548,1.304c-0.364,0.357-0.825,0.535-1.381,0.535
			c-0.324,0-0.622-0.062-0.896-0.187c-0.276-0.123-0.503-0.316-0.683-0.58c-0.165,0.248-0.391,0.438-0.671,0.569
			c-0.282,0.132-0.582,0.197-0.898,0.197c-0.541,0-0.996-0.181-1.364-0.541s-0.552-0.793-0.552-1.298v-3.643h0.98v3.418
			c0,0.346,0.087,0.619,0.26,0.823c0.174,0.203,0.406,0.305,0.699,0.305c0.331,0,0.591-0.103,0.778-0.311
			c0.188-0.207,0.281-0.531,0.281-0.976v-3.26h0.981v3.26c0,0.451,0.091,0.777,0.271,0.981c0.181,0.203,0.439,0.305,0.777,0.305
			c0.294,0,0.531-0.102,0.712-0.305c0.18-0.204,0.271-0.478,0.271-0.823v-3.418h0.981V23.799z"/>
		<path fill="#1B181C" d="M69.392,18.938c0,0.173-0.051,0.315-0.151,0.429c-0.1,0.112-0.247,0.17-0.441,0.17
			c-0.177,0-0.322-0.059-0.43-0.175c-0.107-0.117-0.162-0.258-0.162-0.424c0-0.165,0.052-0.305,0.157-0.417
			c0.104-0.113,0.248-0.169,0.435-0.169c0.18,0,0.323,0.058,0.431,0.174S69.392,18.781,69.392,18.938z M69.291,25.525h-0.98v-5.369
			h0.98V25.525z"/>
		<path fill="#1B181C" d="M75.482,25.525h-0.98v-3.135c0-0.406-0.126-0.743-0.379-1.01c-0.255-0.267-0.565-0.401-0.936-0.401
			c-0.354,0-0.663,0.135-0.923,0.401s-0.391,0.604-0.391,1.01v3.135h-0.981v-3.135c0-0.693,0.214-1.256,0.644-1.693
			c0.428-0.436,0.977-0.653,1.646-0.653c0.663,0,1.212,0.218,1.647,0.653c0.438,0.438,0.653,1,0.653,1.693V25.525z"/>
		<path fill="#1B181C" d="M80.86,20.156l-0.704,1.209c-0.165,0.279-0.312,0.501-0.438,0.67c-0.13,0.17-0.261,0.272-0.396,0.31
			c0.414,0.099,0.721,0.272,0.923,0.524c0.201,0.252,0.302,0.611,0.302,1.077v1.579h-0.979v-1.467c0-0.322-0.08-0.564-0.238-0.728
			c-0.158-0.161-0.371-0.241-0.644-0.241h-1.116v2.436h-0.979v-7.85h0.979v4.466h0.417c0.392,0,0.665-0.135,0.824-0.406l0.936-1.579
			H80.86z"/>
		<path fill="#1B181C" d="M86.908,23.145c0,0.708-0.272,1.301-0.817,1.777c-0.545,0.478-1.209,0.716-1.991,0.716
			c-0.759,0-1.414-0.263-1.962-0.789c-0.549-0.525-0.824-1.195-0.824-2.008c0-0.804,0.272-1.472,0.818-2.001
			c0.545-0.531,1.201-0.796,1.968-0.796c0.61,0,1.129,0.146,1.562,0.439c0.434,0.294,0.781,0.711,1.044,1.252l-3.632,2.02
			l-0.407-0.78l2.652-1.475c-0.181-0.181-0.357-0.313-0.53-0.396c-0.172-0.083-0.403-0.125-0.688-0.125
			c-0.52,0-0.943,0.171-1.27,0.514c-0.327,0.343-0.49,0.792-0.49,1.348c0,0.55,0.164,0.996,0.496,1.343
			c0.331,0.346,0.752,0.519,1.263,0.519c0.542,0,0.949-0.146,1.224-0.435c0.275-0.289,0.469-0.705,0.582-1.246L86.908,23.145z"/>
		<path fill="#1B181C" d="M88.96,25.525h-0.981v-7.85h0.981V25.525z"/>
	</g>
	<g display="inline">
		<path fill="#1B181C" d="M47.642,33.344c0,0.512-0.183,0.944-0.547,1.303c-0.365,0.356-0.825,0.535-1.382,0.535
			c-0.323,0-0.623-0.063-0.896-0.187c-0.274-0.124-0.502-0.317-0.682-0.581c-0.166,0.249-0.39,0.438-0.672,0.57
			c-0.282,0.131-0.581,0.197-0.896,0.197c-0.542,0-0.997-0.181-1.365-0.541c-0.368-0.361-0.553-0.793-0.553-1.297V29.7h0.981v3.417
			c0,0.347,0.087,0.62,0.259,0.824c0.173,0.203,0.406,0.304,0.698,0.304c0.332,0,0.592-0.103,0.78-0.31
			c0.188-0.207,0.281-0.532,0.281-0.976V29.7h0.981v3.26c0,0.45,0.091,0.777,0.271,0.981c0.18,0.203,0.439,0.304,0.777,0.304
			c0.295,0,0.532-0.101,0.712-0.304c0.181-0.204,0.271-0.478,0.271-0.824V29.7h0.981V33.344z"/>
		<path fill="#1B181C" d="M53.993,35.068H53.01v-3.021c0-0.475-0.171-0.847-0.516-1.117c-0.342-0.271-0.756-0.406-1.238-0.406
			c-0.528,0-0.956,0.183-1.284,0.547c-0.327,0.365-0.492,0.811-0.492,1.337c0,0.503,0.168,0.937,0.503,1.297
			c0.337,0.361,0.757,0.541,1.264,0.541c0.271,0,0.518-0.063,0.741-0.191c0.223-0.128,0.427-0.312,0.617-0.553v1.162
			c-0.242,0.181-0.464,0.312-0.662,0.395c-0.2,0.083-0.466,0.124-0.798,0.124c-0.761,0-1.393-0.276-1.894-0.828
			c-0.503-0.553-0.752-1.229-0.752-2.025c0-0.789,0.251-1.443,0.755-1.963s1.177-0.777,2.02-0.777c0.833,0,1.496,0.229,1.983,0.688
			c0.489,0.459,0.735,1.079,0.735,1.861V35.068z"/>
		<path fill="#1B181C" d="M60.241,35.068h-0.981v-3.021c0-0.475-0.172-0.847-0.517-1.117c-0.343-0.271-0.755-0.406-1.238-0.406
			c-0.528,0-0.955,0.183-1.283,0.547c-0.328,0.365-0.493,0.811-0.493,1.337c0,0.503,0.169,0.937,0.505,1.297
			c0.335,0.361,0.755,0.541,1.261,0.541c0.272,0,0.52-0.063,0.741-0.191c0.224-0.128,0.429-0.312,0.617-0.553v1.162
			c-0.241,0.181-0.462,0.312-0.661,0.395c-0.2,0.083-0.466,0.124-0.797,0.124c-0.763,0-1.394-0.276-1.895-0.828
			c-0.501-0.553-0.752-1.229-0.752-2.025c0-0.789,0.252-1.443,0.755-1.963c0.504-0.52,1.178-0.777,2.02-0.777
			c0.835,0,1.497,0.229,1.984,0.688c0.488,0.459,0.734,1.079,0.734,1.861V35.068z"/>
		<path fill="#1B181C" d="M63.838,30.523h-0.147c-0.488,0-0.862,0.164-1.122,0.49c-0.26,0.327-0.389,0.846-0.389,1.552v2.503h-0.982
			V29.7h0.938v0.609c0.172-0.256,0.379-0.44,0.619-0.553c0.242-0.112,0.526-0.169,0.858-0.169h0.226V30.523z"/>
		<path fill="#1B181C" d="M69.758,32.249c0,0.827-0.251,1.522-0.755,2.087c-0.504,0.563-1.181,0.846-2.03,0.846
			c-0.789,0-1.439-0.272-1.946-0.818c-0.507-0.545-0.761-1.258-0.761-2.136v-5.009h0.981v4.828c0,0.707,0.163,1.249,0.492,1.629
			c0.328,0.38,0.741,0.569,1.238,0.569c0.528,0,0.96-0.175,1.296-0.523c0.336-0.351,0.505-0.8,0.505-1.349
			c0-0.557-0.163-1.003-0.487-1.342c-0.325-0.338-0.755-0.508-1.291-0.508c-0.227,0-0.455,0.042-0.685,0.124
			c-0.23,0.083-0.455,0.2-0.675,0.35v-1.038c0.234-0.127,0.478-0.221,0.734-0.281c0.256-0.061,0.518-0.09,0.789-0.09
			c0.699,0,1.307,0.258,1.821,0.771C69.5,30.875,69.758,31.505,69.758,32.249z"/>
		<path fill="#1B181C" d="M75.973,32.385c0,0.813-0.275,1.481-0.823,2.008c-0.548,0.525-1.207,0.789-1.975,0.789
			c-0.759,0-1.413-0.264-1.961-0.789c-0.55-0.526-0.824-1.195-0.824-2.008c0-0.805,0.272-1.473,0.818-2.002
			c0.544-0.531,1.2-0.795,1.967-0.795c0.761,0,1.416,0.264,1.969,0.795C75.697,30.912,75.973,31.58,75.973,32.385z M74.936,32.385
			c0-0.549-0.166-0.996-0.497-1.343c-0.33-0.345-0.752-0.519-1.264-0.519c-0.518,0-0.94,0.171-1.269,0.514
			c-0.326,0.342-0.489,0.791-0.489,1.348c0,0.549,0.164,0.996,0.495,1.342c0.33,0.346,0.752,0.519,1.263,0.519
			c0.512,0,0.934-0.173,1.264-0.519C74.77,33.381,74.936,32.934,74.936,32.385z"/>
		<path fill="#1B181C" d="M79.447,30.523h-0.146c-0.489,0-0.863,0.164-1.123,0.49c-0.26,0.327-0.39,0.846-0.39,1.552v2.503h-0.981
			V29.7h0.937v0.609c0.174-0.256,0.381-0.44,0.62-0.553c0.24-0.112,0.526-0.169,0.856-0.169h0.227V30.523z"/>
		<path fill="#1B181C" d="M85.21,34.641c0,0.97-0.26,1.709-0.778,2.216s-1.196,0.762-2.029,0.762c-0.302,0-0.588-0.024-0.858-0.073
			c-0.27-0.049-0.575-0.127-0.914-0.231l0.236-0.902c0.295,0.083,0.563,0.147,0.807,0.197c0.244,0.049,0.474,0.073,0.684,0.073
			c0.519,0,0.961-0.133,1.325-0.4c0.364-0.267,0.547-0.701,0.547-1.303v-2.504c0-0.586-0.166-1.058-0.498-1.416
			c-0.332-0.355-0.735-0.535-1.211-0.535c-0.558,0-0.989,0.189-1.296,0.57c-0.304,0.379-0.458,0.851-0.458,1.415
			c0,0.519,0.172,0.938,0.516,1.258c0.343,0.319,0.774,0.479,1.296,0.479c0.204,0,0.403-0.038,0.6-0.112
			c0.196-0.076,0.415-0.184,0.656-0.327v1.016c-0.194,0.105-0.407,0.191-0.633,0.259c-0.226,0.068-0.438,0.102-0.633,0.102
			c-0.784,0-1.444-0.26-1.98-0.777c-0.534-0.52-0.803-1.17-0.803-1.951c0-0.828,0.254-1.512,0.762-2.053
			c0.508-0.543,1.179-0.813,2.014-0.813c0.789,0,1.429,0.264,1.917,0.795c0.488,0.529,0.733,1.152,0.733,1.866V34.641z"/>
	</g>
</g>
<g id="Verisign_secure_2_">
	<path fill="#9B1B36" d="M30.884,10.914h35.785c3.595,0.006,6.584,1.142,9.109,3.469c2.486,2.303,3.701,5.047,3.739,8.394
		l0.512-0.005l-0.512-0.005c-0.038,3.278-1.252,5.99-3.74,8.329l0.001-0.002c-2.529,2.33-5.52,3.497-9.109,3.502H30.884
		c-0.285,0-0.515,0.229-0.515,0.513s0.229,0.512,0.515,0.512h35.785c3.814,0.005,7.108-1.274,9.806-3.773l0.002-0.002
		c2.67-2.49,4.037-5.533,4.066-9.068v-0.01c-0.029-3.598-1.394-6.675-4.068-9.137c-2.7-2.499-5.993-3.745-9.806-3.74H30.884
		c-0.285,0-0.515,0.229-0.515,0.513S30.599,10.914,30.884,10.914z M30.884,10.914h35.785c3.595,0.006,6.584,1.142,9.109,3.469
		c2.486,2.303,3.701,5.047,3.739,8.394l0.512-0.005l-0.512-0.005c-0.038,3.278-1.252,5.99-3.74,8.329l0.001-0.002
		c-2.529,2.33-5.52,3.497-9.109,3.502H30.884c-0.285,0-0.515,0.229-0.515,0.513s0.229,0.512,0.515,0.512h35.785
		c3.814,0.005,7.108-1.274,9.806-3.773l0.002-0.002c2.67-2.49,4.037-5.533,4.066-9.068v-0.01c-0.029-3.598-1.394-6.675-4.068-9.137
		c-2.7-2.499-5.993-3.745-9.806-3.74H30.884c-0.285,0-0.515,0.229-0.515,0.513S30.599,10.914,30.884,10.914z"/>
	<path fill-rule="evenodd" clip-rule="evenodd" fill="#9B1B36" d="M27.707,10.633c2.051,1.191,3.672,2.812,4.862,4.829
		c1.191,2.051,1.786,4.333,1.819,6.813c-0.033,2.514-0.628,4.796-1.819,6.813c-1.19,2.019-2.812,3.639-4.862,4.862
		c-2.017,1.19-4.266,1.786-6.813,1.819c-2.479-0.033-4.762-0.629-6.78-1.819c-2.05-1.224-3.671-2.844-4.828-4.862
		c-1.224-2.017-1.819-4.266-1.852-6.813c0.032-2.48,0.628-4.763,1.852-6.813c1.157-2.018,2.778-3.638,4.828-4.829
		c2.019-1.189,4.301-1.818,6.78-1.852C23.408,8.814,25.69,9.443,27.707,10.633 M20.894,6.036c-3.01,0.032-5.754,0.761-8.201,2.216
		c-2.416,1.455-4.334,3.407-5.821,5.82c-1.455,2.449-2.184,5.193-2.217,8.203c0.033,3.01,0.762,5.755,2.217,8.202
		c1.487,2.448,3.405,4.399,5.821,5.888c2.447,1.422,5.191,2.149,8.201,2.216c3.044-0.034,5.789-0.761,8.235-2.216
		c2.448-1.488,4.398-3.439,5.854-5.888c1.423-2.447,2.184-5.192,2.218-8.202c-0.034-3.01-0.764-5.754-2.218-8.203
		c-1.455-2.413-3.405-4.365-5.854-5.82C26.683,6.797,23.938,6.068,20.894,6.036z"/>
	<polyline fill="#9B1B36" points="41.301,17.579 42.426,17.579 43.616,20.854 44.839,17.579 45.932,17.579 44.079,22.242 
		43.186,22.242 41.301,17.579 	"/>
	<path fill="#9B1B36" d="M54.233,18.671h1.026v3.538h-1.026V18.671z M54.202,17.381h1.058v0.894h-1.058V17.381z M51.025,18.671
		h0.992v0.694c0.099-0.231,0.265-0.43,0.428-0.563c0.168-0.166,0.399-0.232,0.697-0.199v1.059h-0.035
		c-0.363,0-0.626,0.1-0.794,0.299c-0.197,0.197-0.296,0.529-0.296,0.958v1.29h-0.992V18.671z M48.875,20.158
		c-0.033-0.23-0.1-0.396-0.232-0.562c-0.131-0.134-0.297-0.198-0.495-0.198c-0.231,0-0.396,0.064-0.528,0.198
		c-0.133,0.165-0.233,0.331-0.264,0.562H48.875z M48.212,22.309c-0.231,0-0.495-0.066-0.727-0.165
		c-0.232-0.065-0.431-0.198-0.596-0.364c-0.166-0.165-0.266-0.331-0.364-0.563s-0.163-0.496-0.163-0.76
		c0-0.266,0.031-0.496,0.131-0.729c0.099-0.231,0.199-0.43,0.363-0.595c0.166-0.165,0.33-0.298,0.563-0.397s0.462-0.133,0.728-0.133
		c0.298,0,0.53,0.067,0.761,0.166c0.232,0.1,0.396,0.232,0.53,0.43c0.132,0.166,0.229,0.365,0.329,0.596
		c0.067,0.231,0.101,0.496,0.101,0.728l-0.033,0.132v0.133h-2.449c0.034,0.231,0.134,0.396,0.298,0.529
		c0.167,0.099,0.332,0.165,0.563,0.165c0.166,0,0.298-0.033,0.463-0.099c0.1-0.033,0.23-0.133,0.396-0.265l0.562,0.496
		c-0.164,0.231-0.363,0.397-0.595,0.495C48.841,22.242,48.544,22.309,48.212,22.309z"/>
	<path fill="#9B1B36" d="M58.367,22.275c-0.363,0-0.695-0.066-1.059-0.197c-0.331-0.101-0.628-0.299-0.926-0.563l0.629-0.695
		c0.197,0.165,0.396,0.298,0.628,0.396c0.231,0.1,0.464,0.166,0.728,0.166c0.23,0,0.397-0.033,0.497-0.133
		c0.098-0.066,0.165-0.166,0.165-0.297v-0.2l-0.165-0.131l-0.267-0.132l-0.494-0.166l-0.63-0.166l-0.496-0.264l-0.297-0.397
		c-0.066-0.165-0.099-0.33-0.099-0.562v-0.033l0.099-0.563c0.099-0.166,0.198-0.33,0.364-0.43c0.133-0.133,0.297-0.231,0.495-0.299
		c0.199-0.065,0.431-0.099,0.661-0.099c0.332,0,0.629,0.066,0.926,0.166c0.3,0.099,0.563,0.231,0.795,0.43l-0.528,0.761
		l-0.629-0.331c-0.198-0.099-0.397-0.132-0.596-0.132s-0.33,0.033-0.43,0.132c-0.1,0.065-0.167,0.166-0.167,0.265v0.033l0.067,0.199
		l0.133,0.132l0.331,0.132l0.494,0.133l0.629,0.23c0.167,0.066,0.331,0.166,0.464,0.266l0.266,0.363
		c0.065,0.166,0.098,0.331,0.098,0.529v0.033c0,0.23-0.032,0.43-0.132,0.595c-0.066,0.166-0.166,0.331-0.33,0.462
		c-0.165,0.102-0.332,0.199-0.563,0.267C58.83,22.242,58.597,22.275,58.367,22.275"/>
	<path fill="#9B1B36" d="M61.343,18.671h1.025v3.538h-1.025V18.671z M61.311,17.381h1.058v0.894h-1.058V17.381z"/>
	<path fill="#9B1B36" d="M68.751,18.671h0.993v0.496l0.199-0.198l0.23-0.199l0.264-0.133l0.331-0.033
		c0.397,0,0.694,0.133,0.894,0.365c0.231,0.23,0.33,0.528,0.33,0.959v2.281h-1.025v-1.983c0-0.231-0.032-0.397-0.131-0.53
		c-0.1-0.099-0.265-0.165-0.464-0.165c-0.198,0-0.363,0.066-0.463,0.165c-0.098,0.133-0.165,0.299-0.165,0.53v1.983h-0.993V18.671
		 M65.578,21.084l0.363-0.065c0.1-0.033,0.166-0.065,0.264-0.165c0.066-0.066,0.133-0.166,0.166-0.266
		c0.033-0.098,0.066-0.197,0.066-0.33l-0.066-0.33c-0.033-0.1-0.1-0.199-0.166-0.266l-0.264-0.165l-0.363-0.065l-0.332,0.065
		l-0.264,0.165c-0.101,0.066-0.166,0.166-0.198,0.266l-0.066,0.33c0,0.265,0.099,0.463,0.265,0.596
		C65.146,21.019,65.346,21.084,65.578,21.084z M65.478,23.268l-0.826-0.1c-0.299-0.033-0.529-0.131-0.762-0.265l0.364-0.76
		l0.562,0.264l0.629,0.066c0.331,0,0.596-0.066,0.76-0.231c0.166-0.164,0.232-0.396,0.232-0.727V21.35
		c-0.133,0.166-0.298,0.33-0.463,0.43s-0.396,0.131-0.695,0.131c-0.197,0-0.397-0.031-0.595-0.098
		c-0.166-0.066-0.331-0.166-0.497-0.331c-0.132-0.132-0.229-0.298-0.33-0.496c-0.099-0.232-0.133-0.463-0.133-0.728
		c0-0.264,0.034-0.496,0.133-0.693c0.101-0.232,0.198-0.397,0.33-0.529c0.166-0.166,0.331-0.266,0.53-0.331l0.562-0.101
		c0.299,0,0.53,0.067,0.695,0.166c0.165,0.1,0.33,0.199,0.463,0.364v-0.463h0.992v2.744c0,0.628-0.132,1.091-0.432,1.39
		c-0.164,0.166-0.394,0.297-0.627,0.363L65.478,23.268z"/>
	<path fill="#9B1B36" d="M43.88,28.063c-0.365,0-0.694-0.064-1.059-0.197c-0.332-0.1-0.628-0.298-0.926-0.563l0.63-0.693
		c0.197,0.164,0.396,0.297,0.627,0.396c0.23,0.1,0.463,0.164,0.728,0.164c0.232,0,0.396-0.033,0.495-0.131
		c0.1-0.066,0.166-0.166,0.166-0.299v-0.198l-0.166-0.133l-0.263-0.132l-0.497-0.165l-0.628-0.166l-0.498-0.265l-0.296-0.396
		c-0.066-0.166-0.099-0.33-0.099-0.563V24.69l0.099-0.563c0.099-0.165,0.198-0.331,0.363-0.43c0.134-0.134,0.3-0.231,0.496-0.3
		c0.199-0.064,0.43-0.098,0.661-0.098c0.331,0,0.63,0.066,0.928,0.166c0.297,0.098,0.563,0.231,0.793,0.43l-0.529,0.76l-0.629-0.33
		c-0.198-0.1-0.396-0.132-0.595-0.132c-0.199,0-0.331,0.032-0.43,0.132c-0.1,0.065-0.166,0.165-0.166,0.266v0.032l0.066,0.198
		l0.133,0.133l0.33,0.133l0.497,0.131l0.629,0.232c0.164,0.064,0.329,0.164,0.463,0.264l0.263,0.365
		c0.068,0.164,0.101,0.329,0.101,0.529v0.031c0,0.232-0.032,0.431-0.133,0.596c-0.066,0.166-0.166,0.331-0.33,0.463
		c-0.166,0.1-0.331,0.198-0.563,0.265C44.344,28.03,44.113,28.063,43.88,28.063"/>
	<path fill="#9B1B36" d="M53.239,28.097c-0.263,0-0.495-0.066-0.726-0.165c-0.231-0.1-0.43-0.232-0.596-0.398
		c-0.165-0.164-0.263-0.33-0.363-0.561c-0.101-0.232-0.166-0.497-0.166-0.729c0-0.264,0.065-0.495,0.166-0.729
		c0.101-0.23,0.198-0.428,0.363-0.594c0.166-0.166,0.364-0.298,0.596-0.396c0.23-0.1,0.463-0.134,0.76-0.134
		c0.332,0,0.596,0.065,0.827,0.166c0.23,0.099,0.397,0.231,0.563,0.431l-0.595,0.661c-0.101-0.134-0.232-0.231-0.364-0.299
		c-0.099-0.065-0.264-0.099-0.465-0.099l-0.33,0.066l-0.264,0.23l-0.2,0.299l-0.064,0.364v0.032c0,0.133,0.033,0.266,0.064,0.365
		c0.036,0.131,0.102,0.23,0.2,0.33c0.065,0.1,0.165,0.166,0.264,0.197c0.102,0.033,0.233,0.066,0.398,0.066
		c0.166,0,0.298-0.033,0.43-0.098L54.1,26.84l0.596,0.596c-0.166,0.165-0.365,0.33-0.596,0.462
		C53.869,28.03,53.605,28.097,53.239,28.097 M49.272,25.946c-0.033-0.231-0.101-0.397-0.23-0.562
		c-0.134-0.133-0.3-0.199-0.497-0.199c-0.233,0-0.397,0.066-0.529,0.199c-0.134,0.164-0.23,0.33-0.265,0.562H49.272z M48.611,28.097
		c-0.232,0-0.497-0.066-0.729-0.165c-0.229-0.066-0.428-0.199-0.594-0.364s-0.265-0.331-0.365-0.562
		c-0.099-0.232-0.163-0.496-0.163-0.762c0-0.264,0.032-0.495,0.131-0.729c0.101-0.23,0.198-0.428,0.363-0.594
		c0.166-0.166,0.331-0.298,0.563-0.396c0.23-0.1,0.462-0.134,0.728-0.134c0.297,0,0.528,0.065,0.76,0.166
		c0.231,0.099,0.397,0.231,0.53,0.431c0.132,0.165,0.23,0.362,0.329,0.594c0.067,0.232,0.101,0.498,0.101,0.729l-0.033,0.133v0.132
		h-2.446c0.032,0.231,0.131,0.397,0.295,0.53c0.167,0.098,0.333,0.164,0.563,0.164c0.167,0,0.298-0.033,0.464-0.1
		c0.099-0.033,0.232-0.131,0.397-0.264l0.562,0.496c-0.164,0.231-0.363,0.396-0.595,0.495C49.239,28.03,48.94,28.097,48.611,28.097z
		"/>
	<path fill="#9B1B36" d="M57.109,28.063c-0.361,0-0.661-0.131-0.893-0.363c-0.198-0.231-0.298-0.529-0.298-0.959v-2.283h0.994v1.986
		c0,0.23,0.064,0.396,0.164,0.529c0.101,0.099,0.265,0.164,0.463,0.164c0.164,0,0.331-0.065,0.464-0.164
		c0.1-0.133,0.165-0.299,0.165-0.529v-1.986h0.992v3.541h-0.992v-0.496l-0.198,0.197l-0.231,0.198l-0.266,0.133L57.109,28.063"/>
	<path fill="#9B1B36" d="M70.408,27.203c0.131,0,0.263-0.033,0.361-0.066l0.267-0.197c0.064-0.1,0.131-0.199,0.163-0.299
		l0.068-0.396v-0.032l-0.068-0.397l-0.163-0.299l-0.267-0.197c-0.099-0.033-0.23-0.066-0.361-0.066l-0.332,0.066l-0.264,0.197
		l-0.199,0.299c-0.035,0.1-0.069,0.23-0.069,0.397v0.032l0.069,0.396c0.032,0.1,0.099,0.199,0.199,0.299l0.264,0.197L70.408,27.203
		 M70.174,28.063c-0.23,0-0.43-0.032-0.631-0.131c-0.163-0.066-0.329-0.166-0.493-0.331c-0.166-0.165-0.266-0.364-0.365-0.595
		c-0.099-0.232-0.132-0.464-0.132-0.762v-0.032c0-0.298,0.033-0.563,0.132-0.794c0.1-0.232,0.199-0.397,0.365-0.563
		c0.132-0.165,0.298-0.264,0.493-0.33c0.201-0.1,0.4-0.134,0.631-0.134c0.264,0,0.496,0.065,0.662,0.166
		c0.164,0.099,0.33,0.198,0.431,0.364v-1.754h0.99v4.83h-0.99v-0.496c-0.101,0.164-0.267,0.297-0.431,0.396
		C70.67,27.998,70.438,28.063,70.174,28.063z M66.404,25.946c-0.033-0.231-0.1-0.397-0.23-0.562
		c-0.133-0.133-0.299-0.199-0.496-0.199c-0.232,0-0.398,0.066-0.531,0.199c-0.131,0.164-0.23,0.33-0.265,0.562H66.404z
		 M65.742,28.097c-0.231,0-0.496-0.066-0.727-0.165c-0.231-0.066-0.431-0.199-0.594-0.364c-0.167-0.165-0.267-0.331-0.366-0.562
		c-0.098-0.232-0.165-0.496-0.165-0.762c0-0.264,0.032-0.495,0.133-0.729c0.1-0.23,0.199-0.428,0.363-0.594
		c0.165-0.166,0.331-0.298,0.562-0.396c0.233-0.1,0.464-0.134,0.729-0.134c0.297,0,0.527,0.065,0.76,0.166
		c0.232,0.099,0.396,0.231,0.529,0.431c0.132,0.165,0.231,0.362,0.331,0.594c0.066,0.232,0.098,0.498,0.098,0.729l-0.031,0.133
		v0.132h-2.448c0.032,0.231,0.132,0.397,0.297,0.53c0.166,0.098,0.331,0.164,0.563,0.164c0.165,0,0.297-0.033,0.463-0.1
		c0.099-0.033,0.231-0.131,0.396-0.264l0.563,0.496c-0.165,0.231-0.364,0.396-0.594,0.495C66.371,28.03,66.073,28.097,65.742,28.097
		z M60.749,24.457h0.992v0.696c0.099-0.231,0.264-0.431,0.43-0.562c0.165-0.166,0.397-0.232,0.694-0.2v1.06h-0.032
		c-0.365,0-0.629,0.098-0.794,0.298c-0.199,0.197-0.298,0.528-0.298,0.958v1.291h-0.992V24.457z"/>
	<path fill-rule="evenodd" clip-rule="evenodd" fill="#9B1B36" d="M73.978,9.443H75.4v0.33h-0.496v1.355h-0.397V9.773h-0.528V9.443
		 M77.516,9.443v1.686H77.12v-1.09l-0.431,0.727h-0.064l-0.429-0.727v1.09h-0.397V9.443h0.428l0.463,0.727l0.431-0.727H77.516z"/>
	<path fill-rule="evenodd" clip-rule="evenodd" d="M30.553,14.438h-1.226v1.256h1.226V14.438z M29.328,11.262h1.226v1.224h-1.226
		V11.262z M32.502,8.02h-1.258V6.797h1.258V8.02z M34.951,5.475h2.414V4.15h-2.414V8.02h-2.448v1.258h-2.083v0.861h-1.092v1.123
		h-1.322v1.953H26.75v1.223H25.92v1.256h-0.924c-1.854,2.746-3.311,5.457-4.366,8.203c-2.381-3.342-4.598-5.326-6.649-5.986
		c-0.562-0.166-0.958-0.033-1.189,0.463s-0.033,1.124,0.661,1.853c2.082,2.28,4.002,5.523,5.756,9.657
		c0.263,0.661,0.86,1.025,1.817,1.123c0.894,0.066,1.489-0.264,1.755-0.991c1.289-3.405,2.776-6.316,4.496-8.798v-1.422h0.992V18.57
		h1.059v-1.487h1.226v-1.39h1.255v-1.256h0.994v-1.521h1.089v-1.025h1.06V9.277h1.224V8.02h1.423V6.764h-1.423V8.02h-1.224v1.258
		h-1.224v1.225h-1.225V9.277h1.225V5.475H34.951z"/>
	<rect x="34.951" y="5.475" fill="#A11C48" width="1.224" height="1.289"/>
	<rect x="29.328" y="11.262" fill="#FFFFFF" width="1.226" height="1.224"/>
	<rect x="38.753" y="4.15" fill="#9B1B36" width="1.324" height="1.324"/>
	<polyline points="38.788,4.15 38.788,2.829 37.464,2.829 37.464,4.15 	"/>
	<rect x="38.753" y="1.506" fill="#9B1B36" width="1.324" height="1.323"/>
</g>
</svg>
